%TF.GenerationSoftware,KiCad,Pcbnew,7.0.2*%
%TF.CreationDate,2023-05-15T17:20:20+02:00*%
%TF.ProjectId,projektkicad,70726f6a-656b-4746-9b69-6361642e6b69,rev?*%
%TF.SameCoordinates,Original*%
%TF.FileFunction,Soldermask,Bot*%
%TF.FilePolarity,Negative*%
%FSLAX46Y46*%
G04 Gerber Fmt 4.6, Leading zero omitted, Abs format (unit mm)*
G04 Created by KiCad (PCBNEW 7.0.2) date 2023-05-15 17:20:20*
%MOMM*%
%LPD*%
G01*
G04 APERTURE LIST*
G04 Aperture macros list*
%AMRoundRect*
0 Rectangle with rounded corners*
0 $1 Rounding radius*
0 $2 $3 $4 $5 $6 $7 $8 $9 X,Y pos of 4 corners*
0 Add a 4 corners polygon primitive as box body*
4,1,4,$2,$3,$4,$5,$6,$7,$8,$9,$2,$3,0*
0 Add four circle primitives for the rounded corners*
1,1,$1+$1,$2,$3*
1,1,$1+$1,$4,$5*
1,1,$1+$1,$6,$7*
1,1,$1+$1,$8,$9*
0 Add four rect primitives between the rounded corners*
20,1,$1+$1,$2,$3,$4,$5,0*
20,1,$1+$1,$4,$5,$6,$7,0*
20,1,$1+$1,$6,$7,$8,$9,0*
20,1,$1+$1,$8,$9,$2,$3,0*%
G04 Aperture macros list end*
%ADD10RoundRect,0.250000X-1.550000X0.650000X-1.550000X-0.650000X1.550000X-0.650000X1.550000X0.650000X0*%
%ADD11O,3.600000X1.800000*%
%ADD12R,2.000000X2.000000*%
%ADD13C,2.000000*%
%ADD14C,3.200000*%
%ADD15R,1.600000X1.600000*%
%ADD16O,1.600000X1.600000*%
G04 APERTURE END LIST*
D10*
%TO.C,J1*%
X198120000Y-65024000D03*
D11*
X198120000Y-70104000D03*
X198120000Y-75184000D03*
X198120000Y-80264000D03*
X198120000Y-85344000D03*
X198120000Y-90424000D03*
X198120000Y-95504000D03*
X198120000Y-100584000D03*
%TD*%
D12*
%TO.C,C6*%
X170688000Y-104312323D03*
D13*
X170688000Y-109312323D03*
%TD*%
D14*
%TO.C,REF\u002A\u002A*%
X201000000Y-121000000D03*
%TD*%
%TO.C,REF\u002A\u002A*%
X121000000Y-64000000D03*
%TD*%
D12*
%TO.C,C8*%
X153751677Y-111760000D03*
D13*
X148751677Y-111760000D03*
%TD*%
D15*
%TO.C,U9*%
X121158000Y-70231000D03*
D16*
X121158000Y-72771000D03*
X121158000Y-75311000D03*
X121158000Y-77851000D03*
X121158000Y-80391000D03*
X121158000Y-82931000D03*
X121158000Y-85471000D03*
X121158000Y-88011000D03*
X121158000Y-90551000D03*
X121158000Y-93091000D03*
X121158000Y-95631000D03*
X121158000Y-98171000D03*
X121158000Y-100711000D03*
X121158000Y-103251000D03*
X121158000Y-105791000D03*
X121158000Y-108331000D03*
X121158000Y-110871000D03*
X121158000Y-113411000D03*
X144018000Y-113411000D03*
X144018000Y-110871000D03*
X144018000Y-108331000D03*
X144018000Y-105791000D03*
X144018000Y-103251000D03*
X144018000Y-100711000D03*
X144018000Y-98171000D03*
X144018000Y-95631000D03*
X144018000Y-93091000D03*
X144018000Y-90551000D03*
X144018000Y-88011000D03*
X144018000Y-85471000D03*
X144018000Y-82931000D03*
X144018000Y-80391000D03*
X144018000Y-77851000D03*
X144018000Y-75311000D03*
X144018000Y-72771000D03*
X144018000Y-70231000D03*
%TD*%
D12*
%TO.C,C16*%
X178816000Y-79583677D03*
D13*
X178816000Y-74583677D03*
%TD*%
D15*
%TO.C,U6*%
X155712000Y-97249000D03*
D16*
X155712000Y-99789000D03*
X155712000Y-102329000D03*
X155712000Y-104869000D03*
X163332000Y-104869000D03*
X163332000Y-102329000D03*
X163332000Y-99789000D03*
X163332000Y-97249000D03*
%TD*%
D14*
%TO.C,REF\u002A\u002A*%
X121000000Y-121000000D03*
%TD*%
M02*
