%TF.GenerationSoftware,KiCad,Pcbnew,7.0.2*%
%TF.CreationDate,2023-05-15T17:20:20+02:00*%
%TF.ProjectId,projektkicad,70726f6a-656b-4746-9b69-6361642e6b69,rev?*%
%TF.SameCoordinates,Original*%
%TF.FileFunction,Legend,Top*%
%TF.FilePolarity,Positive*%
%FSLAX46Y46*%
G04 Gerber Fmt 4.6, Leading zero omitted, Abs format (unit mm)*
G04 Created by KiCad (PCBNEW 7.0.2) date 2023-05-15 17:20:20*
%MOMM*%
%LPD*%
G01*
G04 APERTURE LIST*
%ADD10C,0.150000*%
%ADD11C,0.120000*%
G04 APERTURE END LIST*
D10*
X191769904Y-100271238D02*
X191674666Y-100223619D01*
X191674666Y-100223619D02*
X191531809Y-100223619D01*
X191531809Y-100223619D02*
X191388952Y-100271238D01*
X191388952Y-100271238D02*
X191293714Y-100366476D01*
X191293714Y-100366476D02*
X191246095Y-100461714D01*
X191246095Y-100461714D02*
X191198476Y-100652190D01*
X191198476Y-100652190D02*
X191198476Y-100795047D01*
X191198476Y-100795047D02*
X191246095Y-100985523D01*
X191246095Y-100985523D02*
X191293714Y-101080761D01*
X191293714Y-101080761D02*
X191388952Y-101176000D01*
X191388952Y-101176000D02*
X191531809Y-101223619D01*
X191531809Y-101223619D02*
X191627047Y-101223619D01*
X191627047Y-101223619D02*
X191769904Y-101176000D01*
X191769904Y-101176000D02*
X191817523Y-101128380D01*
X191817523Y-101128380D02*
X191817523Y-100795047D01*
X191817523Y-100795047D02*
X191627047Y-100795047D01*
X192674666Y-101223619D02*
X192674666Y-100699809D01*
X192674666Y-100699809D02*
X192627047Y-100604571D01*
X192627047Y-100604571D02*
X192531809Y-100556952D01*
X192531809Y-100556952D02*
X192341333Y-100556952D01*
X192341333Y-100556952D02*
X192246095Y-100604571D01*
X192674666Y-101176000D02*
X192579428Y-101223619D01*
X192579428Y-101223619D02*
X192341333Y-101223619D01*
X192341333Y-101223619D02*
X192246095Y-101176000D01*
X192246095Y-101176000D02*
X192198476Y-101080761D01*
X192198476Y-101080761D02*
X192198476Y-100985523D01*
X192198476Y-100985523D02*
X192246095Y-100890285D01*
X192246095Y-100890285D02*
X192341333Y-100842666D01*
X192341333Y-100842666D02*
X192579428Y-100842666D01*
X192579428Y-100842666D02*
X192674666Y-100795047D01*
X193008000Y-100556952D02*
X193388952Y-100556952D01*
X193150857Y-100223619D02*
X193150857Y-101080761D01*
X193150857Y-101080761D02*
X193198476Y-101176000D01*
X193198476Y-101176000D02*
X193293714Y-101223619D01*
X193293714Y-101223619D02*
X193388952Y-101223619D01*
X194103238Y-101176000D02*
X194008000Y-101223619D01*
X194008000Y-101223619D02*
X193817524Y-101223619D01*
X193817524Y-101223619D02*
X193722286Y-101176000D01*
X193722286Y-101176000D02*
X193674667Y-101080761D01*
X193674667Y-101080761D02*
X193674667Y-100699809D01*
X193674667Y-100699809D02*
X193722286Y-100604571D01*
X193722286Y-100604571D02*
X193817524Y-100556952D01*
X193817524Y-100556952D02*
X194008000Y-100556952D01*
X194008000Y-100556952D02*
X194103238Y-100604571D01*
X194103238Y-100604571D02*
X194150857Y-100699809D01*
X194150857Y-100699809D02*
X194150857Y-100795047D01*
X194150857Y-100795047D02*
X193674667Y-100890285D01*
X191103238Y-94889619D02*
X191436571Y-95889619D01*
X191436571Y-95889619D02*
X191769904Y-94889619D01*
X192103238Y-95889619D02*
X192103238Y-95222952D01*
X192103238Y-94889619D02*
X192055619Y-94937238D01*
X192055619Y-94937238D02*
X192103238Y-94984857D01*
X192103238Y-94984857D02*
X192150857Y-94937238D01*
X192150857Y-94937238D02*
X192103238Y-94889619D01*
X192103238Y-94889619D02*
X192103238Y-94984857D01*
X192579428Y-95222952D02*
X192579428Y-95889619D01*
X192579428Y-95318190D02*
X192627047Y-95270571D01*
X192627047Y-95270571D02*
X192722285Y-95222952D01*
X192722285Y-95222952D02*
X192865142Y-95222952D01*
X192865142Y-95222952D02*
X192960380Y-95270571D01*
X192960380Y-95270571D02*
X193007999Y-95365809D01*
X193007999Y-95365809D02*
X193007999Y-95889619D01*
X193484190Y-95508666D02*
X194246095Y-95508666D01*
X191103238Y-89555619D02*
X191436571Y-90555619D01*
X191436571Y-90555619D02*
X191769904Y-89555619D01*
X192103238Y-90555619D02*
X192103238Y-89888952D01*
X192103238Y-89555619D02*
X192055619Y-89603238D01*
X192055619Y-89603238D02*
X192103238Y-89650857D01*
X192103238Y-89650857D02*
X192150857Y-89603238D01*
X192150857Y-89603238D02*
X192103238Y-89555619D01*
X192103238Y-89555619D02*
X192103238Y-89650857D01*
X192579428Y-89888952D02*
X192579428Y-90555619D01*
X192579428Y-89984190D02*
X192627047Y-89936571D01*
X192627047Y-89936571D02*
X192722285Y-89888952D01*
X192722285Y-89888952D02*
X192865142Y-89888952D01*
X192865142Y-89888952D02*
X192960380Y-89936571D01*
X192960380Y-89936571D02*
X193007999Y-90031809D01*
X193007999Y-90031809D02*
X193007999Y-90555619D01*
X193484190Y-90174666D02*
X194246095Y-90174666D01*
X193865142Y-90555619D02*
X193865142Y-89793714D01*
X192023904Y-84777238D02*
X191928666Y-84729619D01*
X191928666Y-84729619D02*
X191785809Y-84729619D01*
X191785809Y-84729619D02*
X191642952Y-84777238D01*
X191642952Y-84777238D02*
X191547714Y-84872476D01*
X191547714Y-84872476D02*
X191500095Y-84967714D01*
X191500095Y-84967714D02*
X191452476Y-85158190D01*
X191452476Y-85158190D02*
X191452476Y-85301047D01*
X191452476Y-85301047D02*
X191500095Y-85491523D01*
X191500095Y-85491523D02*
X191547714Y-85586761D01*
X191547714Y-85586761D02*
X191642952Y-85682000D01*
X191642952Y-85682000D02*
X191785809Y-85729619D01*
X191785809Y-85729619D02*
X191881047Y-85729619D01*
X191881047Y-85729619D02*
X192023904Y-85682000D01*
X192023904Y-85682000D02*
X192071523Y-85634380D01*
X192071523Y-85634380D02*
X192071523Y-85301047D01*
X192071523Y-85301047D02*
X191881047Y-85301047D01*
X192500095Y-85729619D02*
X192500095Y-84729619D01*
X192500095Y-84729619D02*
X193071523Y-85729619D01*
X193071523Y-85729619D02*
X193071523Y-84729619D01*
X193547714Y-85729619D02*
X193547714Y-84729619D01*
X193547714Y-84729619D02*
X193785809Y-84729619D01*
X193785809Y-84729619D02*
X193928666Y-84777238D01*
X193928666Y-84777238D02*
X194023904Y-84872476D01*
X194023904Y-84872476D02*
X194071523Y-84967714D01*
X194071523Y-84967714D02*
X194119142Y-85158190D01*
X194119142Y-85158190D02*
X194119142Y-85301047D01*
X194119142Y-85301047D02*
X194071523Y-85491523D01*
X194071523Y-85491523D02*
X194023904Y-85586761D01*
X194023904Y-85586761D02*
X193928666Y-85682000D01*
X193928666Y-85682000D02*
X193785809Y-85729619D01*
X193785809Y-85729619D02*
X193547714Y-85729619D01*
X192023904Y-74617238D02*
X191928666Y-74569619D01*
X191928666Y-74569619D02*
X191785809Y-74569619D01*
X191785809Y-74569619D02*
X191642952Y-74617238D01*
X191642952Y-74617238D02*
X191547714Y-74712476D01*
X191547714Y-74712476D02*
X191500095Y-74807714D01*
X191500095Y-74807714D02*
X191452476Y-74998190D01*
X191452476Y-74998190D02*
X191452476Y-75141047D01*
X191452476Y-75141047D02*
X191500095Y-75331523D01*
X191500095Y-75331523D02*
X191547714Y-75426761D01*
X191547714Y-75426761D02*
X191642952Y-75522000D01*
X191642952Y-75522000D02*
X191785809Y-75569619D01*
X191785809Y-75569619D02*
X191881047Y-75569619D01*
X191881047Y-75569619D02*
X192023904Y-75522000D01*
X192023904Y-75522000D02*
X192071523Y-75474380D01*
X192071523Y-75474380D02*
X192071523Y-75141047D01*
X192071523Y-75141047D02*
X191881047Y-75141047D01*
X192500095Y-75569619D02*
X192500095Y-74569619D01*
X192500095Y-74569619D02*
X193071523Y-75569619D01*
X193071523Y-75569619D02*
X193071523Y-74569619D01*
X193547714Y-75569619D02*
X193547714Y-74569619D01*
X193547714Y-74569619D02*
X193785809Y-74569619D01*
X193785809Y-74569619D02*
X193928666Y-74617238D01*
X193928666Y-74617238D02*
X194023904Y-74712476D01*
X194023904Y-74712476D02*
X194071523Y-74807714D01*
X194071523Y-74807714D02*
X194119142Y-74998190D01*
X194119142Y-74998190D02*
X194119142Y-75141047D01*
X194119142Y-75141047D02*
X194071523Y-75331523D01*
X194071523Y-75331523D02*
X194023904Y-75426761D01*
X194023904Y-75426761D02*
X193928666Y-75522000D01*
X193928666Y-75522000D02*
X193785809Y-75569619D01*
X193785809Y-75569619D02*
X193547714Y-75569619D01*
X191404857Y-69743619D02*
X192023904Y-69743619D01*
X192023904Y-69743619D02*
X191690571Y-70124571D01*
X191690571Y-70124571D02*
X191833428Y-70124571D01*
X191833428Y-70124571D02*
X191928666Y-70172190D01*
X191928666Y-70172190D02*
X191976285Y-70219809D01*
X191976285Y-70219809D02*
X192023904Y-70315047D01*
X192023904Y-70315047D02*
X192023904Y-70553142D01*
X192023904Y-70553142D02*
X191976285Y-70648380D01*
X191976285Y-70648380D02*
X191928666Y-70696000D01*
X191928666Y-70696000D02*
X191833428Y-70743619D01*
X191833428Y-70743619D02*
X191547714Y-70743619D01*
X191547714Y-70743619D02*
X191452476Y-70696000D01*
X191452476Y-70696000D02*
X191404857Y-70648380D01*
X192309619Y-69743619D02*
X192642952Y-70743619D01*
X192642952Y-70743619D02*
X192976285Y-69743619D01*
X193214381Y-69743619D02*
X193833428Y-69743619D01*
X193833428Y-69743619D02*
X193500095Y-70124571D01*
X193500095Y-70124571D02*
X193642952Y-70124571D01*
X193642952Y-70124571D02*
X193738190Y-70172190D01*
X193738190Y-70172190D02*
X193785809Y-70219809D01*
X193785809Y-70219809D02*
X193833428Y-70315047D01*
X193833428Y-70315047D02*
X193833428Y-70553142D01*
X193833428Y-70553142D02*
X193785809Y-70648380D01*
X193785809Y-70648380D02*
X193738190Y-70696000D01*
X193738190Y-70696000D02*
X193642952Y-70743619D01*
X193642952Y-70743619D02*
X193357238Y-70743619D01*
X193357238Y-70743619D02*
X193262000Y-70696000D01*
X193262000Y-70696000D02*
X193214381Y-70648380D01*
X190341238Y-64155619D02*
X190912666Y-64155619D01*
X190626952Y-65155619D02*
X190626952Y-64155619D01*
X191626952Y-65108000D02*
X191531714Y-65155619D01*
X191531714Y-65155619D02*
X191341238Y-65155619D01*
X191341238Y-65155619D02*
X191246000Y-65108000D01*
X191246000Y-65108000D02*
X191198381Y-65012761D01*
X191198381Y-65012761D02*
X191198381Y-64631809D01*
X191198381Y-64631809D02*
X191246000Y-64536571D01*
X191246000Y-64536571D02*
X191341238Y-64488952D01*
X191341238Y-64488952D02*
X191531714Y-64488952D01*
X191531714Y-64488952D02*
X191626952Y-64536571D01*
X191626952Y-64536571D02*
X191674571Y-64631809D01*
X191674571Y-64631809D02*
X191674571Y-64727047D01*
X191674571Y-64727047D02*
X191198381Y-64822285D01*
X192103143Y-65155619D02*
X192103143Y-64488952D01*
X192103143Y-64584190D02*
X192150762Y-64536571D01*
X192150762Y-64536571D02*
X192246000Y-64488952D01*
X192246000Y-64488952D02*
X192388857Y-64488952D01*
X192388857Y-64488952D02*
X192484095Y-64536571D01*
X192484095Y-64536571D02*
X192531714Y-64631809D01*
X192531714Y-64631809D02*
X192531714Y-65155619D01*
X192531714Y-64631809D02*
X192579333Y-64536571D01*
X192579333Y-64536571D02*
X192674571Y-64488952D01*
X192674571Y-64488952D02*
X192817428Y-64488952D01*
X192817428Y-64488952D02*
X192912667Y-64536571D01*
X192912667Y-64536571D02*
X192960286Y-64631809D01*
X192960286Y-64631809D02*
X192960286Y-65155619D01*
X193436476Y-64488952D02*
X193436476Y-65488952D01*
X193436476Y-64536571D02*
X193531714Y-64488952D01*
X193531714Y-64488952D02*
X193722190Y-64488952D01*
X193722190Y-64488952D02*
X193817428Y-64536571D01*
X193817428Y-64536571D02*
X193865047Y-64584190D01*
X193865047Y-64584190D02*
X193912666Y-64679428D01*
X193912666Y-64679428D02*
X193912666Y-64965142D01*
X193912666Y-64965142D02*
X193865047Y-65060380D01*
X193865047Y-65060380D02*
X193817428Y-65108000D01*
X193817428Y-65108000D02*
X193722190Y-65155619D01*
X193722190Y-65155619D02*
X193531714Y-65155619D01*
X193531714Y-65155619D02*
X193436476Y-65108000D01*
%TO.C,J1*%
X203132619Y-83137333D02*
X203846904Y-83137333D01*
X203846904Y-83137333D02*
X203989761Y-83184952D01*
X203989761Y-83184952D02*
X204085000Y-83280190D01*
X204085000Y-83280190D02*
X204132619Y-83423047D01*
X204132619Y-83423047D02*
X204132619Y-83518285D01*
X204132619Y-82137333D02*
X204132619Y-82708761D01*
X204132619Y-82423047D02*
X203132619Y-82423047D01*
X203132619Y-82423047D02*
X203275476Y-82518285D01*
X203275476Y-82518285D02*
X203370714Y-82613523D01*
X203370714Y-82613523D02*
X203418333Y-82708761D01*
%TO.C,R21*%
X175404542Y-62972019D02*
X175071209Y-62495828D01*
X174833114Y-62972019D02*
X174833114Y-61972019D01*
X174833114Y-61972019D02*
X175214066Y-61972019D01*
X175214066Y-61972019D02*
X175309304Y-62019638D01*
X175309304Y-62019638D02*
X175356923Y-62067257D01*
X175356923Y-62067257D02*
X175404542Y-62162495D01*
X175404542Y-62162495D02*
X175404542Y-62305352D01*
X175404542Y-62305352D02*
X175356923Y-62400590D01*
X175356923Y-62400590D02*
X175309304Y-62448209D01*
X175309304Y-62448209D02*
X175214066Y-62495828D01*
X175214066Y-62495828D02*
X174833114Y-62495828D01*
X175785495Y-62067257D02*
X175833114Y-62019638D01*
X175833114Y-62019638D02*
X175928352Y-61972019D01*
X175928352Y-61972019D02*
X176166447Y-61972019D01*
X176166447Y-61972019D02*
X176261685Y-62019638D01*
X176261685Y-62019638D02*
X176309304Y-62067257D01*
X176309304Y-62067257D02*
X176356923Y-62162495D01*
X176356923Y-62162495D02*
X176356923Y-62257733D01*
X176356923Y-62257733D02*
X176309304Y-62400590D01*
X176309304Y-62400590D02*
X175737876Y-62972019D01*
X175737876Y-62972019D02*
X176356923Y-62972019D01*
X177309304Y-62972019D02*
X176737876Y-62972019D01*
X177023590Y-62972019D02*
X177023590Y-61972019D01*
X177023590Y-61972019D02*
X176928352Y-62114876D01*
X176928352Y-62114876D02*
X176833114Y-62210114D01*
X176833114Y-62210114D02*
X176737876Y-62257733D01*
%TO.C,C12*%
X151299942Y-63587980D02*
X151252323Y-63635600D01*
X151252323Y-63635600D02*
X151109466Y-63683219D01*
X151109466Y-63683219D02*
X151014228Y-63683219D01*
X151014228Y-63683219D02*
X150871371Y-63635600D01*
X150871371Y-63635600D02*
X150776133Y-63540361D01*
X150776133Y-63540361D02*
X150728514Y-63445123D01*
X150728514Y-63445123D02*
X150680895Y-63254647D01*
X150680895Y-63254647D02*
X150680895Y-63111790D01*
X150680895Y-63111790D02*
X150728514Y-62921314D01*
X150728514Y-62921314D02*
X150776133Y-62826076D01*
X150776133Y-62826076D02*
X150871371Y-62730838D01*
X150871371Y-62730838D02*
X151014228Y-62683219D01*
X151014228Y-62683219D02*
X151109466Y-62683219D01*
X151109466Y-62683219D02*
X151252323Y-62730838D01*
X151252323Y-62730838D02*
X151299942Y-62778457D01*
X152252323Y-63683219D02*
X151680895Y-63683219D01*
X151966609Y-63683219D02*
X151966609Y-62683219D01*
X151966609Y-62683219D02*
X151871371Y-62826076D01*
X151871371Y-62826076D02*
X151776133Y-62921314D01*
X151776133Y-62921314D02*
X151680895Y-62968933D01*
X152633276Y-62778457D02*
X152680895Y-62730838D01*
X152680895Y-62730838D02*
X152776133Y-62683219D01*
X152776133Y-62683219D02*
X153014228Y-62683219D01*
X153014228Y-62683219D02*
X153109466Y-62730838D01*
X153109466Y-62730838D02*
X153157085Y-62778457D01*
X153157085Y-62778457D02*
X153204704Y-62873695D01*
X153204704Y-62873695D02*
X153204704Y-62968933D01*
X153204704Y-62968933D02*
X153157085Y-63111790D01*
X153157085Y-63111790D02*
X152585657Y-63683219D01*
X152585657Y-63683219D02*
X153204704Y-63683219D01*
%TO.C,C2*%
X184135733Y-119747380D02*
X184088114Y-119795000D01*
X184088114Y-119795000D02*
X183945257Y-119842619D01*
X183945257Y-119842619D02*
X183850019Y-119842619D01*
X183850019Y-119842619D02*
X183707162Y-119795000D01*
X183707162Y-119795000D02*
X183611924Y-119699761D01*
X183611924Y-119699761D02*
X183564305Y-119604523D01*
X183564305Y-119604523D02*
X183516686Y-119414047D01*
X183516686Y-119414047D02*
X183516686Y-119271190D01*
X183516686Y-119271190D02*
X183564305Y-119080714D01*
X183564305Y-119080714D02*
X183611924Y-118985476D01*
X183611924Y-118985476D02*
X183707162Y-118890238D01*
X183707162Y-118890238D02*
X183850019Y-118842619D01*
X183850019Y-118842619D02*
X183945257Y-118842619D01*
X183945257Y-118842619D02*
X184088114Y-118890238D01*
X184088114Y-118890238D02*
X184135733Y-118937857D01*
X184516686Y-118937857D02*
X184564305Y-118890238D01*
X184564305Y-118890238D02*
X184659543Y-118842619D01*
X184659543Y-118842619D02*
X184897638Y-118842619D01*
X184897638Y-118842619D02*
X184992876Y-118890238D01*
X184992876Y-118890238D02*
X185040495Y-118937857D01*
X185040495Y-118937857D02*
X185088114Y-119033095D01*
X185088114Y-119033095D02*
X185088114Y-119128333D01*
X185088114Y-119128333D02*
X185040495Y-119271190D01*
X185040495Y-119271190D02*
X184469067Y-119842619D01*
X184469067Y-119842619D02*
X185088114Y-119842619D01*
%TO.C,C13*%
X156303742Y-76821380D02*
X156256123Y-76869000D01*
X156256123Y-76869000D02*
X156113266Y-76916619D01*
X156113266Y-76916619D02*
X156018028Y-76916619D01*
X156018028Y-76916619D02*
X155875171Y-76869000D01*
X155875171Y-76869000D02*
X155779933Y-76773761D01*
X155779933Y-76773761D02*
X155732314Y-76678523D01*
X155732314Y-76678523D02*
X155684695Y-76488047D01*
X155684695Y-76488047D02*
X155684695Y-76345190D01*
X155684695Y-76345190D02*
X155732314Y-76154714D01*
X155732314Y-76154714D02*
X155779933Y-76059476D01*
X155779933Y-76059476D02*
X155875171Y-75964238D01*
X155875171Y-75964238D02*
X156018028Y-75916619D01*
X156018028Y-75916619D02*
X156113266Y-75916619D01*
X156113266Y-75916619D02*
X156256123Y-75964238D01*
X156256123Y-75964238D02*
X156303742Y-76011857D01*
X157256123Y-76916619D02*
X156684695Y-76916619D01*
X156970409Y-76916619D02*
X156970409Y-75916619D01*
X156970409Y-75916619D02*
X156875171Y-76059476D01*
X156875171Y-76059476D02*
X156779933Y-76154714D01*
X156779933Y-76154714D02*
X156684695Y-76202333D01*
X157589457Y-75916619D02*
X158208504Y-75916619D01*
X158208504Y-75916619D02*
X157875171Y-76297571D01*
X157875171Y-76297571D02*
X158018028Y-76297571D01*
X158018028Y-76297571D02*
X158113266Y-76345190D01*
X158113266Y-76345190D02*
X158160885Y-76392809D01*
X158160885Y-76392809D02*
X158208504Y-76488047D01*
X158208504Y-76488047D02*
X158208504Y-76726142D01*
X158208504Y-76726142D02*
X158160885Y-76821380D01*
X158160885Y-76821380D02*
X158113266Y-76869000D01*
X158113266Y-76869000D02*
X158018028Y-76916619D01*
X158018028Y-76916619D02*
X157732314Y-76916619D01*
X157732314Y-76916619D02*
X157637076Y-76869000D01*
X157637076Y-76869000D02*
X157589457Y-76821380D01*
%TO.C,R15*%
X197045342Y-106126619D02*
X196712009Y-105650428D01*
X196473914Y-106126619D02*
X196473914Y-105126619D01*
X196473914Y-105126619D02*
X196854866Y-105126619D01*
X196854866Y-105126619D02*
X196950104Y-105174238D01*
X196950104Y-105174238D02*
X196997723Y-105221857D01*
X196997723Y-105221857D02*
X197045342Y-105317095D01*
X197045342Y-105317095D02*
X197045342Y-105459952D01*
X197045342Y-105459952D02*
X196997723Y-105555190D01*
X196997723Y-105555190D02*
X196950104Y-105602809D01*
X196950104Y-105602809D02*
X196854866Y-105650428D01*
X196854866Y-105650428D02*
X196473914Y-105650428D01*
X197997723Y-106126619D02*
X197426295Y-106126619D01*
X197712009Y-106126619D02*
X197712009Y-105126619D01*
X197712009Y-105126619D02*
X197616771Y-105269476D01*
X197616771Y-105269476D02*
X197521533Y-105364714D01*
X197521533Y-105364714D02*
X197426295Y-105412333D01*
X198902485Y-105126619D02*
X198426295Y-105126619D01*
X198426295Y-105126619D02*
X198378676Y-105602809D01*
X198378676Y-105602809D02*
X198426295Y-105555190D01*
X198426295Y-105555190D02*
X198521533Y-105507571D01*
X198521533Y-105507571D02*
X198759628Y-105507571D01*
X198759628Y-105507571D02*
X198854866Y-105555190D01*
X198854866Y-105555190D02*
X198902485Y-105602809D01*
X198902485Y-105602809D02*
X198950104Y-105698047D01*
X198950104Y-105698047D02*
X198950104Y-105936142D01*
X198950104Y-105936142D02*
X198902485Y-106031380D01*
X198902485Y-106031380D02*
X198854866Y-106079000D01*
X198854866Y-106079000D02*
X198759628Y-106126619D01*
X198759628Y-106126619D02*
X198521533Y-106126619D01*
X198521533Y-106126619D02*
X198426295Y-106079000D01*
X198426295Y-106079000D02*
X198378676Y-106031380D01*
%TO.C,L1*%
X157821333Y-87330619D02*
X157345143Y-87330619D01*
X157345143Y-87330619D02*
X157345143Y-86330619D01*
X158678476Y-87330619D02*
X158107048Y-87330619D01*
X158392762Y-87330619D02*
X158392762Y-86330619D01*
X158392762Y-86330619D02*
X158297524Y-86473476D01*
X158297524Y-86473476D02*
X158202286Y-86568714D01*
X158202286Y-86568714D02*
X158107048Y-86616333D01*
%TO.C,R13*%
X204170619Y-113926857D02*
X203694428Y-114260190D01*
X204170619Y-114498285D02*
X203170619Y-114498285D01*
X203170619Y-114498285D02*
X203170619Y-114117333D01*
X203170619Y-114117333D02*
X203218238Y-114022095D01*
X203218238Y-114022095D02*
X203265857Y-113974476D01*
X203265857Y-113974476D02*
X203361095Y-113926857D01*
X203361095Y-113926857D02*
X203503952Y-113926857D01*
X203503952Y-113926857D02*
X203599190Y-113974476D01*
X203599190Y-113974476D02*
X203646809Y-114022095D01*
X203646809Y-114022095D02*
X203694428Y-114117333D01*
X203694428Y-114117333D02*
X203694428Y-114498285D01*
X204170619Y-112974476D02*
X204170619Y-113545904D01*
X204170619Y-113260190D02*
X203170619Y-113260190D01*
X203170619Y-113260190D02*
X203313476Y-113355428D01*
X203313476Y-113355428D02*
X203408714Y-113450666D01*
X203408714Y-113450666D02*
X203456333Y-113545904D01*
X203170619Y-112641142D02*
X203170619Y-112022095D01*
X203170619Y-112022095D02*
X203551571Y-112355428D01*
X203551571Y-112355428D02*
X203551571Y-112212571D01*
X203551571Y-112212571D02*
X203599190Y-112117333D01*
X203599190Y-112117333D02*
X203646809Y-112069714D01*
X203646809Y-112069714D02*
X203742047Y-112022095D01*
X203742047Y-112022095D02*
X203980142Y-112022095D01*
X203980142Y-112022095D02*
X204075380Y-112069714D01*
X204075380Y-112069714D02*
X204123000Y-112117333D01*
X204123000Y-112117333D02*
X204170619Y-112212571D01*
X204170619Y-112212571D02*
X204170619Y-112498285D01*
X204170619Y-112498285D02*
X204123000Y-112593523D01*
X204123000Y-112593523D02*
X204075380Y-112641142D01*
%TO.C,C14*%
X175429942Y-65391380D02*
X175382323Y-65439000D01*
X175382323Y-65439000D02*
X175239466Y-65486619D01*
X175239466Y-65486619D02*
X175144228Y-65486619D01*
X175144228Y-65486619D02*
X175001371Y-65439000D01*
X175001371Y-65439000D02*
X174906133Y-65343761D01*
X174906133Y-65343761D02*
X174858514Y-65248523D01*
X174858514Y-65248523D02*
X174810895Y-65058047D01*
X174810895Y-65058047D02*
X174810895Y-64915190D01*
X174810895Y-64915190D02*
X174858514Y-64724714D01*
X174858514Y-64724714D02*
X174906133Y-64629476D01*
X174906133Y-64629476D02*
X175001371Y-64534238D01*
X175001371Y-64534238D02*
X175144228Y-64486619D01*
X175144228Y-64486619D02*
X175239466Y-64486619D01*
X175239466Y-64486619D02*
X175382323Y-64534238D01*
X175382323Y-64534238D02*
X175429942Y-64581857D01*
X176382323Y-65486619D02*
X175810895Y-65486619D01*
X176096609Y-65486619D02*
X176096609Y-64486619D01*
X176096609Y-64486619D02*
X176001371Y-64629476D01*
X176001371Y-64629476D02*
X175906133Y-64724714D01*
X175906133Y-64724714D02*
X175810895Y-64772333D01*
X177239466Y-64819952D02*
X177239466Y-65486619D01*
X177001371Y-64439000D02*
X176763276Y-65153285D01*
X176763276Y-65153285D02*
X177382323Y-65153285D01*
%TO.C,R2*%
X184034133Y-111740019D02*
X183700800Y-111263828D01*
X183462705Y-111740019D02*
X183462705Y-110740019D01*
X183462705Y-110740019D02*
X183843657Y-110740019D01*
X183843657Y-110740019D02*
X183938895Y-110787638D01*
X183938895Y-110787638D02*
X183986514Y-110835257D01*
X183986514Y-110835257D02*
X184034133Y-110930495D01*
X184034133Y-110930495D02*
X184034133Y-111073352D01*
X184034133Y-111073352D02*
X183986514Y-111168590D01*
X183986514Y-111168590D02*
X183938895Y-111216209D01*
X183938895Y-111216209D02*
X183843657Y-111263828D01*
X183843657Y-111263828D02*
X183462705Y-111263828D01*
X184415086Y-110835257D02*
X184462705Y-110787638D01*
X184462705Y-110787638D02*
X184557943Y-110740019D01*
X184557943Y-110740019D02*
X184796038Y-110740019D01*
X184796038Y-110740019D02*
X184891276Y-110787638D01*
X184891276Y-110787638D02*
X184938895Y-110835257D01*
X184938895Y-110835257D02*
X184986514Y-110930495D01*
X184986514Y-110930495D02*
X184986514Y-111025733D01*
X184986514Y-111025733D02*
X184938895Y-111168590D01*
X184938895Y-111168590D02*
X184367467Y-111740019D01*
X184367467Y-111740019D02*
X184986514Y-111740019D01*
%TO.C,R3*%
X181163933Y-99294019D02*
X180830600Y-98817828D01*
X180592505Y-99294019D02*
X180592505Y-98294019D01*
X180592505Y-98294019D02*
X180973457Y-98294019D01*
X180973457Y-98294019D02*
X181068695Y-98341638D01*
X181068695Y-98341638D02*
X181116314Y-98389257D01*
X181116314Y-98389257D02*
X181163933Y-98484495D01*
X181163933Y-98484495D02*
X181163933Y-98627352D01*
X181163933Y-98627352D02*
X181116314Y-98722590D01*
X181116314Y-98722590D02*
X181068695Y-98770209D01*
X181068695Y-98770209D02*
X180973457Y-98817828D01*
X180973457Y-98817828D02*
X180592505Y-98817828D01*
X181497267Y-98294019D02*
X182116314Y-98294019D01*
X182116314Y-98294019D02*
X181782981Y-98674971D01*
X181782981Y-98674971D02*
X181925838Y-98674971D01*
X181925838Y-98674971D02*
X182021076Y-98722590D01*
X182021076Y-98722590D02*
X182068695Y-98770209D01*
X182068695Y-98770209D02*
X182116314Y-98865447D01*
X182116314Y-98865447D02*
X182116314Y-99103542D01*
X182116314Y-99103542D02*
X182068695Y-99198780D01*
X182068695Y-99198780D02*
X182021076Y-99246400D01*
X182021076Y-99246400D02*
X181925838Y-99294019D01*
X181925838Y-99294019D02*
X181640124Y-99294019D01*
X181640124Y-99294019D02*
X181544886Y-99246400D01*
X181544886Y-99246400D02*
X181497267Y-99198780D01*
%TO.C,R17*%
X169054542Y-100487819D02*
X168721209Y-100011628D01*
X168483114Y-100487819D02*
X168483114Y-99487819D01*
X168483114Y-99487819D02*
X168864066Y-99487819D01*
X168864066Y-99487819D02*
X168959304Y-99535438D01*
X168959304Y-99535438D02*
X169006923Y-99583057D01*
X169006923Y-99583057D02*
X169054542Y-99678295D01*
X169054542Y-99678295D02*
X169054542Y-99821152D01*
X169054542Y-99821152D02*
X169006923Y-99916390D01*
X169006923Y-99916390D02*
X168959304Y-99964009D01*
X168959304Y-99964009D02*
X168864066Y-100011628D01*
X168864066Y-100011628D02*
X168483114Y-100011628D01*
X170006923Y-100487819D02*
X169435495Y-100487819D01*
X169721209Y-100487819D02*
X169721209Y-99487819D01*
X169721209Y-99487819D02*
X169625971Y-99630676D01*
X169625971Y-99630676D02*
X169530733Y-99725914D01*
X169530733Y-99725914D02*
X169435495Y-99773533D01*
X170340257Y-99487819D02*
X171006923Y-99487819D01*
X171006923Y-99487819D02*
X170578352Y-100487819D01*
%TO.C,C6*%
X170521333Y-113219580D02*
X170473714Y-113267200D01*
X170473714Y-113267200D02*
X170330857Y-113314819D01*
X170330857Y-113314819D02*
X170235619Y-113314819D01*
X170235619Y-113314819D02*
X170092762Y-113267200D01*
X170092762Y-113267200D02*
X169997524Y-113171961D01*
X169997524Y-113171961D02*
X169949905Y-113076723D01*
X169949905Y-113076723D02*
X169902286Y-112886247D01*
X169902286Y-112886247D02*
X169902286Y-112743390D01*
X169902286Y-112743390D02*
X169949905Y-112552914D01*
X169949905Y-112552914D02*
X169997524Y-112457676D01*
X169997524Y-112457676D02*
X170092762Y-112362438D01*
X170092762Y-112362438D02*
X170235619Y-112314819D01*
X170235619Y-112314819D02*
X170330857Y-112314819D01*
X170330857Y-112314819D02*
X170473714Y-112362438D01*
X170473714Y-112362438D02*
X170521333Y-112410057D01*
X171378476Y-112314819D02*
X171188000Y-112314819D01*
X171188000Y-112314819D02*
X171092762Y-112362438D01*
X171092762Y-112362438D02*
X171045143Y-112410057D01*
X171045143Y-112410057D02*
X170949905Y-112552914D01*
X170949905Y-112552914D02*
X170902286Y-112743390D01*
X170902286Y-112743390D02*
X170902286Y-113124342D01*
X170902286Y-113124342D02*
X170949905Y-113219580D01*
X170949905Y-113219580D02*
X170997524Y-113267200D01*
X170997524Y-113267200D02*
X171092762Y-113314819D01*
X171092762Y-113314819D02*
X171283238Y-113314819D01*
X171283238Y-113314819D02*
X171378476Y-113267200D01*
X171378476Y-113267200D02*
X171426095Y-113219580D01*
X171426095Y-113219580D02*
X171473714Y-113124342D01*
X171473714Y-113124342D02*
X171473714Y-112886247D01*
X171473714Y-112886247D02*
X171426095Y-112791009D01*
X171426095Y-112791009D02*
X171378476Y-112743390D01*
X171378476Y-112743390D02*
X171283238Y-112695771D01*
X171283238Y-112695771D02*
X171092762Y-112695771D01*
X171092762Y-112695771D02*
X170997524Y-112743390D01*
X170997524Y-112743390D02*
X170949905Y-112791009D01*
X170949905Y-112791009D02*
X170902286Y-112886247D01*
%TO.C,D5*%
X154854619Y-75414094D02*
X153854619Y-75414094D01*
X153854619Y-75414094D02*
X153854619Y-75175999D01*
X153854619Y-75175999D02*
X153902238Y-75033142D01*
X153902238Y-75033142D02*
X153997476Y-74937904D01*
X153997476Y-74937904D02*
X154092714Y-74890285D01*
X154092714Y-74890285D02*
X154283190Y-74842666D01*
X154283190Y-74842666D02*
X154426047Y-74842666D01*
X154426047Y-74842666D02*
X154616523Y-74890285D01*
X154616523Y-74890285D02*
X154711761Y-74937904D01*
X154711761Y-74937904D02*
X154807000Y-75033142D01*
X154807000Y-75033142D02*
X154854619Y-75175999D01*
X154854619Y-75175999D02*
X154854619Y-75414094D01*
X153854619Y-73937904D02*
X153854619Y-74414094D01*
X153854619Y-74414094D02*
X154330809Y-74461713D01*
X154330809Y-74461713D02*
X154283190Y-74414094D01*
X154283190Y-74414094D02*
X154235571Y-74318856D01*
X154235571Y-74318856D02*
X154235571Y-74080761D01*
X154235571Y-74080761D02*
X154283190Y-73985523D01*
X154283190Y-73985523D02*
X154330809Y-73937904D01*
X154330809Y-73937904D02*
X154426047Y-73890285D01*
X154426047Y-73890285D02*
X154664142Y-73890285D01*
X154664142Y-73890285D02*
X154759380Y-73937904D01*
X154759380Y-73937904D02*
X154807000Y-73985523D01*
X154807000Y-73985523D02*
X154854619Y-74080761D01*
X154854619Y-74080761D02*
X154854619Y-74318856D01*
X154854619Y-74318856D02*
X154807000Y-74414094D01*
X154807000Y-74414094D02*
X154759380Y-74461713D01*
%TO.C,R20*%
X162983942Y-111562219D02*
X162650609Y-111086028D01*
X162412514Y-111562219D02*
X162412514Y-110562219D01*
X162412514Y-110562219D02*
X162793466Y-110562219D01*
X162793466Y-110562219D02*
X162888704Y-110609838D01*
X162888704Y-110609838D02*
X162936323Y-110657457D01*
X162936323Y-110657457D02*
X162983942Y-110752695D01*
X162983942Y-110752695D02*
X162983942Y-110895552D01*
X162983942Y-110895552D02*
X162936323Y-110990790D01*
X162936323Y-110990790D02*
X162888704Y-111038409D01*
X162888704Y-111038409D02*
X162793466Y-111086028D01*
X162793466Y-111086028D02*
X162412514Y-111086028D01*
X163364895Y-110657457D02*
X163412514Y-110609838D01*
X163412514Y-110609838D02*
X163507752Y-110562219D01*
X163507752Y-110562219D02*
X163745847Y-110562219D01*
X163745847Y-110562219D02*
X163841085Y-110609838D01*
X163841085Y-110609838D02*
X163888704Y-110657457D01*
X163888704Y-110657457D02*
X163936323Y-110752695D01*
X163936323Y-110752695D02*
X163936323Y-110847933D01*
X163936323Y-110847933D02*
X163888704Y-110990790D01*
X163888704Y-110990790D02*
X163317276Y-111562219D01*
X163317276Y-111562219D02*
X163936323Y-111562219D01*
X164555371Y-110562219D02*
X164650609Y-110562219D01*
X164650609Y-110562219D02*
X164745847Y-110609838D01*
X164745847Y-110609838D02*
X164793466Y-110657457D01*
X164793466Y-110657457D02*
X164841085Y-110752695D01*
X164841085Y-110752695D02*
X164888704Y-110943171D01*
X164888704Y-110943171D02*
X164888704Y-111181266D01*
X164888704Y-111181266D02*
X164841085Y-111371742D01*
X164841085Y-111371742D02*
X164793466Y-111466980D01*
X164793466Y-111466980D02*
X164745847Y-111514600D01*
X164745847Y-111514600D02*
X164650609Y-111562219D01*
X164650609Y-111562219D02*
X164555371Y-111562219D01*
X164555371Y-111562219D02*
X164460133Y-111514600D01*
X164460133Y-111514600D02*
X164412514Y-111466980D01*
X164412514Y-111466980D02*
X164364895Y-111371742D01*
X164364895Y-111371742D02*
X164317276Y-111181266D01*
X164317276Y-111181266D02*
X164317276Y-110943171D01*
X164317276Y-110943171D02*
X164364895Y-110752695D01*
X164364895Y-110752695D02*
X164412514Y-110657457D01*
X164412514Y-110657457D02*
X164460133Y-110609838D01*
X164460133Y-110609838D02*
X164555371Y-110562219D01*
%TO.C,R4*%
X176662419Y-104865466D02*
X176186228Y-105198799D01*
X176662419Y-105436894D02*
X175662419Y-105436894D01*
X175662419Y-105436894D02*
X175662419Y-105055942D01*
X175662419Y-105055942D02*
X175710038Y-104960704D01*
X175710038Y-104960704D02*
X175757657Y-104913085D01*
X175757657Y-104913085D02*
X175852895Y-104865466D01*
X175852895Y-104865466D02*
X175995752Y-104865466D01*
X175995752Y-104865466D02*
X176090990Y-104913085D01*
X176090990Y-104913085D02*
X176138609Y-104960704D01*
X176138609Y-104960704D02*
X176186228Y-105055942D01*
X176186228Y-105055942D02*
X176186228Y-105436894D01*
X175995752Y-104008323D02*
X176662419Y-104008323D01*
X175614800Y-104246418D02*
X176329085Y-104484513D01*
X176329085Y-104484513D02*
X176329085Y-103865466D01*
%TO.C,D4*%
X149589905Y-122850619D02*
X149589905Y-121850619D01*
X149589905Y-121850619D02*
X149828000Y-121850619D01*
X149828000Y-121850619D02*
X149970857Y-121898238D01*
X149970857Y-121898238D02*
X150066095Y-121993476D01*
X150066095Y-121993476D02*
X150113714Y-122088714D01*
X150113714Y-122088714D02*
X150161333Y-122279190D01*
X150161333Y-122279190D02*
X150161333Y-122422047D01*
X150161333Y-122422047D02*
X150113714Y-122612523D01*
X150113714Y-122612523D02*
X150066095Y-122707761D01*
X150066095Y-122707761D02*
X149970857Y-122803000D01*
X149970857Y-122803000D02*
X149828000Y-122850619D01*
X149828000Y-122850619D02*
X149589905Y-122850619D01*
X151018476Y-122183952D02*
X151018476Y-122850619D01*
X150780381Y-121803000D02*
X150542286Y-122517285D01*
X150542286Y-122517285D02*
X151161333Y-122517285D01*
%TO.C,C11*%
X155262342Y-63537180D02*
X155214723Y-63584800D01*
X155214723Y-63584800D02*
X155071866Y-63632419D01*
X155071866Y-63632419D02*
X154976628Y-63632419D01*
X154976628Y-63632419D02*
X154833771Y-63584800D01*
X154833771Y-63584800D02*
X154738533Y-63489561D01*
X154738533Y-63489561D02*
X154690914Y-63394323D01*
X154690914Y-63394323D02*
X154643295Y-63203847D01*
X154643295Y-63203847D02*
X154643295Y-63060990D01*
X154643295Y-63060990D02*
X154690914Y-62870514D01*
X154690914Y-62870514D02*
X154738533Y-62775276D01*
X154738533Y-62775276D02*
X154833771Y-62680038D01*
X154833771Y-62680038D02*
X154976628Y-62632419D01*
X154976628Y-62632419D02*
X155071866Y-62632419D01*
X155071866Y-62632419D02*
X155214723Y-62680038D01*
X155214723Y-62680038D02*
X155262342Y-62727657D01*
X156214723Y-63632419D02*
X155643295Y-63632419D01*
X155929009Y-63632419D02*
X155929009Y-62632419D01*
X155929009Y-62632419D02*
X155833771Y-62775276D01*
X155833771Y-62775276D02*
X155738533Y-62870514D01*
X155738533Y-62870514D02*
X155643295Y-62918133D01*
X157167104Y-63632419D02*
X156595676Y-63632419D01*
X156881390Y-63632419D02*
X156881390Y-62632419D01*
X156881390Y-62632419D02*
X156786152Y-62775276D01*
X156786152Y-62775276D02*
X156690914Y-62870514D01*
X156690914Y-62870514D02*
X156595676Y-62918133D01*
%TO.C,R12*%
X195419742Y-118064619D02*
X195086409Y-117588428D01*
X194848314Y-118064619D02*
X194848314Y-117064619D01*
X194848314Y-117064619D02*
X195229266Y-117064619D01*
X195229266Y-117064619D02*
X195324504Y-117112238D01*
X195324504Y-117112238D02*
X195372123Y-117159857D01*
X195372123Y-117159857D02*
X195419742Y-117255095D01*
X195419742Y-117255095D02*
X195419742Y-117397952D01*
X195419742Y-117397952D02*
X195372123Y-117493190D01*
X195372123Y-117493190D02*
X195324504Y-117540809D01*
X195324504Y-117540809D02*
X195229266Y-117588428D01*
X195229266Y-117588428D02*
X194848314Y-117588428D01*
X196372123Y-118064619D02*
X195800695Y-118064619D01*
X196086409Y-118064619D02*
X196086409Y-117064619D01*
X196086409Y-117064619D02*
X195991171Y-117207476D01*
X195991171Y-117207476D02*
X195895933Y-117302714D01*
X195895933Y-117302714D02*
X195800695Y-117350333D01*
X196753076Y-117159857D02*
X196800695Y-117112238D01*
X196800695Y-117112238D02*
X196895933Y-117064619D01*
X196895933Y-117064619D02*
X197134028Y-117064619D01*
X197134028Y-117064619D02*
X197229266Y-117112238D01*
X197229266Y-117112238D02*
X197276885Y-117159857D01*
X197276885Y-117159857D02*
X197324504Y-117255095D01*
X197324504Y-117255095D02*
X197324504Y-117350333D01*
X197324504Y-117350333D02*
X197276885Y-117493190D01*
X197276885Y-117493190D02*
X196705457Y-118064619D01*
X196705457Y-118064619D02*
X197324504Y-118064619D01*
%TO.C,C7*%
X149134533Y-103977880D02*
X149086914Y-104025500D01*
X149086914Y-104025500D02*
X148944057Y-104073119D01*
X148944057Y-104073119D02*
X148848819Y-104073119D01*
X148848819Y-104073119D02*
X148705962Y-104025500D01*
X148705962Y-104025500D02*
X148610724Y-103930261D01*
X148610724Y-103930261D02*
X148563105Y-103835023D01*
X148563105Y-103835023D02*
X148515486Y-103644547D01*
X148515486Y-103644547D02*
X148515486Y-103501690D01*
X148515486Y-103501690D02*
X148563105Y-103311214D01*
X148563105Y-103311214D02*
X148610724Y-103215976D01*
X148610724Y-103215976D02*
X148705962Y-103120738D01*
X148705962Y-103120738D02*
X148848819Y-103073119D01*
X148848819Y-103073119D02*
X148944057Y-103073119D01*
X148944057Y-103073119D02*
X149086914Y-103120738D01*
X149086914Y-103120738D02*
X149134533Y-103168357D01*
X149467867Y-103073119D02*
X150134533Y-103073119D01*
X150134533Y-103073119D02*
X149705962Y-104073119D01*
%TO.C,R6*%
X175062219Y-113450666D02*
X174586028Y-113783999D01*
X175062219Y-114022094D02*
X174062219Y-114022094D01*
X174062219Y-114022094D02*
X174062219Y-113641142D01*
X174062219Y-113641142D02*
X174109838Y-113545904D01*
X174109838Y-113545904D02*
X174157457Y-113498285D01*
X174157457Y-113498285D02*
X174252695Y-113450666D01*
X174252695Y-113450666D02*
X174395552Y-113450666D01*
X174395552Y-113450666D02*
X174490790Y-113498285D01*
X174490790Y-113498285D02*
X174538409Y-113545904D01*
X174538409Y-113545904D02*
X174586028Y-113641142D01*
X174586028Y-113641142D02*
X174586028Y-114022094D01*
X174062219Y-112593523D02*
X174062219Y-112783999D01*
X174062219Y-112783999D02*
X174109838Y-112879237D01*
X174109838Y-112879237D02*
X174157457Y-112926856D01*
X174157457Y-112926856D02*
X174300314Y-113022094D01*
X174300314Y-113022094D02*
X174490790Y-113069713D01*
X174490790Y-113069713D02*
X174871742Y-113069713D01*
X174871742Y-113069713D02*
X174966980Y-113022094D01*
X174966980Y-113022094D02*
X175014600Y-112974475D01*
X175014600Y-112974475D02*
X175062219Y-112879237D01*
X175062219Y-112879237D02*
X175062219Y-112688761D01*
X175062219Y-112688761D02*
X175014600Y-112593523D01*
X175014600Y-112593523D02*
X174966980Y-112545904D01*
X174966980Y-112545904D02*
X174871742Y-112498285D01*
X174871742Y-112498285D02*
X174633647Y-112498285D01*
X174633647Y-112498285D02*
X174538409Y-112545904D01*
X174538409Y-112545904D02*
X174490790Y-112593523D01*
X174490790Y-112593523D02*
X174443171Y-112688761D01*
X174443171Y-112688761D02*
X174443171Y-112879237D01*
X174443171Y-112879237D02*
X174490790Y-112974475D01*
X174490790Y-112974475D02*
X174538409Y-113022094D01*
X174538409Y-113022094D02*
X174633647Y-113069713D01*
%TO.C,D3*%
X186430619Y-77954094D02*
X185430619Y-77954094D01*
X185430619Y-77954094D02*
X185430619Y-77715999D01*
X185430619Y-77715999D02*
X185478238Y-77573142D01*
X185478238Y-77573142D02*
X185573476Y-77477904D01*
X185573476Y-77477904D02*
X185668714Y-77430285D01*
X185668714Y-77430285D02*
X185859190Y-77382666D01*
X185859190Y-77382666D02*
X186002047Y-77382666D01*
X186002047Y-77382666D02*
X186192523Y-77430285D01*
X186192523Y-77430285D02*
X186287761Y-77477904D01*
X186287761Y-77477904D02*
X186383000Y-77573142D01*
X186383000Y-77573142D02*
X186430619Y-77715999D01*
X186430619Y-77715999D02*
X186430619Y-77954094D01*
X185430619Y-77049332D02*
X185430619Y-76430285D01*
X185430619Y-76430285D02*
X185811571Y-76763618D01*
X185811571Y-76763618D02*
X185811571Y-76620761D01*
X185811571Y-76620761D02*
X185859190Y-76525523D01*
X185859190Y-76525523D02*
X185906809Y-76477904D01*
X185906809Y-76477904D02*
X186002047Y-76430285D01*
X186002047Y-76430285D02*
X186240142Y-76430285D01*
X186240142Y-76430285D02*
X186335380Y-76477904D01*
X186335380Y-76477904D02*
X186383000Y-76525523D01*
X186383000Y-76525523D02*
X186430619Y-76620761D01*
X186430619Y-76620761D02*
X186430619Y-76906475D01*
X186430619Y-76906475D02*
X186383000Y-77001713D01*
X186383000Y-77001713D02*
X186335380Y-77049332D01*
%TO.C,R5*%
X176687819Y-109462866D02*
X176211628Y-109796199D01*
X176687819Y-110034294D02*
X175687819Y-110034294D01*
X175687819Y-110034294D02*
X175687819Y-109653342D01*
X175687819Y-109653342D02*
X175735438Y-109558104D01*
X175735438Y-109558104D02*
X175783057Y-109510485D01*
X175783057Y-109510485D02*
X175878295Y-109462866D01*
X175878295Y-109462866D02*
X176021152Y-109462866D01*
X176021152Y-109462866D02*
X176116390Y-109510485D01*
X176116390Y-109510485D02*
X176164009Y-109558104D01*
X176164009Y-109558104D02*
X176211628Y-109653342D01*
X176211628Y-109653342D02*
X176211628Y-110034294D01*
X175687819Y-108558104D02*
X175687819Y-109034294D01*
X175687819Y-109034294D02*
X176164009Y-109081913D01*
X176164009Y-109081913D02*
X176116390Y-109034294D01*
X176116390Y-109034294D02*
X176068771Y-108939056D01*
X176068771Y-108939056D02*
X176068771Y-108700961D01*
X176068771Y-108700961D02*
X176116390Y-108605723D01*
X176116390Y-108605723D02*
X176164009Y-108558104D01*
X176164009Y-108558104D02*
X176259247Y-108510485D01*
X176259247Y-108510485D02*
X176497342Y-108510485D01*
X176497342Y-108510485D02*
X176592580Y-108558104D01*
X176592580Y-108558104D02*
X176640200Y-108605723D01*
X176640200Y-108605723D02*
X176687819Y-108700961D01*
X176687819Y-108700961D02*
X176687819Y-108939056D01*
X176687819Y-108939056D02*
X176640200Y-109034294D01*
X176640200Y-109034294D02*
X176592580Y-109081913D01*
%TO.C,C5*%
X197953333Y-111111380D02*
X197905714Y-111159000D01*
X197905714Y-111159000D02*
X197762857Y-111206619D01*
X197762857Y-111206619D02*
X197667619Y-111206619D01*
X197667619Y-111206619D02*
X197524762Y-111159000D01*
X197524762Y-111159000D02*
X197429524Y-111063761D01*
X197429524Y-111063761D02*
X197381905Y-110968523D01*
X197381905Y-110968523D02*
X197334286Y-110778047D01*
X197334286Y-110778047D02*
X197334286Y-110635190D01*
X197334286Y-110635190D02*
X197381905Y-110444714D01*
X197381905Y-110444714D02*
X197429524Y-110349476D01*
X197429524Y-110349476D02*
X197524762Y-110254238D01*
X197524762Y-110254238D02*
X197667619Y-110206619D01*
X197667619Y-110206619D02*
X197762857Y-110206619D01*
X197762857Y-110206619D02*
X197905714Y-110254238D01*
X197905714Y-110254238D02*
X197953333Y-110301857D01*
X198858095Y-110206619D02*
X198381905Y-110206619D01*
X198381905Y-110206619D02*
X198334286Y-110682809D01*
X198334286Y-110682809D02*
X198381905Y-110635190D01*
X198381905Y-110635190D02*
X198477143Y-110587571D01*
X198477143Y-110587571D02*
X198715238Y-110587571D01*
X198715238Y-110587571D02*
X198810476Y-110635190D01*
X198810476Y-110635190D02*
X198858095Y-110682809D01*
X198858095Y-110682809D02*
X198905714Y-110778047D01*
X198905714Y-110778047D02*
X198905714Y-111016142D01*
X198905714Y-111016142D02*
X198858095Y-111111380D01*
X198858095Y-111111380D02*
X198810476Y-111159000D01*
X198810476Y-111159000D02*
X198715238Y-111206619D01*
X198715238Y-111206619D02*
X198477143Y-111206619D01*
X198477143Y-111206619D02*
X198381905Y-111159000D01*
X198381905Y-111159000D02*
X198334286Y-111111380D01*
%TO.C,R10*%
X178923019Y-121064257D02*
X178446828Y-121397590D01*
X178923019Y-121635685D02*
X177923019Y-121635685D01*
X177923019Y-121635685D02*
X177923019Y-121254733D01*
X177923019Y-121254733D02*
X177970638Y-121159495D01*
X177970638Y-121159495D02*
X178018257Y-121111876D01*
X178018257Y-121111876D02*
X178113495Y-121064257D01*
X178113495Y-121064257D02*
X178256352Y-121064257D01*
X178256352Y-121064257D02*
X178351590Y-121111876D01*
X178351590Y-121111876D02*
X178399209Y-121159495D01*
X178399209Y-121159495D02*
X178446828Y-121254733D01*
X178446828Y-121254733D02*
X178446828Y-121635685D01*
X178923019Y-120111876D02*
X178923019Y-120683304D01*
X178923019Y-120397590D02*
X177923019Y-120397590D01*
X177923019Y-120397590D02*
X178065876Y-120492828D01*
X178065876Y-120492828D02*
X178161114Y-120588066D01*
X178161114Y-120588066D02*
X178208733Y-120683304D01*
X177923019Y-119492828D02*
X177923019Y-119397590D01*
X177923019Y-119397590D02*
X177970638Y-119302352D01*
X177970638Y-119302352D02*
X178018257Y-119254733D01*
X178018257Y-119254733D02*
X178113495Y-119207114D01*
X178113495Y-119207114D02*
X178303971Y-119159495D01*
X178303971Y-119159495D02*
X178542066Y-119159495D01*
X178542066Y-119159495D02*
X178732542Y-119207114D01*
X178732542Y-119207114D02*
X178827780Y-119254733D01*
X178827780Y-119254733D02*
X178875400Y-119302352D01*
X178875400Y-119302352D02*
X178923019Y-119397590D01*
X178923019Y-119397590D02*
X178923019Y-119492828D01*
X178923019Y-119492828D02*
X178875400Y-119588066D01*
X178875400Y-119588066D02*
X178827780Y-119635685D01*
X178827780Y-119635685D02*
X178732542Y-119683304D01*
X178732542Y-119683304D02*
X178542066Y-119730923D01*
X178542066Y-119730923D02*
X178303971Y-119730923D01*
X178303971Y-119730923D02*
X178113495Y-119683304D01*
X178113495Y-119683304D02*
X178018257Y-119635685D01*
X178018257Y-119635685D02*
X177970638Y-119588066D01*
X177970638Y-119588066D02*
X177923019Y-119492828D01*
%TO.C,C9*%
X168057533Y-119671180D02*
X168009914Y-119718800D01*
X168009914Y-119718800D02*
X167867057Y-119766419D01*
X167867057Y-119766419D02*
X167771819Y-119766419D01*
X167771819Y-119766419D02*
X167628962Y-119718800D01*
X167628962Y-119718800D02*
X167533724Y-119623561D01*
X167533724Y-119623561D02*
X167486105Y-119528323D01*
X167486105Y-119528323D02*
X167438486Y-119337847D01*
X167438486Y-119337847D02*
X167438486Y-119194990D01*
X167438486Y-119194990D02*
X167486105Y-119004514D01*
X167486105Y-119004514D02*
X167533724Y-118909276D01*
X167533724Y-118909276D02*
X167628962Y-118814038D01*
X167628962Y-118814038D02*
X167771819Y-118766419D01*
X167771819Y-118766419D02*
X167867057Y-118766419D01*
X167867057Y-118766419D02*
X168009914Y-118814038D01*
X168009914Y-118814038D02*
X168057533Y-118861657D01*
X168533724Y-119766419D02*
X168724200Y-119766419D01*
X168724200Y-119766419D02*
X168819438Y-119718800D01*
X168819438Y-119718800D02*
X168867057Y-119671180D01*
X168867057Y-119671180D02*
X168962295Y-119528323D01*
X168962295Y-119528323D02*
X169009914Y-119337847D01*
X169009914Y-119337847D02*
X169009914Y-118956895D01*
X169009914Y-118956895D02*
X168962295Y-118861657D01*
X168962295Y-118861657D02*
X168914676Y-118814038D01*
X168914676Y-118814038D02*
X168819438Y-118766419D01*
X168819438Y-118766419D02*
X168628962Y-118766419D01*
X168628962Y-118766419D02*
X168533724Y-118814038D01*
X168533724Y-118814038D02*
X168486105Y-118861657D01*
X168486105Y-118861657D02*
X168438486Y-118956895D01*
X168438486Y-118956895D02*
X168438486Y-119194990D01*
X168438486Y-119194990D02*
X168486105Y-119290228D01*
X168486105Y-119290228D02*
X168533724Y-119337847D01*
X168533724Y-119337847D02*
X168628962Y-119385466D01*
X168628962Y-119385466D02*
X168819438Y-119385466D01*
X168819438Y-119385466D02*
X168914676Y-119337847D01*
X168914676Y-119337847D02*
X168962295Y-119290228D01*
X168962295Y-119290228D02*
X169009914Y-119194990D01*
%TO.C,D1*%
X148838619Y-96728594D02*
X147838619Y-96728594D01*
X147838619Y-96728594D02*
X147838619Y-96490499D01*
X147838619Y-96490499D02*
X147886238Y-96347642D01*
X147886238Y-96347642D02*
X147981476Y-96252404D01*
X147981476Y-96252404D02*
X148076714Y-96204785D01*
X148076714Y-96204785D02*
X148267190Y-96157166D01*
X148267190Y-96157166D02*
X148410047Y-96157166D01*
X148410047Y-96157166D02*
X148600523Y-96204785D01*
X148600523Y-96204785D02*
X148695761Y-96252404D01*
X148695761Y-96252404D02*
X148791000Y-96347642D01*
X148791000Y-96347642D02*
X148838619Y-96490499D01*
X148838619Y-96490499D02*
X148838619Y-96728594D01*
X148838619Y-95204785D02*
X148838619Y-95776213D01*
X148838619Y-95490499D02*
X147838619Y-95490499D01*
X147838619Y-95490499D02*
X147981476Y-95585737D01*
X147981476Y-95585737D02*
X148076714Y-95680975D01*
X148076714Y-95680975D02*
X148124333Y-95776213D01*
%TO.C,U8*%
X190722095Y-123440619D02*
X190722095Y-124250142D01*
X190722095Y-124250142D02*
X190769714Y-124345380D01*
X190769714Y-124345380D02*
X190817333Y-124393000D01*
X190817333Y-124393000D02*
X190912571Y-124440619D01*
X190912571Y-124440619D02*
X191103047Y-124440619D01*
X191103047Y-124440619D02*
X191198285Y-124393000D01*
X191198285Y-124393000D02*
X191245904Y-124345380D01*
X191245904Y-124345380D02*
X191293523Y-124250142D01*
X191293523Y-124250142D02*
X191293523Y-123440619D01*
X191912571Y-123869190D02*
X191817333Y-123821571D01*
X191817333Y-123821571D02*
X191769714Y-123773952D01*
X191769714Y-123773952D02*
X191722095Y-123678714D01*
X191722095Y-123678714D02*
X191722095Y-123631095D01*
X191722095Y-123631095D02*
X191769714Y-123535857D01*
X191769714Y-123535857D02*
X191817333Y-123488238D01*
X191817333Y-123488238D02*
X191912571Y-123440619D01*
X191912571Y-123440619D02*
X192103047Y-123440619D01*
X192103047Y-123440619D02*
X192198285Y-123488238D01*
X192198285Y-123488238D02*
X192245904Y-123535857D01*
X192245904Y-123535857D02*
X192293523Y-123631095D01*
X192293523Y-123631095D02*
X192293523Y-123678714D01*
X192293523Y-123678714D02*
X192245904Y-123773952D01*
X192245904Y-123773952D02*
X192198285Y-123821571D01*
X192198285Y-123821571D02*
X192103047Y-123869190D01*
X192103047Y-123869190D02*
X191912571Y-123869190D01*
X191912571Y-123869190D02*
X191817333Y-123916809D01*
X191817333Y-123916809D02*
X191769714Y-123964428D01*
X191769714Y-123964428D02*
X191722095Y-124059666D01*
X191722095Y-124059666D02*
X191722095Y-124250142D01*
X191722095Y-124250142D02*
X191769714Y-124345380D01*
X191769714Y-124345380D02*
X191817333Y-124393000D01*
X191817333Y-124393000D02*
X191912571Y-124440619D01*
X191912571Y-124440619D02*
X192103047Y-124440619D01*
X192103047Y-124440619D02*
X192198285Y-124393000D01*
X192198285Y-124393000D02*
X192245904Y-124345380D01*
X192245904Y-124345380D02*
X192293523Y-124250142D01*
X192293523Y-124250142D02*
X192293523Y-124059666D01*
X192293523Y-124059666D02*
X192245904Y-123964428D01*
X192245904Y-123964428D02*
X192198285Y-123916809D01*
X192198285Y-123916809D02*
X192103047Y-123869190D01*
%TO.C,C8*%
X151085010Y-118377380D02*
X151037391Y-118425000D01*
X151037391Y-118425000D02*
X150894534Y-118472619D01*
X150894534Y-118472619D02*
X150799296Y-118472619D01*
X150799296Y-118472619D02*
X150656439Y-118425000D01*
X150656439Y-118425000D02*
X150561201Y-118329761D01*
X150561201Y-118329761D02*
X150513582Y-118234523D01*
X150513582Y-118234523D02*
X150465963Y-118044047D01*
X150465963Y-118044047D02*
X150465963Y-117901190D01*
X150465963Y-117901190D02*
X150513582Y-117710714D01*
X150513582Y-117710714D02*
X150561201Y-117615476D01*
X150561201Y-117615476D02*
X150656439Y-117520238D01*
X150656439Y-117520238D02*
X150799296Y-117472619D01*
X150799296Y-117472619D02*
X150894534Y-117472619D01*
X150894534Y-117472619D02*
X151037391Y-117520238D01*
X151037391Y-117520238D02*
X151085010Y-117567857D01*
X151656439Y-117901190D02*
X151561201Y-117853571D01*
X151561201Y-117853571D02*
X151513582Y-117805952D01*
X151513582Y-117805952D02*
X151465963Y-117710714D01*
X151465963Y-117710714D02*
X151465963Y-117663095D01*
X151465963Y-117663095D02*
X151513582Y-117567857D01*
X151513582Y-117567857D02*
X151561201Y-117520238D01*
X151561201Y-117520238D02*
X151656439Y-117472619D01*
X151656439Y-117472619D02*
X151846915Y-117472619D01*
X151846915Y-117472619D02*
X151942153Y-117520238D01*
X151942153Y-117520238D02*
X151989772Y-117567857D01*
X151989772Y-117567857D02*
X152037391Y-117663095D01*
X152037391Y-117663095D02*
X152037391Y-117710714D01*
X152037391Y-117710714D02*
X151989772Y-117805952D01*
X151989772Y-117805952D02*
X151942153Y-117853571D01*
X151942153Y-117853571D02*
X151846915Y-117901190D01*
X151846915Y-117901190D02*
X151656439Y-117901190D01*
X151656439Y-117901190D02*
X151561201Y-117948809D01*
X151561201Y-117948809D02*
X151513582Y-117996428D01*
X151513582Y-117996428D02*
X151465963Y-118091666D01*
X151465963Y-118091666D02*
X151465963Y-118282142D01*
X151465963Y-118282142D02*
X151513582Y-118377380D01*
X151513582Y-118377380D02*
X151561201Y-118425000D01*
X151561201Y-118425000D02*
X151656439Y-118472619D01*
X151656439Y-118472619D02*
X151846915Y-118472619D01*
X151846915Y-118472619D02*
X151942153Y-118425000D01*
X151942153Y-118425000D02*
X151989772Y-118377380D01*
X151989772Y-118377380D02*
X152037391Y-118282142D01*
X152037391Y-118282142D02*
X152037391Y-118091666D01*
X152037391Y-118091666D02*
X151989772Y-117996428D01*
X151989772Y-117996428D02*
X151942153Y-117948809D01*
X151942153Y-117948809D02*
X151846915Y-117901190D01*
%TO.C,C15*%
X169486342Y-74890980D02*
X169438723Y-74938600D01*
X169438723Y-74938600D02*
X169295866Y-74986219D01*
X169295866Y-74986219D02*
X169200628Y-74986219D01*
X169200628Y-74986219D02*
X169057771Y-74938600D01*
X169057771Y-74938600D02*
X168962533Y-74843361D01*
X168962533Y-74843361D02*
X168914914Y-74748123D01*
X168914914Y-74748123D02*
X168867295Y-74557647D01*
X168867295Y-74557647D02*
X168867295Y-74414790D01*
X168867295Y-74414790D02*
X168914914Y-74224314D01*
X168914914Y-74224314D02*
X168962533Y-74129076D01*
X168962533Y-74129076D02*
X169057771Y-74033838D01*
X169057771Y-74033838D02*
X169200628Y-73986219D01*
X169200628Y-73986219D02*
X169295866Y-73986219D01*
X169295866Y-73986219D02*
X169438723Y-74033838D01*
X169438723Y-74033838D02*
X169486342Y-74081457D01*
X170438723Y-74986219D02*
X169867295Y-74986219D01*
X170153009Y-74986219D02*
X170153009Y-73986219D01*
X170153009Y-73986219D02*
X170057771Y-74129076D01*
X170057771Y-74129076D02*
X169962533Y-74224314D01*
X169962533Y-74224314D02*
X169867295Y-74271933D01*
X171343485Y-73986219D02*
X170867295Y-73986219D01*
X170867295Y-73986219D02*
X170819676Y-74462409D01*
X170819676Y-74462409D02*
X170867295Y-74414790D01*
X170867295Y-74414790D02*
X170962533Y-74367171D01*
X170962533Y-74367171D02*
X171200628Y-74367171D01*
X171200628Y-74367171D02*
X171295866Y-74414790D01*
X171295866Y-74414790D02*
X171343485Y-74462409D01*
X171343485Y-74462409D02*
X171391104Y-74557647D01*
X171391104Y-74557647D02*
X171391104Y-74795742D01*
X171391104Y-74795742D02*
X171343485Y-74890980D01*
X171343485Y-74890980D02*
X171295866Y-74938600D01*
X171295866Y-74938600D02*
X171200628Y-74986219D01*
X171200628Y-74986219D02*
X170962533Y-74986219D01*
X170962533Y-74986219D02*
X170867295Y-74938600D01*
X170867295Y-74938600D02*
X170819676Y-74890980D01*
%TO.C,R11*%
X171670742Y-117251819D02*
X171337409Y-116775628D01*
X171099314Y-117251819D02*
X171099314Y-116251819D01*
X171099314Y-116251819D02*
X171480266Y-116251819D01*
X171480266Y-116251819D02*
X171575504Y-116299438D01*
X171575504Y-116299438D02*
X171623123Y-116347057D01*
X171623123Y-116347057D02*
X171670742Y-116442295D01*
X171670742Y-116442295D02*
X171670742Y-116585152D01*
X171670742Y-116585152D02*
X171623123Y-116680390D01*
X171623123Y-116680390D02*
X171575504Y-116728009D01*
X171575504Y-116728009D02*
X171480266Y-116775628D01*
X171480266Y-116775628D02*
X171099314Y-116775628D01*
X172623123Y-117251819D02*
X172051695Y-117251819D01*
X172337409Y-117251819D02*
X172337409Y-116251819D01*
X172337409Y-116251819D02*
X172242171Y-116394676D01*
X172242171Y-116394676D02*
X172146933Y-116489914D01*
X172146933Y-116489914D02*
X172051695Y-116537533D01*
X173575504Y-117251819D02*
X173004076Y-117251819D01*
X173289790Y-117251819D02*
X173289790Y-116251819D01*
X173289790Y-116251819D02*
X173194552Y-116394676D01*
X173194552Y-116394676D02*
X173099314Y-116489914D01*
X173099314Y-116489914D02*
X173004076Y-116537533D01*
%TO.C,U7*%
X159258095Y-122750619D02*
X159258095Y-123560142D01*
X159258095Y-123560142D02*
X159305714Y-123655380D01*
X159305714Y-123655380D02*
X159353333Y-123703000D01*
X159353333Y-123703000D02*
X159448571Y-123750619D01*
X159448571Y-123750619D02*
X159639047Y-123750619D01*
X159639047Y-123750619D02*
X159734285Y-123703000D01*
X159734285Y-123703000D02*
X159781904Y-123655380D01*
X159781904Y-123655380D02*
X159829523Y-123560142D01*
X159829523Y-123560142D02*
X159829523Y-122750619D01*
X160210476Y-122750619D02*
X160877142Y-122750619D01*
X160877142Y-122750619D02*
X160448571Y-123750619D01*
%TO.C,C4*%
X195921333Y-111949580D02*
X195873714Y-111997200D01*
X195873714Y-111997200D02*
X195730857Y-112044819D01*
X195730857Y-112044819D02*
X195635619Y-112044819D01*
X195635619Y-112044819D02*
X195492762Y-111997200D01*
X195492762Y-111997200D02*
X195397524Y-111901961D01*
X195397524Y-111901961D02*
X195349905Y-111806723D01*
X195349905Y-111806723D02*
X195302286Y-111616247D01*
X195302286Y-111616247D02*
X195302286Y-111473390D01*
X195302286Y-111473390D02*
X195349905Y-111282914D01*
X195349905Y-111282914D02*
X195397524Y-111187676D01*
X195397524Y-111187676D02*
X195492762Y-111092438D01*
X195492762Y-111092438D02*
X195635619Y-111044819D01*
X195635619Y-111044819D02*
X195730857Y-111044819D01*
X195730857Y-111044819D02*
X195873714Y-111092438D01*
X195873714Y-111092438D02*
X195921333Y-111140057D01*
X196778476Y-111378152D02*
X196778476Y-112044819D01*
X196540381Y-110997200D02*
X196302286Y-111711485D01*
X196302286Y-111711485D02*
X196921333Y-111711485D01*
%TO.C,R7*%
X176566533Y-99319419D02*
X176233200Y-98843228D01*
X175995105Y-99319419D02*
X175995105Y-98319419D01*
X175995105Y-98319419D02*
X176376057Y-98319419D01*
X176376057Y-98319419D02*
X176471295Y-98367038D01*
X176471295Y-98367038D02*
X176518914Y-98414657D01*
X176518914Y-98414657D02*
X176566533Y-98509895D01*
X176566533Y-98509895D02*
X176566533Y-98652752D01*
X176566533Y-98652752D02*
X176518914Y-98747990D01*
X176518914Y-98747990D02*
X176471295Y-98795609D01*
X176471295Y-98795609D02*
X176376057Y-98843228D01*
X176376057Y-98843228D02*
X175995105Y-98843228D01*
X176899867Y-98319419D02*
X177566533Y-98319419D01*
X177566533Y-98319419D02*
X177137962Y-99319419D01*
%TO.C,U9*%
X131826095Y-67363619D02*
X131826095Y-68173142D01*
X131826095Y-68173142D02*
X131873714Y-68268380D01*
X131873714Y-68268380D02*
X131921333Y-68316000D01*
X131921333Y-68316000D02*
X132016571Y-68363619D01*
X132016571Y-68363619D02*
X132207047Y-68363619D01*
X132207047Y-68363619D02*
X132302285Y-68316000D01*
X132302285Y-68316000D02*
X132349904Y-68268380D01*
X132349904Y-68268380D02*
X132397523Y-68173142D01*
X132397523Y-68173142D02*
X132397523Y-67363619D01*
X132921333Y-68363619D02*
X133111809Y-68363619D01*
X133111809Y-68363619D02*
X133207047Y-68316000D01*
X133207047Y-68316000D02*
X133254666Y-68268380D01*
X133254666Y-68268380D02*
X133349904Y-68125523D01*
X133349904Y-68125523D02*
X133397523Y-67935047D01*
X133397523Y-67935047D02*
X133397523Y-67554095D01*
X133397523Y-67554095D02*
X133349904Y-67458857D01*
X133349904Y-67458857D02*
X133302285Y-67411238D01*
X133302285Y-67411238D02*
X133207047Y-67363619D01*
X133207047Y-67363619D02*
X133016571Y-67363619D01*
X133016571Y-67363619D02*
X132921333Y-67411238D01*
X132921333Y-67411238D02*
X132873714Y-67458857D01*
X132873714Y-67458857D02*
X132826095Y-67554095D01*
X132826095Y-67554095D02*
X132826095Y-67792190D01*
X132826095Y-67792190D02*
X132873714Y-67887428D01*
X132873714Y-67887428D02*
X132921333Y-67935047D01*
X132921333Y-67935047D02*
X133016571Y-67982666D01*
X133016571Y-67982666D02*
X133207047Y-67982666D01*
X133207047Y-67982666D02*
X133302285Y-67935047D01*
X133302285Y-67935047D02*
X133349904Y-67887428D01*
X133349904Y-67887428D02*
X133397523Y-67792190D01*
%TO.C,R9*%
X184034133Y-114788019D02*
X183700800Y-114311828D01*
X183462705Y-114788019D02*
X183462705Y-113788019D01*
X183462705Y-113788019D02*
X183843657Y-113788019D01*
X183843657Y-113788019D02*
X183938895Y-113835638D01*
X183938895Y-113835638D02*
X183986514Y-113883257D01*
X183986514Y-113883257D02*
X184034133Y-113978495D01*
X184034133Y-113978495D02*
X184034133Y-114121352D01*
X184034133Y-114121352D02*
X183986514Y-114216590D01*
X183986514Y-114216590D02*
X183938895Y-114264209D01*
X183938895Y-114264209D02*
X183843657Y-114311828D01*
X183843657Y-114311828D02*
X183462705Y-114311828D01*
X184510324Y-114788019D02*
X184700800Y-114788019D01*
X184700800Y-114788019D02*
X184796038Y-114740400D01*
X184796038Y-114740400D02*
X184843657Y-114692780D01*
X184843657Y-114692780D02*
X184938895Y-114549923D01*
X184938895Y-114549923D02*
X184986514Y-114359447D01*
X184986514Y-114359447D02*
X184986514Y-113978495D01*
X184986514Y-113978495D02*
X184938895Y-113883257D01*
X184938895Y-113883257D02*
X184891276Y-113835638D01*
X184891276Y-113835638D02*
X184796038Y-113788019D01*
X184796038Y-113788019D02*
X184605562Y-113788019D01*
X184605562Y-113788019D02*
X184510324Y-113835638D01*
X184510324Y-113835638D02*
X184462705Y-113883257D01*
X184462705Y-113883257D02*
X184415086Y-113978495D01*
X184415086Y-113978495D02*
X184415086Y-114216590D01*
X184415086Y-114216590D02*
X184462705Y-114311828D01*
X184462705Y-114311828D02*
X184510324Y-114359447D01*
X184510324Y-114359447D02*
X184605562Y-114407066D01*
X184605562Y-114407066D02*
X184796038Y-114407066D01*
X184796038Y-114407066D02*
X184891276Y-114359447D01*
X184891276Y-114359447D02*
X184938895Y-114311828D01*
X184938895Y-114311828D02*
X184986514Y-114216590D01*
%TO.C,R1*%
X184084933Y-108692019D02*
X183751600Y-108215828D01*
X183513505Y-108692019D02*
X183513505Y-107692019D01*
X183513505Y-107692019D02*
X183894457Y-107692019D01*
X183894457Y-107692019D02*
X183989695Y-107739638D01*
X183989695Y-107739638D02*
X184037314Y-107787257D01*
X184037314Y-107787257D02*
X184084933Y-107882495D01*
X184084933Y-107882495D02*
X184084933Y-108025352D01*
X184084933Y-108025352D02*
X184037314Y-108120590D01*
X184037314Y-108120590D02*
X183989695Y-108168209D01*
X183989695Y-108168209D02*
X183894457Y-108215828D01*
X183894457Y-108215828D02*
X183513505Y-108215828D01*
X185037314Y-108692019D02*
X184465886Y-108692019D01*
X184751600Y-108692019D02*
X184751600Y-107692019D01*
X184751600Y-107692019D02*
X184656362Y-107834876D01*
X184656362Y-107834876D02*
X184561124Y-107930114D01*
X184561124Y-107930114D02*
X184465886Y-107977733D01*
%TO.C,R14*%
X197096142Y-108641219D02*
X196762809Y-108165028D01*
X196524714Y-108641219D02*
X196524714Y-107641219D01*
X196524714Y-107641219D02*
X196905666Y-107641219D01*
X196905666Y-107641219D02*
X197000904Y-107688838D01*
X197000904Y-107688838D02*
X197048523Y-107736457D01*
X197048523Y-107736457D02*
X197096142Y-107831695D01*
X197096142Y-107831695D02*
X197096142Y-107974552D01*
X197096142Y-107974552D02*
X197048523Y-108069790D01*
X197048523Y-108069790D02*
X197000904Y-108117409D01*
X197000904Y-108117409D02*
X196905666Y-108165028D01*
X196905666Y-108165028D02*
X196524714Y-108165028D01*
X198048523Y-108641219D02*
X197477095Y-108641219D01*
X197762809Y-108641219D02*
X197762809Y-107641219D01*
X197762809Y-107641219D02*
X197667571Y-107784076D01*
X197667571Y-107784076D02*
X197572333Y-107879314D01*
X197572333Y-107879314D02*
X197477095Y-107926933D01*
X198905666Y-107974552D02*
X198905666Y-108641219D01*
X198667571Y-107593600D02*
X198429476Y-108307885D01*
X198429476Y-108307885D02*
X199048523Y-108307885D01*
%TO.C,R8*%
X184034133Y-117277219D02*
X183700800Y-116801028D01*
X183462705Y-117277219D02*
X183462705Y-116277219D01*
X183462705Y-116277219D02*
X183843657Y-116277219D01*
X183843657Y-116277219D02*
X183938895Y-116324838D01*
X183938895Y-116324838D02*
X183986514Y-116372457D01*
X183986514Y-116372457D02*
X184034133Y-116467695D01*
X184034133Y-116467695D02*
X184034133Y-116610552D01*
X184034133Y-116610552D02*
X183986514Y-116705790D01*
X183986514Y-116705790D02*
X183938895Y-116753409D01*
X183938895Y-116753409D02*
X183843657Y-116801028D01*
X183843657Y-116801028D02*
X183462705Y-116801028D01*
X184605562Y-116705790D02*
X184510324Y-116658171D01*
X184510324Y-116658171D02*
X184462705Y-116610552D01*
X184462705Y-116610552D02*
X184415086Y-116515314D01*
X184415086Y-116515314D02*
X184415086Y-116467695D01*
X184415086Y-116467695D02*
X184462705Y-116372457D01*
X184462705Y-116372457D02*
X184510324Y-116324838D01*
X184510324Y-116324838D02*
X184605562Y-116277219D01*
X184605562Y-116277219D02*
X184796038Y-116277219D01*
X184796038Y-116277219D02*
X184891276Y-116324838D01*
X184891276Y-116324838D02*
X184938895Y-116372457D01*
X184938895Y-116372457D02*
X184986514Y-116467695D01*
X184986514Y-116467695D02*
X184986514Y-116515314D01*
X184986514Y-116515314D02*
X184938895Y-116610552D01*
X184938895Y-116610552D02*
X184891276Y-116658171D01*
X184891276Y-116658171D02*
X184796038Y-116705790D01*
X184796038Y-116705790D02*
X184605562Y-116705790D01*
X184605562Y-116705790D02*
X184510324Y-116753409D01*
X184510324Y-116753409D02*
X184462705Y-116801028D01*
X184462705Y-116801028D02*
X184415086Y-116896266D01*
X184415086Y-116896266D02*
X184415086Y-117086742D01*
X184415086Y-117086742D02*
X184462705Y-117181980D01*
X184462705Y-117181980D02*
X184510324Y-117229600D01*
X184510324Y-117229600D02*
X184605562Y-117277219D01*
X184605562Y-117277219D02*
X184796038Y-117277219D01*
X184796038Y-117277219D02*
X184891276Y-117229600D01*
X184891276Y-117229600D02*
X184938895Y-117181980D01*
X184938895Y-117181980D02*
X184986514Y-117086742D01*
X184986514Y-117086742D02*
X184986514Y-116896266D01*
X184986514Y-116896266D02*
X184938895Y-116801028D01*
X184938895Y-116801028D02*
X184891276Y-116753409D01*
X184891276Y-116753409D02*
X184796038Y-116705790D01*
%TO.C,R18*%
X169003742Y-95357019D02*
X168670409Y-94880828D01*
X168432314Y-95357019D02*
X168432314Y-94357019D01*
X168432314Y-94357019D02*
X168813266Y-94357019D01*
X168813266Y-94357019D02*
X168908504Y-94404638D01*
X168908504Y-94404638D02*
X168956123Y-94452257D01*
X168956123Y-94452257D02*
X169003742Y-94547495D01*
X169003742Y-94547495D02*
X169003742Y-94690352D01*
X169003742Y-94690352D02*
X168956123Y-94785590D01*
X168956123Y-94785590D02*
X168908504Y-94833209D01*
X168908504Y-94833209D02*
X168813266Y-94880828D01*
X168813266Y-94880828D02*
X168432314Y-94880828D01*
X169956123Y-95357019D02*
X169384695Y-95357019D01*
X169670409Y-95357019D02*
X169670409Y-94357019D01*
X169670409Y-94357019D02*
X169575171Y-94499876D01*
X169575171Y-94499876D02*
X169479933Y-94595114D01*
X169479933Y-94595114D02*
X169384695Y-94642733D01*
X170527552Y-94785590D02*
X170432314Y-94737971D01*
X170432314Y-94737971D02*
X170384695Y-94690352D01*
X170384695Y-94690352D02*
X170337076Y-94595114D01*
X170337076Y-94595114D02*
X170337076Y-94547495D01*
X170337076Y-94547495D02*
X170384695Y-94452257D01*
X170384695Y-94452257D02*
X170432314Y-94404638D01*
X170432314Y-94404638D02*
X170527552Y-94357019D01*
X170527552Y-94357019D02*
X170718028Y-94357019D01*
X170718028Y-94357019D02*
X170813266Y-94404638D01*
X170813266Y-94404638D02*
X170860885Y-94452257D01*
X170860885Y-94452257D02*
X170908504Y-94547495D01*
X170908504Y-94547495D02*
X170908504Y-94595114D01*
X170908504Y-94595114D02*
X170860885Y-94690352D01*
X170860885Y-94690352D02*
X170813266Y-94737971D01*
X170813266Y-94737971D02*
X170718028Y-94785590D01*
X170718028Y-94785590D02*
X170527552Y-94785590D01*
X170527552Y-94785590D02*
X170432314Y-94833209D01*
X170432314Y-94833209D02*
X170384695Y-94880828D01*
X170384695Y-94880828D02*
X170337076Y-94976066D01*
X170337076Y-94976066D02*
X170337076Y-95166542D01*
X170337076Y-95166542D02*
X170384695Y-95261780D01*
X170384695Y-95261780D02*
X170432314Y-95309400D01*
X170432314Y-95309400D02*
X170527552Y-95357019D01*
X170527552Y-95357019D02*
X170718028Y-95357019D01*
X170718028Y-95357019D02*
X170813266Y-95309400D01*
X170813266Y-95309400D02*
X170860885Y-95261780D01*
X170860885Y-95261780D02*
X170908504Y-95166542D01*
X170908504Y-95166542D02*
X170908504Y-94976066D01*
X170908504Y-94976066D02*
X170860885Y-94880828D01*
X170860885Y-94880828D02*
X170813266Y-94833209D01*
X170813266Y-94833209D02*
X170718028Y-94785590D01*
%TO.C,U10*%
X188224405Y-104926619D02*
X188224405Y-105736142D01*
X188224405Y-105736142D02*
X188272024Y-105831380D01*
X188272024Y-105831380D02*
X188319643Y-105879000D01*
X188319643Y-105879000D02*
X188414881Y-105926619D01*
X188414881Y-105926619D02*
X188605357Y-105926619D01*
X188605357Y-105926619D02*
X188700595Y-105879000D01*
X188700595Y-105879000D02*
X188748214Y-105831380D01*
X188748214Y-105831380D02*
X188795833Y-105736142D01*
X188795833Y-105736142D02*
X188795833Y-104926619D01*
X189795833Y-105926619D02*
X189224405Y-105926619D01*
X189510119Y-105926619D02*
X189510119Y-104926619D01*
X189510119Y-104926619D02*
X189414881Y-105069476D01*
X189414881Y-105069476D02*
X189319643Y-105164714D01*
X189319643Y-105164714D02*
X189224405Y-105212333D01*
X190414881Y-104926619D02*
X190510119Y-104926619D01*
X190510119Y-104926619D02*
X190605357Y-104974238D01*
X190605357Y-104974238D02*
X190652976Y-105021857D01*
X190652976Y-105021857D02*
X190700595Y-105117095D01*
X190700595Y-105117095D02*
X190748214Y-105307571D01*
X190748214Y-105307571D02*
X190748214Y-105545666D01*
X190748214Y-105545666D02*
X190700595Y-105736142D01*
X190700595Y-105736142D02*
X190652976Y-105831380D01*
X190652976Y-105831380D02*
X190605357Y-105879000D01*
X190605357Y-105879000D02*
X190510119Y-105926619D01*
X190510119Y-105926619D02*
X190414881Y-105926619D01*
X190414881Y-105926619D02*
X190319643Y-105879000D01*
X190319643Y-105879000D02*
X190272024Y-105831380D01*
X190272024Y-105831380D02*
X190224405Y-105736142D01*
X190224405Y-105736142D02*
X190176786Y-105545666D01*
X190176786Y-105545666D02*
X190176786Y-105307571D01*
X190176786Y-105307571D02*
X190224405Y-105117095D01*
X190224405Y-105117095D02*
X190272024Y-105021857D01*
X190272024Y-105021857D02*
X190319643Y-104974238D01*
X190319643Y-104974238D02*
X190414881Y-104926619D01*
%TO.C,C10*%
X159885142Y-113495380D02*
X159837523Y-113543000D01*
X159837523Y-113543000D02*
X159694666Y-113590619D01*
X159694666Y-113590619D02*
X159599428Y-113590619D01*
X159599428Y-113590619D02*
X159456571Y-113543000D01*
X159456571Y-113543000D02*
X159361333Y-113447761D01*
X159361333Y-113447761D02*
X159313714Y-113352523D01*
X159313714Y-113352523D02*
X159266095Y-113162047D01*
X159266095Y-113162047D02*
X159266095Y-113019190D01*
X159266095Y-113019190D02*
X159313714Y-112828714D01*
X159313714Y-112828714D02*
X159361333Y-112733476D01*
X159361333Y-112733476D02*
X159456571Y-112638238D01*
X159456571Y-112638238D02*
X159599428Y-112590619D01*
X159599428Y-112590619D02*
X159694666Y-112590619D01*
X159694666Y-112590619D02*
X159837523Y-112638238D01*
X159837523Y-112638238D02*
X159885142Y-112685857D01*
X160837523Y-113590619D02*
X160266095Y-113590619D01*
X160551809Y-113590619D02*
X160551809Y-112590619D01*
X160551809Y-112590619D02*
X160456571Y-112733476D01*
X160456571Y-112733476D02*
X160361333Y-112828714D01*
X160361333Y-112828714D02*
X160266095Y-112876333D01*
X161456571Y-112590619D02*
X161551809Y-112590619D01*
X161551809Y-112590619D02*
X161647047Y-112638238D01*
X161647047Y-112638238D02*
X161694666Y-112685857D01*
X161694666Y-112685857D02*
X161742285Y-112781095D01*
X161742285Y-112781095D02*
X161789904Y-112971571D01*
X161789904Y-112971571D02*
X161789904Y-113209666D01*
X161789904Y-113209666D02*
X161742285Y-113400142D01*
X161742285Y-113400142D02*
X161694666Y-113495380D01*
X161694666Y-113495380D02*
X161647047Y-113543000D01*
X161647047Y-113543000D02*
X161551809Y-113590619D01*
X161551809Y-113590619D02*
X161456571Y-113590619D01*
X161456571Y-113590619D02*
X161361333Y-113543000D01*
X161361333Y-113543000D02*
X161313714Y-113495380D01*
X161313714Y-113495380D02*
X161266095Y-113400142D01*
X161266095Y-113400142D02*
X161218476Y-113209666D01*
X161218476Y-113209666D02*
X161218476Y-112971571D01*
X161218476Y-112971571D02*
X161266095Y-112781095D01*
X161266095Y-112781095D02*
X161313714Y-112685857D01*
X161313714Y-112685857D02*
X161361333Y-112638238D01*
X161361333Y-112638238D02*
X161456571Y-112590619D01*
%TO.C,C3*%
X201001333Y-117871380D02*
X200953714Y-117919000D01*
X200953714Y-117919000D02*
X200810857Y-117966619D01*
X200810857Y-117966619D02*
X200715619Y-117966619D01*
X200715619Y-117966619D02*
X200572762Y-117919000D01*
X200572762Y-117919000D02*
X200477524Y-117823761D01*
X200477524Y-117823761D02*
X200429905Y-117728523D01*
X200429905Y-117728523D02*
X200382286Y-117538047D01*
X200382286Y-117538047D02*
X200382286Y-117395190D01*
X200382286Y-117395190D02*
X200429905Y-117204714D01*
X200429905Y-117204714D02*
X200477524Y-117109476D01*
X200477524Y-117109476D02*
X200572762Y-117014238D01*
X200572762Y-117014238D02*
X200715619Y-116966619D01*
X200715619Y-116966619D02*
X200810857Y-116966619D01*
X200810857Y-116966619D02*
X200953714Y-117014238D01*
X200953714Y-117014238D02*
X201001333Y-117061857D01*
X201334667Y-116966619D02*
X201953714Y-116966619D01*
X201953714Y-116966619D02*
X201620381Y-117347571D01*
X201620381Y-117347571D02*
X201763238Y-117347571D01*
X201763238Y-117347571D02*
X201858476Y-117395190D01*
X201858476Y-117395190D02*
X201906095Y-117442809D01*
X201906095Y-117442809D02*
X201953714Y-117538047D01*
X201953714Y-117538047D02*
X201953714Y-117776142D01*
X201953714Y-117776142D02*
X201906095Y-117871380D01*
X201906095Y-117871380D02*
X201858476Y-117919000D01*
X201858476Y-117919000D02*
X201763238Y-117966619D01*
X201763238Y-117966619D02*
X201477524Y-117966619D01*
X201477524Y-117966619D02*
X201382286Y-117919000D01*
X201382286Y-117919000D02*
X201334667Y-117871380D01*
%TO.C,C16*%
X178173142Y-71207980D02*
X178125523Y-71255600D01*
X178125523Y-71255600D02*
X177982666Y-71303219D01*
X177982666Y-71303219D02*
X177887428Y-71303219D01*
X177887428Y-71303219D02*
X177744571Y-71255600D01*
X177744571Y-71255600D02*
X177649333Y-71160361D01*
X177649333Y-71160361D02*
X177601714Y-71065123D01*
X177601714Y-71065123D02*
X177554095Y-70874647D01*
X177554095Y-70874647D02*
X177554095Y-70731790D01*
X177554095Y-70731790D02*
X177601714Y-70541314D01*
X177601714Y-70541314D02*
X177649333Y-70446076D01*
X177649333Y-70446076D02*
X177744571Y-70350838D01*
X177744571Y-70350838D02*
X177887428Y-70303219D01*
X177887428Y-70303219D02*
X177982666Y-70303219D01*
X177982666Y-70303219D02*
X178125523Y-70350838D01*
X178125523Y-70350838D02*
X178173142Y-70398457D01*
X179125523Y-71303219D02*
X178554095Y-71303219D01*
X178839809Y-71303219D02*
X178839809Y-70303219D01*
X178839809Y-70303219D02*
X178744571Y-70446076D01*
X178744571Y-70446076D02*
X178649333Y-70541314D01*
X178649333Y-70541314D02*
X178554095Y-70588933D01*
X179982666Y-70303219D02*
X179792190Y-70303219D01*
X179792190Y-70303219D02*
X179696952Y-70350838D01*
X179696952Y-70350838D02*
X179649333Y-70398457D01*
X179649333Y-70398457D02*
X179554095Y-70541314D01*
X179554095Y-70541314D02*
X179506476Y-70731790D01*
X179506476Y-70731790D02*
X179506476Y-71112742D01*
X179506476Y-71112742D02*
X179554095Y-71207980D01*
X179554095Y-71207980D02*
X179601714Y-71255600D01*
X179601714Y-71255600D02*
X179696952Y-71303219D01*
X179696952Y-71303219D02*
X179887428Y-71303219D01*
X179887428Y-71303219D02*
X179982666Y-71255600D01*
X179982666Y-71255600D02*
X180030285Y-71207980D01*
X180030285Y-71207980D02*
X180077904Y-71112742D01*
X180077904Y-71112742D02*
X180077904Y-70874647D01*
X180077904Y-70874647D02*
X180030285Y-70779409D01*
X180030285Y-70779409D02*
X179982666Y-70731790D01*
X179982666Y-70731790D02*
X179887428Y-70684171D01*
X179887428Y-70684171D02*
X179696952Y-70684171D01*
X179696952Y-70684171D02*
X179601714Y-70731790D01*
X179601714Y-70731790D02*
X179554095Y-70779409D01*
X179554095Y-70779409D02*
X179506476Y-70874647D01*
%TO.C,U6*%
X158750095Y-94433219D02*
X158750095Y-95242742D01*
X158750095Y-95242742D02*
X158797714Y-95337980D01*
X158797714Y-95337980D02*
X158845333Y-95385600D01*
X158845333Y-95385600D02*
X158940571Y-95433219D01*
X158940571Y-95433219D02*
X159131047Y-95433219D01*
X159131047Y-95433219D02*
X159226285Y-95385600D01*
X159226285Y-95385600D02*
X159273904Y-95337980D01*
X159273904Y-95337980D02*
X159321523Y-95242742D01*
X159321523Y-95242742D02*
X159321523Y-94433219D01*
X160226285Y-94433219D02*
X160035809Y-94433219D01*
X160035809Y-94433219D02*
X159940571Y-94480838D01*
X159940571Y-94480838D02*
X159892952Y-94528457D01*
X159892952Y-94528457D02*
X159797714Y-94671314D01*
X159797714Y-94671314D02*
X159750095Y-94861790D01*
X159750095Y-94861790D02*
X159750095Y-95242742D01*
X159750095Y-95242742D02*
X159797714Y-95337980D01*
X159797714Y-95337980D02*
X159845333Y-95385600D01*
X159845333Y-95385600D02*
X159940571Y-95433219D01*
X159940571Y-95433219D02*
X160131047Y-95433219D01*
X160131047Y-95433219D02*
X160226285Y-95385600D01*
X160226285Y-95385600D02*
X160273904Y-95337980D01*
X160273904Y-95337980D02*
X160321523Y-95242742D01*
X160321523Y-95242742D02*
X160321523Y-95004647D01*
X160321523Y-95004647D02*
X160273904Y-94909409D01*
X160273904Y-94909409D02*
X160226285Y-94861790D01*
X160226285Y-94861790D02*
X160131047Y-94814171D01*
X160131047Y-94814171D02*
X159940571Y-94814171D01*
X159940571Y-94814171D02*
X159845333Y-94861790D01*
X159845333Y-94861790D02*
X159797714Y-94909409D01*
X159797714Y-94909409D02*
X159750095Y-95004647D01*
%TO.C,U1*%
X165970619Y-68325904D02*
X166780142Y-68325904D01*
X166780142Y-68325904D02*
X166875380Y-68278285D01*
X166875380Y-68278285D02*
X166923000Y-68230666D01*
X166923000Y-68230666D02*
X166970619Y-68135428D01*
X166970619Y-68135428D02*
X166970619Y-67944952D01*
X166970619Y-67944952D02*
X166923000Y-67849714D01*
X166923000Y-67849714D02*
X166875380Y-67802095D01*
X166875380Y-67802095D02*
X166780142Y-67754476D01*
X166780142Y-67754476D02*
X165970619Y-67754476D01*
X166970619Y-66754476D02*
X166970619Y-67325904D01*
X166970619Y-67040190D02*
X165970619Y-67040190D01*
X165970619Y-67040190D02*
X166113476Y-67135428D01*
X166113476Y-67135428D02*
X166208714Y-67230666D01*
X166208714Y-67230666D02*
X166256333Y-67325904D01*
%TO.C,R19*%
X158488142Y-111562219D02*
X158154809Y-111086028D01*
X157916714Y-111562219D02*
X157916714Y-110562219D01*
X157916714Y-110562219D02*
X158297666Y-110562219D01*
X158297666Y-110562219D02*
X158392904Y-110609838D01*
X158392904Y-110609838D02*
X158440523Y-110657457D01*
X158440523Y-110657457D02*
X158488142Y-110752695D01*
X158488142Y-110752695D02*
X158488142Y-110895552D01*
X158488142Y-110895552D02*
X158440523Y-110990790D01*
X158440523Y-110990790D02*
X158392904Y-111038409D01*
X158392904Y-111038409D02*
X158297666Y-111086028D01*
X158297666Y-111086028D02*
X157916714Y-111086028D01*
X159440523Y-111562219D02*
X158869095Y-111562219D01*
X159154809Y-111562219D02*
X159154809Y-110562219D01*
X159154809Y-110562219D02*
X159059571Y-110705076D01*
X159059571Y-110705076D02*
X158964333Y-110800314D01*
X158964333Y-110800314D02*
X158869095Y-110847933D01*
X159916714Y-111562219D02*
X160107190Y-111562219D01*
X160107190Y-111562219D02*
X160202428Y-111514600D01*
X160202428Y-111514600D02*
X160250047Y-111466980D01*
X160250047Y-111466980D02*
X160345285Y-111324123D01*
X160345285Y-111324123D02*
X160392904Y-111133647D01*
X160392904Y-111133647D02*
X160392904Y-110752695D01*
X160392904Y-110752695D02*
X160345285Y-110657457D01*
X160345285Y-110657457D02*
X160297666Y-110609838D01*
X160297666Y-110609838D02*
X160202428Y-110562219D01*
X160202428Y-110562219D02*
X160011952Y-110562219D01*
X160011952Y-110562219D02*
X159916714Y-110609838D01*
X159916714Y-110609838D02*
X159869095Y-110657457D01*
X159869095Y-110657457D02*
X159821476Y-110752695D01*
X159821476Y-110752695D02*
X159821476Y-110990790D01*
X159821476Y-110990790D02*
X159869095Y-111086028D01*
X159869095Y-111086028D02*
X159916714Y-111133647D01*
X159916714Y-111133647D02*
X160011952Y-111181266D01*
X160011952Y-111181266D02*
X160202428Y-111181266D01*
X160202428Y-111181266D02*
X160297666Y-111133647D01*
X160297666Y-111133647D02*
X160345285Y-111086028D01*
X160345285Y-111086028D02*
X160392904Y-110990790D01*
%TO.C,C1*%
X184084933Y-106031380D02*
X184037314Y-106079000D01*
X184037314Y-106079000D02*
X183894457Y-106126619D01*
X183894457Y-106126619D02*
X183799219Y-106126619D01*
X183799219Y-106126619D02*
X183656362Y-106079000D01*
X183656362Y-106079000D02*
X183561124Y-105983761D01*
X183561124Y-105983761D02*
X183513505Y-105888523D01*
X183513505Y-105888523D02*
X183465886Y-105698047D01*
X183465886Y-105698047D02*
X183465886Y-105555190D01*
X183465886Y-105555190D02*
X183513505Y-105364714D01*
X183513505Y-105364714D02*
X183561124Y-105269476D01*
X183561124Y-105269476D02*
X183656362Y-105174238D01*
X183656362Y-105174238D02*
X183799219Y-105126619D01*
X183799219Y-105126619D02*
X183894457Y-105126619D01*
X183894457Y-105126619D02*
X184037314Y-105174238D01*
X184037314Y-105174238D02*
X184084933Y-105221857D01*
X185037314Y-106126619D02*
X184465886Y-106126619D01*
X184751600Y-106126619D02*
X184751600Y-105126619D01*
X184751600Y-105126619D02*
X184656362Y-105269476D01*
X184656362Y-105269476D02*
X184561124Y-105364714D01*
X184561124Y-105364714D02*
X184465886Y-105412333D01*
%TO.C,L2*%
X163449333Y-86250619D02*
X162973143Y-86250619D01*
X162973143Y-86250619D02*
X162973143Y-85250619D01*
X163735048Y-85345857D02*
X163782667Y-85298238D01*
X163782667Y-85298238D02*
X163877905Y-85250619D01*
X163877905Y-85250619D02*
X164116000Y-85250619D01*
X164116000Y-85250619D02*
X164211238Y-85298238D01*
X164211238Y-85298238D02*
X164258857Y-85345857D01*
X164258857Y-85345857D02*
X164306476Y-85441095D01*
X164306476Y-85441095D02*
X164306476Y-85536333D01*
X164306476Y-85536333D02*
X164258857Y-85679190D01*
X164258857Y-85679190D02*
X163687429Y-86250619D01*
X163687429Y-86250619D02*
X164306476Y-86250619D01*
%TO.C,R22*%
X168013142Y-63784819D02*
X167679809Y-63308628D01*
X167441714Y-63784819D02*
X167441714Y-62784819D01*
X167441714Y-62784819D02*
X167822666Y-62784819D01*
X167822666Y-62784819D02*
X167917904Y-62832438D01*
X167917904Y-62832438D02*
X167965523Y-62880057D01*
X167965523Y-62880057D02*
X168013142Y-62975295D01*
X168013142Y-62975295D02*
X168013142Y-63118152D01*
X168013142Y-63118152D02*
X167965523Y-63213390D01*
X167965523Y-63213390D02*
X167917904Y-63261009D01*
X167917904Y-63261009D02*
X167822666Y-63308628D01*
X167822666Y-63308628D02*
X167441714Y-63308628D01*
X168394095Y-62880057D02*
X168441714Y-62832438D01*
X168441714Y-62832438D02*
X168536952Y-62784819D01*
X168536952Y-62784819D02*
X168775047Y-62784819D01*
X168775047Y-62784819D02*
X168870285Y-62832438D01*
X168870285Y-62832438D02*
X168917904Y-62880057D01*
X168917904Y-62880057D02*
X168965523Y-62975295D01*
X168965523Y-62975295D02*
X168965523Y-63070533D01*
X168965523Y-63070533D02*
X168917904Y-63213390D01*
X168917904Y-63213390D02*
X168346476Y-63784819D01*
X168346476Y-63784819D02*
X168965523Y-63784819D01*
X169346476Y-62880057D02*
X169394095Y-62832438D01*
X169394095Y-62832438D02*
X169489333Y-62784819D01*
X169489333Y-62784819D02*
X169727428Y-62784819D01*
X169727428Y-62784819D02*
X169822666Y-62832438D01*
X169822666Y-62832438D02*
X169870285Y-62880057D01*
X169870285Y-62880057D02*
X169917904Y-62975295D01*
X169917904Y-62975295D02*
X169917904Y-63070533D01*
X169917904Y-63070533D02*
X169870285Y-63213390D01*
X169870285Y-63213390D02*
X169298857Y-63784819D01*
X169298857Y-63784819D02*
X169917904Y-63784819D01*
%TO.C,D2*%
X162837905Y-72638619D02*
X162837905Y-71638619D01*
X162837905Y-71638619D02*
X163076000Y-71638619D01*
X163076000Y-71638619D02*
X163218857Y-71686238D01*
X163218857Y-71686238D02*
X163314095Y-71781476D01*
X163314095Y-71781476D02*
X163361714Y-71876714D01*
X163361714Y-71876714D02*
X163409333Y-72067190D01*
X163409333Y-72067190D02*
X163409333Y-72210047D01*
X163409333Y-72210047D02*
X163361714Y-72400523D01*
X163361714Y-72400523D02*
X163314095Y-72495761D01*
X163314095Y-72495761D02*
X163218857Y-72591000D01*
X163218857Y-72591000D02*
X163076000Y-72638619D01*
X163076000Y-72638619D02*
X162837905Y-72638619D01*
X163790286Y-71733857D02*
X163837905Y-71686238D01*
X163837905Y-71686238D02*
X163933143Y-71638619D01*
X163933143Y-71638619D02*
X164171238Y-71638619D01*
X164171238Y-71638619D02*
X164266476Y-71686238D01*
X164266476Y-71686238D02*
X164314095Y-71733857D01*
X164314095Y-71733857D02*
X164361714Y-71829095D01*
X164361714Y-71829095D02*
X164361714Y-71924333D01*
X164361714Y-71924333D02*
X164314095Y-72067190D01*
X164314095Y-72067190D02*
X163742667Y-72638619D01*
X163742667Y-72638619D02*
X164361714Y-72638619D01*
D11*
%TO.C,J1*%
X202970000Y-61984000D02*
X202970000Y-63984000D01*
X201720000Y-61984000D02*
X202970000Y-61984000D01*
X202580000Y-62374000D02*
X195110000Y-62374000D01*
X195110000Y-62374000D02*
X195110000Y-103234000D01*
X201620000Y-63524000D02*
X201620000Y-66524000D01*
X200270000Y-63524000D02*
X200270000Y-64274000D01*
X195970000Y-63524000D02*
X200270000Y-63524000D01*
X200620000Y-63774000D02*
X201620000Y-63524000D01*
X200620000Y-64274000D02*
X200620000Y-63774000D01*
X200270000Y-64274000D02*
X200620000Y-64274000D01*
X195970000Y-64274000D02*
X195970000Y-63524000D01*
X200620000Y-65774000D02*
X200270000Y-65774000D01*
X200270000Y-65774000D02*
X200270000Y-66524000D01*
X200620000Y-66274000D02*
X200620000Y-65774000D01*
X201620000Y-66524000D02*
X200620000Y-66274000D01*
X200270000Y-66524000D02*
X195970000Y-66524000D01*
X195970000Y-66524000D02*
X195970000Y-65774000D01*
X201620000Y-68604000D02*
X201620000Y-71604000D01*
X200270000Y-68604000D02*
X200270000Y-69354000D01*
X195970000Y-68604000D02*
X200270000Y-68604000D01*
X200620000Y-68854000D02*
X201620000Y-68604000D01*
X200620000Y-69354000D02*
X200620000Y-68854000D01*
X200270000Y-69354000D02*
X200620000Y-69354000D01*
X195970000Y-69354000D02*
X195970000Y-68604000D01*
X200620000Y-70854000D02*
X200270000Y-70854000D01*
X200270000Y-70854000D02*
X200270000Y-71604000D01*
X200620000Y-71354000D02*
X200620000Y-70854000D01*
X201620000Y-71604000D02*
X200620000Y-71354000D01*
X200270000Y-71604000D02*
X195970000Y-71604000D01*
X195970000Y-71604000D02*
X195970000Y-70854000D01*
X201620000Y-73684000D02*
X201620000Y-76684000D01*
X200270000Y-73684000D02*
X200270000Y-74434000D01*
X195970000Y-73684000D02*
X200270000Y-73684000D01*
X200620000Y-73934000D02*
X201620000Y-73684000D01*
X200620000Y-74434000D02*
X200620000Y-73934000D01*
X200270000Y-74434000D02*
X200620000Y-74434000D01*
X195970000Y-74434000D02*
X195970000Y-73684000D01*
X200620000Y-75934000D02*
X200270000Y-75934000D01*
X200270000Y-75934000D02*
X200270000Y-76684000D01*
X200620000Y-76434000D02*
X200620000Y-75934000D01*
X201620000Y-76684000D02*
X200620000Y-76434000D01*
X200270000Y-76684000D02*
X195970000Y-76684000D01*
X195970000Y-76684000D02*
X195970000Y-75934000D01*
X201620000Y-78764000D02*
X201620000Y-81764000D01*
X200270000Y-78764000D02*
X200270000Y-79514000D01*
X195970000Y-78764000D02*
X200270000Y-78764000D01*
X200620000Y-79014000D02*
X201620000Y-78764000D01*
X200620000Y-79514000D02*
X200620000Y-79014000D01*
X200270000Y-79514000D02*
X200620000Y-79514000D01*
X195970000Y-79514000D02*
X195970000Y-78764000D01*
X200620000Y-81014000D02*
X200270000Y-81014000D01*
X200270000Y-81014000D02*
X200270000Y-81764000D01*
X200620000Y-81514000D02*
X200620000Y-81014000D01*
X201620000Y-81764000D02*
X200620000Y-81514000D01*
X200270000Y-81764000D02*
X195970000Y-81764000D01*
X195970000Y-81764000D02*
X195970000Y-81014000D01*
X201620000Y-83844000D02*
X201620000Y-86844000D01*
X200270000Y-83844000D02*
X200270000Y-84594000D01*
X195970000Y-83844000D02*
X200270000Y-83844000D01*
X200620000Y-84094000D02*
X201620000Y-83844000D01*
X200620000Y-84594000D02*
X200620000Y-84094000D01*
X200270000Y-84594000D02*
X200620000Y-84594000D01*
X195970000Y-84594000D02*
X195970000Y-83844000D01*
X200620000Y-86094000D02*
X200270000Y-86094000D01*
X200270000Y-86094000D02*
X200270000Y-86844000D01*
X200620000Y-86594000D02*
X200620000Y-86094000D01*
X201620000Y-86844000D02*
X200620000Y-86594000D01*
X200270000Y-86844000D02*
X195970000Y-86844000D01*
X195970000Y-86844000D02*
X195970000Y-86094000D01*
X201620000Y-88924000D02*
X201620000Y-91924000D01*
X200270000Y-88924000D02*
X200270000Y-89674000D01*
X195970000Y-88924000D02*
X200270000Y-88924000D01*
X200620000Y-89174000D02*
X201620000Y-88924000D01*
X200620000Y-89674000D02*
X200620000Y-89174000D01*
X200270000Y-89674000D02*
X200620000Y-89674000D01*
X195970000Y-89674000D02*
X195970000Y-88924000D01*
X200620000Y-91174000D02*
X200270000Y-91174000D01*
X200270000Y-91174000D02*
X200270000Y-91924000D01*
X200620000Y-91674000D02*
X200620000Y-91174000D01*
X201620000Y-91924000D02*
X200620000Y-91674000D01*
X200270000Y-91924000D02*
X195970000Y-91924000D01*
X195970000Y-91924000D02*
X195970000Y-91174000D01*
X201620000Y-94004000D02*
X201620000Y-97004000D01*
X200270000Y-94004000D02*
X200270000Y-94754000D01*
X195970000Y-94004000D02*
X200270000Y-94004000D01*
X200620000Y-94254000D02*
X201620000Y-94004000D01*
X200620000Y-94754000D02*
X200620000Y-94254000D01*
X200270000Y-94754000D02*
X200620000Y-94754000D01*
X195970000Y-94754000D02*
X195970000Y-94004000D01*
X200620000Y-96254000D02*
X200270000Y-96254000D01*
X200270000Y-96254000D02*
X200270000Y-97004000D01*
X200620000Y-96754000D02*
X200620000Y-96254000D01*
X201620000Y-97004000D02*
X200620000Y-96754000D01*
X200270000Y-97004000D02*
X195970000Y-97004000D01*
X195970000Y-97004000D02*
X195970000Y-96254000D01*
X201620000Y-99084000D02*
X201620000Y-102084000D01*
X200270000Y-99084000D02*
X200270000Y-99834000D01*
X195970000Y-99084000D02*
X200270000Y-99084000D01*
X200620000Y-99334000D02*
X201620000Y-99084000D01*
X200620000Y-99834000D02*
X200620000Y-99334000D01*
X200270000Y-99834000D02*
X200620000Y-99834000D01*
X195970000Y-99834000D02*
X195970000Y-99084000D01*
X200620000Y-101334000D02*
X200270000Y-101334000D01*
X200270000Y-101334000D02*
X200270000Y-102084000D01*
X200620000Y-101834000D02*
X200620000Y-101334000D01*
X201620000Y-102084000D02*
X200620000Y-101834000D01*
X200270000Y-102084000D02*
X195970000Y-102084000D01*
X195970000Y-102084000D02*
X195970000Y-101334000D01*
X202580000Y-103234000D02*
X202580000Y-62374000D01*
X195110000Y-103234000D02*
X202580000Y-103234000D01*
X195970155Y-65773647D02*
G75*
G03*
X195970000Y-64274000I-1700155J749647D01*
G01*
X195970155Y-70853647D02*
G75*
G03*
X195970000Y-69354000I-1700155J749647D01*
G01*
X195970155Y-75933647D02*
G75*
G03*
X195970000Y-74434000I-1700155J749647D01*
G01*
X195970155Y-81013647D02*
G75*
G03*
X195970000Y-79514000I-1700155J749647D01*
G01*
X195970155Y-86093647D02*
G75*
G03*
X195970000Y-84594000I-1700155J749647D01*
G01*
X195970155Y-91173647D02*
G75*
G03*
X195970000Y-89674000I-1700155J749647D01*
G01*
X195970155Y-96253647D02*
G75*
G03*
X195970000Y-94754000I-1700155J749647D01*
G01*
X195970155Y-101333647D02*
G75*
G03*
X195970000Y-99834000I-1700155J749647D01*
G01*
%TO.C,R21*%
X172947064Y-63219000D02*
X172492936Y-63219000D01*
X172947064Y-61749000D02*
X172492936Y-61749000D01*
%TO.C,C12*%
X150532000Y-67297752D02*
X150532000Y-65875248D01*
X153252000Y-67297752D02*
X153252000Y-65875248D01*
%TO.C,C2*%
X181579752Y-120115000D02*
X181057248Y-120115000D01*
X181579752Y-118645000D02*
X181057248Y-118645000D01*
%TO.C,C13*%
X156237000Y-73921252D02*
X156237000Y-73398748D01*
X157707000Y-73921252D02*
X157707000Y-73398748D01*
%TO.C,R15*%
X200897936Y-104929000D02*
X201352064Y-104929000D01*
X200897936Y-106399000D02*
X201352064Y-106399000D01*
%TO.C,L1*%
X154588000Y-87732000D02*
X154588000Y-88932000D01*
X154588000Y-87732000D02*
X155988000Y-87732000D01*
X154588000Y-94132000D02*
X154588000Y-92932000D01*
X154588000Y-94132000D02*
X155988000Y-94132000D01*
X161388000Y-87732000D02*
X159988000Y-87732000D01*
X161388000Y-87732000D02*
X161388000Y-88932000D01*
X161388000Y-94132000D02*
X159988000Y-94132000D01*
X161388000Y-94132000D02*
X161388000Y-92932000D01*
%TO.C,R13*%
X200940936Y-112549000D02*
X201395064Y-112549000D01*
X200940936Y-114019000D02*
X201395064Y-114019000D01*
%TO.C,C14*%
X172981252Y-65759000D02*
X172458748Y-65759000D01*
X172981252Y-64289000D02*
X172458748Y-64289000D01*
%TO.C,R2*%
X181123436Y-110517000D02*
X181577564Y-110517000D01*
X181123436Y-111987000D02*
X181577564Y-111987000D01*
%TO.C,R3*%
X181545564Y-101319000D02*
X181091436Y-101319000D01*
X181545564Y-99849000D02*
X181091436Y-99849000D01*
%TO.C,R17*%
X167867000Y-99827436D02*
X167867000Y-100281564D01*
X166397000Y-99827436D02*
X166397000Y-100281564D01*
%TO.C,C6*%
X173563000Y-101332677D02*
X173563000Y-102332677D01*
X174063000Y-101832677D02*
X173063000Y-101832677D01*
X175768000Y-106812323D02*
X165608000Y-106812323D01*
X175768000Y-106852323D02*
X165608000Y-106852323D01*
X175768000Y-106892323D02*
X165608000Y-106892323D01*
X175767000Y-106932323D02*
X165609000Y-106932323D01*
X175766000Y-106972323D02*
X165610000Y-106972323D01*
X175765000Y-107012323D02*
X165611000Y-107012323D01*
X175763000Y-107052323D02*
X165613000Y-107052323D01*
X175761000Y-107092323D02*
X165615000Y-107092323D01*
X175758000Y-107132323D02*
X165618000Y-107132323D01*
X175756000Y-107172323D02*
X165620000Y-107172323D01*
X175753000Y-107212323D02*
X165623000Y-107212323D01*
X175750000Y-107252323D02*
X165626000Y-107252323D01*
X175746000Y-107292323D02*
X165630000Y-107292323D01*
X175742000Y-107332323D02*
X165634000Y-107332323D01*
X175738000Y-107372323D02*
X165638000Y-107372323D01*
X175733000Y-107412323D02*
X165643000Y-107412323D01*
X175728000Y-107452323D02*
X165648000Y-107452323D01*
X175723000Y-107492323D02*
X165653000Y-107492323D01*
X175718000Y-107533323D02*
X165658000Y-107533323D01*
X175712000Y-107573323D02*
X165664000Y-107573323D01*
X175706000Y-107613323D02*
X165670000Y-107613323D01*
X175699000Y-107653323D02*
X165677000Y-107653323D01*
X175692000Y-107693323D02*
X165684000Y-107693323D01*
X175685000Y-107733323D02*
X165691000Y-107733323D01*
X175678000Y-107773323D02*
X165698000Y-107773323D01*
X175670000Y-107813323D02*
X165706000Y-107813323D01*
X175662000Y-107853323D02*
X165714000Y-107853323D01*
X175653000Y-107893323D02*
X165723000Y-107893323D01*
X175644000Y-107933323D02*
X165732000Y-107933323D01*
X175635000Y-107973323D02*
X165741000Y-107973323D01*
X175626000Y-108013323D02*
X165750000Y-108013323D01*
X175616000Y-108053323D02*
X165760000Y-108053323D01*
X175606000Y-108093323D02*
X171929000Y-108093323D01*
X169447000Y-108093323D02*
X165770000Y-108093323D01*
X175595000Y-108133323D02*
X171929000Y-108133323D01*
X169447000Y-108133323D02*
X165781000Y-108133323D01*
X175585000Y-108173323D02*
X171929000Y-108173323D01*
X169447000Y-108173323D02*
X165791000Y-108173323D01*
X175573000Y-108213323D02*
X171929000Y-108213323D01*
X169447000Y-108213323D02*
X165803000Y-108213323D01*
X175562000Y-108253323D02*
X171929000Y-108253323D01*
X169447000Y-108253323D02*
X165814000Y-108253323D01*
X175550000Y-108293323D02*
X171929000Y-108293323D01*
X169447000Y-108293323D02*
X165826000Y-108293323D01*
X175538000Y-108333323D02*
X171929000Y-108333323D01*
X169447000Y-108333323D02*
X165838000Y-108333323D01*
X175525000Y-108373323D02*
X171929000Y-108373323D01*
X169447000Y-108373323D02*
X165851000Y-108373323D01*
X175512000Y-108413323D02*
X171929000Y-108413323D01*
X169447000Y-108413323D02*
X165864000Y-108413323D01*
X175499000Y-108453323D02*
X171929000Y-108453323D01*
X169447000Y-108453323D02*
X165877000Y-108453323D01*
X175485000Y-108493323D02*
X171929000Y-108493323D01*
X169447000Y-108493323D02*
X165891000Y-108493323D01*
X175471000Y-108533323D02*
X171929000Y-108533323D01*
X169447000Y-108533323D02*
X165905000Y-108533323D01*
X175456000Y-108573323D02*
X171929000Y-108573323D01*
X169447000Y-108573323D02*
X165920000Y-108573323D01*
X175442000Y-108613323D02*
X171929000Y-108613323D01*
X169447000Y-108613323D02*
X165934000Y-108613323D01*
X175426000Y-108653323D02*
X171929000Y-108653323D01*
X169447000Y-108653323D02*
X165950000Y-108653323D01*
X175411000Y-108693323D02*
X171929000Y-108693323D01*
X169447000Y-108693323D02*
X165965000Y-108693323D01*
X175395000Y-108733323D02*
X171929000Y-108733323D01*
X169447000Y-108733323D02*
X165981000Y-108733323D01*
X175378000Y-108773323D02*
X171929000Y-108773323D01*
X169447000Y-108773323D02*
X165998000Y-108773323D01*
X175362000Y-108813323D02*
X171929000Y-108813323D01*
X169447000Y-108813323D02*
X166014000Y-108813323D01*
X175345000Y-108853323D02*
X171929000Y-108853323D01*
X169447000Y-108853323D02*
X166031000Y-108853323D01*
X175327000Y-108893323D02*
X171929000Y-108893323D01*
X169447000Y-108893323D02*
X166049000Y-108893323D01*
X175309000Y-108933323D02*
X171929000Y-108933323D01*
X169447000Y-108933323D02*
X166067000Y-108933323D01*
X175291000Y-108973323D02*
X171929000Y-108973323D01*
X169447000Y-108973323D02*
X166085000Y-108973323D01*
X175272000Y-109013323D02*
X171929000Y-109013323D01*
X169447000Y-109013323D02*
X166104000Y-109013323D01*
X175252000Y-109053323D02*
X171929000Y-109053323D01*
X169447000Y-109053323D02*
X166124000Y-109053323D01*
X175233000Y-109093323D02*
X171929000Y-109093323D01*
X169447000Y-109093323D02*
X166143000Y-109093323D01*
X175213000Y-109133323D02*
X171929000Y-109133323D01*
X169447000Y-109133323D02*
X166163000Y-109133323D01*
X175192000Y-109173323D02*
X171929000Y-109173323D01*
X169447000Y-109173323D02*
X166184000Y-109173323D01*
X175171000Y-109213323D02*
X171929000Y-109213323D01*
X169447000Y-109213323D02*
X166205000Y-109213323D01*
X175150000Y-109253323D02*
X171929000Y-109253323D01*
X169447000Y-109253323D02*
X166226000Y-109253323D01*
X175128000Y-109293323D02*
X171929000Y-109293323D01*
X169447000Y-109293323D02*
X166248000Y-109293323D01*
X175105000Y-109333323D02*
X171929000Y-109333323D01*
X169447000Y-109333323D02*
X166271000Y-109333323D01*
X175083000Y-109373323D02*
X171929000Y-109373323D01*
X169447000Y-109373323D02*
X166293000Y-109373323D01*
X175059000Y-109413323D02*
X171929000Y-109413323D01*
X169447000Y-109413323D02*
X166317000Y-109413323D01*
X175035000Y-109453323D02*
X171929000Y-109453323D01*
X169447000Y-109453323D02*
X166341000Y-109453323D01*
X175011000Y-109493323D02*
X171929000Y-109493323D01*
X169447000Y-109493323D02*
X166365000Y-109493323D01*
X174986000Y-109533323D02*
X171929000Y-109533323D01*
X169447000Y-109533323D02*
X166390000Y-109533323D01*
X174961000Y-109573323D02*
X171929000Y-109573323D01*
X169447000Y-109573323D02*
X166415000Y-109573323D01*
X174935000Y-109613323D02*
X171929000Y-109613323D01*
X169447000Y-109613323D02*
X166441000Y-109613323D01*
X174909000Y-109653323D02*
X171929000Y-109653323D01*
X169447000Y-109653323D02*
X166467000Y-109653323D01*
X174882000Y-109693323D02*
X171929000Y-109693323D01*
X169447000Y-109693323D02*
X166494000Y-109693323D01*
X174854000Y-109733323D02*
X171929000Y-109733323D01*
X169447000Y-109733323D02*
X166522000Y-109733323D01*
X174826000Y-109773323D02*
X171929000Y-109773323D01*
X169447000Y-109773323D02*
X166550000Y-109773323D01*
X174798000Y-109813323D02*
X171929000Y-109813323D01*
X169447000Y-109813323D02*
X166578000Y-109813323D01*
X174768000Y-109853323D02*
X171929000Y-109853323D01*
X169447000Y-109853323D02*
X166608000Y-109853323D01*
X174738000Y-109893323D02*
X171929000Y-109893323D01*
X169447000Y-109893323D02*
X166638000Y-109893323D01*
X174708000Y-109933323D02*
X171929000Y-109933323D01*
X169447000Y-109933323D02*
X166668000Y-109933323D01*
X174677000Y-109973323D02*
X171929000Y-109973323D01*
X169447000Y-109973323D02*
X166699000Y-109973323D01*
X174645000Y-110013323D02*
X171929000Y-110013323D01*
X169447000Y-110013323D02*
X166731000Y-110013323D01*
X174613000Y-110053323D02*
X171929000Y-110053323D01*
X169447000Y-110053323D02*
X166763000Y-110053323D01*
X174580000Y-110093323D02*
X171929000Y-110093323D01*
X169447000Y-110093323D02*
X166796000Y-110093323D01*
X174546000Y-110133323D02*
X171929000Y-110133323D01*
X169447000Y-110133323D02*
X166830000Y-110133323D01*
X174512000Y-110173323D02*
X171929000Y-110173323D01*
X169447000Y-110173323D02*
X166864000Y-110173323D01*
X174477000Y-110213323D02*
X171929000Y-110213323D01*
X169447000Y-110213323D02*
X166899000Y-110213323D01*
X174441000Y-110253323D02*
X171929000Y-110253323D01*
X169447000Y-110253323D02*
X166935000Y-110253323D01*
X174404000Y-110293323D02*
X171929000Y-110293323D01*
X169447000Y-110293323D02*
X166972000Y-110293323D01*
X174367000Y-110333323D02*
X171929000Y-110333323D01*
X169447000Y-110333323D02*
X167009000Y-110333323D01*
X174328000Y-110373323D02*
X171929000Y-110373323D01*
X169447000Y-110373323D02*
X167048000Y-110373323D01*
X174289000Y-110413323D02*
X171929000Y-110413323D01*
X169447000Y-110413323D02*
X167087000Y-110413323D01*
X174249000Y-110453323D02*
X171929000Y-110453323D01*
X169447000Y-110453323D02*
X167127000Y-110453323D01*
X174208000Y-110493323D02*
X171929000Y-110493323D01*
X169447000Y-110493323D02*
X167168000Y-110493323D01*
X174166000Y-110533323D02*
X171929000Y-110533323D01*
X169447000Y-110533323D02*
X167210000Y-110533323D01*
X174124000Y-110573323D02*
X167252000Y-110573323D01*
X174080000Y-110613323D02*
X167296000Y-110613323D01*
X174035000Y-110653323D02*
X167341000Y-110653323D01*
X173989000Y-110693323D02*
X167387000Y-110693323D01*
X173942000Y-110733323D02*
X167434000Y-110733323D01*
X173894000Y-110773323D02*
X167482000Y-110773323D01*
X173844000Y-110813323D02*
X167532000Y-110813323D01*
X173794000Y-110853323D02*
X167582000Y-110853323D01*
X173742000Y-110893323D02*
X167634000Y-110893323D01*
X173688000Y-110933323D02*
X167688000Y-110933323D01*
X173633000Y-110973323D02*
X167743000Y-110973323D01*
X173577000Y-111013323D02*
X167799000Y-111013323D01*
X173518000Y-111053323D02*
X167858000Y-111053323D01*
X173458000Y-111093323D02*
X167918000Y-111093323D01*
X173397000Y-111133323D02*
X167979000Y-111133323D01*
X173333000Y-111173323D02*
X168043000Y-111173323D01*
X173267000Y-111213323D02*
X168109000Y-111213323D01*
X173198000Y-111253323D02*
X168178000Y-111253323D01*
X173127000Y-111293323D02*
X168249000Y-111293323D01*
X173053000Y-111333323D02*
X168323000Y-111333323D01*
X172977000Y-111373323D02*
X168399000Y-111373323D01*
X172897000Y-111413323D02*
X168479000Y-111413323D01*
X172813000Y-111453323D02*
X168563000Y-111453323D01*
X172725000Y-111493323D02*
X168651000Y-111493323D01*
X172632000Y-111533323D02*
X168744000Y-111533323D01*
X172534000Y-111573323D02*
X168842000Y-111573323D01*
X172430000Y-111613323D02*
X168946000Y-111613323D01*
X172318000Y-111653323D02*
X169058000Y-111653323D01*
X172198000Y-111693323D02*
X169178000Y-111693323D01*
X172066000Y-111733323D02*
X169310000Y-111733323D01*
X171918000Y-111773323D02*
X169458000Y-111773323D01*
X171750000Y-111813323D02*
X169626000Y-111813323D01*
X171550000Y-111853323D02*
X169826000Y-111853323D01*
X171287000Y-111893323D02*
X170089000Y-111893323D01*
X175808000Y-106812323D02*
G75*
G03*
X175808000Y-106812323I-5120000J0D01*
G01*
%TO.C,D5*%
X153542000Y-70166000D02*
X150242000Y-70166000D01*
X153542000Y-70166000D02*
X153542000Y-77176000D01*
X150242000Y-70166000D02*
X150242000Y-77176000D01*
%TO.C,R20*%
X163348936Y-108485000D02*
X163803064Y-108485000D01*
X163348936Y-109955000D02*
X163803064Y-109955000D01*
%TO.C,R4*%
X177065000Y-104875064D02*
X177065000Y-104420936D01*
X178535000Y-104875064D02*
X178535000Y-104420936D01*
%TO.C,D4*%
X154838000Y-121538000D02*
X154838000Y-118238000D01*
X154838000Y-121538000D02*
X147828000Y-121538000D01*
X154838000Y-118238000D02*
X147828000Y-118238000D01*
%TO.C,C11*%
X157316000Y-65875248D02*
X157316000Y-67297752D01*
X154596000Y-65875248D02*
X154596000Y-67297752D01*
%TO.C,R12*%
X195860936Y-115089000D02*
X196315064Y-115089000D01*
X195860936Y-116559000D02*
X196315064Y-116559000D01*
%TO.C,C7*%
X150649000Y-103871752D02*
X150649000Y-103349248D01*
X152119000Y-103871752D02*
X152119000Y-103349248D01*
%TO.C,R6*%
X175541000Y-113495064D02*
X175541000Y-113040936D01*
X177011000Y-113495064D02*
X177011000Y-113040936D01*
%TO.C,D3*%
X186818000Y-81726000D02*
X190118000Y-81726000D01*
X186818000Y-81726000D02*
X186818000Y-74716000D01*
X190118000Y-81726000D02*
X190118000Y-74716000D01*
%TO.C,R5*%
X177065000Y-109447064D02*
X177065000Y-108992936D01*
X178535000Y-109447064D02*
X178535000Y-108992936D01*
%TO.C,C5*%
X200906748Y-110009000D02*
X201429252Y-110009000D01*
X200906748Y-111479000D02*
X201429252Y-111479000D01*
%TO.C,R10*%
X177519000Y-120168936D02*
X177519000Y-120623064D01*
X176049000Y-120168936D02*
X176049000Y-120623064D01*
%TO.C,C9*%
X165381000Y-119619752D02*
X165381000Y-119097248D01*
X166851000Y-119619752D02*
X166851000Y-119097248D01*
%TO.C,D1*%
X149226000Y-100500500D02*
X152526000Y-100500500D01*
X149226000Y-100500500D02*
X149226000Y-93490500D01*
X152526000Y-100500500D02*
X152526000Y-93490500D01*
D10*
%TO.C,U8*%
X193109000Y-123053000D02*
X193109000Y-122878000D01*
X193109000Y-123053000D02*
X189859000Y-123053000D01*
X193109000Y-122878000D02*
X194184000Y-122878000D01*
X193109000Y-119803000D02*
X193109000Y-120078000D01*
X193109000Y-119803000D02*
X189859000Y-119803000D01*
X189859000Y-123053000D02*
X189859000Y-122778000D01*
X189859000Y-119803000D02*
X189859000Y-120078000D01*
D11*
%TO.C,C8*%
X156731323Y-114635000D02*
X155731323Y-114635000D01*
X156231323Y-115135000D02*
X156231323Y-114135000D01*
X151251677Y-116840000D02*
X151251677Y-106680000D01*
X151211677Y-116840000D02*
X151211677Y-106680000D01*
X151171677Y-116840000D02*
X151171677Y-106680000D01*
X151131677Y-116839000D02*
X151131677Y-106681000D01*
X151091677Y-116838000D02*
X151091677Y-106682000D01*
X151051677Y-116837000D02*
X151051677Y-106683000D01*
X151011677Y-116835000D02*
X151011677Y-106685000D01*
X150971677Y-116833000D02*
X150971677Y-106687000D01*
X150931677Y-116830000D02*
X150931677Y-106690000D01*
X150891677Y-116828000D02*
X150891677Y-106692000D01*
X150851677Y-116825000D02*
X150851677Y-106695000D01*
X150811677Y-116822000D02*
X150811677Y-106698000D01*
X150771677Y-116818000D02*
X150771677Y-106702000D01*
X150731677Y-116814000D02*
X150731677Y-106706000D01*
X150691677Y-116810000D02*
X150691677Y-106710000D01*
X150651677Y-116805000D02*
X150651677Y-106715000D01*
X150611677Y-116800000D02*
X150611677Y-106720000D01*
X150571677Y-116795000D02*
X150571677Y-106725000D01*
X150530677Y-116790000D02*
X150530677Y-106730000D01*
X150490677Y-116784000D02*
X150490677Y-106736000D01*
X150450677Y-116778000D02*
X150450677Y-106742000D01*
X150410677Y-116771000D02*
X150410677Y-106749000D01*
X150370677Y-116764000D02*
X150370677Y-106756000D01*
X150330677Y-116757000D02*
X150330677Y-106763000D01*
X150290677Y-116750000D02*
X150290677Y-106770000D01*
X150250677Y-116742000D02*
X150250677Y-106778000D01*
X150210677Y-116734000D02*
X150210677Y-106786000D01*
X150170677Y-116725000D02*
X150170677Y-106795000D01*
X150130677Y-116716000D02*
X150130677Y-106804000D01*
X150090677Y-116707000D02*
X150090677Y-106813000D01*
X150050677Y-116698000D02*
X150050677Y-106822000D01*
X150010677Y-116688000D02*
X150010677Y-106832000D01*
X149970677Y-116678000D02*
X149970677Y-113001000D01*
X149970677Y-110519000D02*
X149970677Y-106842000D01*
X149930677Y-116667000D02*
X149930677Y-113001000D01*
X149930677Y-110519000D02*
X149930677Y-106853000D01*
X149890677Y-116657000D02*
X149890677Y-113001000D01*
X149890677Y-110519000D02*
X149890677Y-106863000D01*
X149850677Y-116645000D02*
X149850677Y-113001000D01*
X149850677Y-110519000D02*
X149850677Y-106875000D01*
X149810677Y-116634000D02*
X149810677Y-113001000D01*
X149810677Y-110519000D02*
X149810677Y-106886000D01*
X149770677Y-116622000D02*
X149770677Y-113001000D01*
X149770677Y-110519000D02*
X149770677Y-106898000D01*
X149730677Y-116610000D02*
X149730677Y-113001000D01*
X149730677Y-110519000D02*
X149730677Y-106910000D01*
X149690677Y-116597000D02*
X149690677Y-113001000D01*
X149690677Y-110519000D02*
X149690677Y-106923000D01*
X149650677Y-116584000D02*
X149650677Y-113001000D01*
X149650677Y-110519000D02*
X149650677Y-106936000D01*
X149610677Y-116571000D02*
X149610677Y-113001000D01*
X149610677Y-110519000D02*
X149610677Y-106949000D01*
X149570677Y-116557000D02*
X149570677Y-113001000D01*
X149570677Y-110519000D02*
X149570677Y-106963000D01*
X149530677Y-116543000D02*
X149530677Y-113001000D01*
X149530677Y-110519000D02*
X149530677Y-106977000D01*
X149490677Y-116528000D02*
X149490677Y-113001000D01*
X149490677Y-110519000D02*
X149490677Y-106992000D01*
X149450677Y-116514000D02*
X149450677Y-113001000D01*
X149450677Y-110519000D02*
X149450677Y-107006000D01*
X149410677Y-116498000D02*
X149410677Y-113001000D01*
X149410677Y-110519000D02*
X149410677Y-107022000D01*
X149370677Y-116483000D02*
X149370677Y-113001000D01*
X149370677Y-110519000D02*
X149370677Y-107037000D01*
X149330677Y-116467000D02*
X149330677Y-113001000D01*
X149330677Y-110519000D02*
X149330677Y-107053000D01*
X149290677Y-116450000D02*
X149290677Y-113001000D01*
X149290677Y-110519000D02*
X149290677Y-107070000D01*
X149250677Y-116434000D02*
X149250677Y-113001000D01*
X149250677Y-110519000D02*
X149250677Y-107086000D01*
X149210677Y-116417000D02*
X149210677Y-113001000D01*
X149210677Y-110519000D02*
X149210677Y-107103000D01*
X149170677Y-116399000D02*
X149170677Y-113001000D01*
X149170677Y-110519000D02*
X149170677Y-107121000D01*
X149130677Y-116381000D02*
X149130677Y-113001000D01*
X149130677Y-110519000D02*
X149130677Y-107139000D01*
X149090677Y-116363000D02*
X149090677Y-113001000D01*
X149090677Y-110519000D02*
X149090677Y-107157000D01*
X149050677Y-116344000D02*
X149050677Y-113001000D01*
X149050677Y-110519000D02*
X149050677Y-107176000D01*
X149010677Y-116324000D02*
X149010677Y-113001000D01*
X149010677Y-110519000D02*
X149010677Y-107196000D01*
X148970677Y-116305000D02*
X148970677Y-113001000D01*
X148970677Y-110519000D02*
X148970677Y-107215000D01*
X148930677Y-116285000D02*
X148930677Y-113001000D01*
X148930677Y-110519000D02*
X148930677Y-107235000D01*
X148890677Y-116264000D02*
X148890677Y-113001000D01*
X148890677Y-110519000D02*
X148890677Y-107256000D01*
X148850677Y-116243000D02*
X148850677Y-113001000D01*
X148850677Y-110519000D02*
X148850677Y-107277000D01*
X148810677Y-116222000D02*
X148810677Y-113001000D01*
X148810677Y-110519000D02*
X148810677Y-107298000D01*
X148770677Y-116200000D02*
X148770677Y-113001000D01*
X148770677Y-110519000D02*
X148770677Y-107320000D01*
X148730677Y-116177000D02*
X148730677Y-113001000D01*
X148730677Y-110519000D02*
X148730677Y-107343000D01*
X148690677Y-116155000D02*
X148690677Y-113001000D01*
X148690677Y-110519000D02*
X148690677Y-107365000D01*
X148650677Y-116131000D02*
X148650677Y-113001000D01*
X148650677Y-110519000D02*
X148650677Y-107389000D01*
X148610677Y-116107000D02*
X148610677Y-113001000D01*
X148610677Y-110519000D02*
X148610677Y-107413000D01*
X148570677Y-116083000D02*
X148570677Y-113001000D01*
X148570677Y-110519000D02*
X148570677Y-107437000D01*
X148530677Y-116058000D02*
X148530677Y-113001000D01*
X148530677Y-110519000D02*
X148530677Y-107462000D01*
X148490677Y-116033000D02*
X148490677Y-113001000D01*
X148490677Y-110519000D02*
X148490677Y-107487000D01*
X148450677Y-116007000D02*
X148450677Y-113001000D01*
X148450677Y-110519000D02*
X148450677Y-107513000D01*
X148410677Y-115981000D02*
X148410677Y-113001000D01*
X148410677Y-110519000D02*
X148410677Y-107539000D01*
X148370677Y-115954000D02*
X148370677Y-113001000D01*
X148370677Y-110519000D02*
X148370677Y-107566000D01*
X148330677Y-115926000D02*
X148330677Y-113001000D01*
X148330677Y-110519000D02*
X148330677Y-107594000D01*
X148290677Y-115898000D02*
X148290677Y-113001000D01*
X148290677Y-110519000D02*
X148290677Y-107622000D01*
X148250677Y-115870000D02*
X148250677Y-113001000D01*
X148250677Y-110519000D02*
X148250677Y-107650000D01*
X148210677Y-115840000D02*
X148210677Y-113001000D01*
X148210677Y-110519000D02*
X148210677Y-107680000D01*
X148170677Y-115810000D02*
X148170677Y-113001000D01*
X148170677Y-110519000D02*
X148170677Y-107710000D01*
X148130677Y-115780000D02*
X148130677Y-113001000D01*
X148130677Y-110519000D02*
X148130677Y-107740000D01*
X148090677Y-115749000D02*
X148090677Y-113001000D01*
X148090677Y-110519000D02*
X148090677Y-107771000D01*
X148050677Y-115717000D02*
X148050677Y-113001000D01*
X148050677Y-110519000D02*
X148050677Y-107803000D01*
X148010677Y-115685000D02*
X148010677Y-113001000D01*
X148010677Y-110519000D02*
X148010677Y-107835000D01*
X147970677Y-115652000D02*
X147970677Y-113001000D01*
X147970677Y-110519000D02*
X147970677Y-107868000D01*
X147930677Y-115618000D02*
X147930677Y-113001000D01*
X147930677Y-110519000D02*
X147930677Y-107902000D01*
X147890677Y-115584000D02*
X147890677Y-113001000D01*
X147890677Y-110519000D02*
X147890677Y-107936000D01*
X147850677Y-115549000D02*
X147850677Y-113001000D01*
X147850677Y-110519000D02*
X147850677Y-107971000D01*
X147810677Y-115513000D02*
X147810677Y-113001000D01*
X147810677Y-110519000D02*
X147810677Y-108007000D01*
X147770677Y-115476000D02*
X147770677Y-113001000D01*
X147770677Y-110519000D02*
X147770677Y-108044000D01*
X147730677Y-115439000D02*
X147730677Y-113001000D01*
X147730677Y-110519000D02*
X147730677Y-108081000D01*
X147690677Y-115400000D02*
X147690677Y-113001000D01*
X147690677Y-110519000D02*
X147690677Y-108120000D01*
X147650677Y-115361000D02*
X147650677Y-113001000D01*
X147650677Y-110519000D02*
X147650677Y-108159000D01*
X147610677Y-115321000D02*
X147610677Y-113001000D01*
X147610677Y-110519000D02*
X147610677Y-108199000D01*
X147570677Y-115280000D02*
X147570677Y-113001000D01*
X147570677Y-110519000D02*
X147570677Y-108240000D01*
X147530677Y-115238000D02*
X147530677Y-113001000D01*
X147530677Y-110519000D02*
X147530677Y-108282000D01*
X147490677Y-115196000D02*
X147490677Y-108324000D01*
X147450677Y-115152000D02*
X147450677Y-108368000D01*
X147410677Y-115107000D02*
X147410677Y-108413000D01*
X147370677Y-115061000D02*
X147370677Y-108459000D01*
X147330677Y-115014000D02*
X147330677Y-108506000D01*
X147290677Y-114966000D02*
X147290677Y-108554000D01*
X147250677Y-114916000D02*
X147250677Y-108604000D01*
X147210677Y-114866000D02*
X147210677Y-108654000D01*
X147170677Y-114814000D02*
X147170677Y-108706000D01*
X147130677Y-114760000D02*
X147130677Y-108760000D01*
X147090677Y-114705000D02*
X147090677Y-108815000D01*
X147050677Y-114649000D02*
X147050677Y-108871000D01*
X147010677Y-114590000D02*
X147010677Y-108930000D01*
X146970677Y-114530000D02*
X146970677Y-108990000D01*
X146930677Y-114469000D02*
X146930677Y-109051000D01*
X146890677Y-114405000D02*
X146890677Y-109115000D01*
X146850677Y-114339000D02*
X146850677Y-109181000D01*
X146810677Y-114270000D02*
X146810677Y-109250000D01*
X146770677Y-114199000D02*
X146770677Y-109321000D01*
X146730677Y-114125000D02*
X146730677Y-109395000D01*
X146690677Y-114049000D02*
X146690677Y-109471000D01*
X146650677Y-113969000D02*
X146650677Y-109551000D01*
X146610677Y-113885000D02*
X146610677Y-109635000D01*
X146570677Y-113797000D02*
X146570677Y-109723000D01*
X146530677Y-113704000D02*
X146530677Y-109816000D01*
X146490677Y-113606000D02*
X146490677Y-109914000D01*
X146450677Y-113502000D02*
X146450677Y-110018000D01*
X146410677Y-113390000D02*
X146410677Y-110130000D01*
X146370677Y-113270000D02*
X146370677Y-110250000D01*
X146330677Y-113138000D02*
X146330677Y-110382000D01*
X146290677Y-112990000D02*
X146290677Y-110530000D01*
X146250677Y-112822000D02*
X146250677Y-110698000D01*
X146210677Y-112622000D02*
X146210677Y-110898000D01*
X146170677Y-112359000D02*
X146170677Y-111161000D01*
X156371677Y-111760000D02*
G75*
G03*
X156371677Y-111760000I-5120000J0D01*
G01*
%TO.C,C15*%
X170915000Y-76954748D02*
X170915000Y-77477252D01*
X169445000Y-76954748D02*
X169445000Y-77477252D01*
%TO.C,R11*%
X175487436Y-116105000D02*
X175941564Y-116105000D01*
X175487436Y-117575000D02*
X175941564Y-117575000D01*
%TO.C,U7*%
X160020000Y-122448000D02*
X163470000Y-122448000D01*
X160020000Y-122448000D02*
X158070000Y-122448000D01*
X160020000Y-117328000D02*
X161970000Y-117328000D01*
X160020000Y-117328000D02*
X158070000Y-117328000D01*
%TO.C,C4*%
X196327752Y-114019000D02*
X195805248Y-114019000D01*
X196327752Y-112549000D02*
X195805248Y-112549000D01*
%TO.C,R7*%
X176973564Y-101319000D02*
X176519436Y-101319000D01*
X176973564Y-99849000D02*
X176519436Y-99849000D01*
%TO.C,U9*%
X122318000Y-68901000D02*
X122318000Y-114741000D01*
X122318000Y-114741000D02*
X142858000Y-114741000D01*
X131588000Y-68901000D02*
X122318000Y-68901000D01*
X142858000Y-68901000D02*
X133588000Y-68901000D01*
X142858000Y-114741000D02*
X142858000Y-68901000D01*
X131588000Y-68901000D02*
G75*
G03*
X133588000Y-68901000I1000000J0D01*
G01*
%TO.C,R9*%
X181091436Y-113565000D02*
X181545564Y-113565000D01*
X181091436Y-115035000D02*
X181545564Y-115035000D01*
%TO.C,R1*%
X181561564Y-108939000D02*
X181107436Y-108939000D01*
X181561564Y-107469000D02*
X181107436Y-107469000D01*
%TO.C,R14*%
X201395064Y-108939000D02*
X200940936Y-108939000D01*
X201395064Y-107469000D02*
X200940936Y-107469000D01*
%TO.C,R8*%
X181091436Y-116105000D02*
X181545564Y-116105000D01*
X181091436Y-117575000D02*
X181545564Y-117575000D01*
%TO.C,R18*%
X167867000Y-94747436D02*
X167867000Y-95201564D01*
X166397000Y-94747436D02*
X166397000Y-95201564D01*
%TO.C,U10*%
X189462500Y-106309000D02*
X186012500Y-106309000D01*
X189462500Y-106309000D02*
X191412500Y-106309000D01*
X189462500Y-115179000D02*
X187512500Y-115179000D01*
X189462500Y-115179000D02*
X191412500Y-115179000D01*
%TO.C,C10*%
X160266748Y-114073000D02*
X160789252Y-114073000D01*
X160266748Y-115543000D02*
X160789252Y-115543000D01*
%TO.C,C3*%
X201407752Y-116559000D02*
X200885248Y-116559000D01*
X201407752Y-115089000D02*
X200885248Y-115089000D01*
%TO.C,C16*%
X175941000Y-82563323D02*
X175941000Y-81563323D01*
X175441000Y-82063323D02*
X176441000Y-82063323D01*
X173736000Y-77083677D02*
X183896000Y-77083677D01*
X173736000Y-77043677D02*
X183896000Y-77043677D01*
X173736000Y-77003677D02*
X183896000Y-77003677D01*
X173737000Y-76963677D02*
X183895000Y-76963677D01*
X173738000Y-76923677D02*
X183894000Y-76923677D01*
X173739000Y-76883677D02*
X183893000Y-76883677D01*
X173741000Y-76843677D02*
X183891000Y-76843677D01*
X173743000Y-76803677D02*
X183889000Y-76803677D01*
X173746000Y-76763677D02*
X183886000Y-76763677D01*
X173748000Y-76723677D02*
X183884000Y-76723677D01*
X173751000Y-76683677D02*
X183881000Y-76683677D01*
X173754000Y-76643677D02*
X183878000Y-76643677D01*
X173758000Y-76603677D02*
X183874000Y-76603677D01*
X173762000Y-76563677D02*
X183870000Y-76563677D01*
X173766000Y-76523677D02*
X183866000Y-76523677D01*
X173771000Y-76483677D02*
X183861000Y-76483677D01*
X173776000Y-76443677D02*
X183856000Y-76443677D01*
X173781000Y-76403677D02*
X183851000Y-76403677D01*
X173786000Y-76362677D02*
X183846000Y-76362677D01*
X173792000Y-76322677D02*
X183840000Y-76322677D01*
X173798000Y-76282677D02*
X183834000Y-76282677D01*
X173805000Y-76242677D02*
X183827000Y-76242677D01*
X173812000Y-76202677D02*
X183820000Y-76202677D01*
X173819000Y-76162677D02*
X183813000Y-76162677D01*
X173826000Y-76122677D02*
X183806000Y-76122677D01*
X173834000Y-76082677D02*
X183798000Y-76082677D01*
X173842000Y-76042677D02*
X183790000Y-76042677D01*
X173851000Y-76002677D02*
X183781000Y-76002677D01*
X173860000Y-75962677D02*
X183772000Y-75962677D01*
X173869000Y-75922677D02*
X183763000Y-75922677D01*
X173878000Y-75882677D02*
X183754000Y-75882677D01*
X173888000Y-75842677D02*
X183744000Y-75842677D01*
X173898000Y-75802677D02*
X177575000Y-75802677D01*
X180057000Y-75802677D02*
X183734000Y-75802677D01*
X173909000Y-75762677D02*
X177575000Y-75762677D01*
X180057000Y-75762677D02*
X183723000Y-75762677D01*
X173919000Y-75722677D02*
X177575000Y-75722677D01*
X180057000Y-75722677D02*
X183713000Y-75722677D01*
X173931000Y-75682677D02*
X177575000Y-75682677D01*
X180057000Y-75682677D02*
X183701000Y-75682677D01*
X173942000Y-75642677D02*
X177575000Y-75642677D01*
X180057000Y-75642677D02*
X183690000Y-75642677D01*
X173954000Y-75602677D02*
X177575000Y-75602677D01*
X180057000Y-75602677D02*
X183678000Y-75602677D01*
X173966000Y-75562677D02*
X177575000Y-75562677D01*
X180057000Y-75562677D02*
X183666000Y-75562677D01*
X173979000Y-75522677D02*
X177575000Y-75522677D01*
X180057000Y-75522677D02*
X183653000Y-75522677D01*
X173992000Y-75482677D02*
X177575000Y-75482677D01*
X180057000Y-75482677D02*
X183640000Y-75482677D01*
X174005000Y-75442677D02*
X177575000Y-75442677D01*
X180057000Y-75442677D02*
X183627000Y-75442677D01*
X174019000Y-75402677D02*
X177575000Y-75402677D01*
X180057000Y-75402677D02*
X183613000Y-75402677D01*
X174033000Y-75362677D02*
X177575000Y-75362677D01*
X180057000Y-75362677D02*
X183599000Y-75362677D01*
X174048000Y-75322677D02*
X177575000Y-75322677D01*
X180057000Y-75322677D02*
X183584000Y-75322677D01*
X174062000Y-75282677D02*
X177575000Y-75282677D01*
X180057000Y-75282677D02*
X183570000Y-75282677D01*
X174078000Y-75242677D02*
X177575000Y-75242677D01*
X180057000Y-75242677D02*
X183554000Y-75242677D01*
X174093000Y-75202677D02*
X177575000Y-75202677D01*
X180057000Y-75202677D02*
X183539000Y-75202677D01*
X174109000Y-75162677D02*
X177575000Y-75162677D01*
X180057000Y-75162677D02*
X183523000Y-75162677D01*
X174126000Y-75122677D02*
X177575000Y-75122677D01*
X180057000Y-75122677D02*
X183506000Y-75122677D01*
X174142000Y-75082677D02*
X177575000Y-75082677D01*
X180057000Y-75082677D02*
X183490000Y-75082677D01*
X174159000Y-75042677D02*
X177575000Y-75042677D01*
X180057000Y-75042677D02*
X183473000Y-75042677D01*
X174177000Y-75002677D02*
X177575000Y-75002677D01*
X180057000Y-75002677D02*
X183455000Y-75002677D01*
X174195000Y-74962677D02*
X177575000Y-74962677D01*
X180057000Y-74962677D02*
X183437000Y-74962677D01*
X174213000Y-74922677D02*
X177575000Y-74922677D01*
X180057000Y-74922677D02*
X183419000Y-74922677D01*
X174232000Y-74882677D02*
X177575000Y-74882677D01*
X180057000Y-74882677D02*
X183400000Y-74882677D01*
X174252000Y-74842677D02*
X177575000Y-74842677D01*
X180057000Y-74842677D02*
X183380000Y-74842677D01*
X174271000Y-74802677D02*
X177575000Y-74802677D01*
X180057000Y-74802677D02*
X183361000Y-74802677D01*
X174291000Y-74762677D02*
X177575000Y-74762677D01*
X180057000Y-74762677D02*
X183341000Y-74762677D01*
X174312000Y-74722677D02*
X177575000Y-74722677D01*
X180057000Y-74722677D02*
X183320000Y-74722677D01*
X174333000Y-74682677D02*
X177575000Y-74682677D01*
X180057000Y-74682677D02*
X183299000Y-74682677D01*
X174354000Y-74642677D02*
X177575000Y-74642677D01*
X180057000Y-74642677D02*
X183278000Y-74642677D01*
X174376000Y-74602677D02*
X177575000Y-74602677D01*
X180057000Y-74602677D02*
X183256000Y-74602677D01*
X174399000Y-74562677D02*
X177575000Y-74562677D01*
X180057000Y-74562677D02*
X183233000Y-74562677D01*
X174421000Y-74522677D02*
X177575000Y-74522677D01*
X180057000Y-74522677D02*
X183211000Y-74522677D01*
X174445000Y-74482677D02*
X177575000Y-74482677D01*
X180057000Y-74482677D02*
X183187000Y-74482677D01*
X174469000Y-74442677D02*
X177575000Y-74442677D01*
X180057000Y-74442677D02*
X183163000Y-74442677D01*
X174493000Y-74402677D02*
X177575000Y-74402677D01*
X180057000Y-74402677D02*
X183139000Y-74402677D01*
X174518000Y-74362677D02*
X177575000Y-74362677D01*
X180057000Y-74362677D02*
X183114000Y-74362677D01*
X174543000Y-74322677D02*
X177575000Y-74322677D01*
X180057000Y-74322677D02*
X183089000Y-74322677D01*
X174569000Y-74282677D02*
X177575000Y-74282677D01*
X180057000Y-74282677D02*
X183063000Y-74282677D01*
X174595000Y-74242677D02*
X177575000Y-74242677D01*
X180057000Y-74242677D02*
X183037000Y-74242677D01*
X174622000Y-74202677D02*
X177575000Y-74202677D01*
X180057000Y-74202677D02*
X183010000Y-74202677D01*
X174650000Y-74162677D02*
X177575000Y-74162677D01*
X180057000Y-74162677D02*
X182982000Y-74162677D01*
X174678000Y-74122677D02*
X177575000Y-74122677D01*
X180057000Y-74122677D02*
X182954000Y-74122677D01*
X174706000Y-74082677D02*
X177575000Y-74082677D01*
X180057000Y-74082677D02*
X182926000Y-74082677D01*
X174736000Y-74042677D02*
X177575000Y-74042677D01*
X180057000Y-74042677D02*
X182896000Y-74042677D01*
X174766000Y-74002677D02*
X177575000Y-74002677D01*
X180057000Y-74002677D02*
X182866000Y-74002677D01*
X174796000Y-73962677D02*
X177575000Y-73962677D01*
X180057000Y-73962677D02*
X182836000Y-73962677D01*
X174827000Y-73922677D02*
X177575000Y-73922677D01*
X180057000Y-73922677D02*
X182805000Y-73922677D01*
X174859000Y-73882677D02*
X177575000Y-73882677D01*
X180057000Y-73882677D02*
X182773000Y-73882677D01*
X174891000Y-73842677D02*
X177575000Y-73842677D01*
X180057000Y-73842677D02*
X182741000Y-73842677D01*
X174924000Y-73802677D02*
X177575000Y-73802677D01*
X180057000Y-73802677D02*
X182708000Y-73802677D01*
X174958000Y-73762677D02*
X177575000Y-73762677D01*
X180057000Y-73762677D02*
X182674000Y-73762677D01*
X174992000Y-73722677D02*
X177575000Y-73722677D01*
X180057000Y-73722677D02*
X182640000Y-73722677D01*
X175027000Y-73682677D02*
X177575000Y-73682677D01*
X180057000Y-73682677D02*
X182605000Y-73682677D01*
X175063000Y-73642677D02*
X177575000Y-73642677D01*
X180057000Y-73642677D02*
X182569000Y-73642677D01*
X175100000Y-73602677D02*
X177575000Y-73602677D01*
X180057000Y-73602677D02*
X182532000Y-73602677D01*
X175137000Y-73562677D02*
X177575000Y-73562677D01*
X180057000Y-73562677D02*
X182495000Y-73562677D01*
X175176000Y-73522677D02*
X177575000Y-73522677D01*
X180057000Y-73522677D02*
X182456000Y-73522677D01*
X175215000Y-73482677D02*
X177575000Y-73482677D01*
X180057000Y-73482677D02*
X182417000Y-73482677D01*
X175255000Y-73442677D02*
X177575000Y-73442677D01*
X180057000Y-73442677D02*
X182377000Y-73442677D01*
X175296000Y-73402677D02*
X177575000Y-73402677D01*
X180057000Y-73402677D02*
X182336000Y-73402677D01*
X175338000Y-73362677D02*
X177575000Y-73362677D01*
X180057000Y-73362677D02*
X182294000Y-73362677D01*
X175380000Y-73322677D02*
X182252000Y-73322677D01*
X175424000Y-73282677D02*
X182208000Y-73282677D01*
X175469000Y-73242677D02*
X182163000Y-73242677D01*
X175515000Y-73202677D02*
X182117000Y-73202677D01*
X175562000Y-73162677D02*
X182070000Y-73162677D01*
X175610000Y-73122677D02*
X182022000Y-73122677D01*
X175660000Y-73082677D02*
X181972000Y-73082677D01*
X175710000Y-73042677D02*
X181922000Y-73042677D01*
X175762000Y-73002677D02*
X181870000Y-73002677D01*
X175816000Y-72962677D02*
X181816000Y-72962677D01*
X175871000Y-72922677D02*
X181761000Y-72922677D01*
X175927000Y-72882677D02*
X181705000Y-72882677D01*
X175986000Y-72842677D02*
X181646000Y-72842677D01*
X176046000Y-72802677D02*
X181586000Y-72802677D01*
X176107000Y-72762677D02*
X181525000Y-72762677D01*
X176171000Y-72722677D02*
X181461000Y-72722677D01*
X176237000Y-72682677D02*
X181395000Y-72682677D01*
X176306000Y-72642677D02*
X181326000Y-72642677D01*
X176377000Y-72602677D02*
X181255000Y-72602677D01*
X176451000Y-72562677D02*
X181181000Y-72562677D01*
X176527000Y-72522677D02*
X181105000Y-72522677D01*
X176607000Y-72482677D02*
X181025000Y-72482677D01*
X176691000Y-72442677D02*
X180941000Y-72442677D01*
X176779000Y-72402677D02*
X180853000Y-72402677D01*
X176872000Y-72362677D02*
X180760000Y-72362677D01*
X176970000Y-72322677D02*
X180662000Y-72322677D01*
X177074000Y-72282677D02*
X180558000Y-72282677D01*
X177186000Y-72242677D02*
X180446000Y-72242677D01*
X177306000Y-72202677D02*
X180326000Y-72202677D01*
X177438000Y-72162677D02*
X180194000Y-72162677D01*
X177586000Y-72122677D02*
X180046000Y-72122677D01*
X177754000Y-72082677D02*
X179878000Y-72082677D01*
X177954000Y-72042677D02*
X179678000Y-72042677D01*
X178217000Y-72002677D02*
X179415000Y-72002677D01*
X183936000Y-77083677D02*
G75*
G03*
X183936000Y-77083677I-5120000J0D01*
G01*
%TO.C,U6*%
X156872000Y-95919000D02*
X156872000Y-106199000D01*
X156872000Y-106199000D02*
X162172000Y-106199000D01*
X158522000Y-95919000D02*
X156872000Y-95919000D01*
X162172000Y-95919000D02*
X160522000Y-95919000D01*
X162172000Y-106199000D02*
X162172000Y-95919000D01*
X158522000Y-95919000D02*
G75*
G03*
X160522000Y-95919000I1000000J0D01*
G01*
%TO.C,U1*%
X165668000Y-67564000D02*
X165668000Y-64114000D01*
X165668000Y-67564000D02*
X165668000Y-69514000D01*
X160548000Y-67564000D02*
X160548000Y-65614000D01*
X160548000Y-67564000D02*
X160548000Y-69514000D01*
%TO.C,R19*%
X159263064Y-109933500D02*
X158808936Y-109933500D01*
X159263064Y-108463500D02*
X158808936Y-108463500D01*
%TO.C,C1*%
X181574252Y-106399000D02*
X181051748Y-106399000D01*
X181574252Y-104929000D02*
X181051748Y-104929000D01*
%TO.C,L2*%
X160216000Y-78588000D02*
X160216000Y-79788000D01*
X160216000Y-78588000D02*
X161616000Y-78588000D01*
X160216000Y-84988000D02*
X160216000Y-83788000D01*
X160216000Y-84988000D02*
X161616000Y-84988000D01*
X167016000Y-78588000D02*
X165616000Y-78588000D01*
X167016000Y-78588000D02*
X167016000Y-79788000D01*
X167016000Y-84988000D02*
X165616000Y-84988000D01*
X167016000Y-84988000D02*
X167016000Y-83788000D01*
%TO.C,R22*%
X169391000Y-65812936D02*
X169391000Y-66267064D01*
X167921000Y-65812936D02*
X167921000Y-66267064D01*
%TO.C,D2*%
X159066000Y-73026000D02*
X159066000Y-76326000D01*
X159066000Y-73026000D02*
X166076000Y-73026000D01*
X159066000Y-76326000D02*
X166076000Y-76326000D01*
%TD*%
M02*
