%TF.GenerationSoftware,KiCad,Pcbnew,7.0.2*%
%TF.CreationDate,2023-05-15T17:20:53+02:00*%
%TF.ProjectId,projektkicad,70726f6a-656b-4746-9b69-6361642e6b69,rev?*%
%TF.SameCoordinates,Original*%
%TF.FileFunction,Drillmap*%
%TF.FilePolarity,Positive*%
%FSLAX45Y45*%
G04 Gerber Fmt 4.5, Leading zero omitted, Abs format (unit mm)*
G04 Created by KiCad (PCBNEW 7.0.2) date 2023-05-15 17:20:53*
%MOMM*%
%LPD*%
G01*
G04 APERTURE LIST*
%ADD10C,0.200000*%
%ADD11C,0.320000*%
G04 APERTURE END LIST*
D10*
X12000000Y-6000000D02*
X20200000Y-6000000D01*
X11700000Y-12200000D02*
G75*
G03*
X12000000Y-12500000I300000J0D01*
G01*
X20200000Y-12500000D02*
X12000000Y-12500000D01*
X12000000Y-6000000D02*
G75*
G03*
X11700000Y-6300000I-12690J-287310D01*
G01*
X20500000Y-6300000D02*
X20500000Y-12200000D01*
X20500000Y-6300000D02*
G75*
G03*
X20200000Y-6000000I-300000J0D01*
G01*
X11700000Y-12200000D02*
X11700000Y-6300000D01*
X20200000Y-12500000D02*
G75*
G03*
X20500000Y-12200000I0J300000D01*
G01*
D11*
X11940000Y-6240000D02*
X12260000Y-6560000D01*
X12260000Y-6240000D02*
X11940000Y-6560000D01*
X11940000Y-11940000D02*
X12260000Y-12260000D01*
X12260000Y-11940000D02*
X11940000Y-12260000D01*
X19940000Y-11940000D02*
X20260000Y-12260000D01*
X20260000Y-11940000D02*
X19940000Y-12260000D01*
D10*
X11937339Y-12822524D02*
X11937339Y-12622524D01*
X11937339Y-12622524D02*
X11984958Y-12622524D01*
X11984958Y-12622524D02*
X12013529Y-12632048D01*
X12013529Y-12632048D02*
X12032577Y-12651095D01*
X12032577Y-12651095D02*
X12042101Y-12670143D01*
X12042101Y-12670143D02*
X12051625Y-12708238D01*
X12051625Y-12708238D02*
X12051625Y-12736809D01*
X12051625Y-12736809D02*
X12042101Y-12774905D01*
X12042101Y-12774905D02*
X12032577Y-12793952D01*
X12032577Y-12793952D02*
X12013529Y-12813000D01*
X12013529Y-12813000D02*
X11984958Y-12822524D01*
X11984958Y-12822524D02*
X11937339Y-12822524D01*
X12137339Y-12822524D02*
X12137339Y-12689190D01*
X12137339Y-12727286D02*
X12146863Y-12708238D01*
X12146863Y-12708238D02*
X12156386Y-12698714D01*
X12156386Y-12698714D02*
X12175434Y-12689190D01*
X12175434Y-12689190D02*
X12194482Y-12689190D01*
X12261148Y-12822524D02*
X12261148Y-12689190D01*
X12261148Y-12622524D02*
X12251625Y-12632048D01*
X12251625Y-12632048D02*
X12261148Y-12641571D01*
X12261148Y-12641571D02*
X12270672Y-12632048D01*
X12270672Y-12632048D02*
X12261148Y-12622524D01*
X12261148Y-12622524D02*
X12261148Y-12641571D01*
X12384958Y-12822524D02*
X12365910Y-12813000D01*
X12365910Y-12813000D02*
X12356386Y-12793952D01*
X12356386Y-12793952D02*
X12356386Y-12622524D01*
X12489720Y-12822524D02*
X12470672Y-12813000D01*
X12470672Y-12813000D02*
X12461148Y-12793952D01*
X12461148Y-12793952D02*
X12461148Y-12622524D01*
X12718291Y-12822524D02*
X12718291Y-12622524D01*
X12718291Y-12622524D02*
X12784958Y-12765381D01*
X12784958Y-12765381D02*
X12851625Y-12622524D01*
X12851625Y-12622524D02*
X12851625Y-12822524D01*
X13032577Y-12822524D02*
X13032577Y-12717762D01*
X13032577Y-12717762D02*
X13023053Y-12698714D01*
X13023053Y-12698714D02*
X13004006Y-12689190D01*
X13004006Y-12689190D02*
X12965910Y-12689190D01*
X12965910Y-12689190D02*
X12946863Y-12698714D01*
X13032577Y-12813000D02*
X13013529Y-12822524D01*
X13013529Y-12822524D02*
X12965910Y-12822524D01*
X12965910Y-12822524D02*
X12946863Y-12813000D01*
X12946863Y-12813000D02*
X12937339Y-12793952D01*
X12937339Y-12793952D02*
X12937339Y-12774905D01*
X12937339Y-12774905D02*
X12946863Y-12755857D01*
X12946863Y-12755857D02*
X12965910Y-12746333D01*
X12965910Y-12746333D02*
X13013529Y-12746333D01*
X13013529Y-12746333D02*
X13032577Y-12736809D01*
X13127815Y-12689190D02*
X13127815Y-12889190D01*
X13127815Y-12698714D02*
X13146863Y-12689190D01*
X13146863Y-12689190D02*
X13184958Y-12689190D01*
X13184958Y-12689190D02*
X13204006Y-12698714D01*
X13204006Y-12698714D02*
X13213529Y-12708238D01*
X13213529Y-12708238D02*
X13223053Y-12727286D01*
X13223053Y-12727286D02*
X13223053Y-12784428D01*
X13223053Y-12784428D02*
X13213529Y-12803476D01*
X13213529Y-12803476D02*
X13204006Y-12813000D01*
X13204006Y-12813000D02*
X13184958Y-12822524D01*
X13184958Y-12822524D02*
X13146863Y-12822524D01*
X13146863Y-12822524D02*
X13127815Y-12813000D01*
X13308767Y-12803476D02*
X13318291Y-12813000D01*
X13318291Y-12813000D02*
X13308767Y-12822524D01*
X13308767Y-12822524D02*
X13299244Y-12813000D01*
X13299244Y-12813000D02*
X13308767Y-12803476D01*
X13308767Y-12803476D02*
X13308767Y-12822524D01*
X13308767Y-12698714D02*
X13318291Y-12708238D01*
X13318291Y-12708238D02*
X13308767Y-12717762D01*
X13308767Y-12717762D02*
X13299244Y-12708238D01*
X13299244Y-12708238D02*
X13308767Y-12698714D01*
X13308767Y-12698714D02*
X13308767Y-12717762D01*
X11489720Y-13050000D02*
X11689720Y-13250000D01*
X11689720Y-13050000D02*
X11489720Y-13250000D01*
X11918291Y-13042524D02*
X12042101Y-13042524D01*
X12042101Y-13042524D02*
X11975434Y-13118714D01*
X11975434Y-13118714D02*
X12004006Y-13118714D01*
X12004006Y-13118714D02*
X12023053Y-13128238D01*
X12023053Y-13128238D02*
X12032577Y-13137762D01*
X12032577Y-13137762D02*
X12042101Y-13156809D01*
X12042101Y-13156809D02*
X12042101Y-13204428D01*
X12042101Y-13204428D02*
X12032577Y-13223476D01*
X12032577Y-13223476D02*
X12023053Y-13233000D01*
X12023053Y-13233000D02*
X12004006Y-13242524D01*
X12004006Y-13242524D02*
X11946863Y-13242524D01*
X11946863Y-13242524D02*
X11927815Y-13233000D01*
X11927815Y-13233000D02*
X11918291Y-13223476D01*
X12127815Y-13223476D02*
X12137339Y-13233000D01*
X12137339Y-13233000D02*
X12127815Y-13242524D01*
X12127815Y-13242524D02*
X12118291Y-13233000D01*
X12118291Y-13233000D02*
X12127815Y-13223476D01*
X12127815Y-13223476D02*
X12127815Y-13242524D01*
X12213529Y-13061571D02*
X12223053Y-13052048D01*
X12223053Y-13052048D02*
X12242101Y-13042524D01*
X12242101Y-13042524D02*
X12289720Y-13042524D01*
X12289720Y-13042524D02*
X12308767Y-13052048D01*
X12308767Y-13052048D02*
X12318291Y-13061571D01*
X12318291Y-13061571D02*
X12327815Y-13080619D01*
X12327815Y-13080619D02*
X12327815Y-13099667D01*
X12327815Y-13099667D02*
X12318291Y-13128238D01*
X12318291Y-13128238D02*
X12204006Y-13242524D01*
X12204006Y-13242524D02*
X12327815Y-13242524D01*
X12451625Y-13042524D02*
X12470672Y-13042524D01*
X12470672Y-13042524D02*
X12489720Y-13052048D01*
X12489720Y-13052048D02*
X12499244Y-13061571D01*
X12499244Y-13061571D02*
X12508767Y-13080619D01*
X12508767Y-13080619D02*
X12518291Y-13118714D01*
X12518291Y-13118714D02*
X12518291Y-13166333D01*
X12518291Y-13166333D02*
X12508767Y-13204428D01*
X12508767Y-13204428D02*
X12499244Y-13223476D01*
X12499244Y-13223476D02*
X12489720Y-13233000D01*
X12489720Y-13233000D02*
X12470672Y-13242524D01*
X12470672Y-13242524D02*
X12451625Y-13242524D01*
X12451625Y-13242524D02*
X12432577Y-13233000D01*
X12432577Y-13233000D02*
X12423053Y-13223476D01*
X12423053Y-13223476D02*
X12413529Y-13204428D01*
X12413529Y-13204428D02*
X12404006Y-13166333D01*
X12404006Y-13166333D02*
X12404006Y-13118714D01*
X12404006Y-13118714D02*
X12413529Y-13080619D01*
X12413529Y-13080619D02*
X12423053Y-13061571D01*
X12423053Y-13061571D02*
X12432577Y-13052048D01*
X12432577Y-13052048D02*
X12451625Y-13042524D01*
X12642101Y-13042524D02*
X12661148Y-13042524D01*
X12661148Y-13042524D02*
X12680196Y-13052048D01*
X12680196Y-13052048D02*
X12689720Y-13061571D01*
X12689720Y-13061571D02*
X12699244Y-13080619D01*
X12699244Y-13080619D02*
X12708767Y-13118714D01*
X12708767Y-13118714D02*
X12708767Y-13166333D01*
X12708767Y-13166333D02*
X12699244Y-13204428D01*
X12699244Y-13204428D02*
X12689720Y-13223476D01*
X12689720Y-13223476D02*
X12680196Y-13233000D01*
X12680196Y-13233000D02*
X12661148Y-13242524D01*
X12661148Y-13242524D02*
X12642101Y-13242524D01*
X12642101Y-13242524D02*
X12623053Y-13233000D01*
X12623053Y-13233000D02*
X12613529Y-13223476D01*
X12613529Y-13223476D02*
X12604006Y-13204428D01*
X12604006Y-13204428D02*
X12594482Y-13166333D01*
X12594482Y-13166333D02*
X12594482Y-13118714D01*
X12594482Y-13118714D02*
X12604006Y-13080619D01*
X12604006Y-13080619D02*
X12613529Y-13061571D01*
X12613529Y-13061571D02*
X12623053Y-13052048D01*
X12623053Y-13052048D02*
X12642101Y-13042524D01*
X12794482Y-13242524D02*
X12794482Y-13109190D01*
X12794482Y-13128238D02*
X12804006Y-13118714D01*
X12804006Y-13118714D02*
X12823053Y-13109190D01*
X12823053Y-13109190D02*
X12851625Y-13109190D01*
X12851625Y-13109190D02*
X12870672Y-13118714D01*
X12870672Y-13118714D02*
X12880196Y-13137762D01*
X12880196Y-13137762D02*
X12880196Y-13242524D01*
X12880196Y-13137762D02*
X12889720Y-13118714D01*
X12889720Y-13118714D02*
X12908767Y-13109190D01*
X12908767Y-13109190D02*
X12937339Y-13109190D01*
X12937339Y-13109190D02*
X12956387Y-13118714D01*
X12956387Y-13118714D02*
X12965910Y-13137762D01*
X12965910Y-13137762D02*
X12965910Y-13242524D01*
X13061148Y-13242524D02*
X13061148Y-13109190D01*
X13061148Y-13128238D02*
X13070672Y-13118714D01*
X13070672Y-13118714D02*
X13089720Y-13109190D01*
X13089720Y-13109190D02*
X13118291Y-13109190D01*
X13118291Y-13109190D02*
X13137339Y-13118714D01*
X13137339Y-13118714D02*
X13146863Y-13137762D01*
X13146863Y-13137762D02*
X13146863Y-13242524D01*
X13146863Y-13137762D02*
X13156387Y-13118714D01*
X13156387Y-13118714D02*
X13175434Y-13109190D01*
X13175434Y-13109190D02*
X13204006Y-13109190D01*
X13204006Y-13109190D02*
X13223053Y-13118714D01*
X13223053Y-13118714D02*
X13232577Y-13137762D01*
X13232577Y-13137762D02*
X13232577Y-13242524D01*
X13623053Y-13033000D02*
X13451625Y-13290143D01*
X13880196Y-13042524D02*
X13899244Y-13042524D01*
X13899244Y-13042524D02*
X13918291Y-13052048D01*
X13918291Y-13052048D02*
X13927815Y-13061571D01*
X13927815Y-13061571D02*
X13937339Y-13080619D01*
X13937339Y-13080619D02*
X13946863Y-13118714D01*
X13946863Y-13118714D02*
X13946863Y-13166333D01*
X13946863Y-13166333D02*
X13937339Y-13204428D01*
X13937339Y-13204428D02*
X13927815Y-13223476D01*
X13927815Y-13223476D02*
X13918291Y-13233000D01*
X13918291Y-13233000D02*
X13899244Y-13242524D01*
X13899244Y-13242524D02*
X13880196Y-13242524D01*
X13880196Y-13242524D02*
X13861149Y-13233000D01*
X13861149Y-13233000D02*
X13851625Y-13223476D01*
X13851625Y-13223476D02*
X13842101Y-13204428D01*
X13842101Y-13204428D02*
X13832577Y-13166333D01*
X13832577Y-13166333D02*
X13832577Y-13118714D01*
X13832577Y-13118714D02*
X13842101Y-13080619D01*
X13842101Y-13080619D02*
X13851625Y-13061571D01*
X13851625Y-13061571D02*
X13861149Y-13052048D01*
X13861149Y-13052048D02*
X13880196Y-13042524D01*
X14032577Y-13223476D02*
X14042101Y-13233000D01*
X14042101Y-13233000D02*
X14032577Y-13242524D01*
X14032577Y-13242524D02*
X14023053Y-13233000D01*
X14023053Y-13233000D02*
X14032577Y-13223476D01*
X14032577Y-13223476D02*
X14032577Y-13242524D01*
X14232577Y-13242524D02*
X14118291Y-13242524D01*
X14175434Y-13242524D02*
X14175434Y-13042524D01*
X14175434Y-13042524D02*
X14156387Y-13071095D01*
X14156387Y-13071095D02*
X14137339Y-13090143D01*
X14137339Y-13090143D02*
X14118291Y-13099667D01*
X14308768Y-13061571D02*
X14318291Y-13052048D01*
X14318291Y-13052048D02*
X14337339Y-13042524D01*
X14337339Y-13042524D02*
X14384958Y-13042524D01*
X14384958Y-13042524D02*
X14404006Y-13052048D01*
X14404006Y-13052048D02*
X14413530Y-13061571D01*
X14413530Y-13061571D02*
X14423053Y-13080619D01*
X14423053Y-13080619D02*
X14423053Y-13099667D01*
X14423053Y-13099667D02*
X14413530Y-13128238D01*
X14413530Y-13128238D02*
X14299244Y-13242524D01*
X14299244Y-13242524D02*
X14423053Y-13242524D01*
X14594482Y-13042524D02*
X14556387Y-13042524D01*
X14556387Y-13042524D02*
X14537339Y-13052048D01*
X14537339Y-13052048D02*
X14527815Y-13061571D01*
X14527815Y-13061571D02*
X14508768Y-13090143D01*
X14508768Y-13090143D02*
X14499244Y-13128238D01*
X14499244Y-13128238D02*
X14499244Y-13204428D01*
X14499244Y-13204428D02*
X14508768Y-13223476D01*
X14508768Y-13223476D02*
X14518291Y-13233000D01*
X14518291Y-13233000D02*
X14537339Y-13242524D01*
X14537339Y-13242524D02*
X14575434Y-13242524D01*
X14575434Y-13242524D02*
X14594482Y-13233000D01*
X14594482Y-13233000D02*
X14604006Y-13223476D01*
X14604006Y-13223476D02*
X14613530Y-13204428D01*
X14613530Y-13204428D02*
X14613530Y-13156809D01*
X14613530Y-13156809D02*
X14604006Y-13137762D01*
X14604006Y-13137762D02*
X14594482Y-13128238D01*
X14594482Y-13128238D02*
X14575434Y-13118714D01*
X14575434Y-13118714D02*
X14537339Y-13118714D01*
X14537339Y-13118714D02*
X14518291Y-13128238D01*
X14518291Y-13128238D02*
X14508768Y-13137762D01*
X14508768Y-13137762D02*
X14499244Y-13156809D01*
X14737339Y-13042524D02*
X14756387Y-13042524D01*
X14756387Y-13042524D02*
X14775434Y-13052048D01*
X14775434Y-13052048D02*
X14784958Y-13061571D01*
X14784958Y-13061571D02*
X14794482Y-13080619D01*
X14794482Y-13080619D02*
X14804006Y-13118714D01*
X14804006Y-13118714D02*
X14804006Y-13166333D01*
X14804006Y-13166333D02*
X14794482Y-13204428D01*
X14794482Y-13204428D02*
X14784958Y-13223476D01*
X14784958Y-13223476D02*
X14775434Y-13233000D01*
X14775434Y-13233000D02*
X14756387Y-13242524D01*
X14756387Y-13242524D02*
X14737339Y-13242524D01*
X14737339Y-13242524D02*
X14718291Y-13233000D01*
X14718291Y-13233000D02*
X14708768Y-13223476D01*
X14708768Y-13223476D02*
X14699244Y-13204428D01*
X14699244Y-13204428D02*
X14689720Y-13166333D01*
X14689720Y-13166333D02*
X14689720Y-13118714D01*
X14689720Y-13118714D02*
X14699244Y-13080619D01*
X14699244Y-13080619D02*
X14708768Y-13061571D01*
X14708768Y-13061571D02*
X14718291Y-13052048D01*
X14718291Y-13052048D02*
X14737339Y-13042524D01*
X14880196Y-13042524D02*
X14880196Y-13080619D01*
X14956387Y-13042524D02*
X14956387Y-13080619D01*
X15251625Y-13318714D02*
X15242101Y-13309190D01*
X15242101Y-13309190D02*
X15223053Y-13280619D01*
X15223053Y-13280619D02*
X15213530Y-13261571D01*
X15213530Y-13261571D02*
X15204006Y-13233000D01*
X15204006Y-13233000D02*
X15194482Y-13185381D01*
X15194482Y-13185381D02*
X15194482Y-13147286D01*
X15194482Y-13147286D02*
X15204006Y-13099667D01*
X15204006Y-13099667D02*
X15213530Y-13071095D01*
X15213530Y-13071095D02*
X15223053Y-13052048D01*
X15223053Y-13052048D02*
X15242101Y-13023476D01*
X15242101Y-13023476D02*
X15251625Y-13013952D01*
X15308768Y-13042524D02*
X15432577Y-13042524D01*
X15432577Y-13042524D02*
X15365911Y-13118714D01*
X15365911Y-13118714D02*
X15394482Y-13118714D01*
X15394482Y-13118714D02*
X15413530Y-13128238D01*
X15413530Y-13128238D02*
X15423053Y-13137762D01*
X15423053Y-13137762D02*
X15432577Y-13156809D01*
X15432577Y-13156809D02*
X15432577Y-13204428D01*
X15432577Y-13204428D02*
X15423053Y-13223476D01*
X15423053Y-13223476D02*
X15413530Y-13233000D01*
X15413530Y-13233000D02*
X15394482Y-13242524D01*
X15394482Y-13242524D02*
X15337339Y-13242524D01*
X15337339Y-13242524D02*
X15318292Y-13233000D01*
X15318292Y-13233000D02*
X15308768Y-13223476D01*
X15670673Y-13242524D02*
X15670673Y-13042524D01*
X15756387Y-13242524D02*
X15756387Y-13137762D01*
X15756387Y-13137762D02*
X15746863Y-13118714D01*
X15746863Y-13118714D02*
X15727815Y-13109190D01*
X15727815Y-13109190D02*
X15699244Y-13109190D01*
X15699244Y-13109190D02*
X15680196Y-13118714D01*
X15680196Y-13118714D02*
X15670673Y-13128238D01*
X15880196Y-13242524D02*
X15861149Y-13233000D01*
X15861149Y-13233000D02*
X15851625Y-13223476D01*
X15851625Y-13223476D02*
X15842101Y-13204428D01*
X15842101Y-13204428D02*
X15842101Y-13147286D01*
X15842101Y-13147286D02*
X15851625Y-13128238D01*
X15851625Y-13128238D02*
X15861149Y-13118714D01*
X15861149Y-13118714D02*
X15880196Y-13109190D01*
X15880196Y-13109190D02*
X15908768Y-13109190D01*
X15908768Y-13109190D02*
X15927815Y-13118714D01*
X15927815Y-13118714D02*
X15937339Y-13128238D01*
X15937339Y-13128238D02*
X15946863Y-13147286D01*
X15946863Y-13147286D02*
X15946863Y-13204428D01*
X15946863Y-13204428D02*
X15937339Y-13223476D01*
X15937339Y-13223476D02*
X15927815Y-13233000D01*
X15927815Y-13233000D02*
X15908768Y-13242524D01*
X15908768Y-13242524D02*
X15880196Y-13242524D01*
X16061149Y-13242524D02*
X16042101Y-13233000D01*
X16042101Y-13233000D02*
X16032577Y-13213952D01*
X16032577Y-13213952D02*
X16032577Y-13042524D01*
X16213530Y-13233000D02*
X16194482Y-13242524D01*
X16194482Y-13242524D02*
X16156387Y-13242524D01*
X16156387Y-13242524D02*
X16137339Y-13233000D01*
X16137339Y-13233000D02*
X16127815Y-13213952D01*
X16127815Y-13213952D02*
X16127815Y-13137762D01*
X16127815Y-13137762D02*
X16137339Y-13118714D01*
X16137339Y-13118714D02*
X16156387Y-13109190D01*
X16156387Y-13109190D02*
X16194482Y-13109190D01*
X16194482Y-13109190D02*
X16213530Y-13118714D01*
X16213530Y-13118714D02*
X16223054Y-13137762D01*
X16223054Y-13137762D02*
X16223054Y-13156809D01*
X16223054Y-13156809D02*
X16127815Y-13175857D01*
X16299244Y-13233000D02*
X16318292Y-13242524D01*
X16318292Y-13242524D02*
X16356387Y-13242524D01*
X16356387Y-13242524D02*
X16375435Y-13233000D01*
X16375435Y-13233000D02*
X16384958Y-13213952D01*
X16384958Y-13213952D02*
X16384958Y-13204428D01*
X16384958Y-13204428D02*
X16375435Y-13185381D01*
X16375435Y-13185381D02*
X16356387Y-13175857D01*
X16356387Y-13175857D02*
X16327815Y-13175857D01*
X16327815Y-13175857D02*
X16308768Y-13166333D01*
X16308768Y-13166333D02*
X16299244Y-13147286D01*
X16299244Y-13147286D02*
X16299244Y-13137762D01*
X16299244Y-13137762D02*
X16308768Y-13118714D01*
X16308768Y-13118714D02*
X16327815Y-13109190D01*
X16327815Y-13109190D02*
X16356387Y-13109190D01*
X16356387Y-13109190D02*
X16375435Y-13118714D01*
X16451625Y-13318714D02*
X16461149Y-13309190D01*
X16461149Y-13309190D02*
X16480196Y-13280619D01*
X16480196Y-13280619D02*
X16489720Y-13261571D01*
X16489720Y-13261571D02*
X16499244Y-13233000D01*
X16499244Y-13233000D02*
X16508768Y-13185381D01*
X16508768Y-13185381D02*
X16508768Y-13147286D01*
X16508768Y-13147286D02*
X16499244Y-13099667D01*
X16499244Y-13099667D02*
X16489720Y-13071095D01*
X16489720Y-13071095D02*
X16480196Y-13052048D01*
X16480196Y-13052048D02*
X16461149Y-13023476D01*
X16461149Y-13023476D02*
X16451625Y-13013952D01*
X16813530Y-13318714D02*
X16804006Y-13309190D01*
X16804006Y-13309190D02*
X16784958Y-13280619D01*
X16784958Y-13280619D02*
X16775435Y-13261571D01*
X16775435Y-13261571D02*
X16765911Y-13233000D01*
X16765911Y-13233000D02*
X16756387Y-13185381D01*
X16756387Y-13185381D02*
X16756387Y-13147286D01*
X16756387Y-13147286D02*
X16765911Y-13099667D01*
X16765911Y-13099667D02*
X16775435Y-13071095D01*
X16775435Y-13071095D02*
X16784958Y-13052048D01*
X16784958Y-13052048D02*
X16804006Y-13023476D01*
X16804006Y-13023476D02*
X16813530Y-13013952D01*
X16889720Y-13109190D02*
X16889720Y-13242524D01*
X16889720Y-13128238D02*
X16899244Y-13118714D01*
X16899244Y-13118714D02*
X16918292Y-13109190D01*
X16918292Y-13109190D02*
X16946863Y-13109190D01*
X16946863Y-13109190D02*
X16965911Y-13118714D01*
X16965911Y-13118714D02*
X16975435Y-13137762D01*
X16975435Y-13137762D02*
X16975435Y-13242524D01*
X17099244Y-13242524D02*
X17080197Y-13233000D01*
X17080197Y-13233000D02*
X17070673Y-13223476D01*
X17070673Y-13223476D02*
X17061149Y-13204428D01*
X17061149Y-13204428D02*
X17061149Y-13147286D01*
X17061149Y-13147286D02*
X17070673Y-13128238D01*
X17070673Y-13128238D02*
X17080197Y-13118714D01*
X17080197Y-13118714D02*
X17099244Y-13109190D01*
X17099244Y-13109190D02*
X17127816Y-13109190D01*
X17127816Y-13109190D02*
X17146863Y-13118714D01*
X17146863Y-13118714D02*
X17156387Y-13128238D01*
X17156387Y-13128238D02*
X17165911Y-13147286D01*
X17165911Y-13147286D02*
X17165911Y-13204428D01*
X17165911Y-13204428D02*
X17156387Y-13223476D01*
X17156387Y-13223476D02*
X17146863Y-13233000D01*
X17146863Y-13233000D02*
X17127816Y-13242524D01*
X17127816Y-13242524D02*
X17099244Y-13242524D01*
X17223054Y-13109190D02*
X17299244Y-13109190D01*
X17251625Y-13042524D02*
X17251625Y-13213952D01*
X17251625Y-13213952D02*
X17261149Y-13233000D01*
X17261149Y-13233000D02*
X17280197Y-13242524D01*
X17280197Y-13242524D02*
X17299244Y-13242524D01*
X17518292Y-13109190D02*
X17518292Y-13309190D01*
X17518292Y-13118714D02*
X17537339Y-13109190D01*
X17537339Y-13109190D02*
X17575435Y-13109190D01*
X17575435Y-13109190D02*
X17594482Y-13118714D01*
X17594482Y-13118714D02*
X17604006Y-13128238D01*
X17604006Y-13128238D02*
X17613530Y-13147286D01*
X17613530Y-13147286D02*
X17613530Y-13204428D01*
X17613530Y-13204428D02*
X17604006Y-13223476D01*
X17604006Y-13223476D02*
X17594482Y-13233000D01*
X17594482Y-13233000D02*
X17575435Y-13242524D01*
X17575435Y-13242524D02*
X17537339Y-13242524D01*
X17537339Y-13242524D02*
X17518292Y-13233000D01*
X17727816Y-13242524D02*
X17708768Y-13233000D01*
X17708768Y-13233000D02*
X17699244Y-13213952D01*
X17699244Y-13213952D02*
X17699244Y-13042524D01*
X17889720Y-13242524D02*
X17889720Y-13137762D01*
X17889720Y-13137762D02*
X17880197Y-13118714D01*
X17880197Y-13118714D02*
X17861149Y-13109190D01*
X17861149Y-13109190D02*
X17823054Y-13109190D01*
X17823054Y-13109190D02*
X17804006Y-13118714D01*
X17889720Y-13233000D02*
X17870673Y-13242524D01*
X17870673Y-13242524D02*
X17823054Y-13242524D01*
X17823054Y-13242524D02*
X17804006Y-13233000D01*
X17804006Y-13233000D02*
X17794482Y-13213952D01*
X17794482Y-13213952D02*
X17794482Y-13194905D01*
X17794482Y-13194905D02*
X17804006Y-13175857D01*
X17804006Y-13175857D02*
X17823054Y-13166333D01*
X17823054Y-13166333D02*
X17870673Y-13166333D01*
X17870673Y-13166333D02*
X17889720Y-13156809D01*
X17956387Y-13109190D02*
X18032578Y-13109190D01*
X17984959Y-13042524D02*
X17984959Y-13213952D01*
X17984959Y-13213952D02*
X17994482Y-13233000D01*
X17994482Y-13233000D02*
X18013530Y-13242524D01*
X18013530Y-13242524D02*
X18032578Y-13242524D01*
X18175435Y-13233000D02*
X18156387Y-13242524D01*
X18156387Y-13242524D02*
X18118292Y-13242524D01*
X18118292Y-13242524D02*
X18099244Y-13233000D01*
X18099244Y-13233000D02*
X18089720Y-13213952D01*
X18089720Y-13213952D02*
X18089720Y-13137762D01*
X18089720Y-13137762D02*
X18099244Y-13118714D01*
X18099244Y-13118714D02*
X18118292Y-13109190D01*
X18118292Y-13109190D02*
X18156387Y-13109190D01*
X18156387Y-13109190D02*
X18175435Y-13118714D01*
X18175435Y-13118714D02*
X18184959Y-13137762D01*
X18184959Y-13137762D02*
X18184959Y-13156809D01*
X18184959Y-13156809D02*
X18089720Y-13175857D01*
X18356387Y-13242524D02*
X18356387Y-13042524D01*
X18356387Y-13233000D02*
X18337340Y-13242524D01*
X18337340Y-13242524D02*
X18299244Y-13242524D01*
X18299244Y-13242524D02*
X18280197Y-13233000D01*
X18280197Y-13233000D02*
X18270673Y-13223476D01*
X18270673Y-13223476D02*
X18261149Y-13204428D01*
X18261149Y-13204428D02*
X18261149Y-13147286D01*
X18261149Y-13147286D02*
X18270673Y-13128238D01*
X18270673Y-13128238D02*
X18280197Y-13118714D01*
X18280197Y-13118714D02*
X18299244Y-13109190D01*
X18299244Y-13109190D02*
X18337340Y-13109190D01*
X18337340Y-13109190D02*
X18356387Y-13118714D01*
X18432578Y-13318714D02*
X18442101Y-13309190D01*
X18442101Y-13309190D02*
X18461149Y-13280619D01*
X18461149Y-13280619D02*
X18470673Y-13261571D01*
X18470673Y-13261571D02*
X18480197Y-13233000D01*
X18480197Y-13233000D02*
X18489720Y-13185381D01*
X18489720Y-13185381D02*
X18489720Y-13147286D01*
X18489720Y-13147286D02*
X18480197Y-13099667D01*
X18480197Y-13099667D02*
X18470673Y-13071095D01*
X18470673Y-13071095D02*
X18461149Y-13052048D01*
X18461149Y-13052048D02*
X18442101Y-13023476D01*
X18442101Y-13023476D02*
X18432578Y-13013952D01*
M02*
