%TF.GenerationSoftware,KiCad,Pcbnew,7.0.2*%
%TF.CreationDate,2023-05-15T17:20:20+02:00*%
%TF.ProjectId,projektkicad,70726f6a-656b-4746-9b69-6361642e6b69,rev?*%
%TF.SameCoordinates,Original*%
%TF.FileFunction,Copper,L2,Bot*%
%TF.FilePolarity,Positive*%
%FSLAX46Y46*%
G04 Gerber Fmt 4.6, Leading zero omitted, Abs format (unit mm)*
G04 Created by KiCad (PCBNEW 7.0.2) date 2023-05-15 17:20:20*
%MOMM*%
%LPD*%
G01*
G04 APERTURE LIST*
G04 Aperture macros list*
%AMRoundRect*
0 Rectangle with rounded corners*
0 $1 Rounding radius*
0 $2 $3 $4 $5 $6 $7 $8 $9 X,Y pos of 4 corners*
0 Add a 4 corners polygon primitive as box body*
4,1,4,$2,$3,$4,$5,$6,$7,$8,$9,$2,$3,0*
0 Add four circle primitives for the rounded corners*
1,1,$1+$1,$2,$3*
1,1,$1+$1,$4,$5*
1,1,$1+$1,$6,$7*
1,1,$1+$1,$8,$9*
0 Add four rect primitives between the rounded corners*
20,1,$1+$1,$2,$3,$4,$5,0*
20,1,$1+$1,$4,$5,$6,$7,0*
20,1,$1+$1,$6,$7,$8,$9,0*
20,1,$1+$1,$8,$9,$2,$3,0*%
G04 Aperture macros list end*
%TA.AperFunction,ComponentPad*%
%ADD10RoundRect,0.250000X-1.550000X0.650000X-1.550000X-0.650000X1.550000X-0.650000X1.550000X0.650000X0*%
%TD*%
%TA.AperFunction,ComponentPad*%
%ADD11O,3.600000X1.800000*%
%TD*%
%TA.AperFunction,ComponentPad*%
%ADD12R,2.000000X2.000000*%
%TD*%
%TA.AperFunction,ComponentPad*%
%ADD13C,2.000000*%
%TD*%
%TA.AperFunction,ComponentPad*%
%ADD14R,1.600000X1.600000*%
%TD*%
%TA.AperFunction,ComponentPad*%
%ADD15O,1.600000X1.600000*%
%TD*%
%TA.AperFunction,ViaPad*%
%ADD16C,0.800000*%
%TD*%
%TA.AperFunction,Conductor*%
%ADD17C,0.500000*%
%TD*%
%TA.AperFunction,Conductor*%
%ADD18C,0.250000*%
%TD*%
G04 APERTURE END LIST*
D10*
%TO.P,J1,1,Pin_1*%
%TO.N,temp*%
X198120000Y-65024000D03*
D11*
%TO.P,J1,2,Pin_2*%
%TO.N,3V3*%
X198120000Y-70104000D03*
%TO.P,J1,3,Pin_3*%
%TO.N,R+*%
X198120000Y-75184000D03*
%TO.P,J1,4,Pin_4*%
%TO.N,unconnected-(J1-Pin_4-Pad4)*%
X198120000Y-80264000D03*
%TO.P,J1,5,Pin_5*%
%TO.N,R+*%
X198120000Y-85344000D03*
%TO.P,J1,6,Pin_6*%
%TO.N,Vin+*%
X198120000Y-90424000D03*
%TO.P,J1,7,Pin_7*%
%TO.N,R-*%
X198120000Y-95504000D03*
%TO.P,J1,8,Pin_8*%
%TO.N,gate*%
X198120000Y-100584000D03*
%TD*%
D12*
%TO.P,C6,1*%
%TO.N,3V3*%
X170688000Y-104312323D03*
D13*
%TO.P,C6,2*%
%TO.N,R+*%
X170688000Y-109312323D03*
%TD*%
D12*
%TO.P,C8,1*%
%TO.N,/12to-12/Vin*%
X153751677Y-111760000D03*
D13*
%TO.P,C8,2*%
%TO.N,R+*%
X148751677Y-111760000D03*
%TD*%
D14*
%TO.P,U9,1,GND*%
%TO.N,R+*%
X121158000Y-70231000D03*
D15*
%TO.P,U9,2,5V*%
%TO.N,Net-(D5-K)*%
X121158000Y-72771000D03*
%TO.P,U9,3,3V3*%
%TO.N,3V3*%
X121158000Y-75311000D03*
%TO.P,U9,4*%
%TO.N,N/C*%
X121158000Y-77851000D03*
%TO.P,U9,5*%
X121158000Y-80391000D03*
%TO.P,U9,6*%
X121158000Y-82931000D03*
%TO.P,U9,7*%
X121158000Y-85471000D03*
%TO.P,U9,8*%
X121158000Y-88011000D03*
%TO.P,U9,9,to-SCL*%
%TO.N,Net-(U8-SCL)*%
X121158000Y-90551000D03*
%TO.P,U9,10*%
%TO.N,N/C*%
X121158000Y-93091000D03*
%TO.P,U9,11*%
X121158000Y-95631000D03*
%TO.P,U9,12*%
X121158000Y-98171000D03*
%TO.P,U9,13*%
X121158000Y-100711000D03*
%TO.P,U9,14*%
X121158000Y-103251000D03*
%TO.P,U9,15*%
X121158000Y-105791000D03*
%TO.P,U9,16*%
X121158000Y-108331000D03*
%TO.P,U9,17,PWM*%
%TO.N,Net-(U9-PWM)*%
X121158000Y-110871000D03*
%TO.P,U9,18*%
%TO.N,N/C*%
X121158000Y-113411000D03*
%TO.P,U9,19,to-SDA*%
%TO.N,Net-(U8-SDA)*%
X144018000Y-113411000D03*
%TO.P,U9,20*%
%TO.N,N/C*%
X144018000Y-110871000D03*
%TO.P,U9,21*%
X144018000Y-108331000D03*
%TO.P,U9,22*%
X144018000Y-105791000D03*
%TO.P,U9,23*%
X144018000Y-103251000D03*
%TO.P,U9,24*%
X144018000Y-100711000D03*
%TO.P,U9,25*%
%TO.N,temp*%
X144018000Y-98171000D03*
%TO.P,U9,26*%
%TO.N,N/C*%
X144018000Y-95631000D03*
%TO.P,U9,27*%
X144018000Y-93091000D03*
%TO.P,U9,28*%
X144018000Y-90551000D03*
%TO.P,U9,29*%
X144018000Y-88011000D03*
%TO.P,U9,30*%
X144018000Y-85471000D03*
%TO.P,U9,31*%
X144018000Y-82931000D03*
%TO.P,U9,32*%
X144018000Y-80391000D03*
%TO.P,U9,33*%
X144018000Y-77851000D03*
%TO.P,U9,34,3V3*%
%TO.N,3V3*%
X144018000Y-75311000D03*
%TO.P,U9,35,5V*%
%TO.N,Net-(D5-K)*%
X144018000Y-72771000D03*
%TO.P,U9,36,GND*%
%TO.N,R+*%
X144018000Y-70231000D03*
%TD*%
D12*
%TO.P,C16,1*%
%TO.N,/100to5/Vout*%
X178816000Y-79583677D03*
D13*
%TO.P,C16,2*%
%TO.N,R+*%
X178816000Y-74583677D03*
%TD*%
D14*
%TO.P,U6,1,SwC*%
%TO.N,Net-(D1-A)*%
X155712000Y-97249000D03*
D15*
%TO.P,U6,2,SwE*%
%TO.N,R+*%
X155712000Y-99789000D03*
%TO.P,U6,3,TC*%
%TO.N,Net-(U6-TC)*%
X155712000Y-102329000D03*
%TO.P,U6,4,GND*%
%TO.N,R+*%
X155712000Y-104869000D03*
%TO.P,U6,5,Vfb*%
%TO.N,Net-(U6-Vfb)*%
X163332000Y-104869000D03*
%TO.P,U6,6,Vin*%
%TO.N,3V3*%
X163332000Y-102329000D03*
%TO.P,U6,7,Ipk*%
%TO.N,Net-(U6-Ipk)*%
X163332000Y-99789000D03*
%TO.P,U6,8,DC*%
%TO.N,Net-(U6-DC)*%
X163332000Y-97249000D03*
%TD*%
D16*
%TO.N,Net-(U10C-+)*%
X203708000Y-115824000D03*
X197104000Y-117348000D03*
%TO.N,3V3*%
X146812000Y-76200000D03*
X185896000Y-120904000D03*
X169672000Y-100076000D03*
%TO.N,R-*%
X193294000Y-95504000D03*
X178308000Y-114300000D03*
%TO.N,Vin+*%
X184404000Y-100584000D03*
X161036000Y-62992000D03*
X193294000Y-90424000D03*
%TO.N,/100to5/Vout*%
X176788299Y-83820000D03*
X176784000Y-66548000D03*
%TO.N,/12to-12/Vin*%
X184404000Y-110744000D03*
X159004000Y-111252000D03*
%TO.N,/12to-12/Vout*%
X160020000Y-117856000D03*
X189484000Y-110744000D03*
%TO.N,Net-(U1-BST)*%
X156972000Y-71120000D03*
X159512000Y-65024000D03*
%TO.N,R+*%
X162560000Y-67056000D03*
X163576000Y-68072000D03*
X162560000Y-68072000D03*
X164592000Y-68072000D03*
X163576000Y-67056000D03*
X164592000Y-67056000D03*
%TO.N,Net-(U10A-+)*%
X184404000Y-109220000D03*
X177800000Y-98552000D03*
%TO.N,Vvpv'*%
X195363500Y-120400299D03*
X172720000Y-116840000D03*
%TO.N,Vipv*%
X190617502Y-120396000D03*
X174752000Y-119380000D03*
%TO.N,Net-(U9-PWM)*%
X124460000Y-111506000D03*
X192532000Y-116332000D03*
%TO.N,temp*%
X193040000Y-65024000D03*
X141122400Y-98196400D03*
%TO.N,Net-(U8-SDA)*%
X185896000Y-121920000D03*
X144013000Y-118364000D03*
%TO.N,Net-(U8-SCL)*%
X187420000Y-122428000D03*
X124460000Y-91440000D03*
%TO.N,3V3*%
X193040000Y-70104000D03*
%TD*%
D17*
%TO.N,3V3*%
X156845000Y-61976000D02*
X146812000Y-72009000D01*
X184912000Y-61976000D02*
X156845000Y-61976000D01*
X193040000Y-70104000D02*
X184912000Y-61976000D01*
X146812000Y-72009000D02*
X146812000Y-76200000D01*
D18*
%TO.N,Net-(U10C-+)*%
X198628000Y-115824000D02*
X203708000Y-115824000D01*
X197104000Y-117348000D02*
X198628000Y-115824000D01*
D17*
%TO.N,3V3*%
X156972000Y-116010082D02*
X156972000Y-109461233D01*
X166357233Y-100076000D02*
X169672000Y-100076000D01*
X161865918Y-120904000D02*
X156972000Y-116010082D01*
X185896000Y-120904000D02*
X161865918Y-120904000D01*
X156972000Y-109461233D02*
X166357233Y-100076000D01*
X169672000Y-99060000D02*
X169672000Y-100076000D01*
X146812000Y-76200000D02*
X169672000Y-99060000D01*
%TO.N,R-*%
X183388000Y-114300000D02*
X178308000Y-114300000D01*
X186436000Y-102108000D02*
X186436000Y-111252000D01*
X193294000Y-95504000D02*
X193040000Y-95504000D01*
X186436000Y-111252000D02*
X183388000Y-114300000D01*
X193040000Y-95504000D02*
X186436000Y-102108000D01*
%TO.N,Vin+*%
X193294000Y-90424000D02*
X179959000Y-90424000D01*
X193294000Y-90424000D02*
X193294000Y-91694000D01*
X193294000Y-91694000D02*
X184404000Y-100584000D01*
X161036000Y-71501000D02*
X161036000Y-62992000D01*
X179959000Y-90424000D02*
X161036000Y-71501000D01*
D18*
%TO.N,/100to5/Vout*%
X176784000Y-83815701D02*
X176788299Y-83820000D01*
D17*
X176784000Y-66548000D02*
X176784000Y-83815701D01*
%TO.N,/12to-12/Vin*%
X183896000Y-111252000D02*
X184404000Y-110744000D01*
X159004000Y-111252000D02*
X183896000Y-111252000D01*
%TO.N,/12to-12/Vout*%
X189484000Y-111252000D02*
X185420000Y-115316000D01*
X189484000Y-110744000D02*
X189484000Y-111252000D01*
X185420000Y-115316000D02*
X162560000Y-115316000D01*
X162560000Y-115316000D02*
X160020000Y-117856000D01*
%TO.N,Net-(U1-BST)*%
X159512000Y-68580000D02*
X159512000Y-65024000D01*
X156972000Y-71120000D02*
X159512000Y-68580000D01*
%TO.N,Net-(U10A-+)*%
X184404000Y-105156000D02*
X177800000Y-98552000D01*
X184404000Y-109220000D02*
X184404000Y-105156000D01*
D18*
%TO.N,Vvpv'*%
X173738327Y-116840000D02*
X172720000Y-116840000D01*
X195363500Y-120400299D02*
X194343201Y-119380000D01*
X176278327Y-119380000D02*
X173738327Y-116840000D01*
X194343201Y-119380000D02*
X176278327Y-119380000D01*
%TO.N,Vipv*%
X190109502Y-119888000D02*
X190617502Y-120396000D01*
X175260000Y-119888000D02*
X190109502Y-119888000D01*
X174752000Y-119380000D02*
X175260000Y-119888000D01*
%TO.N,Net-(U9-PWM)*%
X124460000Y-111506000D02*
X136906000Y-123952000D01*
X136906000Y-123952000D02*
X194564000Y-123952000D01*
X194564000Y-123952000D02*
X196088000Y-122428000D01*
X196088000Y-119888000D02*
X192532000Y-116332000D01*
X196088000Y-122428000D02*
X196088000Y-119888000D01*
D17*
%TO.N,temp*%
X193040000Y-65024000D02*
X188976000Y-60960000D01*
X141122400Y-98196400D02*
X141122400Y-62585600D01*
X141122400Y-62585600D02*
X142748000Y-60960000D01*
X188976000Y-60960000D02*
X142748000Y-60960000D01*
D18*
%TO.N,Net-(U8-SDA)*%
X147569000Y-121920000D02*
X185896000Y-121920000D01*
X144013000Y-118364000D02*
X147569000Y-121920000D01*
%TO.N,Net-(U8-SCL)*%
X186944000Y-122904000D02*
X187420000Y-122428000D01*
X125984000Y-111760000D02*
X137160000Y-122936000D01*
X186944000Y-122936000D02*
X186944000Y-122904000D01*
X124460000Y-91440000D02*
X125984000Y-92964000D01*
X125984000Y-92964000D02*
X125984000Y-111760000D01*
X137160000Y-122936000D02*
X186944000Y-122936000D01*
%TD*%
%TA.AperFunction,Conductor*%
%TO.N,R+*%
G36*
X142553688Y-60020185D02*
G01*
X142599443Y-60072989D01*
X142609387Y-60142147D01*
X142580362Y-60205703D01*
X142529055Y-60241024D01*
X142503231Y-60250422D01*
X142499831Y-60251603D01*
X142427474Y-60275580D01*
X142409927Y-60284075D01*
X142346221Y-60325975D01*
X142343181Y-60327912D01*
X142278280Y-60367944D01*
X142263165Y-60380256D01*
X142210832Y-60435725D01*
X142208320Y-60438311D01*
X140636758Y-62009872D01*
X140623127Y-62021653D01*
X140603868Y-62035991D01*
X140572035Y-62073928D01*
X140564738Y-62081892D01*
X140563372Y-62083257D01*
X140563350Y-62083281D01*
X140560809Y-62085823D01*
X140558573Y-62088650D01*
X140558571Y-62088653D01*
X140541576Y-62110146D01*
X140539302Y-62112937D01*
X140490294Y-62171344D01*
X140479818Y-62187787D01*
X140447592Y-62256894D01*
X140446022Y-62260136D01*
X140411793Y-62328292D01*
X140405396Y-62346698D01*
X140389973Y-62421388D01*
X140389193Y-62424905D01*
X140371608Y-62499106D01*
X140369629Y-62518479D01*
X140371848Y-62594729D01*
X140371900Y-62598335D01*
X140371900Y-97662077D01*
X140355287Y-97724077D01*
X140295220Y-97828115D01*
X140236726Y-98008142D01*
X140216940Y-98196400D01*
X140236726Y-98384657D01*
X140295220Y-98564684D01*
X140389866Y-98728616D01*
X140516529Y-98869289D01*
X140669669Y-98980551D01*
X140842597Y-99057544D01*
X141027752Y-99096900D01*
X141027754Y-99096900D01*
X141217048Y-99096900D01*
X141340484Y-99070662D01*
X141402203Y-99057544D01*
X141575130Y-98980551D01*
X141658081Y-98920284D01*
X141728270Y-98869289D01*
X141854933Y-98728616D01*
X141949579Y-98564684D01*
X141985935Y-98452791D01*
X142008074Y-98384656D01*
X142027860Y-98196400D01*
X142008074Y-98008144D01*
X141949579Y-97828116D01*
X141949579Y-97828115D01*
X141889513Y-97724077D01*
X141872900Y-97662077D01*
X141872900Y-62947829D01*
X141892585Y-62880790D01*
X141909219Y-62860148D01*
X143022548Y-61746819D01*
X143083871Y-61713334D01*
X143110229Y-61710500D01*
X155749771Y-61710500D01*
X155816810Y-61730185D01*
X155862565Y-61782989D01*
X155872509Y-61852147D01*
X155843484Y-61915703D01*
X155837452Y-61922181D01*
X146326358Y-71433272D01*
X146312727Y-71445053D01*
X146293468Y-71459391D01*
X146261635Y-71497328D01*
X146254338Y-71505292D01*
X146252972Y-71506657D01*
X146252950Y-71506681D01*
X146250409Y-71509223D01*
X146248173Y-71512050D01*
X146248171Y-71512053D01*
X146231176Y-71533546D01*
X146228902Y-71536337D01*
X146179894Y-71594744D01*
X146169418Y-71611187D01*
X146137192Y-71680294D01*
X146135622Y-71683536D01*
X146101393Y-71751692D01*
X146094996Y-71770098D01*
X146079573Y-71844788D01*
X146078793Y-71848305D01*
X146061208Y-71922506D01*
X146059229Y-71941879D01*
X146061448Y-72018129D01*
X146061500Y-72021735D01*
X146061500Y-75665677D01*
X146044887Y-75727677D01*
X145984820Y-75831715D01*
X145926326Y-76011742D01*
X145906540Y-76200000D01*
X145926326Y-76388257D01*
X145984820Y-76568284D01*
X146079466Y-76732216D01*
X146206129Y-76872889D01*
X146359269Y-76984151D01*
X146532193Y-77061143D01*
X146532196Y-77061143D01*
X146532197Y-77061144D01*
X146597329Y-77074987D01*
X146658808Y-77108178D01*
X146659228Y-77108596D01*
X168664451Y-99113819D01*
X168697936Y-99175142D01*
X168692952Y-99244834D01*
X168651080Y-99300767D01*
X168585616Y-99325184D01*
X168576770Y-99325500D01*
X166420939Y-99325500D01*
X166402969Y-99324191D01*
X166389086Y-99322157D01*
X166379210Y-99320711D01*
X166379209Y-99320711D01*
X166329864Y-99325028D01*
X166319057Y-99325500D01*
X166313524Y-99325500D01*
X166309963Y-99325916D01*
X166309948Y-99325917D01*
X166282734Y-99329098D01*
X166279149Y-99329464D01*
X166203194Y-99336109D01*
X166184154Y-99340330D01*
X166112465Y-99366421D01*
X166109064Y-99367603D01*
X166036707Y-99391580D01*
X166019160Y-99400075D01*
X165955454Y-99441975D01*
X165952414Y-99443912D01*
X165887513Y-99483944D01*
X165872397Y-99496257D01*
X165820064Y-99551726D01*
X165817552Y-99554312D01*
X164169293Y-101202571D01*
X164107970Y-101236056D01*
X164038278Y-101231072D01*
X164010490Y-101216466D01*
X163984735Y-101198433D01*
X163984734Y-101198432D01*
X163926724Y-101171381D01*
X163874285Y-101125210D01*
X163855133Y-101058017D01*
X163875348Y-100991135D01*
X163926725Y-100946618D01*
X163984734Y-100919568D01*
X164171139Y-100789047D01*
X164332047Y-100628139D01*
X164462568Y-100441734D01*
X164558739Y-100235496D01*
X164617635Y-100015692D01*
X164637468Y-99789000D01*
X164617635Y-99562308D01*
X164558739Y-99342504D01*
X164462568Y-99136266D01*
X164447448Y-99114671D01*
X164332046Y-98949859D01*
X164171140Y-98788953D01*
X163984733Y-98658431D01*
X163926725Y-98631382D01*
X163874285Y-98585210D01*
X163855133Y-98518017D01*
X163875348Y-98451135D01*
X163926725Y-98406618D01*
X163984734Y-98379568D01*
X164171139Y-98249047D01*
X164332047Y-98088139D01*
X164462568Y-97901734D01*
X164558739Y-97695496D01*
X164617635Y-97475692D01*
X164637468Y-97249000D01*
X164617635Y-97022308D01*
X164558739Y-96802504D01*
X164462568Y-96596266D01*
X164408296Y-96518756D01*
X164332046Y-96409859D01*
X164171140Y-96248953D01*
X163984735Y-96118432D01*
X163778497Y-96022261D01*
X163558689Y-95963364D01*
X163331999Y-95943531D01*
X163105310Y-95963364D01*
X162885502Y-96022261D01*
X162679264Y-96118432D01*
X162492859Y-96248953D01*
X162331953Y-96409859D01*
X162201432Y-96596264D01*
X162105261Y-96802502D01*
X162046364Y-97022310D01*
X162026531Y-97249000D01*
X162046364Y-97475689D01*
X162105261Y-97695497D01*
X162201432Y-97901735D01*
X162331953Y-98088140D01*
X162492859Y-98249046D01*
X162553249Y-98291331D01*
X162679266Y-98379568D01*
X162737275Y-98406618D01*
X162789714Y-98452791D01*
X162808865Y-98519985D01*
X162788649Y-98586866D01*
X162737275Y-98631382D01*
X162679263Y-98658433D01*
X162492859Y-98788953D01*
X162331953Y-98949859D01*
X162201432Y-99136264D01*
X162105261Y-99342502D01*
X162046364Y-99562310D01*
X162026531Y-99789000D01*
X162046364Y-100015689D01*
X162105261Y-100235497D01*
X162201432Y-100441735D01*
X162331953Y-100628140D01*
X162492859Y-100789046D01*
X162546350Y-100826500D01*
X162679266Y-100919568D01*
X162737273Y-100946617D01*
X162789713Y-100992789D01*
X162808865Y-101059982D01*
X162788650Y-101126864D01*
X162737276Y-101171380D01*
X162679266Y-101198431D01*
X162492859Y-101328953D01*
X162331953Y-101489859D01*
X162201432Y-101676264D01*
X162105261Y-101882502D01*
X162046364Y-102102310D01*
X162026531Y-102328999D01*
X162046364Y-102555689D01*
X162105261Y-102775497D01*
X162201432Y-102981734D01*
X162219465Y-103007488D01*
X162241792Y-103073694D01*
X162224782Y-103141461D01*
X162205571Y-103166292D01*
X156486358Y-108885505D01*
X156472727Y-108897286D01*
X156453468Y-108911624D01*
X156421635Y-108949561D01*
X156414338Y-108957525D01*
X156412972Y-108958890D01*
X156412950Y-108958914D01*
X156410409Y-108961456D01*
X156408173Y-108964283D01*
X156408171Y-108964286D01*
X156391176Y-108985779D01*
X156388902Y-108988570D01*
X156339894Y-109046977D01*
X156329418Y-109063420D01*
X156297192Y-109132527D01*
X156295622Y-109135769D01*
X156261393Y-109203925D01*
X156254996Y-109222331D01*
X156239573Y-109297021D01*
X156238793Y-109300538D01*
X156221208Y-109374739D01*
X156219229Y-109394112D01*
X156221448Y-109470362D01*
X156221500Y-109473968D01*
X156221500Y-115946376D01*
X156220191Y-115964346D01*
X156216711Y-115988105D01*
X156219936Y-116024974D01*
X156221028Y-116037450D01*
X156221500Y-116048257D01*
X156221500Y-116053791D01*
X156221916Y-116057354D01*
X156221917Y-116057364D01*
X156225098Y-116084578D01*
X156225464Y-116088164D01*
X156232109Y-116164123D01*
X156236329Y-116183153D01*
X156236758Y-116184333D01*
X156236759Y-116184337D01*
X156262413Y-116254824D01*
X156263582Y-116258189D01*
X156287580Y-116330606D01*
X156296075Y-116348154D01*
X156337979Y-116411866D01*
X156339889Y-116414864D01*
X156373396Y-116469185D01*
X156379952Y-116479814D01*
X156392253Y-116494912D01*
X156393168Y-116495775D01*
X156393170Y-116495778D01*
X156447709Y-116547233D01*
X156450296Y-116549746D01*
X158796766Y-118896216D01*
X160983370Y-121082819D01*
X161016855Y-121144142D01*
X161011871Y-121213834D01*
X160969999Y-121269767D01*
X160904535Y-121294184D01*
X160895689Y-121294500D01*
X147879453Y-121294500D01*
X147812414Y-121274815D01*
X147791772Y-121258181D01*
X144951960Y-118418369D01*
X144918475Y-118357046D01*
X144916323Y-118343668D01*
X144898674Y-118175744D01*
X144855951Y-118044256D01*
X144840179Y-117995715D01*
X144745533Y-117831783D01*
X144618870Y-117691110D01*
X144465730Y-117579848D01*
X144292802Y-117502855D01*
X144107648Y-117463500D01*
X144107646Y-117463500D01*
X143918354Y-117463500D01*
X143918352Y-117463500D01*
X143733197Y-117502855D01*
X143560269Y-117579848D01*
X143407129Y-117691110D01*
X143280466Y-117831783D01*
X143185820Y-117995715D01*
X143127326Y-118175742D01*
X143107540Y-118364000D01*
X143127326Y-118552257D01*
X143185820Y-118732284D01*
X143280466Y-118896216D01*
X143407129Y-119036889D01*
X143560269Y-119148151D01*
X143733197Y-119225144D01*
X143918352Y-119264500D01*
X143918354Y-119264500D01*
X143977548Y-119264500D01*
X144044587Y-119284185D01*
X144065229Y-119300819D01*
X146863228Y-122098819D01*
X146896713Y-122160142D01*
X146891729Y-122229834D01*
X146849857Y-122285767D01*
X146784393Y-122310184D01*
X146775547Y-122310500D01*
X137470452Y-122310500D01*
X137403413Y-122290815D01*
X137382771Y-122274181D01*
X128519589Y-113410999D01*
X142712531Y-113410999D01*
X142732364Y-113637689D01*
X142791261Y-113857497D01*
X142887432Y-114063735D01*
X143017953Y-114250140D01*
X143178859Y-114411046D01*
X143365264Y-114541567D01*
X143365265Y-114541567D01*
X143365266Y-114541568D01*
X143571504Y-114637739D01*
X143791308Y-114696635D01*
X144018000Y-114716468D01*
X144244692Y-114696635D01*
X144464496Y-114637739D01*
X144670734Y-114541568D01*
X144857139Y-114411047D01*
X145018047Y-114250139D01*
X145148568Y-114063734D01*
X145244739Y-113857496D01*
X145303635Y-113637692D01*
X145323468Y-113411000D01*
X145303635Y-113184308D01*
X145244739Y-112964504D01*
X145148568Y-112758266D01*
X145058674Y-112629882D01*
X145018046Y-112571859D01*
X144857140Y-112410953D01*
X144670733Y-112280431D01*
X144612725Y-112253382D01*
X144560285Y-112207210D01*
X144541133Y-112140017D01*
X144561348Y-112073135D01*
X144612725Y-112028618D01*
X144617947Y-112026183D01*
X144670734Y-112001568D01*
X144857139Y-111871047D01*
X144968187Y-111759999D01*
X147246535Y-111759999D01*
X147267063Y-112007732D01*
X147328090Y-112248721D01*
X147427945Y-112476370D01*
X147528240Y-112629882D01*
X147528241Y-112629882D01*
X148268600Y-111889523D01*
X148292184Y-111969844D01*
X148369916Y-112090798D01*
X148478577Y-112184952D01*
X148609362Y-112244680D01*
X148619143Y-112246086D01*
X147881619Y-112983609D01*
X147881619Y-112983610D01*
X147928443Y-113020055D01*
X148147070Y-113138368D01*
X148382183Y-113219083D01*
X148627384Y-113260000D01*
X148875970Y-113260000D01*
X149121170Y-113219083D01*
X149356283Y-113138368D01*
X149574910Y-113020053D01*
X149621733Y-112983609D01*
X149442702Y-112804578D01*
X152251177Y-112804578D01*
X152251178Y-112807872D01*
X152257586Y-112867483D01*
X152307881Y-113002331D01*
X152394131Y-113117546D01*
X152509346Y-113203796D01*
X152644194Y-113254091D01*
X152703804Y-113260500D01*
X154799549Y-113260499D01*
X154859160Y-113254091D01*
X154994008Y-113203796D01*
X155109223Y-113117546D01*
X155195473Y-113002331D01*
X155245768Y-112867483D01*
X155252177Y-112807873D01*
X155252176Y-110712128D01*
X155245768Y-110652517D01*
X155195473Y-110517669D01*
X155109223Y-110402454D01*
X154994008Y-110316204D01*
X154859160Y-110265909D01*
X154802843Y-110259854D01*
X154802842Y-110259853D01*
X154799550Y-110259500D01*
X154796227Y-110259500D01*
X152707116Y-110259500D01*
X152707097Y-110259500D01*
X152703805Y-110259501D01*
X152700525Y-110259853D01*
X152700517Y-110259854D01*
X152644192Y-110265909D01*
X152509346Y-110316204D01*
X152394131Y-110402454D01*
X152307881Y-110517668D01*
X152257587Y-110652515D01*
X152257586Y-110652517D01*
X152251177Y-110712127D01*
X152251177Y-110715448D01*
X152251177Y-110715449D01*
X152251177Y-112804560D01*
X152251177Y-112804578D01*
X149442702Y-112804578D01*
X148884210Y-112246086D01*
X148893992Y-112244680D01*
X149024777Y-112184952D01*
X149133438Y-112090798D01*
X149211170Y-111969844D01*
X149234753Y-111889524D01*
X149975111Y-112629882D01*
X150075407Y-112476369D01*
X150175263Y-112248721D01*
X150236290Y-112007732D01*
X150256818Y-111759999D01*
X150236290Y-111512267D01*
X150175263Y-111271278D01*
X150075407Y-111043630D01*
X149975111Y-110890116D01*
X149234753Y-111630475D01*
X149211170Y-111550156D01*
X149133438Y-111429202D01*
X149024777Y-111335048D01*
X148893992Y-111275320D01*
X148884208Y-111273913D01*
X149621733Y-110536389D01*
X149621733Y-110536387D01*
X149574912Y-110499947D01*
X149356283Y-110381631D01*
X149121170Y-110300916D01*
X148875970Y-110260000D01*
X148627384Y-110260000D01*
X148382183Y-110300916D01*
X148147070Y-110381631D01*
X147928441Y-110499946D01*
X147881619Y-110536388D01*
X147881618Y-110536389D01*
X148619143Y-111273913D01*
X148609362Y-111275320D01*
X148478577Y-111335048D01*
X148369916Y-111429202D01*
X148292184Y-111550156D01*
X148268600Y-111630475D01*
X147528241Y-110890116D01*
X147427943Y-111043634D01*
X147328090Y-111271278D01*
X147267063Y-111512267D01*
X147246535Y-111759999D01*
X144968187Y-111759999D01*
X145018047Y-111710139D01*
X145148568Y-111523734D01*
X145244739Y-111317496D01*
X145303635Y-111097692D01*
X145323468Y-110871000D01*
X145303635Y-110644308D01*
X145244739Y-110424504D01*
X145148568Y-110218266D01*
X145144030Y-110211784D01*
X145018046Y-110031859D01*
X144857140Y-109870953D01*
X144670733Y-109740431D01*
X144612725Y-109713382D01*
X144560285Y-109667210D01*
X144541133Y-109600017D01*
X144561348Y-109533135D01*
X144612725Y-109488618D01*
X144670734Y-109461568D01*
X144857139Y-109331047D01*
X145018047Y-109170139D01*
X145148568Y-108983734D01*
X145244739Y-108777496D01*
X145303635Y-108557692D01*
X145323468Y-108331000D01*
X145303635Y-108104308D01*
X145244739Y-107884504D01*
X145148568Y-107678266D01*
X145018047Y-107491861D01*
X145018046Y-107491859D01*
X144857140Y-107330953D01*
X144670733Y-107200431D01*
X144612725Y-107173382D01*
X144560285Y-107127210D01*
X144541133Y-107060017D01*
X144561348Y-106993135D01*
X144612725Y-106948618D01*
X144670734Y-106921568D01*
X144857139Y-106791047D01*
X145018047Y-106630139D01*
X145148568Y-106443734D01*
X145244739Y-106237496D01*
X145303635Y-106017692D01*
X145323468Y-105791000D01*
X145303635Y-105564308D01*
X145244739Y-105344504D01*
X145148568Y-105138266D01*
X145130381Y-105112291D01*
X145018046Y-104951859D01*
X144857140Y-104790953D01*
X144670733Y-104660431D01*
X144612725Y-104633382D01*
X144560285Y-104587210D01*
X144541133Y-104520017D01*
X144561348Y-104453135D01*
X144612725Y-104408618D01*
X144670734Y-104381568D01*
X144857139Y-104251047D01*
X145018047Y-104090139D01*
X145148568Y-103903734D01*
X145244739Y-103697496D01*
X145303635Y-103477692D01*
X145323468Y-103251000D01*
X145303635Y-103024308D01*
X145244739Y-102804504D01*
X145148568Y-102598266D01*
X145058917Y-102470229D01*
X145018046Y-102411859D01*
X144935187Y-102329000D01*
X154406531Y-102329000D01*
X154426364Y-102555689D01*
X154485261Y-102775497D01*
X154581432Y-102981735D01*
X154711953Y-103168140D01*
X154872859Y-103329046D01*
X155059264Y-103459567D01*
X155059265Y-103459567D01*
X155059266Y-103459568D01*
X155117865Y-103486893D01*
X155170304Y-103533065D01*
X155189456Y-103600259D01*
X155169240Y-103667140D01*
X155117866Y-103711656D01*
X155059522Y-103738863D01*
X154873180Y-103869341D01*
X154712341Y-104030180D01*
X154581865Y-104216519D01*
X154485733Y-104422673D01*
X154433128Y-104618999D01*
X154433128Y-104619000D01*
X155396314Y-104619000D01*
X155384359Y-104630955D01*
X155326835Y-104743852D01*
X155307014Y-104869000D01*
X155326835Y-104994148D01*
X155384359Y-105107045D01*
X155396314Y-105119000D01*
X154433128Y-105119000D01*
X154485733Y-105315326D01*
X154581865Y-105521480D01*
X154712341Y-105707819D01*
X154873180Y-105868658D01*
X155059519Y-105999134D01*
X155265673Y-106095266D01*
X155461999Y-106147871D01*
X155462000Y-106147871D01*
X155462000Y-105184685D01*
X155473955Y-105196641D01*
X155586852Y-105254165D01*
X155680519Y-105269000D01*
X155743481Y-105269000D01*
X155837148Y-105254165D01*
X155950045Y-105196641D01*
X155962000Y-105184686D01*
X155962000Y-106147871D01*
X156158326Y-106095266D01*
X156364480Y-105999134D01*
X156550819Y-105868658D01*
X156711658Y-105707819D01*
X156842134Y-105521480D01*
X156938266Y-105315326D01*
X156990872Y-105119000D01*
X156027686Y-105119000D01*
X156039641Y-105107045D01*
X156097165Y-104994148D01*
X156116986Y-104869000D01*
X156097165Y-104743852D01*
X156039641Y-104630955D01*
X156027686Y-104619000D01*
X156990872Y-104619000D01*
X156990871Y-104618999D01*
X156938266Y-104422673D01*
X156842134Y-104216519D01*
X156711658Y-104030180D01*
X156550819Y-103869341D01*
X156364482Y-103738866D01*
X156306133Y-103711657D01*
X156253694Y-103665484D01*
X156234543Y-103598290D01*
X156254759Y-103531409D01*
X156306134Y-103486893D01*
X156364734Y-103459568D01*
X156551139Y-103329047D01*
X156712047Y-103168139D01*
X156842568Y-102981734D01*
X156938739Y-102775496D01*
X156997635Y-102555692D01*
X157017468Y-102329000D01*
X156997635Y-102102308D01*
X156938739Y-101882504D01*
X156842568Y-101676266D01*
X156813910Y-101635337D01*
X156712046Y-101489859D01*
X156551140Y-101328953D01*
X156364736Y-101198433D01*
X156306721Y-101171380D01*
X156306132Y-101171105D01*
X156253695Y-101124933D01*
X156234543Y-101057739D01*
X156254759Y-100990858D01*
X156306135Y-100946342D01*
X156364479Y-100919135D01*
X156550819Y-100788658D01*
X156711658Y-100627819D01*
X156842134Y-100441480D01*
X156938266Y-100235326D01*
X156990872Y-100039000D01*
X156027686Y-100039000D01*
X156039641Y-100027045D01*
X156097165Y-99914148D01*
X156116986Y-99789000D01*
X156097165Y-99663852D01*
X156039641Y-99550955D01*
X156027686Y-99539000D01*
X156990872Y-99539000D01*
X156990871Y-99538999D01*
X156938266Y-99342673D01*
X156842134Y-99136519D01*
X156711658Y-98950180D01*
X156550817Y-98789339D01*
X156525778Y-98771806D01*
X156482154Y-98717228D01*
X156474962Y-98647729D01*
X156506485Y-98585375D01*
X156566716Y-98549963D01*
X156583639Y-98546944D01*
X156619483Y-98543091D01*
X156754331Y-98492796D01*
X156869546Y-98406546D01*
X156955796Y-98291331D01*
X157006091Y-98156483D01*
X157012500Y-98096873D01*
X157012499Y-96401128D01*
X157006091Y-96341517D01*
X156955796Y-96206669D01*
X156869546Y-96091454D01*
X156754331Y-96005204D01*
X156619483Y-95954909D01*
X156559873Y-95948500D01*
X156556550Y-95948500D01*
X154867439Y-95948500D01*
X154867420Y-95948500D01*
X154864128Y-95948501D01*
X154860848Y-95948853D01*
X154860840Y-95948854D01*
X154804515Y-95954909D01*
X154669669Y-96005204D01*
X154554454Y-96091454D01*
X154468204Y-96206668D01*
X154417910Y-96341515D01*
X154417909Y-96341517D01*
X154411500Y-96401127D01*
X154411500Y-96404448D01*
X154411500Y-96404449D01*
X154411500Y-98093560D01*
X154411500Y-98093578D01*
X154411501Y-98096872D01*
X154417909Y-98156483D01*
X154468204Y-98291331D01*
X154554454Y-98406546D01*
X154669669Y-98492796D01*
X154804517Y-98543091D01*
X154840351Y-98546943D01*
X154904901Y-98573681D01*
X154944750Y-98631073D01*
X154947245Y-98700898D01*
X154911593Y-98760987D01*
X154898221Y-98771807D01*
X154873182Y-98789339D01*
X154712341Y-98950180D01*
X154581865Y-99136519D01*
X154485733Y-99342673D01*
X154433128Y-99538999D01*
X154433128Y-99539000D01*
X155396314Y-99539000D01*
X155384359Y-99550955D01*
X155326835Y-99663852D01*
X155307014Y-99789000D01*
X155326835Y-99914148D01*
X155384359Y-100027045D01*
X155396314Y-100039000D01*
X154433128Y-100039000D01*
X154485733Y-100235326D01*
X154581865Y-100441480D01*
X154712341Y-100627819D01*
X154873180Y-100788658D01*
X155059519Y-100919134D01*
X155117865Y-100946342D01*
X155170304Y-100992514D01*
X155189456Y-101059708D01*
X155169240Y-101126589D01*
X155117866Y-101171105D01*
X155059267Y-101198430D01*
X154872859Y-101328953D01*
X154711953Y-101489859D01*
X154581432Y-101676264D01*
X154485261Y-101882502D01*
X154426364Y-102102310D01*
X154406531Y-102329000D01*
X144935187Y-102329000D01*
X144857140Y-102250953D01*
X144670733Y-102120431D01*
X144612725Y-102093382D01*
X144560285Y-102047210D01*
X144541133Y-101980017D01*
X144561348Y-101913135D01*
X144612725Y-101868618D01*
X144670734Y-101841568D01*
X144857139Y-101711047D01*
X145018047Y-101550139D01*
X145148568Y-101363734D01*
X145244739Y-101157496D01*
X145303635Y-100937692D01*
X145323468Y-100711000D01*
X145303635Y-100484308D01*
X145244739Y-100264504D01*
X145148568Y-100058266D01*
X145144030Y-100051784D01*
X145018046Y-99871859D01*
X144857140Y-99710953D01*
X144670733Y-99580431D01*
X144629727Y-99561310D01*
X144612724Y-99553381D01*
X144560285Y-99507210D01*
X144541133Y-99440017D01*
X144561348Y-99373135D01*
X144612725Y-99328618D01*
X144670734Y-99301568D01*
X144857139Y-99171047D01*
X145018047Y-99010139D01*
X145148568Y-98823734D01*
X145244739Y-98617496D01*
X145303635Y-98397692D01*
X145323468Y-98171000D01*
X145303635Y-97944308D01*
X145244739Y-97724504D01*
X145148568Y-97518266D01*
X145018047Y-97331861D01*
X145018046Y-97331859D01*
X144857140Y-97170953D01*
X144670733Y-97040431D01*
X144612725Y-97013382D01*
X144560285Y-96967210D01*
X144541133Y-96900017D01*
X144561348Y-96833135D01*
X144612725Y-96788618D01*
X144620932Y-96784791D01*
X144670734Y-96761568D01*
X144857139Y-96631047D01*
X145018047Y-96470139D01*
X145148568Y-96283734D01*
X145244739Y-96077496D01*
X145303635Y-95857692D01*
X145323468Y-95631000D01*
X145303635Y-95404308D01*
X145244739Y-95184504D01*
X145148568Y-94978266D01*
X145144030Y-94971784D01*
X145018046Y-94791859D01*
X144857140Y-94630953D01*
X144670733Y-94500431D01*
X144612725Y-94473382D01*
X144560285Y-94427210D01*
X144541133Y-94360017D01*
X144561348Y-94293135D01*
X144612725Y-94248618D01*
X144670734Y-94221568D01*
X144857139Y-94091047D01*
X145018047Y-93930139D01*
X145148568Y-93743734D01*
X145244739Y-93537496D01*
X145303635Y-93317692D01*
X145323468Y-93091000D01*
X145303635Y-92864308D01*
X145244739Y-92644504D01*
X145148568Y-92438266D01*
X145080113Y-92340500D01*
X145018046Y-92251859D01*
X144857140Y-92090953D01*
X144670733Y-91960431D01*
X144612725Y-91933382D01*
X144560285Y-91887210D01*
X144541133Y-91820017D01*
X144561348Y-91753135D01*
X144612725Y-91708618D01*
X144620932Y-91704791D01*
X144670734Y-91681568D01*
X144857139Y-91551047D01*
X145018047Y-91390139D01*
X145148568Y-91203734D01*
X145244739Y-90997496D01*
X145303635Y-90777692D01*
X145323468Y-90551000D01*
X145303635Y-90324308D01*
X145244739Y-90104504D01*
X145148568Y-89898266D01*
X145144030Y-89891784D01*
X145018046Y-89711859D01*
X144857140Y-89550953D01*
X144670733Y-89420431D01*
X144612725Y-89393382D01*
X144560285Y-89347210D01*
X144541133Y-89280017D01*
X144561348Y-89213135D01*
X144612725Y-89168618D01*
X144670734Y-89141568D01*
X144857139Y-89011047D01*
X145018047Y-88850139D01*
X145148568Y-88663734D01*
X145244739Y-88457496D01*
X145303635Y-88237692D01*
X145323468Y-88011000D01*
X145303635Y-87784308D01*
X145244739Y-87564504D01*
X145148568Y-87358266D01*
X145018047Y-87171861D01*
X145018046Y-87171859D01*
X144857140Y-87010953D01*
X144670733Y-86880431D01*
X144612725Y-86853382D01*
X144560285Y-86807210D01*
X144541133Y-86740017D01*
X144561348Y-86673135D01*
X144612725Y-86628618D01*
X144670734Y-86601568D01*
X144857139Y-86471047D01*
X145018047Y-86310139D01*
X145148568Y-86123734D01*
X145244739Y-85917496D01*
X145303635Y-85697692D01*
X145323468Y-85471000D01*
X145303635Y-85244308D01*
X145244739Y-85024504D01*
X145148568Y-84818266D01*
X145080113Y-84720500D01*
X145018046Y-84631859D01*
X144857140Y-84470953D01*
X144670733Y-84340431D01*
X144612725Y-84313382D01*
X144560285Y-84267210D01*
X144541133Y-84200017D01*
X144561348Y-84133135D01*
X144612725Y-84088618D01*
X144670734Y-84061568D01*
X144857139Y-83931047D01*
X145018047Y-83770139D01*
X145148568Y-83583734D01*
X145244739Y-83377496D01*
X145303635Y-83157692D01*
X145323468Y-82931000D01*
X145303635Y-82704308D01*
X145244739Y-82484504D01*
X145148568Y-82278266D01*
X145018047Y-82091861D01*
X145018046Y-82091859D01*
X144857140Y-81930953D01*
X144670733Y-81800431D01*
X144612725Y-81773382D01*
X144560285Y-81727210D01*
X144541133Y-81660017D01*
X144561348Y-81593135D01*
X144612725Y-81548618D01*
X144620932Y-81544791D01*
X144670734Y-81521568D01*
X144857139Y-81391047D01*
X145018047Y-81230139D01*
X145148568Y-81043734D01*
X145244739Y-80837496D01*
X145303635Y-80617692D01*
X145323468Y-80391000D01*
X145303635Y-80164308D01*
X145244739Y-79944504D01*
X145148568Y-79738266D01*
X145073608Y-79631210D01*
X145018046Y-79551859D01*
X144857140Y-79390953D01*
X144670736Y-79260433D01*
X144670732Y-79260431D01*
X144612722Y-79233380D01*
X144560284Y-79187208D01*
X144541133Y-79120014D01*
X144561349Y-79053133D01*
X144612721Y-79008619D01*
X144670734Y-78981568D01*
X144857139Y-78851047D01*
X145018047Y-78690139D01*
X145148568Y-78503734D01*
X145244739Y-78297496D01*
X145303635Y-78077692D01*
X145323468Y-77851000D01*
X145303635Y-77624308D01*
X145244739Y-77404504D01*
X145148568Y-77198266D01*
X145085489Y-77108178D01*
X145018046Y-77011859D01*
X144857140Y-76850953D01*
X144670733Y-76720431D01*
X144612725Y-76693382D01*
X144560285Y-76647210D01*
X144541133Y-76580017D01*
X144561348Y-76513135D01*
X144612725Y-76468618D01*
X144670734Y-76441568D01*
X144857139Y-76311047D01*
X145018047Y-76150139D01*
X145148568Y-75963734D01*
X145244739Y-75757496D01*
X145303635Y-75537692D01*
X145323468Y-75311000D01*
X145303635Y-75084308D01*
X145244739Y-74864504D01*
X145148568Y-74658266D01*
X145146678Y-74655566D01*
X145018046Y-74471859D01*
X144857140Y-74310953D01*
X144670733Y-74180431D01*
X144612725Y-74153382D01*
X144560285Y-74107210D01*
X144541133Y-74040017D01*
X144561348Y-73973135D01*
X144612725Y-73928618D01*
X144670734Y-73901568D01*
X144857139Y-73771047D01*
X145018047Y-73610139D01*
X145148568Y-73423734D01*
X145244739Y-73217496D01*
X145303635Y-72997692D01*
X145323468Y-72771000D01*
X145303635Y-72544308D01*
X145244739Y-72324504D01*
X145148568Y-72118266D01*
X145094231Y-72040663D01*
X145018046Y-71931859D01*
X144857140Y-71770953D01*
X144670736Y-71640433D01*
X144646677Y-71629214D01*
X144612132Y-71613105D01*
X144559695Y-71566933D01*
X144540543Y-71499739D01*
X144560759Y-71432858D01*
X144612135Y-71388342D01*
X144670479Y-71361135D01*
X144856819Y-71230658D01*
X145017658Y-71069819D01*
X145148134Y-70883480D01*
X145244266Y-70677326D01*
X145296872Y-70481000D01*
X144333686Y-70481000D01*
X144345641Y-70469045D01*
X144403165Y-70356148D01*
X144422986Y-70231000D01*
X144403165Y-70105852D01*
X144345641Y-69992955D01*
X144333686Y-69981000D01*
X145296872Y-69981000D01*
X145296871Y-69980999D01*
X145244266Y-69784673D01*
X145148134Y-69578519D01*
X145017658Y-69392180D01*
X144856819Y-69231341D01*
X144670480Y-69100865D01*
X144464326Y-69004733D01*
X144268000Y-68952126D01*
X144268000Y-69915314D01*
X144256045Y-69903359D01*
X144143148Y-69845835D01*
X144049481Y-69831000D01*
X143986519Y-69831000D01*
X143892852Y-69845835D01*
X143779955Y-69903359D01*
X143768000Y-69915314D01*
X143768000Y-68952126D01*
X143767999Y-68952126D01*
X143571673Y-69004733D01*
X143365519Y-69100865D01*
X143179180Y-69231341D01*
X143018341Y-69392180D01*
X142887865Y-69578519D01*
X142791733Y-69784673D01*
X142739128Y-69980999D01*
X142739128Y-69981000D01*
X143702314Y-69981000D01*
X143690359Y-69992955D01*
X143632835Y-70105852D01*
X143613014Y-70231000D01*
X143632835Y-70356148D01*
X143690359Y-70469045D01*
X143702314Y-70481000D01*
X142739128Y-70481000D01*
X142791733Y-70677326D01*
X142887865Y-70883480D01*
X143018341Y-71069819D01*
X143179180Y-71230658D01*
X143365519Y-71361134D01*
X143423865Y-71388342D01*
X143476304Y-71434514D01*
X143495456Y-71501708D01*
X143475240Y-71568589D01*
X143423866Y-71613105D01*
X143365267Y-71640430D01*
X143178859Y-71770953D01*
X143017953Y-71931859D01*
X142887432Y-72118264D01*
X142791261Y-72324502D01*
X142732364Y-72544310D01*
X142712531Y-72770999D01*
X142732364Y-72997689D01*
X142791261Y-73217497D01*
X142887432Y-73423735D01*
X143017953Y-73610140D01*
X143178859Y-73771046D01*
X143254876Y-73824273D01*
X143365266Y-73901568D01*
X143423275Y-73928618D01*
X143475714Y-73974791D01*
X143494865Y-74041985D01*
X143474649Y-74108866D01*
X143423275Y-74153382D01*
X143365263Y-74180433D01*
X143178859Y-74310953D01*
X143017953Y-74471859D01*
X142887432Y-74658264D01*
X142791261Y-74864502D01*
X142732364Y-75084310D01*
X142712531Y-75311000D01*
X142732364Y-75537689D01*
X142791261Y-75757497D01*
X142887432Y-75963735D01*
X143017953Y-76150140D01*
X143178859Y-76311046D01*
X143231787Y-76348106D01*
X143365266Y-76441568D01*
X143423275Y-76468618D01*
X143475714Y-76514791D01*
X143494865Y-76581985D01*
X143474649Y-76648866D01*
X143423275Y-76693382D01*
X143365263Y-76720433D01*
X143178859Y-76850953D01*
X143017953Y-77011859D01*
X142887432Y-77198264D01*
X142791261Y-77404502D01*
X142732364Y-77624310D01*
X142712531Y-77851000D01*
X142732364Y-78077689D01*
X142791261Y-78297497D01*
X142887432Y-78503735D01*
X143017953Y-78690140D01*
X143178859Y-78851046D01*
X143218288Y-78878654D01*
X143365266Y-78981568D01*
X143423275Y-79008618D01*
X143475714Y-79054791D01*
X143494865Y-79121985D01*
X143474649Y-79188866D01*
X143423275Y-79233382D01*
X143365263Y-79260433D01*
X143178859Y-79390953D01*
X143017953Y-79551859D01*
X142887432Y-79738264D01*
X142791261Y-79944502D01*
X142732364Y-80164310D01*
X142712531Y-80390999D01*
X142732364Y-80617689D01*
X142791261Y-80837497D01*
X142887432Y-81043735D01*
X143017953Y-81230140D01*
X143178859Y-81391046D01*
X143321720Y-81491077D01*
X143365266Y-81521568D01*
X143415068Y-81544791D01*
X143423275Y-81548618D01*
X143475714Y-81594791D01*
X143494865Y-81661985D01*
X143474649Y-81728866D01*
X143423275Y-81773382D01*
X143365263Y-81800433D01*
X143178859Y-81930953D01*
X143017953Y-82091859D01*
X142887432Y-82278264D01*
X142791261Y-82484502D01*
X142732364Y-82704310D01*
X142712531Y-82930999D01*
X142732364Y-83157689D01*
X142791261Y-83377497D01*
X142887432Y-83583735D01*
X143017953Y-83770140D01*
X143178859Y-83931046D01*
X143254876Y-83984273D01*
X143365266Y-84061568D01*
X143423275Y-84088618D01*
X143475714Y-84134791D01*
X143494865Y-84201985D01*
X143474649Y-84268866D01*
X143423275Y-84313382D01*
X143365263Y-84340433D01*
X143178859Y-84470953D01*
X143017953Y-84631859D01*
X142887432Y-84818264D01*
X142791261Y-85024502D01*
X142732364Y-85244310D01*
X142712531Y-85471000D01*
X142732364Y-85697689D01*
X142791261Y-85917497D01*
X142887432Y-86123735D01*
X143017953Y-86310140D01*
X143178859Y-86471046D01*
X143231787Y-86508106D01*
X143365266Y-86601568D01*
X143423275Y-86628618D01*
X143475714Y-86674791D01*
X143494865Y-86741985D01*
X143474649Y-86808866D01*
X143423275Y-86853382D01*
X143365263Y-86880433D01*
X143178859Y-87010953D01*
X143017953Y-87171859D01*
X142887432Y-87358264D01*
X142791261Y-87564502D01*
X142732364Y-87784310D01*
X142712531Y-88011000D01*
X142732364Y-88237689D01*
X142791261Y-88457497D01*
X142887432Y-88663735D01*
X143017953Y-88850140D01*
X143178859Y-89011046D01*
X143218288Y-89038654D01*
X143365266Y-89141568D01*
X143423275Y-89168618D01*
X143475714Y-89214791D01*
X143494865Y-89281985D01*
X143474649Y-89348866D01*
X143423275Y-89393382D01*
X143365263Y-89420433D01*
X143178859Y-89550953D01*
X143017953Y-89711859D01*
X142887432Y-89898264D01*
X142791261Y-90104502D01*
X142732364Y-90324310D01*
X142712531Y-90550999D01*
X142732364Y-90777689D01*
X142791261Y-90997497D01*
X142887432Y-91203735D01*
X143017953Y-91390140D01*
X143178859Y-91551046D01*
X143289128Y-91628256D01*
X143365266Y-91681568D01*
X143415068Y-91704791D01*
X143423275Y-91708618D01*
X143475714Y-91754791D01*
X143494865Y-91821985D01*
X143474649Y-91888866D01*
X143423275Y-91933382D01*
X143365263Y-91960433D01*
X143178859Y-92090953D01*
X143017953Y-92251859D01*
X142887432Y-92438264D01*
X142791261Y-92644502D01*
X142732364Y-92864310D01*
X142712531Y-93090999D01*
X142732364Y-93317689D01*
X142791261Y-93537497D01*
X142887432Y-93743735D01*
X143017953Y-93930140D01*
X143178859Y-94091046D01*
X143218288Y-94118654D01*
X143365266Y-94221568D01*
X143423275Y-94248618D01*
X143475714Y-94294791D01*
X143494865Y-94361985D01*
X143474649Y-94428866D01*
X143423275Y-94473382D01*
X143365263Y-94500433D01*
X143178859Y-94630953D01*
X143017953Y-94791859D01*
X142887432Y-94978264D01*
X142791261Y-95184502D01*
X142732364Y-95404310D01*
X142712531Y-95631000D01*
X142732364Y-95857689D01*
X142791261Y-96077497D01*
X142887432Y-96283735D01*
X143017953Y-96470140D01*
X143178859Y-96631046D01*
X143321720Y-96731077D01*
X143365266Y-96761568D01*
X143415068Y-96784791D01*
X143423275Y-96788618D01*
X143475714Y-96834791D01*
X143494865Y-96901985D01*
X143474649Y-96968866D01*
X143423275Y-97013381D01*
X143402576Y-97023033D01*
X143365263Y-97040433D01*
X143178859Y-97170953D01*
X143017953Y-97331859D01*
X142887432Y-97518264D01*
X142791261Y-97724502D01*
X142732364Y-97944310D01*
X142712531Y-98170999D01*
X142732364Y-98397689D01*
X142791261Y-98617497D01*
X142887432Y-98823735D01*
X143017953Y-99010140D01*
X143178859Y-99171046D01*
X143304078Y-99258724D01*
X143365266Y-99301568D01*
X143423275Y-99328618D01*
X143475714Y-99374791D01*
X143494865Y-99441985D01*
X143474649Y-99508866D01*
X143423275Y-99553381D01*
X143402576Y-99563033D01*
X143365263Y-99580433D01*
X143178859Y-99710953D01*
X143017953Y-99871859D01*
X142887432Y-100058264D01*
X142791261Y-100264502D01*
X142732364Y-100484310D01*
X142712531Y-100710999D01*
X142732364Y-100937689D01*
X142791261Y-101157497D01*
X142887432Y-101363735D01*
X143017953Y-101550140D01*
X143178859Y-101711046D01*
X143278682Y-101780942D01*
X143365266Y-101841568D01*
X143423273Y-101868617D01*
X143475713Y-101914789D01*
X143494865Y-101981982D01*
X143474650Y-102048864D01*
X143423276Y-102093380D01*
X143365266Y-102120431D01*
X143178859Y-102250953D01*
X143017953Y-102411859D01*
X142887432Y-102598264D01*
X142791261Y-102804502D01*
X142732364Y-103024310D01*
X142712531Y-103251000D01*
X142732364Y-103477689D01*
X142791261Y-103697497D01*
X142887432Y-103903735D01*
X143017953Y-104090140D01*
X143178859Y-104251046D01*
X143365263Y-104381566D01*
X143365266Y-104381568D01*
X143423275Y-104408618D01*
X143475714Y-104454791D01*
X143494865Y-104521985D01*
X143474649Y-104588866D01*
X143423275Y-104633381D01*
X143402576Y-104643033D01*
X143365263Y-104660433D01*
X143178859Y-104790953D01*
X143017953Y-104951859D01*
X142887432Y-105138264D01*
X142791261Y-105344502D01*
X142732364Y-105564310D01*
X142712531Y-105790999D01*
X142732364Y-106017689D01*
X142791261Y-106237497D01*
X142887432Y-106443735D01*
X143017953Y-106630140D01*
X143178859Y-106791046D01*
X143365263Y-106921566D01*
X143365266Y-106921568D01*
X143423275Y-106948618D01*
X143475714Y-106994791D01*
X143494865Y-107061985D01*
X143474649Y-107128866D01*
X143423275Y-107173382D01*
X143365263Y-107200433D01*
X143178859Y-107330953D01*
X143017953Y-107491859D01*
X142887432Y-107678264D01*
X142791261Y-107884502D01*
X142732364Y-108104310D01*
X142712531Y-108331000D01*
X142732364Y-108557689D01*
X142791261Y-108777497D01*
X142887432Y-108983735D01*
X143017953Y-109170140D01*
X143178859Y-109331046D01*
X143289128Y-109408256D01*
X143365266Y-109461568D01*
X143423273Y-109488617D01*
X143475713Y-109534789D01*
X143494865Y-109601982D01*
X143474650Y-109668864D01*
X143423276Y-109713380D01*
X143365266Y-109740431D01*
X143178859Y-109870953D01*
X143017953Y-110031859D01*
X142887432Y-110218264D01*
X142791261Y-110424502D01*
X142732364Y-110644310D01*
X142712531Y-110871000D01*
X142732364Y-111097689D01*
X142791261Y-111317497D01*
X142887432Y-111523735D01*
X143017953Y-111710140D01*
X143178859Y-111871046D01*
X143365263Y-112001566D01*
X143365266Y-112001568D01*
X143418053Y-112026183D01*
X143423275Y-112028618D01*
X143475714Y-112074791D01*
X143494865Y-112141985D01*
X143474649Y-112208866D01*
X143423275Y-112253382D01*
X143365263Y-112280433D01*
X143178859Y-112410953D01*
X143017953Y-112571859D01*
X142887432Y-112758264D01*
X142791261Y-112964502D01*
X142732364Y-113184310D01*
X142712531Y-113410999D01*
X128519589Y-113410999D01*
X126645818Y-111537228D01*
X126612333Y-111475905D01*
X126609499Y-111449547D01*
X126609499Y-102328999D01*
X126609499Y-93046729D01*
X126611763Y-93026242D01*
X126609561Y-92956143D01*
X126609500Y-92952249D01*
X126609500Y-92928544D01*
X126609500Y-92924650D01*
X126608998Y-92920681D01*
X126608080Y-92909024D01*
X126606709Y-92865372D01*
X126601119Y-92846134D01*
X126597174Y-92827082D01*
X126594664Y-92807208D01*
X126594664Y-92807207D01*
X126578578Y-92766581D01*
X126574805Y-92755560D01*
X126562617Y-92713610D01*
X126552421Y-92696369D01*
X126543863Y-92678902D01*
X126536486Y-92660268D01*
X126510798Y-92624912D01*
X126504409Y-92615184D01*
X126482170Y-92577579D01*
X126468006Y-92563415D01*
X126455369Y-92548620D01*
X126443595Y-92532414D01*
X126443594Y-92532413D01*
X126409935Y-92504568D01*
X126401305Y-92496714D01*
X125398960Y-91494369D01*
X125365475Y-91433046D01*
X125363323Y-91419668D01*
X125345674Y-91251744D01*
X125307615Y-91134611D01*
X125287179Y-91071715D01*
X125192533Y-90907783D01*
X125065870Y-90767110D01*
X124912730Y-90655848D01*
X124739802Y-90578855D01*
X124554648Y-90539500D01*
X124554646Y-90539500D01*
X124365354Y-90539500D01*
X124365352Y-90539500D01*
X124180197Y-90578855D01*
X124007269Y-90655848D01*
X123854129Y-90767110D01*
X123727466Y-90907783D01*
X123632820Y-91071715D01*
X123574326Y-91251742D01*
X123554540Y-91440000D01*
X123574326Y-91628257D01*
X123632820Y-91808284D01*
X123727466Y-91972216D01*
X123854129Y-92112889D01*
X124007269Y-92224151D01*
X124180197Y-92301144D01*
X124365352Y-92340500D01*
X124365354Y-92340500D01*
X124424548Y-92340500D01*
X124491587Y-92360185D01*
X124512229Y-92376819D01*
X125322181Y-93186771D01*
X125355666Y-93248094D01*
X125358500Y-93274452D01*
X125358499Y-110835077D01*
X125338814Y-110902116D01*
X125286010Y-110947871D01*
X125216852Y-110957815D01*
X125153296Y-110928790D01*
X125142349Y-110918049D01*
X125065870Y-110833110D01*
X124912730Y-110721848D01*
X124739802Y-110644855D01*
X124554648Y-110605500D01*
X124554646Y-110605500D01*
X124365354Y-110605500D01*
X124365352Y-110605500D01*
X124180197Y-110644855D01*
X124007269Y-110721848D01*
X123854129Y-110833110D01*
X123727466Y-110973783D01*
X123632820Y-111137715D01*
X123574326Y-111317742D01*
X123554540Y-111506000D01*
X123574326Y-111694257D01*
X123632820Y-111874284D01*
X123727466Y-112038216D01*
X123854129Y-112178889D01*
X124007269Y-112290151D01*
X124180197Y-112367144D01*
X124365352Y-112406500D01*
X124365354Y-112406500D01*
X124424548Y-112406500D01*
X124491587Y-112426185D01*
X124512228Y-112442818D01*
X130487778Y-118418369D01*
X136405196Y-124335787D01*
X136418096Y-124351888D01*
X136469223Y-124399900D01*
X136472020Y-124402611D01*
X136491529Y-124422120D01*
X136494709Y-124424587D01*
X136503571Y-124432155D01*
X136535418Y-124462062D01*
X136552972Y-124471712D01*
X136569236Y-124482396D01*
X136580972Y-124491499D01*
X136585064Y-124494673D01*
X136609909Y-124505424D01*
X136625152Y-124512021D01*
X136635631Y-124517154D01*
X136673908Y-124538197D01*
X136693306Y-124543177D01*
X136711708Y-124549477D01*
X136730104Y-124557438D01*
X136773261Y-124564273D01*
X136784664Y-124566634D01*
X136826981Y-124577500D01*
X136847016Y-124577500D01*
X136866413Y-124579026D01*
X136886196Y-124582160D01*
X136929674Y-124578050D01*
X136941344Y-124577500D01*
X194481256Y-124577500D01*
X194501762Y-124579764D01*
X194504665Y-124579672D01*
X194504667Y-124579673D01*
X194571872Y-124577561D01*
X194575768Y-124577500D01*
X194599448Y-124577500D01*
X194603350Y-124577500D01*
X194607313Y-124576999D01*
X194618962Y-124576080D01*
X194662627Y-124574709D01*
X194681859Y-124569120D01*
X194700918Y-124565174D01*
X194708091Y-124564268D01*
X194720792Y-124562664D01*
X194761407Y-124546582D01*
X194772444Y-124542803D01*
X194814390Y-124530618D01*
X194831629Y-124520422D01*
X194849102Y-124511862D01*
X194867732Y-124504486D01*
X194903064Y-124478814D01*
X194912830Y-124472400D01*
X194950418Y-124450171D01*
X194950417Y-124450171D01*
X194950420Y-124450170D01*
X194964585Y-124436004D01*
X194979373Y-124423373D01*
X194995587Y-124411594D01*
X195023438Y-124377926D01*
X195031279Y-124369309D01*
X196471788Y-122928800D01*
X196487885Y-122915906D01*
X196489873Y-122913787D01*
X196489877Y-122913786D01*
X196535949Y-122864723D01*
X196538534Y-122862055D01*
X196558120Y-122842471D01*
X196560585Y-122839292D01*
X196568167Y-122830416D01*
X196598062Y-122798582D01*
X196607717Y-122781018D01*
X196618394Y-122764764D01*
X196630673Y-122748936D01*
X196648018Y-122708852D01*
X196653160Y-122698356D01*
X196663244Y-122680014D01*
X196674197Y-122660092D01*
X196679179Y-122640684D01*
X196685481Y-122622280D01*
X196693437Y-122603896D01*
X196700269Y-122560752D01*
X196702633Y-122549338D01*
X196713500Y-122507019D01*
X196713500Y-122486983D01*
X196715027Y-122467584D01*
X196718160Y-122447804D01*
X196714047Y-122404303D01*
X196713500Y-122392676D01*
X196713500Y-121067764D01*
X199145787Y-121067764D01*
X199175413Y-121337016D01*
X199195017Y-121412000D01*
X199243928Y-121599088D01*
X199297720Y-121725670D01*
X199349871Y-121848392D01*
X199490982Y-122079611D01*
X199662546Y-122285767D01*
X199664255Y-122287820D01*
X199865998Y-122468582D01*
X200091910Y-122618044D01*
X200198211Y-122667876D01*
X200337177Y-122733021D01*
X200555097Y-122798583D01*
X200596569Y-122811060D01*
X200864561Y-122850500D01*
X200864564Y-122850500D01*
X201065369Y-122850500D01*
X201067631Y-122850500D01*
X201270156Y-122835677D01*
X201534553Y-122776780D01*
X201787558Y-122680014D01*
X202023777Y-122547441D01*
X202238177Y-122381888D01*
X202426186Y-122186881D01*
X202583799Y-121966579D01*
X202707656Y-121725675D01*
X202795118Y-121469305D01*
X202844319Y-121202933D01*
X202854212Y-120932235D01*
X202824586Y-120662982D01*
X202756072Y-120400912D01*
X202650130Y-120151610D01*
X202509018Y-119920390D01*
X202509017Y-119920388D01*
X202335746Y-119712181D01*
X202311654Y-119690594D01*
X202134002Y-119531418D01*
X201908090Y-119381956D01*
X201908086Y-119381954D01*
X201662822Y-119266978D01*
X201403437Y-119188941D01*
X201403431Y-119188940D01*
X201135439Y-119149500D01*
X200932369Y-119149500D01*
X200930120Y-119149664D01*
X200930109Y-119149665D01*
X200729843Y-119164322D01*
X200465449Y-119223219D01*
X200212441Y-119319986D01*
X199976223Y-119452559D01*
X199761825Y-119618109D01*
X199573813Y-119813120D01*
X199416201Y-120033420D01*
X199292342Y-120274329D01*
X199204881Y-120530695D01*
X199155680Y-120797066D01*
X199145787Y-121067764D01*
X196713500Y-121067764D01*
X196713500Y-119970738D01*
X196715763Y-119950238D01*
X196715646Y-119946528D01*
X196713561Y-119880143D01*
X196713500Y-119876249D01*
X196713500Y-119852544D01*
X196713500Y-119848650D01*
X196712998Y-119844681D01*
X196712080Y-119833024D01*
X196710709Y-119789372D01*
X196705119Y-119770134D01*
X196701174Y-119751082D01*
X196698664Y-119731208D01*
X196698664Y-119731207D01*
X196682578Y-119690581D01*
X196678805Y-119679560D01*
X196666617Y-119637610D01*
X196656421Y-119620369D01*
X196647863Y-119602902D01*
X196640486Y-119584268D01*
X196614798Y-119548912D01*
X196608409Y-119539184D01*
X196586170Y-119501579D01*
X196572006Y-119487415D01*
X196559369Y-119472620D01*
X196547595Y-119456414D01*
X196542935Y-119452559D01*
X196513935Y-119428568D01*
X196505305Y-119420714D01*
X194432591Y-117348000D01*
X196198540Y-117348000D01*
X196218326Y-117536257D01*
X196276820Y-117716284D01*
X196371466Y-117880216D01*
X196498129Y-118020889D01*
X196651269Y-118132151D01*
X196824197Y-118209144D01*
X197009352Y-118248500D01*
X197009354Y-118248500D01*
X197198648Y-118248500D01*
X197322083Y-118222262D01*
X197383803Y-118209144D01*
X197556730Y-118132151D01*
X197677708Y-118044256D01*
X197709870Y-118020889D01*
X197836533Y-117880216D01*
X197931179Y-117716284D01*
X197939358Y-117691112D01*
X197989674Y-117536256D01*
X198007321Y-117368344D01*
X198033904Y-117303734D01*
X198042951Y-117293639D01*
X198850771Y-116485819D01*
X198912095Y-116452334D01*
X198938453Y-116449500D01*
X203004253Y-116449500D01*
X203071292Y-116469185D01*
X203096400Y-116490526D01*
X203102129Y-116496888D01*
X203255270Y-116608151D01*
X203255271Y-116608151D01*
X203255272Y-116608152D01*
X203428197Y-116685144D01*
X203613352Y-116724500D01*
X203613354Y-116724500D01*
X203802648Y-116724500D01*
X203926083Y-116698262D01*
X203987803Y-116685144D01*
X204160730Y-116608151D01*
X204313871Y-116496888D01*
X204440533Y-116356216D01*
X204535179Y-116192284D01*
X204593674Y-116012256D01*
X204613460Y-115824000D01*
X204593674Y-115635744D01*
X204563332Y-115542363D01*
X204535179Y-115455715D01*
X204440533Y-115291783D01*
X204313870Y-115151110D01*
X204160730Y-115039848D01*
X203987802Y-114962855D01*
X203802648Y-114923500D01*
X203802646Y-114923500D01*
X203613354Y-114923500D01*
X203613352Y-114923500D01*
X203428197Y-114962855D01*
X203255272Y-115039847D01*
X203153175Y-115114024D01*
X203102129Y-115151112D01*
X203096401Y-115157472D01*
X203036916Y-115194121D01*
X203004253Y-115198500D01*
X198710740Y-115198500D01*
X198690236Y-115196236D01*
X198620144Y-115198439D01*
X198616250Y-115198500D01*
X198588650Y-115198500D01*
X198584789Y-115198987D01*
X198584778Y-115198988D01*
X198584645Y-115199005D01*
X198573029Y-115199918D01*
X198529368Y-115201290D01*
X198510129Y-115206880D01*
X198491080Y-115210825D01*
X198471208Y-115213335D01*
X198430593Y-115229415D01*
X198419549Y-115233196D01*
X198377611Y-115245382D01*
X198360364Y-115255581D01*
X198342900Y-115264136D01*
X198324267Y-115271514D01*
X198288926Y-115297189D01*
X198279168Y-115303599D01*
X198241579Y-115325829D01*
X198227410Y-115339998D01*
X198212622Y-115352628D01*
X198196413Y-115364405D01*
X198168572Y-115398058D01*
X198160711Y-115406696D01*
X197156228Y-116411181D01*
X197094905Y-116444666D01*
X197068547Y-116447500D01*
X197009352Y-116447500D01*
X196824197Y-116486855D01*
X196651269Y-116563848D01*
X196498129Y-116675110D01*
X196371466Y-116815783D01*
X196276820Y-116979715D01*
X196218326Y-117159742D01*
X196198540Y-117348000D01*
X194432591Y-117348000D01*
X193470960Y-116386369D01*
X193437475Y-116325046D01*
X193435323Y-116311668D01*
X193417674Y-116143744D01*
X193359179Y-115963716D01*
X193359179Y-115963715D01*
X193264533Y-115799783D01*
X193137870Y-115659110D01*
X192984730Y-115547848D01*
X192811802Y-115470855D01*
X192626648Y-115431500D01*
X192626646Y-115431500D01*
X192437354Y-115431500D01*
X192437352Y-115431500D01*
X192252197Y-115470855D01*
X192079269Y-115547848D01*
X191926129Y-115659110D01*
X191799466Y-115799783D01*
X191704820Y-115963715D01*
X191646326Y-116143742D01*
X191626540Y-116331999D01*
X191626540Y-116332000D01*
X191632717Y-116390773D01*
X191646326Y-116520257D01*
X191704820Y-116700284D01*
X191799466Y-116864216D01*
X191926129Y-117004889D01*
X192079269Y-117116151D01*
X192252197Y-117193144D01*
X192437352Y-117232500D01*
X192437354Y-117232500D01*
X192496548Y-117232500D01*
X192563587Y-117252185D01*
X192584229Y-117268819D01*
X193858228Y-118542819D01*
X193891713Y-118604142D01*
X193886729Y-118673834D01*
X193844857Y-118729767D01*
X193779393Y-118754184D01*
X193770547Y-118754500D01*
X176588780Y-118754500D01*
X176521741Y-118734815D01*
X176501099Y-118718181D01*
X174239129Y-116456211D01*
X174226233Y-116440113D01*
X174175102Y-116392098D01*
X174172305Y-116389387D01*
X174155554Y-116372636D01*
X174152798Y-116369880D01*
X174149617Y-116367412D01*
X174140749Y-116359837D01*
X174108909Y-116329938D01*
X174091351Y-116320285D01*
X174075090Y-116309604D01*
X174072742Y-116307783D01*
X174059263Y-116297327D01*
X174059262Y-116297326D01*
X174047856Y-116288479D01*
X174006950Y-116231836D01*
X174003160Y-116162069D01*
X174037691Y-116101329D01*
X174099579Y-116068900D01*
X174123857Y-116066500D01*
X185356294Y-116066500D01*
X185374264Y-116067809D01*
X185378320Y-116068402D01*
X185398023Y-116071289D01*
X185447368Y-116066972D01*
X185458176Y-116066500D01*
X185460100Y-116066500D01*
X185463709Y-116066500D01*
X185494550Y-116062894D01*
X185498031Y-116062539D01*
X185572797Y-116055999D01*
X185572797Y-116055998D01*
X185574052Y-116055889D01*
X185593062Y-116051674D01*
X185594250Y-116051241D01*
X185594255Y-116051241D01*
X185664820Y-116025557D01*
X185668095Y-116024419D01*
X185739334Y-116000814D01*
X185739336Y-116000812D01*
X185740536Y-116000415D01*
X185758063Y-115991929D01*
X185759112Y-115991238D01*
X185759117Y-115991237D01*
X185821806Y-115950005D01*
X185824798Y-115948099D01*
X185888656Y-115908712D01*
X185888656Y-115908711D01*
X185889729Y-115908050D01*
X185904824Y-115895753D01*
X185905692Y-115894832D01*
X185905696Y-115894830D01*
X185957184Y-115840254D01*
X185959630Y-115837736D01*
X189969642Y-111827724D01*
X189983260Y-111815954D01*
X190002530Y-111801610D01*
X190034366Y-111763667D01*
X190041680Y-111755688D01*
X190042264Y-111755103D01*
X190045591Y-111751777D01*
X190064833Y-111727439D01*
X190067090Y-111724670D01*
X190081853Y-111707075D01*
X190115302Y-111667214D01*
X190115303Y-111667211D01*
X190116115Y-111666244D01*
X190126573Y-111649827D01*
X190127106Y-111648682D01*
X190127111Y-111648677D01*
X190158833Y-111580646D01*
X190160362Y-111577488D01*
X190194040Y-111510433D01*
X190194040Y-111510432D01*
X190194612Y-111509294D01*
X190201000Y-111490914D01*
X190201255Y-111489675D01*
X190201257Y-111489673D01*
X190216447Y-111416103D01*
X190217186Y-111412770D01*
X190234500Y-111339721D01*
X190234500Y-111339716D01*
X190234791Y-111338489D01*
X190236770Y-111319123D01*
X190236733Y-111317859D01*
X190236734Y-111317856D01*
X190235633Y-111280051D01*
X190252195Y-111214446D01*
X190263408Y-111195026D01*
X190311179Y-111112284D01*
X190369674Y-110932256D01*
X190389460Y-110744000D01*
X190369674Y-110555744D01*
X190319867Y-110402454D01*
X190311179Y-110375715D01*
X190216533Y-110211783D01*
X190089870Y-110071110D01*
X189936730Y-109959848D01*
X189763802Y-109882855D01*
X189578648Y-109843500D01*
X189578646Y-109843500D01*
X189389354Y-109843500D01*
X189389352Y-109843500D01*
X189204197Y-109882855D01*
X189031269Y-109959848D01*
X188878129Y-110071110D01*
X188751466Y-110211783D01*
X188656820Y-110375715D01*
X188598326Y-110555742D01*
X188578540Y-110743999D01*
X188598326Y-110932259D01*
X188610171Y-110968712D01*
X188612166Y-111038553D01*
X188579921Y-111094710D01*
X185145451Y-114529181D01*
X185084128Y-114562666D01*
X185057770Y-114565500D01*
X184483230Y-114565500D01*
X184416191Y-114545815D01*
X184370436Y-114493011D01*
X184360492Y-114423853D01*
X184389517Y-114360297D01*
X184395549Y-114353819D01*
X184981585Y-113767783D01*
X186921642Y-111827724D01*
X186935260Y-111815954D01*
X186954530Y-111801610D01*
X186986366Y-111763667D01*
X186993680Y-111755688D01*
X186994264Y-111755103D01*
X186997591Y-111751777D01*
X187016833Y-111727439D01*
X187019090Y-111724670D01*
X187033853Y-111707075D01*
X187067302Y-111667214D01*
X187067303Y-111667211D01*
X187068115Y-111666244D01*
X187078573Y-111649827D01*
X187079106Y-111648682D01*
X187079111Y-111648677D01*
X187110833Y-111580646D01*
X187112362Y-111577488D01*
X187146040Y-111510433D01*
X187146040Y-111510432D01*
X187146612Y-111509294D01*
X187153000Y-111490914D01*
X187153255Y-111489675D01*
X187153257Y-111489673D01*
X187168447Y-111416103D01*
X187169186Y-111412770D01*
X187186500Y-111339721D01*
X187186500Y-111339716D01*
X187186791Y-111338489D01*
X187188770Y-111319121D01*
X187188733Y-111317859D01*
X187188734Y-111317856D01*
X187186552Y-111242869D01*
X187186500Y-111239263D01*
X187186500Y-102470229D01*
X187206185Y-102403190D01*
X187222819Y-102382548D01*
X189081017Y-100524350D01*
X195815702Y-100524350D01*
X195825819Y-100762529D01*
X195876046Y-100995581D01*
X195957558Y-101198431D01*
X195964936Y-101216790D01*
X196089931Y-101419795D01*
X196204649Y-101550139D01*
X196247437Y-101598756D01*
X196432914Y-101748519D01*
X196432917Y-101748520D01*
X196432920Y-101748523D01*
X196641046Y-101864790D01*
X196641048Y-101864791D01*
X196865831Y-101944212D01*
X197100797Y-101984500D01*
X197100800Y-101984500D01*
X199076866Y-101984500D01*
X199079497Y-101984500D01*
X199257541Y-101969346D01*
X199411346Y-101929298D01*
X199488250Y-101909275D01*
X199620337Y-101849567D01*
X199705486Y-101811077D01*
X199903003Y-101677579D01*
X200075118Y-101512621D01*
X200216879Y-101320947D01*
X200324207Y-101108074D01*
X200394016Y-100880123D01*
X200424298Y-100643654D01*
X200414180Y-100405468D01*
X200363954Y-100172419D01*
X200275064Y-99951210D01*
X200150069Y-99748205D01*
X199992564Y-99569245D01*
X199992562Y-99569243D01*
X199807085Y-99419480D01*
X199795741Y-99413143D01*
X199669293Y-99342504D01*
X199598951Y-99303208D01*
X199374168Y-99223787D01*
X199139203Y-99183500D01*
X199139200Y-99183500D01*
X197160503Y-99183500D01*
X197157887Y-99183722D01*
X197157878Y-99183723D01*
X196982460Y-99198653D01*
X196751749Y-99258724D01*
X196534514Y-99356922D01*
X196336997Y-99490420D01*
X196164881Y-99655379D01*
X196023121Y-99847052D01*
X195915793Y-100059925D01*
X195853218Y-100264257D01*
X195845984Y-100287877D01*
X195815702Y-100524346D01*
X195815702Y-100524349D01*
X195815702Y-100524350D01*
X189081017Y-100524350D01*
X193164548Y-96440819D01*
X193225871Y-96407334D01*
X193252229Y-96404500D01*
X193388648Y-96404500D01*
X193512083Y-96378262D01*
X193573803Y-96365144D01*
X193746730Y-96288151D01*
X193899871Y-96176888D01*
X194026533Y-96036216D01*
X194121179Y-95872284D01*
X194179674Y-95692256D01*
X194199460Y-95504000D01*
X194193191Y-95444350D01*
X195815702Y-95444350D01*
X195825819Y-95682529D01*
X195827916Y-95692257D01*
X195876046Y-95915581D01*
X195964936Y-96136790D01*
X196089931Y-96339795D01*
X196204649Y-96470139D01*
X196247437Y-96518756D01*
X196432914Y-96668519D01*
X196432917Y-96668520D01*
X196432920Y-96668523D01*
X196599477Y-96761568D01*
X196641048Y-96784791D01*
X196865831Y-96864212D01*
X197100797Y-96904500D01*
X197100800Y-96904500D01*
X199076866Y-96904500D01*
X199079497Y-96904500D01*
X199257541Y-96889346D01*
X199411346Y-96849298D01*
X199488250Y-96829275D01*
X199596867Y-96780175D01*
X199705486Y-96731077D01*
X199903003Y-96597579D01*
X200075118Y-96432621D01*
X200216879Y-96240947D01*
X200324207Y-96028074D01*
X200394016Y-95800123D01*
X200424298Y-95563654D01*
X200414180Y-95325468D01*
X200363954Y-95092419D01*
X200275064Y-94871210D01*
X200150069Y-94668205D01*
X199992564Y-94489245D01*
X199992562Y-94489243D01*
X199807085Y-94339480D01*
X199598951Y-94223208D01*
X199374168Y-94143787D01*
X199139203Y-94103500D01*
X199139200Y-94103500D01*
X197160503Y-94103500D01*
X197157887Y-94103722D01*
X197157878Y-94103723D01*
X196982460Y-94118653D01*
X196751749Y-94178724D01*
X196534514Y-94276922D01*
X196336997Y-94410420D01*
X196164881Y-94575379D01*
X196023121Y-94767052D01*
X195915793Y-94979925D01*
X195881343Y-95092419D01*
X195845984Y-95207877D01*
X195815702Y-95444346D01*
X195815702Y-95444349D01*
X195815702Y-95444350D01*
X194193191Y-95444350D01*
X194179674Y-95315744D01*
X194121179Y-95135716D01*
X194121179Y-95135715D01*
X194026533Y-94971783D01*
X193899870Y-94831110D01*
X193746730Y-94719848D01*
X193573802Y-94642855D01*
X193388648Y-94603500D01*
X193388646Y-94603500D01*
X193199354Y-94603500D01*
X193199352Y-94603500D01*
X193014197Y-94642855D01*
X192841272Y-94719847D01*
X192688124Y-94831115D01*
X192685464Y-94834070D01*
X192661463Y-94854688D01*
X192638222Y-94869974D01*
X192635182Y-94871911D01*
X192570276Y-94911947D01*
X192555163Y-94924258D01*
X192502831Y-94979726D01*
X192500319Y-94982312D01*
X185950358Y-101532272D01*
X185936727Y-101544053D01*
X185917468Y-101558391D01*
X185885635Y-101596328D01*
X185878338Y-101604292D01*
X185876972Y-101605657D01*
X185876950Y-101605681D01*
X185874409Y-101608223D01*
X185872173Y-101611050D01*
X185872171Y-101611053D01*
X185855176Y-101632546D01*
X185852902Y-101635337D01*
X185803894Y-101693744D01*
X185793418Y-101710187D01*
X185761192Y-101779294D01*
X185759622Y-101782536D01*
X185725393Y-101850692D01*
X185718996Y-101869098D01*
X185703573Y-101943788D01*
X185702793Y-101947305D01*
X185685208Y-102021506D01*
X185683229Y-102040879D01*
X185685448Y-102117129D01*
X185685500Y-102120735D01*
X185685500Y-110889769D01*
X185665815Y-110956808D01*
X185649181Y-110977450D01*
X185460106Y-111166525D01*
X185398783Y-111200010D01*
X185329091Y-111195026D01*
X185273158Y-111153154D01*
X185248741Y-111087690D01*
X185254493Y-111040530D01*
X185289674Y-110932256D01*
X185309460Y-110744000D01*
X185289674Y-110555744D01*
X185239867Y-110402454D01*
X185231179Y-110375715D01*
X185136535Y-110211786D01*
X185120108Y-110193542D01*
X185009871Y-110071112D01*
X185009867Y-110071109D01*
X185004342Y-110064973D01*
X184974112Y-110001981D01*
X184982737Y-109932646D01*
X185004342Y-109899027D01*
X185009867Y-109892890D01*
X185009871Y-109892888D01*
X185136533Y-109752216D01*
X185143337Y-109740432D01*
X185231179Y-109588284D01*
X185241104Y-109557739D01*
X185289674Y-109408256D01*
X185309460Y-109220000D01*
X185289674Y-109031744D01*
X185259332Y-108938363D01*
X185231179Y-108851715D01*
X185171113Y-108747677D01*
X185154500Y-108685677D01*
X185154500Y-105219705D01*
X185155809Y-105201735D01*
X185156555Y-105196641D01*
X185159289Y-105177977D01*
X185154971Y-105128633D01*
X185154500Y-105117827D01*
X185154500Y-105115901D01*
X185154500Y-105112291D01*
X185150898Y-105081478D01*
X185150534Y-105077915D01*
X185143888Y-105001942D01*
X185139674Y-104982935D01*
X185128364Y-104951861D01*
X185113571Y-104911217D01*
X185112424Y-104907917D01*
X185088814Y-104836665D01*
X185088812Y-104836662D01*
X185088415Y-104835463D01*
X185079929Y-104817936D01*
X185079237Y-104816884D01*
X185079237Y-104816883D01*
X185037994Y-104754176D01*
X185036099Y-104751201D01*
X184996711Y-104687344D01*
X184996047Y-104686267D01*
X184983748Y-104671170D01*
X184928272Y-104618831D01*
X184925685Y-104616318D01*
X178712771Y-98403403D01*
X178682521Y-98354040D01*
X178627179Y-98183715D01*
X178532533Y-98019783D01*
X178405870Y-97879110D01*
X178252730Y-97767848D01*
X178079802Y-97690855D01*
X177894648Y-97651500D01*
X177894646Y-97651500D01*
X177705354Y-97651500D01*
X177705352Y-97651500D01*
X177520197Y-97690855D01*
X177347269Y-97767848D01*
X177194129Y-97879110D01*
X177067466Y-98019783D01*
X176972820Y-98183715D01*
X176914326Y-98363742D01*
X176894540Y-98552000D01*
X176914326Y-98740257D01*
X176972820Y-98920284D01*
X177067466Y-99084216D01*
X177194129Y-99224889D01*
X177347269Y-99336151D01*
X177520193Y-99413143D01*
X177520196Y-99413143D01*
X177520197Y-99413144D01*
X177585329Y-99426987D01*
X177646808Y-99460178D01*
X177647228Y-99460596D01*
X183617181Y-105430548D01*
X183650666Y-105491871D01*
X183653500Y-105518229D01*
X183653500Y-108685677D01*
X183636887Y-108747677D01*
X183576820Y-108851715D01*
X183518326Y-109031742D01*
X183498540Y-109220000D01*
X183518326Y-109408257D01*
X183576820Y-109588284D01*
X183671466Y-109752216D01*
X183803657Y-109899028D01*
X183833887Y-109962019D01*
X183825262Y-110031354D01*
X183803657Y-110064972D01*
X183671466Y-110211783D01*
X183576820Y-110375716D01*
X183563791Y-110415817D01*
X183524354Y-110473493D01*
X183459996Y-110500692D01*
X183445860Y-110501500D01*
X171914786Y-110501500D01*
X171847747Y-110481815D01*
X171801992Y-110429011D01*
X171792048Y-110359853D01*
X171821073Y-110296297D01*
X171823556Y-110293517D01*
X171875766Y-110236800D01*
X172011733Y-110028688D01*
X172111586Y-109801044D01*
X172172613Y-109560055D01*
X172193141Y-109312322D01*
X172172613Y-109064590D01*
X172111586Y-108823601D01*
X172011730Y-108595953D01*
X171911434Y-108442439D01*
X171171076Y-109182797D01*
X171147493Y-109102479D01*
X171069761Y-108981525D01*
X170961100Y-108887371D01*
X170830315Y-108827643D01*
X170820534Y-108826236D01*
X171558057Y-108088713D01*
X171558056Y-108088711D01*
X171511235Y-108052270D01*
X171292606Y-107933954D01*
X171057493Y-107853239D01*
X170812293Y-107812323D01*
X170563707Y-107812323D01*
X170318506Y-107853239D01*
X170083393Y-107933954D01*
X169864764Y-108052269D01*
X169817942Y-108088711D01*
X169817942Y-108088713D01*
X170555466Y-108826236D01*
X170545685Y-108827643D01*
X170414900Y-108887371D01*
X170306239Y-108981525D01*
X170228507Y-109102479D01*
X170204923Y-109182798D01*
X169464564Y-108442439D01*
X169364266Y-108595957D01*
X169264413Y-108823601D01*
X169203386Y-109064590D01*
X169182858Y-109312322D01*
X169203386Y-109560055D01*
X169264413Y-109801044D01*
X169364266Y-110028688D01*
X169500233Y-110236800D01*
X169552444Y-110293517D01*
X169583366Y-110356172D01*
X169575506Y-110425598D01*
X169531359Y-110479753D01*
X169464941Y-110501444D01*
X169461214Y-110501500D01*
X159543337Y-110501500D01*
X159476298Y-110481815D01*
X159470450Y-110477817D01*
X159456728Y-110467847D01*
X159283802Y-110390855D01*
X159098648Y-110351500D01*
X159098646Y-110351500D01*
X158909354Y-110351500D01*
X158909352Y-110351500D01*
X158724197Y-110390855D01*
X158551269Y-110467848D01*
X158398129Y-110579110D01*
X158271466Y-110719783D01*
X158176820Y-110883715D01*
X158118326Y-111063742D01*
X158098540Y-111252000D01*
X158118326Y-111440257D01*
X158176820Y-111620284D01*
X158271466Y-111784216D01*
X158398129Y-111924889D01*
X158551269Y-112036151D01*
X158724197Y-112113144D01*
X158909352Y-112152500D01*
X158909354Y-112152500D01*
X159098648Y-112152500D01*
X159222083Y-112126262D01*
X159283803Y-112113144D01*
X159456730Y-112036151D01*
X159470449Y-112026183D01*
X159536256Y-112002702D01*
X159543337Y-112002500D01*
X183832294Y-112002500D01*
X183850264Y-112003809D01*
X183854320Y-112004402D01*
X183874023Y-112007289D01*
X183923368Y-112002972D01*
X183934176Y-112002500D01*
X183936100Y-112002500D01*
X183939709Y-112002500D01*
X183970550Y-111998894D01*
X183974031Y-111998539D01*
X184048797Y-111991999D01*
X184048797Y-111991998D01*
X184050052Y-111991889D01*
X184069062Y-111987674D01*
X184070250Y-111987241D01*
X184070255Y-111987241D01*
X184140820Y-111961557D01*
X184144095Y-111960419D01*
X184215334Y-111936814D01*
X184215336Y-111936812D01*
X184216536Y-111936415D01*
X184234063Y-111927929D01*
X184235112Y-111927238D01*
X184235117Y-111927237D01*
X184297806Y-111886005D01*
X184300798Y-111884099D01*
X184364656Y-111844712D01*
X184364656Y-111844711D01*
X184365729Y-111844050D01*
X184380824Y-111831753D01*
X184381692Y-111830832D01*
X184381696Y-111830830D01*
X184433169Y-111776270D01*
X184435615Y-111773751D01*
X184556770Y-111652595D01*
X184618091Y-111619112D01*
X184618511Y-111619021D01*
X184683803Y-111605144D01*
X184683803Y-111605143D01*
X184696553Y-111602434D01*
X184696921Y-111604166D01*
X184750536Y-111596976D01*
X184813814Y-111626601D01*
X184851030Y-111685734D01*
X184850369Y-111755600D01*
X184819409Y-111807222D01*
X183113451Y-113513181D01*
X183052128Y-113546666D01*
X183025770Y-113549500D01*
X178847337Y-113549500D01*
X178780298Y-113529815D01*
X178774450Y-113525817D01*
X178760728Y-113515847D01*
X178587802Y-113438855D01*
X178402648Y-113399500D01*
X178402646Y-113399500D01*
X178213354Y-113399500D01*
X178213352Y-113399500D01*
X178028197Y-113438855D01*
X177855269Y-113515848D01*
X177702129Y-113627110D01*
X177575466Y-113767783D01*
X177480820Y-113931715D01*
X177422326Y-114111742D01*
X177422325Y-114111744D01*
X177422326Y-114111744D01*
X177402540Y-114300000D01*
X177414211Y-114411047D01*
X177416050Y-114428539D01*
X177403480Y-114497268D01*
X177355748Y-114548292D01*
X177292729Y-114565500D01*
X162623706Y-114565500D01*
X162605736Y-114564191D01*
X162591853Y-114562157D01*
X162581977Y-114560711D01*
X162581976Y-114560711D01*
X162532634Y-114565028D01*
X162521827Y-114565500D01*
X162516291Y-114565500D01*
X162512730Y-114565916D01*
X162512715Y-114565917D01*
X162485484Y-114569100D01*
X162481900Y-114569466D01*
X162405950Y-114576111D01*
X162386922Y-114580329D01*
X162315270Y-114606407D01*
X162311869Y-114607589D01*
X162239480Y-114631578D01*
X162221927Y-114640076D01*
X162158236Y-114681965D01*
X162155198Y-114683901D01*
X162090277Y-114723947D01*
X162075163Y-114736258D01*
X162022831Y-114791726D01*
X162020319Y-114794312D01*
X159867228Y-116947402D01*
X159805905Y-116980887D01*
X159805330Y-116981011D01*
X159740197Y-116994856D01*
X159567267Y-117071849D01*
X159414128Y-117183111D01*
X159403136Y-117195319D01*
X159343647Y-117231964D01*
X159273790Y-117230631D01*
X159223309Y-117200023D01*
X158519064Y-116495778D01*
X157758819Y-115735532D01*
X157725334Y-115674209D01*
X157722500Y-115647851D01*
X157722500Y-109823461D01*
X157742185Y-109756422D01*
X157758814Y-109735785D01*
X162003525Y-105491074D01*
X162064846Y-105457591D01*
X162134538Y-105462575D01*
X162190471Y-105504447D01*
X162197214Y-105515711D01*
X162331953Y-105708140D01*
X162492859Y-105869046D01*
X162679264Y-105999567D01*
X162679265Y-105999567D01*
X162679266Y-105999568D01*
X162885504Y-106095739D01*
X163105308Y-106154635D01*
X163332000Y-106174468D01*
X163558692Y-106154635D01*
X163778496Y-106095739D01*
X163984734Y-105999568D01*
X164171139Y-105869047D01*
X164332047Y-105708139D01*
X164462568Y-105521734D01*
X164539431Y-105356901D01*
X169187500Y-105356901D01*
X169187501Y-105360195D01*
X169187853Y-105363475D01*
X169187854Y-105363482D01*
X169193909Y-105419807D01*
X169219056Y-105487229D01*
X169244204Y-105554654D01*
X169330454Y-105669869D01*
X169445669Y-105756119D01*
X169580517Y-105806414D01*
X169640127Y-105812823D01*
X171735872Y-105812822D01*
X171795483Y-105806414D01*
X171930331Y-105756119D01*
X172045546Y-105669869D01*
X172131796Y-105554654D01*
X172182091Y-105419806D01*
X172188500Y-105360196D01*
X172188499Y-103264451D01*
X172182091Y-103204840D01*
X172131796Y-103069992D01*
X172045546Y-102954777D01*
X171930331Y-102868527D01*
X171795483Y-102818232D01*
X171735873Y-102811823D01*
X171732550Y-102811823D01*
X169643439Y-102811823D01*
X169643420Y-102811823D01*
X169640128Y-102811824D01*
X169636848Y-102812176D01*
X169636840Y-102812177D01*
X169580515Y-102818232D01*
X169445669Y-102868527D01*
X169330454Y-102954777D01*
X169244204Y-103069991D01*
X169193910Y-103204838D01*
X169193909Y-103204840D01*
X169187500Y-103264450D01*
X169187500Y-103267771D01*
X169187500Y-103267772D01*
X169187500Y-105356883D01*
X169187500Y-105356901D01*
X164539431Y-105356901D01*
X164558739Y-105315496D01*
X164617635Y-105095692D01*
X164637468Y-104869000D01*
X164633816Y-104827263D01*
X164619221Y-104660433D01*
X164617635Y-104642308D01*
X164558739Y-104422504D01*
X164462568Y-104216266D01*
X164374255Y-104090140D01*
X164332046Y-104029859D01*
X164171140Y-103868953D01*
X163975848Y-103732210D01*
X163977370Y-103730035D01*
X163936916Y-103694419D01*
X163917761Y-103627227D01*
X163937973Y-103560344D01*
X163954071Y-103540528D01*
X164144841Y-103349758D01*
X164161392Y-103335871D01*
X164171139Y-103329047D01*
X164332047Y-103168139D01*
X164338871Y-103158392D01*
X164352758Y-103141841D01*
X166631781Y-100862819D01*
X166693105Y-100829334D01*
X166719463Y-100826500D01*
X169132663Y-100826500D01*
X169199702Y-100846185D01*
X169205550Y-100850183D01*
X169219271Y-100860152D01*
X169392197Y-100937144D01*
X169577352Y-100976500D01*
X169577354Y-100976500D01*
X169766648Y-100976500D01*
X169907231Y-100946618D01*
X169951803Y-100937144D01*
X170124730Y-100860151D01*
X170259096Y-100762529D01*
X170277870Y-100748889D01*
X170311987Y-100710999D01*
X170404533Y-100608216D01*
X170499179Y-100444284D01*
X170557674Y-100264256D01*
X170577460Y-100076000D01*
X170557674Y-99887744D01*
X170512334Y-99748203D01*
X170499179Y-99707715D01*
X170439112Y-99603677D01*
X170422499Y-99541677D01*
X170422499Y-99356922D01*
X170422499Y-99123691D01*
X170423809Y-99105732D01*
X170427289Y-99081976D01*
X170422972Y-99032629D01*
X170422500Y-99021823D01*
X170422500Y-99019901D01*
X170422500Y-99016291D01*
X170418903Y-98985520D01*
X170418536Y-98981929D01*
X170418021Y-98976046D01*
X170411999Y-98907203D01*
X170411998Y-98907201D01*
X170411889Y-98905949D01*
X170407672Y-98886930D01*
X170401251Y-98869289D01*
X170381591Y-98815273D01*
X170380408Y-98811868D01*
X170356417Y-98739468D01*
X170347929Y-98721936D01*
X170347237Y-98720884D01*
X170347237Y-98720883D01*
X170305999Y-98658184D01*
X170304087Y-98655181D01*
X170264050Y-98590270D01*
X170251750Y-98575172D01*
X170196290Y-98522848D01*
X170193703Y-98520335D01*
X147724771Y-76051403D01*
X147694521Y-76002040D01*
X147639179Y-75831715D01*
X147579113Y-75727677D01*
X147562500Y-75665677D01*
X147562500Y-72371229D01*
X147582185Y-72304190D01*
X147598819Y-72283548D01*
X157119548Y-62762819D01*
X157180871Y-62729334D01*
X157207229Y-62726500D01*
X160020729Y-62726500D01*
X160087768Y-62746185D01*
X160133523Y-62798989D01*
X160144049Y-62863459D01*
X160130540Y-62992000D01*
X160131379Y-62999978D01*
X160150326Y-63180257D01*
X160208820Y-63360284D01*
X160268887Y-63464321D01*
X160285500Y-63526321D01*
X160285500Y-64229537D01*
X160265815Y-64296576D01*
X160213011Y-64342331D01*
X160143853Y-64352275D01*
X160088615Y-64329855D01*
X159964730Y-64239848D01*
X159791802Y-64162855D01*
X159606648Y-64123500D01*
X159606646Y-64123500D01*
X159417354Y-64123500D01*
X159417352Y-64123500D01*
X159232197Y-64162855D01*
X159059269Y-64239848D01*
X158906129Y-64351110D01*
X158779466Y-64491783D01*
X158684820Y-64655715D01*
X158626326Y-64835742D01*
X158606540Y-65024000D01*
X158626326Y-65212257D01*
X158684820Y-65392284D01*
X158744887Y-65496321D01*
X158761500Y-65558321D01*
X158761500Y-68217769D01*
X158741815Y-68284808D01*
X158725181Y-68305450D01*
X156819228Y-70211402D01*
X156757905Y-70244887D01*
X156757330Y-70245011D01*
X156692197Y-70258856D01*
X156519267Y-70335849D01*
X156366129Y-70447110D01*
X156239466Y-70587783D01*
X156144820Y-70751715D01*
X156086326Y-70931742D01*
X156066540Y-71119999D01*
X156086326Y-71308257D01*
X156144820Y-71488284D01*
X156239466Y-71652216D01*
X156366129Y-71792889D01*
X156519269Y-71904151D01*
X156692197Y-71981144D01*
X156877352Y-72020500D01*
X156877354Y-72020500D01*
X157066648Y-72020500D01*
X157190084Y-71994262D01*
X157251803Y-71981144D01*
X157424730Y-71904151D01*
X157503991Y-71846565D01*
X157577870Y-71792889D01*
X157623270Y-71742468D01*
X157704533Y-71652216D01*
X157799179Y-71488284D01*
X157854522Y-71317955D01*
X157884769Y-71268597D01*
X159997638Y-69155727D01*
X160011256Y-69143957D01*
X160030530Y-69129610D01*
X160062372Y-69091661D01*
X160069686Y-69083681D01*
X160073596Y-69079772D01*
X160068894Y-69084754D01*
X160128129Y-69047776D01*
X160197992Y-69048692D01*
X160256270Y-69087234D01*
X160284459Y-69151165D01*
X160285500Y-69167201D01*
X160285500Y-71437294D01*
X160284191Y-71455264D01*
X160280711Y-71479023D01*
X160285028Y-71528368D01*
X160285500Y-71539175D01*
X160285500Y-71544709D01*
X160285916Y-71548272D01*
X160285917Y-71548282D01*
X160289098Y-71575496D01*
X160289464Y-71579082D01*
X160296109Y-71655041D01*
X160300329Y-71674071D01*
X160300758Y-71675251D01*
X160300759Y-71675255D01*
X160326413Y-71745742D01*
X160327582Y-71749107D01*
X160351580Y-71821524D01*
X160360075Y-71839072D01*
X160401979Y-71902784D01*
X160403889Y-71905782D01*
X160443288Y-71969656D01*
X160443952Y-71970732D01*
X160456253Y-71985830D01*
X160457168Y-71986693D01*
X160457170Y-71986696D01*
X160490487Y-72018129D01*
X160511708Y-72038150D01*
X160514295Y-72040663D01*
X179383267Y-90909634D01*
X179395048Y-90923266D01*
X179409389Y-90942529D01*
X179447339Y-90974373D01*
X179455314Y-90981681D01*
X179459223Y-90985590D01*
X179462055Y-90987829D01*
X179462065Y-90987838D01*
X179483542Y-91004819D01*
X179486298Y-91007063D01*
X179543786Y-91055302D01*
X179543788Y-91055303D01*
X179544757Y-91056116D01*
X179561177Y-91066576D01*
X179562321Y-91067109D01*
X179562323Y-91067111D01*
X179630357Y-91098835D01*
X179633456Y-91100335D01*
X179700567Y-91134040D01*
X179701704Y-91134611D01*
X179720084Y-91140998D01*
X179721321Y-91141253D01*
X179721327Y-91141256D01*
X179794862Y-91156439D01*
X179798209Y-91157181D01*
X179871279Y-91174500D01*
X179871281Y-91174500D01*
X179872505Y-91174790D01*
X179891876Y-91176769D01*
X179893140Y-91176732D01*
X179893144Y-91176733D01*
X179968110Y-91174552D01*
X179971716Y-91174500D01*
X192419499Y-91174500D01*
X192486538Y-91194185D01*
X192532293Y-91246989D01*
X192543499Y-91298500D01*
X192543499Y-91331769D01*
X192523814Y-91398808D01*
X192507180Y-91419450D01*
X184251228Y-99675402D01*
X184189905Y-99708887D01*
X184189330Y-99709011D01*
X184124197Y-99722856D01*
X183951267Y-99799849D01*
X183798129Y-99911110D01*
X183671466Y-100051783D01*
X183576820Y-100215715D01*
X183518326Y-100395742D01*
X183498540Y-100584000D01*
X183518326Y-100772257D01*
X183576820Y-100952284D01*
X183671466Y-101116216D01*
X183798129Y-101256889D01*
X183951269Y-101368151D01*
X184124197Y-101445144D01*
X184309352Y-101484500D01*
X184309354Y-101484500D01*
X184498648Y-101484500D01*
X184622084Y-101458262D01*
X184683803Y-101445144D01*
X184856730Y-101368151D01*
X185009871Y-101256888D01*
X185136533Y-101116216D01*
X185231179Y-100952284D01*
X185286522Y-100781955D01*
X185316769Y-100732597D01*
X193779638Y-92269727D01*
X193793256Y-92257957D01*
X193812530Y-92243610D01*
X193844372Y-92205661D01*
X193851686Y-92197681D01*
X193852264Y-92197102D01*
X193855591Y-92193776D01*
X193874853Y-92169413D01*
X193877076Y-92166686D01*
X193925302Y-92109214D01*
X193925303Y-92109211D01*
X193926115Y-92108244D01*
X193936573Y-92091828D01*
X193937107Y-92090680D01*
X193937111Y-92090677D01*
X193968845Y-92022621D01*
X193970371Y-92019470D01*
X194004040Y-91952433D01*
X194004040Y-91952431D01*
X194004609Y-91951299D01*
X194011002Y-91932906D01*
X194026431Y-91858184D01*
X194027212Y-91854660D01*
X194034361Y-91824500D01*
X194044500Y-91781721D01*
X194044499Y-91781720D01*
X194044791Y-91780493D01*
X194046770Y-91761120D01*
X194046733Y-91759858D01*
X194046734Y-91759855D01*
X194044552Y-91684868D01*
X194044500Y-91681262D01*
X194044500Y-90958321D01*
X194061113Y-90896321D01*
X194121179Y-90792284D01*
X194129358Y-90767112D01*
X194179674Y-90612256D01*
X194199460Y-90424000D01*
X194193191Y-90364350D01*
X195815702Y-90364350D01*
X195825819Y-90602529D01*
X195876046Y-90835581D01*
X195937228Y-90987838D01*
X195964936Y-91056790D01*
X196089931Y-91259795D01*
X196242412Y-91433046D01*
X196247437Y-91438756D01*
X196432914Y-91588519D01*
X196432917Y-91588520D01*
X196432920Y-91588523D01*
X196641046Y-91704790D01*
X196641048Y-91704791D01*
X196865831Y-91784212D01*
X197100797Y-91824500D01*
X197100800Y-91824500D01*
X199076866Y-91824500D01*
X199079497Y-91824500D01*
X199257541Y-91809346D01*
X199411346Y-91769298D01*
X199488250Y-91749275D01*
X199634683Y-91683082D01*
X199705486Y-91651077D01*
X199903003Y-91517579D01*
X200075118Y-91352621D01*
X200216879Y-91160947D01*
X200324207Y-90948074D01*
X200394016Y-90720123D01*
X200424298Y-90483654D01*
X200414180Y-90245468D01*
X200363954Y-90012419D01*
X200275064Y-89791210D01*
X200150069Y-89588205D01*
X199992564Y-89409245D01*
X199992562Y-89409243D01*
X199807085Y-89259480D01*
X199598951Y-89143208D01*
X199374168Y-89063787D01*
X199139203Y-89023500D01*
X199139200Y-89023500D01*
X197160503Y-89023500D01*
X197157887Y-89023722D01*
X197157878Y-89023723D01*
X196982460Y-89038653D01*
X196751749Y-89098724D01*
X196534514Y-89196922D01*
X196336997Y-89330420D01*
X196164881Y-89495379D01*
X196023121Y-89687052D01*
X195915793Y-89899925D01*
X195881343Y-90012419D01*
X195845984Y-90127877D01*
X195815702Y-90364346D01*
X195815702Y-90364349D01*
X195815702Y-90364350D01*
X194193191Y-90364350D01*
X194179674Y-90235744D01*
X194121179Y-90055716D01*
X194121179Y-90055715D01*
X194026533Y-89891783D01*
X193899870Y-89751110D01*
X193746730Y-89639848D01*
X193573802Y-89562855D01*
X193388648Y-89523500D01*
X193388646Y-89523500D01*
X193199354Y-89523500D01*
X193199352Y-89523500D01*
X193014197Y-89562855D01*
X192841271Y-89639847D01*
X192827550Y-89649817D01*
X192761744Y-89673298D01*
X192754663Y-89673500D01*
X180321230Y-89673500D01*
X180254191Y-89653815D01*
X180233549Y-89637181D01*
X175690368Y-85094000D01*
X195840582Y-85094000D01*
X197574118Y-85094000D01*
X197535444Y-85187369D01*
X197514823Y-85344000D01*
X197535444Y-85500631D01*
X197574118Y-85594000D01*
X195841734Y-85594000D01*
X195876526Y-85755434D01*
X195965383Y-85976562D01*
X196090335Y-86179497D01*
X196247784Y-86358394D01*
X196433199Y-86508106D01*
X196641250Y-86624332D01*
X196865957Y-86703726D01*
X197100840Y-86744000D01*
X197870000Y-86744000D01*
X197870000Y-85889881D01*
X197963369Y-85928556D01*
X198080677Y-85944000D01*
X198159323Y-85944000D01*
X198276631Y-85928556D01*
X198370000Y-85889881D01*
X198370000Y-86744000D01*
X199076842Y-86744000D01*
X199082097Y-86743776D01*
X199257455Y-86728851D01*
X199488083Y-86668801D01*
X199705241Y-86570639D01*
X199902687Y-86437188D01*
X200074741Y-86272288D01*
X200216450Y-86080684D01*
X200323741Y-85867886D01*
X200393525Y-85640017D01*
X200399418Y-85594000D01*
X198665882Y-85594000D01*
X198704556Y-85500631D01*
X198725177Y-85344000D01*
X198704556Y-85187369D01*
X198665882Y-85094000D01*
X200398266Y-85094000D01*
X200398265Y-85093999D01*
X200363473Y-84932565D01*
X200274616Y-84711437D01*
X200149664Y-84508502D01*
X199992215Y-84329605D01*
X199806800Y-84179893D01*
X199598749Y-84063667D01*
X199374042Y-83984273D01*
X199139160Y-83944000D01*
X198370000Y-83944000D01*
X198370000Y-84798118D01*
X198276631Y-84759444D01*
X198159323Y-84744000D01*
X198080677Y-84744000D01*
X197963369Y-84759444D01*
X197870000Y-84798118D01*
X197870000Y-83944000D01*
X197163158Y-83944000D01*
X197157902Y-83944223D01*
X196982544Y-83959148D01*
X196751916Y-84019198D01*
X196534758Y-84117360D01*
X196337312Y-84250811D01*
X196165258Y-84415711D01*
X196023549Y-84607315D01*
X195916258Y-84820113D01*
X195846474Y-85047982D01*
X195840582Y-85094000D01*
X175690368Y-85094000D01*
X161822819Y-71226450D01*
X161789334Y-71165127D01*
X161786500Y-71138769D01*
X161786500Y-66547999D01*
X175878540Y-66547999D01*
X175898326Y-66736257D01*
X175956820Y-66916284D01*
X176016887Y-67020321D01*
X176033500Y-67082321D01*
X176033500Y-83293123D01*
X176016887Y-83355123D01*
X175961119Y-83451715D01*
X175902625Y-83631742D01*
X175882839Y-83819999D01*
X175902625Y-84008257D01*
X175961119Y-84188284D01*
X176055765Y-84352216D01*
X176182428Y-84492889D01*
X176335568Y-84604151D01*
X176508496Y-84681144D01*
X176693651Y-84720500D01*
X176693653Y-84720500D01*
X176882947Y-84720500D01*
X177006382Y-84694262D01*
X177068102Y-84681144D01*
X177241029Y-84604151D01*
X177394170Y-84492888D01*
X177520832Y-84352216D01*
X177615478Y-84188284D01*
X177673973Y-84008256D01*
X177693759Y-83820000D01*
X177673973Y-83631744D01*
X177615478Y-83451716D01*
X177615478Y-83451715D01*
X177551113Y-83340231D01*
X177534500Y-83278231D01*
X177534500Y-81191457D01*
X177554185Y-81124418D01*
X177606989Y-81078663D01*
X177676147Y-81068719D01*
X177701834Y-81075275D01*
X177708517Y-81077768D01*
X177768127Y-81084177D01*
X179863872Y-81084176D01*
X179923483Y-81077768D01*
X180058331Y-81027473D01*
X180173546Y-80941223D01*
X180259796Y-80826008D01*
X180310091Y-80691160D01*
X180316500Y-80631550D01*
X180316500Y-80204350D01*
X195815702Y-80204350D01*
X195825819Y-80442529D01*
X195825820Y-80442532D01*
X195876046Y-80675581D01*
X195964936Y-80896790D01*
X196089931Y-81099795D01*
X196204649Y-81230139D01*
X196247437Y-81278756D01*
X196432914Y-81428519D01*
X196432917Y-81428520D01*
X196432920Y-81428523D01*
X196599477Y-81521568D01*
X196641048Y-81544791D01*
X196865831Y-81624212D01*
X197100797Y-81664500D01*
X197100800Y-81664500D01*
X199076866Y-81664500D01*
X199079497Y-81664500D01*
X199257541Y-81649346D01*
X199411346Y-81609298D01*
X199488250Y-81589275D01*
X199596867Y-81540175D01*
X199705486Y-81491077D01*
X199903003Y-81357579D01*
X200075118Y-81192621D01*
X200216879Y-81000947D01*
X200324207Y-80788074D01*
X200394016Y-80560123D01*
X200424298Y-80323654D01*
X200414180Y-80085468D01*
X200363954Y-79852419D01*
X200275064Y-79631210D01*
X200150069Y-79428205D01*
X199992564Y-79249245D01*
X199992562Y-79249243D01*
X199807085Y-79099480D01*
X199598951Y-78983208D01*
X199374168Y-78903787D01*
X199139203Y-78863500D01*
X199139200Y-78863500D01*
X197160503Y-78863500D01*
X197157887Y-78863722D01*
X197157878Y-78863723D01*
X196982460Y-78878653D01*
X196751749Y-78938724D01*
X196534514Y-79036922D01*
X196336997Y-79170420D01*
X196164881Y-79335379D01*
X196023121Y-79527052D01*
X195915793Y-79739925D01*
X195881343Y-79852419D01*
X195845984Y-79967877D01*
X195815702Y-80204346D01*
X195815702Y-80204349D01*
X195815702Y-80204350D01*
X180316500Y-80204350D01*
X180316499Y-78535805D01*
X180310091Y-78476194D01*
X180259796Y-78341346D01*
X180173546Y-78226131D01*
X180058331Y-78139881D01*
X179923483Y-78089586D01*
X179863873Y-78083177D01*
X179860550Y-78083177D01*
X177771439Y-78083177D01*
X177771420Y-78083177D01*
X177768128Y-78083178D01*
X177764848Y-78083530D01*
X177764840Y-78083531D01*
X177708511Y-78089586D01*
X177701829Y-78092079D01*
X177632137Y-78097061D01*
X177570815Y-78063574D01*
X177537333Y-78002250D01*
X177534500Y-77975896D01*
X177534500Y-75562986D01*
X177554185Y-75495947D01*
X177570819Y-75475305D01*
X178332923Y-74713200D01*
X178356507Y-74793521D01*
X178434239Y-74914475D01*
X178542900Y-75008629D01*
X178673685Y-75068357D01*
X178683466Y-75069763D01*
X177945942Y-75807286D01*
X177945942Y-75807287D01*
X177992766Y-75843732D01*
X178211393Y-75962045D01*
X178446506Y-76042760D01*
X178691707Y-76083677D01*
X178940293Y-76083677D01*
X179185493Y-76042760D01*
X179420606Y-75962045D01*
X179639233Y-75843730D01*
X179686056Y-75807286D01*
X178948533Y-75069763D01*
X178958315Y-75068357D01*
X179089100Y-75008629D01*
X179197761Y-74914475D01*
X179275493Y-74793521D01*
X179299076Y-74713201D01*
X180039434Y-75453559D01*
X180139730Y-75300046D01*
X180239586Y-75072398D01*
X180274633Y-74934000D01*
X195840582Y-74934000D01*
X197574118Y-74934000D01*
X197535444Y-75027369D01*
X197514823Y-75184000D01*
X197535444Y-75340631D01*
X197574118Y-75434000D01*
X195841734Y-75434000D01*
X195876526Y-75595434D01*
X195965383Y-75816562D01*
X196090335Y-76019497D01*
X196247784Y-76198394D01*
X196433199Y-76348106D01*
X196641250Y-76464332D01*
X196865957Y-76543726D01*
X197100840Y-76584000D01*
X197870000Y-76584000D01*
X197870000Y-75729881D01*
X197963369Y-75768556D01*
X198080677Y-75784000D01*
X198159323Y-75784000D01*
X198276631Y-75768556D01*
X198370000Y-75729881D01*
X198370000Y-76584000D01*
X199076842Y-76584000D01*
X199082097Y-76583776D01*
X199257455Y-76568851D01*
X199488083Y-76508801D01*
X199705241Y-76410639D01*
X199902687Y-76277188D01*
X200074741Y-76112288D01*
X200216450Y-75920684D01*
X200323741Y-75707886D01*
X200393525Y-75480017D01*
X200399418Y-75434000D01*
X198665882Y-75434000D01*
X198704556Y-75340631D01*
X198725177Y-75184000D01*
X198704556Y-75027369D01*
X198665882Y-74934000D01*
X200398266Y-74934000D01*
X200398265Y-74933999D01*
X200363473Y-74772565D01*
X200274616Y-74551437D01*
X200149664Y-74348502D01*
X199992215Y-74169605D01*
X199806800Y-74019893D01*
X199598749Y-73903667D01*
X199374042Y-73824273D01*
X199139160Y-73784000D01*
X198370000Y-73784000D01*
X198370000Y-74638118D01*
X198276631Y-74599444D01*
X198159323Y-74584000D01*
X198080677Y-74584000D01*
X197963369Y-74599444D01*
X197870000Y-74638118D01*
X197870000Y-73784000D01*
X197163158Y-73784000D01*
X197157902Y-73784223D01*
X196982544Y-73799148D01*
X196751916Y-73859198D01*
X196534758Y-73957360D01*
X196337312Y-74090811D01*
X196165258Y-74255711D01*
X196023549Y-74447315D01*
X195916258Y-74660113D01*
X195846474Y-74887982D01*
X195840582Y-74934000D01*
X180274633Y-74934000D01*
X180300613Y-74831409D01*
X180321141Y-74583676D01*
X180300613Y-74335944D01*
X180239586Y-74094955D01*
X180139730Y-73867307D01*
X180039434Y-73713793D01*
X179299076Y-74454152D01*
X179275493Y-74373833D01*
X179197761Y-74252879D01*
X179089100Y-74158725D01*
X178958315Y-74098997D01*
X178948534Y-74097590D01*
X179686057Y-73360067D01*
X179686056Y-73360065D01*
X179639235Y-73323624D01*
X179420606Y-73205308D01*
X179185493Y-73124593D01*
X178940293Y-73083677D01*
X178691707Y-73083677D01*
X178446506Y-73124593D01*
X178211393Y-73205308D01*
X177992764Y-73323623D01*
X177945942Y-73360065D01*
X177945942Y-73360067D01*
X178683466Y-74097590D01*
X178673685Y-74098997D01*
X178542900Y-74158725D01*
X178434239Y-74252879D01*
X178356507Y-74373833D01*
X178332923Y-74454152D01*
X177570819Y-73692048D01*
X177537334Y-73630725D01*
X177534500Y-73604367D01*
X177534500Y-67082321D01*
X177551113Y-67020321D01*
X177611179Y-66916284D01*
X177611179Y-66916283D01*
X177669674Y-66736256D01*
X177689460Y-66548000D01*
X177669674Y-66359744D01*
X177611179Y-66179716D01*
X177611179Y-66179715D01*
X177516533Y-66015783D01*
X177389870Y-65875110D01*
X177236730Y-65763848D01*
X177063802Y-65686855D01*
X176878648Y-65647500D01*
X176878646Y-65647500D01*
X176689354Y-65647500D01*
X176689352Y-65647500D01*
X176504197Y-65686855D01*
X176331269Y-65763848D01*
X176178129Y-65875110D01*
X176051466Y-66015783D01*
X175956820Y-66179715D01*
X175898326Y-66359742D01*
X175878540Y-66547999D01*
X161786500Y-66547999D01*
X161786500Y-63526321D01*
X161803113Y-63464321D01*
X161863179Y-63360284D01*
X161863178Y-63360284D01*
X161921674Y-63180256D01*
X161941460Y-62992000D01*
X161927950Y-62863459D01*
X161940520Y-62794732D01*
X161988252Y-62743708D01*
X162051271Y-62726500D01*
X184549770Y-62726500D01*
X184616809Y-62746185D01*
X184637451Y-62762819D01*
X192127228Y-70252596D01*
X192157478Y-70301958D01*
X192212821Y-70472285D01*
X192307466Y-70636216D01*
X192434129Y-70776889D01*
X192587269Y-70888151D01*
X192760197Y-70965144D01*
X192945352Y-71004500D01*
X192945354Y-71004500D01*
X193134648Y-71004500D01*
X193258083Y-70978262D01*
X193319803Y-70965144D01*
X193492730Y-70888151D01*
X193645871Y-70776888D01*
X193772533Y-70636216D01*
X193867179Y-70472284D01*
X193925674Y-70292256D01*
X193945460Y-70104000D01*
X193939191Y-70044350D01*
X195815702Y-70044350D01*
X195825819Y-70282529D01*
X195841685Y-70356148D01*
X195876046Y-70515581D01*
X195964936Y-70736790D01*
X196089931Y-70939795D01*
X196171628Y-71032620D01*
X196247437Y-71118756D01*
X196432914Y-71268519D01*
X196432917Y-71268520D01*
X196432920Y-71268523D01*
X196598702Y-71361135D01*
X196641048Y-71384791D01*
X196865831Y-71464212D01*
X197100797Y-71504500D01*
X197100800Y-71504500D01*
X199076866Y-71504500D01*
X199079497Y-71504500D01*
X199257541Y-71489346D01*
X199411346Y-71449298D01*
X199488250Y-71429275D01*
X199596867Y-71380176D01*
X199705486Y-71331077D01*
X199903003Y-71197579D01*
X200075118Y-71032621D01*
X200216879Y-70840947D01*
X200324207Y-70628074D01*
X200394016Y-70400123D01*
X200424298Y-70163654D01*
X200414180Y-69925468D01*
X200363954Y-69692419D01*
X200275064Y-69471210D01*
X200150069Y-69268205D01*
X199992564Y-69089245D01*
X199992562Y-69089243D01*
X199807085Y-68939480D01*
X199791905Y-68931000D01*
X199695102Y-68876922D01*
X199598951Y-68823208D01*
X199374168Y-68743787D01*
X199139203Y-68703500D01*
X199139200Y-68703500D01*
X197160503Y-68703500D01*
X197157887Y-68703722D01*
X197157878Y-68703723D01*
X196982460Y-68718653D01*
X196751749Y-68778724D01*
X196534514Y-68876922D01*
X196336997Y-69010420D01*
X196164881Y-69175379D01*
X196023121Y-69367052D01*
X195915793Y-69579925D01*
X195881343Y-69692419D01*
X195845984Y-69807877D01*
X195815702Y-70044346D01*
X195815702Y-70044349D01*
X195815702Y-70044350D01*
X193939191Y-70044350D01*
X193925674Y-69915744D01*
X193867179Y-69735716D01*
X193867179Y-69735715D01*
X193772533Y-69571783D01*
X193645870Y-69431110D01*
X193492730Y-69319848D01*
X193319803Y-69242855D01*
X193254669Y-69229011D01*
X193193187Y-69195819D01*
X193192769Y-69195402D01*
X185919549Y-61922181D01*
X185886064Y-61860858D01*
X185891048Y-61791166D01*
X185932920Y-61735233D01*
X185998384Y-61710816D01*
X186007230Y-61710500D01*
X188613770Y-61710500D01*
X188680809Y-61730185D01*
X188701451Y-61746819D01*
X192127228Y-65172596D01*
X192157478Y-65221958D01*
X192212821Y-65392285D01*
X192307466Y-65556216D01*
X192434129Y-65696889D01*
X192587269Y-65808151D01*
X192760197Y-65885144D01*
X192945352Y-65924500D01*
X192945354Y-65924500D01*
X193134648Y-65924500D01*
X193258083Y-65898262D01*
X193319803Y-65885144D01*
X193492730Y-65808151D01*
X193596138Y-65733021D01*
X193612852Y-65720878D01*
X195819500Y-65720878D01*
X195819501Y-65724008D01*
X195819820Y-65727140D01*
X195819821Y-65727141D01*
X195830000Y-65826796D01*
X195885186Y-65993334D01*
X195977288Y-66142657D01*
X196101342Y-66266711D01*
X196101344Y-66266712D01*
X196250666Y-66358814D01*
X196362016Y-66395712D01*
X196417202Y-66413999D01*
X196516858Y-66424180D01*
X196516859Y-66424180D01*
X196519991Y-66424500D01*
X199720008Y-66424499D01*
X199822797Y-66413999D01*
X199989334Y-66358814D01*
X200138656Y-66266712D01*
X200262712Y-66142656D01*
X200354814Y-65993334D01*
X200409999Y-65826797D01*
X200420500Y-65724009D01*
X200420499Y-64323992D01*
X200409999Y-64221203D01*
X200354814Y-64054666D01*
X200297593Y-63961895D01*
X200262711Y-63905342D01*
X200138657Y-63781288D01*
X199989334Y-63689186D01*
X199822797Y-63634000D01*
X199723141Y-63623819D01*
X199723122Y-63623818D01*
X199720009Y-63623500D01*
X199716860Y-63623500D01*
X196523140Y-63623500D01*
X196523120Y-63623500D01*
X196519992Y-63623501D01*
X196516860Y-63623820D01*
X196516858Y-63623821D01*
X196417203Y-63634000D01*
X196250665Y-63689186D01*
X196101342Y-63781288D01*
X195977288Y-63905342D01*
X195885186Y-64054665D01*
X195830000Y-64221202D01*
X195819819Y-64320858D01*
X195819817Y-64320878D01*
X195819500Y-64323991D01*
X195819500Y-64327138D01*
X195819500Y-64327139D01*
X195819500Y-65720859D01*
X195819500Y-65720878D01*
X193612852Y-65720878D01*
X193645870Y-65696889D01*
X193772533Y-65556216D01*
X193867179Y-65392284D01*
X193870557Y-65381888D01*
X193925674Y-65212256D01*
X193945460Y-65024000D01*
X193925674Y-64835744D01*
X193867179Y-64655716D01*
X193867179Y-64655715D01*
X193772533Y-64491783D01*
X193645870Y-64351110D01*
X193492730Y-64239848D01*
X193319803Y-64162855D01*
X193254669Y-64149011D01*
X193193187Y-64115819D01*
X193192769Y-64115402D01*
X189551728Y-60474360D01*
X189539946Y-60460727D01*
X189525609Y-60441469D01*
X189487666Y-60409631D01*
X189479691Y-60402323D01*
X189478329Y-60400961D01*
X189475777Y-60398409D01*
X189451444Y-60379169D01*
X189448647Y-60376890D01*
X189390251Y-60327890D01*
X189373821Y-60317422D01*
X189304691Y-60285186D01*
X189301447Y-60283615D01*
X189254066Y-60259820D01*
X189234433Y-60249960D01*
X189234431Y-60249959D01*
X189233305Y-60249394D01*
X189212205Y-60242059D01*
X189201103Y-60236882D01*
X189148664Y-60190709D01*
X189129512Y-60123516D01*
X189149728Y-60056635D01*
X189202893Y-60011300D01*
X189253508Y-60000500D01*
X201996755Y-60000500D01*
X202003243Y-60000669D01*
X202133628Y-60007503D01*
X202313910Y-60017628D01*
X202326309Y-60018955D01*
X202475647Y-60042608D01*
X202635321Y-60069737D01*
X202646619Y-60072205D01*
X202796693Y-60112418D01*
X202949188Y-60156351D01*
X202959253Y-60159726D01*
X203104710Y-60215562D01*
X203107599Y-60216714D01*
X203251768Y-60276430D01*
X203260589Y-60280497D01*
X203290248Y-60295609D01*
X203400064Y-60351565D01*
X203403748Y-60353521D01*
X203475118Y-60392965D01*
X203539548Y-60428574D01*
X203547061Y-60433081D01*
X203678754Y-60518604D01*
X203682947Y-60521452D01*
X203809147Y-60610996D01*
X203815426Y-60615757D01*
X203891801Y-60677605D01*
X203937567Y-60714665D01*
X203942158Y-60718571D01*
X204057424Y-60821579D01*
X204062478Y-60826358D01*
X204173640Y-60937520D01*
X204178419Y-60942574D01*
X204281427Y-61057840D01*
X204285333Y-61062431D01*
X204384239Y-61184570D01*
X204389002Y-61190851D01*
X204478546Y-61317051D01*
X204481409Y-61321266D01*
X204566907Y-61452921D01*
X204571430Y-61460460D01*
X204646477Y-61596250D01*
X204648433Y-61599934D01*
X204719498Y-61739404D01*
X204723575Y-61748247D01*
X204783259Y-61892337D01*
X204784462Y-61895353D01*
X204840265Y-62040727D01*
X204843655Y-62050836D01*
X204887579Y-62203297D01*
X204927793Y-62353379D01*
X204930262Y-62364685D01*
X204957394Y-62524369D01*
X204981040Y-62673670D01*
X204982371Y-62686108D01*
X204992509Y-62866617D01*
X204999330Y-62996756D01*
X204999500Y-63003246D01*
X204999500Y-121996753D01*
X204999330Y-122003243D01*
X204992509Y-122133382D01*
X204982372Y-122313887D01*
X204981040Y-122326331D01*
X204957394Y-122475629D01*
X204930263Y-122635308D01*
X204927791Y-122646624D01*
X204887579Y-122796701D01*
X204843653Y-122949170D01*
X204840268Y-122959263D01*
X204784462Y-123104645D01*
X204783259Y-123107661D01*
X204723575Y-123251751D01*
X204719498Y-123260594D01*
X204648433Y-123400064D01*
X204646477Y-123403748D01*
X204571430Y-123539538D01*
X204566897Y-123547094D01*
X204481412Y-123678728D01*
X204478546Y-123682947D01*
X204389002Y-123809147D01*
X204384239Y-123815428D01*
X204285333Y-123937567D01*
X204281427Y-123942158D01*
X204178419Y-124057424D01*
X204173640Y-124062478D01*
X204062478Y-124173640D01*
X204057424Y-124178419D01*
X203942158Y-124281427D01*
X203937567Y-124285333D01*
X203815428Y-124384239D01*
X203809147Y-124389002D01*
X203682947Y-124478546D01*
X203678728Y-124481412D01*
X203547094Y-124566897D01*
X203539538Y-124571430D01*
X203403748Y-124646477D01*
X203400064Y-124648433D01*
X203260594Y-124719498D01*
X203251751Y-124723575D01*
X203107661Y-124783259D01*
X203104645Y-124784462D01*
X202959271Y-124840265D01*
X202949162Y-124843655D01*
X202796702Y-124887579D01*
X202646619Y-124927793D01*
X202635313Y-124930262D01*
X202475630Y-124957394D01*
X202326328Y-124981040D01*
X202313890Y-124982371D01*
X202133382Y-124992509D01*
X202003244Y-124999330D01*
X201996754Y-124999500D01*
X120003247Y-124999500D01*
X119996757Y-124999330D01*
X119866617Y-124992509D01*
X119686111Y-124982372D01*
X119673666Y-124981040D01*
X119524369Y-124957394D01*
X119364690Y-124930263D01*
X119353374Y-124927791D01*
X119203298Y-124887579D01*
X119050828Y-124843653D01*
X119040735Y-124840268D01*
X118895353Y-124784462D01*
X118892337Y-124783259D01*
X118748247Y-124723575D01*
X118739404Y-124719498D01*
X118599934Y-124648433D01*
X118596250Y-124646477D01*
X118460460Y-124571430D01*
X118452921Y-124566907D01*
X118321266Y-124481409D01*
X118317051Y-124478546D01*
X118190851Y-124389002D01*
X118184570Y-124384239D01*
X118062431Y-124285333D01*
X118057840Y-124281427D01*
X117942574Y-124178419D01*
X117937520Y-124173640D01*
X117826358Y-124062478D01*
X117821579Y-124057424D01*
X117718571Y-123942158D01*
X117714665Y-123937567D01*
X117615759Y-123815428D01*
X117610996Y-123809147D01*
X117521452Y-123682947D01*
X117518604Y-123678754D01*
X117433081Y-123547061D01*
X117428568Y-123539538D01*
X117353521Y-123403748D01*
X117351565Y-123400064D01*
X117280500Y-123260594D01*
X117276430Y-123251768D01*
X117216714Y-123107599D01*
X117215562Y-123104710D01*
X117159729Y-122959260D01*
X117156346Y-122949170D01*
X117112414Y-122796679D01*
X117107082Y-122776780D01*
X117072202Y-122646605D01*
X117069738Y-122635323D01*
X117042601Y-122475606D01*
X117018956Y-122326316D01*
X117017627Y-122313890D01*
X117017419Y-122310184D01*
X117007490Y-122133382D01*
X117000669Y-122003243D01*
X117000500Y-121996755D01*
X117000500Y-121067764D01*
X119145787Y-121067764D01*
X119175413Y-121337016D01*
X119195017Y-121412000D01*
X119243928Y-121599088D01*
X119297720Y-121725670D01*
X119349871Y-121848392D01*
X119490982Y-122079611D01*
X119662546Y-122285767D01*
X119664255Y-122287820D01*
X119865998Y-122468582D01*
X120091910Y-122618044D01*
X120198211Y-122667876D01*
X120337177Y-122733021D01*
X120555097Y-122798583D01*
X120596569Y-122811060D01*
X120864561Y-122850500D01*
X120864564Y-122850500D01*
X121065369Y-122850500D01*
X121067631Y-122850500D01*
X121270156Y-122835677D01*
X121534553Y-122776780D01*
X121787558Y-122680014D01*
X122023777Y-122547441D01*
X122238177Y-122381888D01*
X122426186Y-122186881D01*
X122583799Y-121966579D01*
X122707656Y-121725675D01*
X122795118Y-121469305D01*
X122844319Y-121202933D01*
X122854212Y-120932235D01*
X122824586Y-120662982D01*
X122756072Y-120400912D01*
X122650130Y-120151610D01*
X122509018Y-119920390D01*
X122509017Y-119920388D01*
X122335746Y-119712181D01*
X122311654Y-119690594D01*
X122134002Y-119531418D01*
X121908090Y-119381956D01*
X121908086Y-119381954D01*
X121662822Y-119266978D01*
X121403437Y-119188941D01*
X121403431Y-119188940D01*
X121135439Y-119149500D01*
X120932369Y-119149500D01*
X120930120Y-119149664D01*
X120930109Y-119149665D01*
X120729843Y-119164322D01*
X120465449Y-119223219D01*
X120212441Y-119319986D01*
X119976223Y-119452559D01*
X119761825Y-119618109D01*
X119573813Y-119813120D01*
X119416201Y-120033420D01*
X119292342Y-120274329D01*
X119204881Y-120530695D01*
X119155680Y-120797066D01*
X119145787Y-121067764D01*
X117000500Y-121067764D01*
X117000500Y-113410999D01*
X119852531Y-113410999D01*
X119872364Y-113637689D01*
X119931261Y-113857497D01*
X120027432Y-114063735D01*
X120157953Y-114250140D01*
X120318859Y-114411046D01*
X120505264Y-114541567D01*
X120505265Y-114541567D01*
X120505266Y-114541568D01*
X120711504Y-114637739D01*
X120931308Y-114696635D01*
X121082435Y-114709857D01*
X121157999Y-114716468D01*
X121157999Y-114716467D01*
X121158000Y-114716468D01*
X121384692Y-114696635D01*
X121604496Y-114637739D01*
X121810734Y-114541568D01*
X121997139Y-114411047D01*
X122158047Y-114250139D01*
X122288568Y-114063734D01*
X122384739Y-113857496D01*
X122443635Y-113637692D01*
X122463468Y-113411000D01*
X122443635Y-113184308D01*
X122384739Y-112964504D01*
X122288568Y-112758266D01*
X122198674Y-112629882D01*
X122158046Y-112571859D01*
X121997140Y-112410953D01*
X121810733Y-112280431D01*
X121752725Y-112253382D01*
X121700285Y-112207210D01*
X121681133Y-112140017D01*
X121701348Y-112073135D01*
X121752725Y-112028618D01*
X121757947Y-112026183D01*
X121810734Y-112001568D01*
X121997139Y-111871047D01*
X122158047Y-111710139D01*
X122288568Y-111523734D01*
X122384739Y-111317496D01*
X122443635Y-111097692D01*
X122463468Y-110871000D01*
X122443635Y-110644308D01*
X122384739Y-110424504D01*
X122288568Y-110218266D01*
X122284030Y-110211784D01*
X122158046Y-110031859D01*
X121997140Y-109870953D01*
X121810733Y-109740431D01*
X121752725Y-109713382D01*
X121700285Y-109667210D01*
X121681133Y-109600017D01*
X121701348Y-109533135D01*
X121752725Y-109488618D01*
X121810734Y-109461568D01*
X121997139Y-109331047D01*
X122158047Y-109170139D01*
X122288568Y-108983734D01*
X122384739Y-108777496D01*
X122443635Y-108557692D01*
X122463468Y-108331000D01*
X122443635Y-108104308D01*
X122384739Y-107884504D01*
X122288568Y-107678266D01*
X122158047Y-107491861D01*
X122158046Y-107491859D01*
X121997140Y-107330953D01*
X121810733Y-107200431D01*
X121752725Y-107173382D01*
X121700285Y-107127210D01*
X121681133Y-107060017D01*
X121701348Y-106993135D01*
X121752725Y-106948618D01*
X121810734Y-106921568D01*
X121997139Y-106791047D01*
X122158047Y-106630139D01*
X122288568Y-106443734D01*
X122384739Y-106237496D01*
X122443635Y-106017692D01*
X122463468Y-105791000D01*
X122443635Y-105564308D01*
X122384739Y-105344504D01*
X122288568Y-105138266D01*
X122270381Y-105112291D01*
X122158046Y-104951859D01*
X121997140Y-104790953D01*
X121810733Y-104660431D01*
X121752725Y-104633382D01*
X121700285Y-104587210D01*
X121681133Y-104520017D01*
X121701348Y-104453135D01*
X121752725Y-104408618D01*
X121810734Y-104381568D01*
X121997139Y-104251047D01*
X122158047Y-104090139D01*
X122288568Y-103903734D01*
X122384739Y-103697496D01*
X122443635Y-103477692D01*
X122463468Y-103251000D01*
X122443635Y-103024308D01*
X122384739Y-102804504D01*
X122288568Y-102598266D01*
X122198917Y-102470229D01*
X122158046Y-102411859D01*
X121997140Y-102250953D01*
X121810733Y-102120431D01*
X121752725Y-102093382D01*
X121700285Y-102047210D01*
X121681133Y-101980017D01*
X121701348Y-101913135D01*
X121752725Y-101868618D01*
X121810734Y-101841568D01*
X121997139Y-101711047D01*
X122158047Y-101550139D01*
X122288568Y-101363734D01*
X122384739Y-101157496D01*
X122443635Y-100937692D01*
X122463468Y-100711000D01*
X122443635Y-100484308D01*
X122384739Y-100264504D01*
X122288568Y-100058266D01*
X122284030Y-100051784D01*
X122158046Y-99871859D01*
X121997140Y-99710953D01*
X121810733Y-99580431D01*
X121769727Y-99561310D01*
X121752724Y-99553381D01*
X121700285Y-99507210D01*
X121681133Y-99440017D01*
X121701348Y-99373135D01*
X121752725Y-99328618D01*
X121810734Y-99301568D01*
X121997139Y-99171047D01*
X122158047Y-99010139D01*
X122288568Y-98823734D01*
X122384739Y-98617496D01*
X122443635Y-98397692D01*
X122463468Y-98171000D01*
X122443635Y-97944308D01*
X122384739Y-97724504D01*
X122288568Y-97518266D01*
X122158047Y-97331861D01*
X122158046Y-97331859D01*
X121997140Y-97170953D01*
X121810733Y-97040431D01*
X121752725Y-97013382D01*
X121700285Y-96967210D01*
X121681133Y-96900017D01*
X121701348Y-96833135D01*
X121752725Y-96788618D01*
X121760932Y-96784791D01*
X121810734Y-96761568D01*
X121997139Y-96631047D01*
X122158047Y-96470139D01*
X122288568Y-96283734D01*
X122384739Y-96077496D01*
X122443635Y-95857692D01*
X122463468Y-95631000D01*
X122443635Y-95404308D01*
X122384739Y-95184504D01*
X122288568Y-94978266D01*
X122284030Y-94971784D01*
X122158046Y-94791859D01*
X121997140Y-94630953D01*
X121810733Y-94500431D01*
X121752725Y-94473382D01*
X121700285Y-94427210D01*
X121681133Y-94360017D01*
X121701348Y-94293135D01*
X121752725Y-94248618D01*
X121810734Y-94221568D01*
X121997139Y-94091047D01*
X122158047Y-93930139D01*
X122288568Y-93743734D01*
X122384739Y-93537496D01*
X122443635Y-93317692D01*
X122463468Y-93091000D01*
X122443635Y-92864308D01*
X122384739Y-92644504D01*
X122288568Y-92438266D01*
X122220113Y-92340500D01*
X122158046Y-92251859D01*
X121997140Y-92090953D01*
X121810733Y-91960431D01*
X121752725Y-91933382D01*
X121700285Y-91887210D01*
X121681133Y-91820017D01*
X121701348Y-91753135D01*
X121752725Y-91708618D01*
X121760932Y-91704791D01*
X121810734Y-91681568D01*
X121997139Y-91551047D01*
X122158047Y-91390139D01*
X122288568Y-91203734D01*
X122384739Y-90997496D01*
X122443635Y-90777692D01*
X122463468Y-90551000D01*
X122443635Y-90324308D01*
X122384739Y-90104504D01*
X122288568Y-89898266D01*
X122284030Y-89891784D01*
X122158046Y-89711859D01*
X121997140Y-89550953D01*
X121810733Y-89420431D01*
X121752725Y-89393382D01*
X121700285Y-89347210D01*
X121681133Y-89280017D01*
X121701348Y-89213135D01*
X121752725Y-89168618D01*
X121810734Y-89141568D01*
X121997139Y-89011047D01*
X122158047Y-88850139D01*
X122288568Y-88663734D01*
X122384739Y-88457496D01*
X122443635Y-88237692D01*
X122463468Y-88011000D01*
X122443635Y-87784308D01*
X122384739Y-87564504D01*
X122288568Y-87358266D01*
X122158047Y-87171861D01*
X122158046Y-87171859D01*
X121997140Y-87010953D01*
X121810733Y-86880431D01*
X121752725Y-86853382D01*
X121700285Y-86807210D01*
X121681133Y-86740017D01*
X121701348Y-86673135D01*
X121752725Y-86628618D01*
X121810734Y-86601568D01*
X121997139Y-86471047D01*
X122158047Y-86310139D01*
X122288568Y-86123734D01*
X122384739Y-85917496D01*
X122443635Y-85697692D01*
X122463468Y-85471000D01*
X122443635Y-85244308D01*
X122384739Y-85024504D01*
X122288568Y-84818266D01*
X122220113Y-84720500D01*
X122158046Y-84631859D01*
X121997140Y-84470953D01*
X121810733Y-84340431D01*
X121752725Y-84313382D01*
X121700285Y-84267210D01*
X121681133Y-84200017D01*
X121701348Y-84133135D01*
X121752725Y-84088618D01*
X121810734Y-84061568D01*
X121997139Y-83931047D01*
X122158047Y-83770139D01*
X122288568Y-83583734D01*
X122384739Y-83377496D01*
X122443635Y-83157692D01*
X122463468Y-82931000D01*
X122443635Y-82704308D01*
X122384739Y-82484504D01*
X122288568Y-82278266D01*
X122158047Y-82091861D01*
X122158046Y-82091859D01*
X121997140Y-81930953D01*
X121810733Y-81800431D01*
X121752725Y-81773382D01*
X121700285Y-81727210D01*
X121681133Y-81660017D01*
X121701348Y-81593135D01*
X121752725Y-81548618D01*
X121760932Y-81544791D01*
X121810734Y-81521568D01*
X121997139Y-81391047D01*
X122158047Y-81230139D01*
X122288568Y-81043734D01*
X122384739Y-80837496D01*
X122443635Y-80617692D01*
X122463468Y-80391000D01*
X122443635Y-80164308D01*
X122384739Y-79944504D01*
X122288568Y-79738266D01*
X122213608Y-79631210D01*
X122158046Y-79551859D01*
X121997140Y-79390953D01*
X121810733Y-79260431D01*
X121752725Y-79233382D01*
X121700285Y-79187210D01*
X121681133Y-79120017D01*
X121701348Y-79053135D01*
X121752725Y-79008618D01*
X121810734Y-78981568D01*
X121997139Y-78851047D01*
X122158047Y-78690139D01*
X122288568Y-78503734D01*
X122384739Y-78297496D01*
X122443635Y-78077692D01*
X122463468Y-77851000D01*
X122443635Y-77624308D01*
X122384739Y-77404504D01*
X122288568Y-77198266D01*
X122225489Y-77108178D01*
X122158046Y-77011859D01*
X121997140Y-76850953D01*
X121810733Y-76720431D01*
X121752725Y-76693382D01*
X121700285Y-76647210D01*
X121681133Y-76580017D01*
X121701348Y-76513135D01*
X121752725Y-76468618D01*
X121810734Y-76441568D01*
X121997139Y-76311047D01*
X122158047Y-76150139D01*
X122288568Y-75963734D01*
X122384739Y-75757496D01*
X122443635Y-75537692D01*
X122463468Y-75311000D01*
X122443635Y-75084308D01*
X122384739Y-74864504D01*
X122288568Y-74658266D01*
X122286678Y-74655566D01*
X122158046Y-74471859D01*
X121997140Y-74310953D01*
X121810733Y-74180431D01*
X121752725Y-74153382D01*
X121700285Y-74107210D01*
X121681133Y-74040017D01*
X121701348Y-73973135D01*
X121752725Y-73928618D01*
X121810734Y-73901568D01*
X121997139Y-73771047D01*
X122158047Y-73610139D01*
X122288568Y-73423734D01*
X122384739Y-73217496D01*
X122443635Y-72997692D01*
X122463468Y-72771000D01*
X122443635Y-72544308D01*
X122384739Y-72324504D01*
X122288568Y-72118266D01*
X122234231Y-72040663D01*
X122158046Y-71931859D01*
X121997140Y-71770953D01*
X121971913Y-71753289D01*
X121928288Y-71698712D01*
X121921094Y-71629214D01*
X121952617Y-71566859D01*
X122012846Y-71531445D01*
X122029783Y-71528424D01*
X122065375Y-71524597D01*
X122200089Y-71474352D01*
X122315188Y-71388188D01*
X122401352Y-71273089D01*
X122451599Y-71138371D01*
X122457645Y-71082132D01*
X122458000Y-71075518D01*
X122458000Y-70481000D01*
X121473686Y-70481000D01*
X121485641Y-70469045D01*
X121543165Y-70356148D01*
X121562986Y-70231000D01*
X121543165Y-70105852D01*
X121485641Y-69992955D01*
X121473686Y-69981000D01*
X122458000Y-69981000D01*
X122458000Y-69386481D01*
X122457645Y-69379867D01*
X122451599Y-69323628D01*
X122401352Y-69188910D01*
X122315188Y-69073811D01*
X122200089Y-68987647D01*
X122065371Y-68937400D01*
X122009132Y-68931354D01*
X122002518Y-68931000D01*
X121408000Y-68931000D01*
X121408000Y-69915314D01*
X121396045Y-69903359D01*
X121283148Y-69845835D01*
X121189481Y-69831000D01*
X121126519Y-69831000D01*
X121032852Y-69845835D01*
X120919955Y-69903359D01*
X120908000Y-69915314D01*
X120908000Y-68931000D01*
X120313482Y-68931000D01*
X120306867Y-68931354D01*
X120250628Y-68937400D01*
X120115910Y-68987647D01*
X120000811Y-69073811D01*
X119914647Y-69188910D01*
X119864400Y-69323628D01*
X119858354Y-69379867D01*
X119858000Y-69386481D01*
X119858000Y-69981000D01*
X120842314Y-69981000D01*
X120830359Y-69992955D01*
X120772835Y-70105852D01*
X120753014Y-70231000D01*
X120772835Y-70356148D01*
X120830359Y-70469045D01*
X120842314Y-70481000D01*
X119858000Y-70481000D01*
X119858000Y-71075518D01*
X119858354Y-71082132D01*
X119864400Y-71138371D01*
X119914647Y-71273089D01*
X120000811Y-71388188D01*
X120115910Y-71474352D01*
X120250624Y-71524597D01*
X120286217Y-71528424D01*
X120350768Y-71555162D01*
X120390617Y-71612554D01*
X120393112Y-71682379D01*
X120357460Y-71742468D01*
X120344088Y-71753288D01*
X120318859Y-71770953D01*
X120157953Y-71931859D01*
X120027432Y-72118264D01*
X119931261Y-72324502D01*
X119872364Y-72544310D01*
X119852531Y-72770999D01*
X119872364Y-72997689D01*
X119931261Y-73217497D01*
X120027432Y-73423735D01*
X120157953Y-73610140D01*
X120318859Y-73771046D01*
X120394876Y-73824273D01*
X120505266Y-73901568D01*
X120563275Y-73928618D01*
X120615714Y-73974791D01*
X120634865Y-74041985D01*
X120614649Y-74108866D01*
X120563275Y-74153382D01*
X120505263Y-74180433D01*
X120318859Y-74310953D01*
X120157953Y-74471859D01*
X120027432Y-74658264D01*
X119931261Y-74864502D01*
X119872364Y-75084310D01*
X119852531Y-75311000D01*
X119872364Y-75537689D01*
X119931261Y-75757497D01*
X120027432Y-75963735D01*
X120157953Y-76150140D01*
X120318859Y-76311046D01*
X120371787Y-76348106D01*
X120505266Y-76441568D01*
X120563275Y-76468618D01*
X120615714Y-76514791D01*
X120634865Y-76581985D01*
X120614649Y-76648866D01*
X120563275Y-76693382D01*
X120505263Y-76720433D01*
X120318859Y-76850953D01*
X120157953Y-77011859D01*
X120027432Y-77198264D01*
X119931261Y-77404502D01*
X119872364Y-77624310D01*
X119852531Y-77851000D01*
X119872364Y-78077689D01*
X119931261Y-78297497D01*
X120027432Y-78503735D01*
X120157953Y-78690140D01*
X120318859Y-78851046D01*
X120358288Y-78878654D01*
X120505266Y-78981568D01*
X120563275Y-79008618D01*
X120615714Y-79054791D01*
X120634865Y-79121985D01*
X120614649Y-79188866D01*
X120563275Y-79233382D01*
X120505263Y-79260433D01*
X120318859Y-79390953D01*
X120157953Y-79551859D01*
X120027432Y-79738264D01*
X119931261Y-79944502D01*
X119872364Y-80164310D01*
X119852531Y-80390999D01*
X119872364Y-80617689D01*
X119931261Y-80837497D01*
X120027432Y-81043735D01*
X120157953Y-81230140D01*
X120318859Y-81391046D01*
X120461720Y-81491077D01*
X120505266Y-81521568D01*
X120555068Y-81544791D01*
X120563275Y-81548618D01*
X120615714Y-81594791D01*
X120634865Y-81661985D01*
X120614649Y-81728866D01*
X120563275Y-81773382D01*
X120505263Y-81800433D01*
X120318859Y-81930953D01*
X120157953Y-82091859D01*
X120027432Y-82278264D01*
X119931261Y-82484502D01*
X119872364Y-82704310D01*
X119852531Y-82930999D01*
X119872364Y-83157689D01*
X119931261Y-83377497D01*
X120027432Y-83583735D01*
X120157953Y-83770140D01*
X120318859Y-83931046D01*
X120394876Y-83984273D01*
X120505266Y-84061568D01*
X120563275Y-84088618D01*
X120615714Y-84134791D01*
X120634865Y-84201985D01*
X120614649Y-84268866D01*
X120563275Y-84313382D01*
X120505263Y-84340433D01*
X120318859Y-84470953D01*
X120157953Y-84631859D01*
X120027432Y-84818264D01*
X119931261Y-85024502D01*
X119872364Y-85244310D01*
X119852531Y-85471000D01*
X119872364Y-85697689D01*
X119931261Y-85917497D01*
X120027432Y-86123735D01*
X120157953Y-86310140D01*
X120318859Y-86471046D01*
X120371787Y-86508106D01*
X120505266Y-86601568D01*
X120563275Y-86628618D01*
X120615714Y-86674791D01*
X120634865Y-86741985D01*
X120614649Y-86808866D01*
X120563275Y-86853382D01*
X120505263Y-86880433D01*
X120318859Y-87010953D01*
X120157953Y-87171859D01*
X120027432Y-87358264D01*
X119931261Y-87564502D01*
X119872364Y-87784310D01*
X119852531Y-88011000D01*
X119872364Y-88237689D01*
X119931261Y-88457497D01*
X120027432Y-88663735D01*
X120157953Y-88850140D01*
X120318859Y-89011046D01*
X120358288Y-89038654D01*
X120505266Y-89141568D01*
X120563273Y-89168617D01*
X120615713Y-89214789D01*
X120634865Y-89281982D01*
X120614650Y-89348864D01*
X120563276Y-89393380D01*
X120505266Y-89420431D01*
X120318859Y-89550953D01*
X120157953Y-89711859D01*
X120027432Y-89898264D01*
X119931261Y-90104502D01*
X119872364Y-90324310D01*
X119852531Y-90550999D01*
X119872364Y-90777689D01*
X119931261Y-90997497D01*
X120027432Y-91203735D01*
X120157953Y-91390140D01*
X120318859Y-91551046D01*
X120429128Y-91628256D01*
X120505266Y-91681568D01*
X120555068Y-91704791D01*
X120563275Y-91708618D01*
X120615714Y-91754791D01*
X120634865Y-91821985D01*
X120614649Y-91888866D01*
X120563275Y-91933382D01*
X120505263Y-91960433D01*
X120318859Y-92090953D01*
X120157953Y-92251859D01*
X120027432Y-92438264D01*
X119931261Y-92644502D01*
X119872364Y-92864310D01*
X119852531Y-93090999D01*
X119872364Y-93317689D01*
X119931261Y-93537497D01*
X120027432Y-93743735D01*
X120157953Y-93930140D01*
X120318859Y-94091046D01*
X120358288Y-94118654D01*
X120505266Y-94221568D01*
X120563275Y-94248618D01*
X120615714Y-94294791D01*
X120634865Y-94361985D01*
X120614649Y-94428866D01*
X120563275Y-94473382D01*
X120505263Y-94500433D01*
X120318859Y-94630953D01*
X120157953Y-94791859D01*
X120027432Y-94978264D01*
X119931261Y-95184502D01*
X119872364Y-95404310D01*
X119852531Y-95631000D01*
X119872364Y-95857689D01*
X119931261Y-96077497D01*
X120027432Y-96283735D01*
X120157953Y-96470140D01*
X120318859Y-96631046D01*
X120461720Y-96731077D01*
X120505266Y-96761568D01*
X120555068Y-96784791D01*
X120563275Y-96788618D01*
X120615714Y-96834791D01*
X120634865Y-96901985D01*
X120614649Y-96968866D01*
X120563275Y-97013381D01*
X120542576Y-97023033D01*
X120505263Y-97040433D01*
X120318859Y-97170953D01*
X120157953Y-97331859D01*
X120027432Y-97518264D01*
X119931261Y-97724502D01*
X119872364Y-97944310D01*
X119852531Y-98171000D01*
X119872364Y-98397689D01*
X119931261Y-98617497D01*
X120027432Y-98823735D01*
X120157953Y-99010140D01*
X120318859Y-99171046D01*
X120444078Y-99258724D01*
X120505266Y-99301568D01*
X120563275Y-99328618D01*
X120615714Y-99374791D01*
X120634865Y-99441985D01*
X120614649Y-99508866D01*
X120563275Y-99553381D01*
X120542576Y-99563033D01*
X120505263Y-99580433D01*
X120318859Y-99710953D01*
X120157953Y-99871859D01*
X120027432Y-100058264D01*
X119931261Y-100264502D01*
X119872364Y-100484310D01*
X119852531Y-100710999D01*
X119872364Y-100937689D01*
X119931261Y-101157497D01*
X120027432Y-101363735D01*
X120157953Y-101550140D01*
X120318859Y-101711046D01*
X120418682Y-101780942D01*
X120505266Y-101841568D01*
X120563273Y-101868617D01*
X120615713Y-101914789D01*
X120634865Y-101981982D01*
X120614650Y-102048864D01*
X120563276Y-102093380D01*
X120505266Y-102120431D01*
X120318859Y-102250953D01*
X120157953Y-102411859D01*
X120027432Y-102598264D01*
X119931261Y-102804502D01*
X119872364Y-103024310D01*
X119852531Y-103250999D01*
X119872364Y-103477689D01*
X119931261Y-103697497D01*
X120027432Y-103903735D01*
X120157953Y-104090140D01*
X120318859Y-104251046D01*
X120505263Y-104381566D01*
X120505266Y-104381568D01*
X120563275Y-104408618D01*
X120615714Y-104454791D01*
X120634865Y-104521985D01*
X120614649Y-104588866D01*
X120563275Y-104633381D01*
X120542576Y-104643033D01*
X120505263Y-104660433D01*
X120318859Y-104790953D01*
X120157953Y-104951859D01*
X120027432Y-105138264D01*
X119931261Y-105344502D01*
X119872364Y-105564310D01*
X119852531Y-105791000D01*
X119872364Y-106017689D01*
X119931261Y-106237497D01*
X120027432Y-106443735D01*
X120157953Y-106630140D01*
X120318859Y-106791046D01*
X120505263Y-106921566D01*
X120505266Y-106921568D01*
X120563275Y-106948618D01*
X120615714Y-106994791D01*
X120634865Y-107061985D01*
X120614649Y-107128866D01*
X120563275Y-107173382D01*
X120505263Y-107200433D01*
X120318859Y-107330953D01*
X120157953Y-107491859D01*
X120027432Y-107678264D01*
X119931261Y-107884502D01*
X119872364Y-108104310D01*
X119852531Y-108331000D01*
X119872364Y-108557689D01*
X119931261Y-108777497D01*
X120027432Y-108983735D01*
X120157953Y-109170140D01*
X120318859Y-109331046D01*
X120429128Y-109408256D01*
X120505266Y-109461568D01*
X120563273Y-109488617D01*
X120615713Y-109534789D01*
X120634865Y-109601982D01*
X120614650Y-109668864D01*
X120563276Y-109713380D01*
X120505266Y-109740431D01*
X120318859Y-109870953D01*
X120157953Y-110031859D01*
X120027432Y-110218264D01*
X119931261Y-110424502D01*
X119872364Y-110644310D01*
X119852531Y-110870999D01*
X119872364Y-111097689D01*
X119931261Y-111317497D01*
X120027432Y-111523735D01*
X120157953Y-111710140D01*
X120318859Y-111871046D01*
X120505263Y-112001566D01*
X120505266Y-112001568D01*
X120558053Y-112026183D01*
X120563275Y-112028618D01*
X120615714Y-112074791D01*
X120634865Y-112141985D01*
X120614649Y-112208866D01*
X120563275Y-112253382D01*
X120505263Y-112280433D01*
X120318859Y-112410953D01*
X120157953Y-112571859D01*
X120027432Y-112758264D01*
X119931261Y-112964502D01*
X119872364Y-113184310D01*
X119852531Y-113410999D01*
X117000500Y-113410999D01*
X117000500Y-64067764D01*
X119145787Y-64067764D01*
X119175413Y-64337016D01*
X119209998Y-64469304D01*
X119243928Y-64599088D01*
X119297720Y-64725670D01*
X119349871Y-64848392D01*
X119490982Y-65079611D01*
X119601370Y-65212256D01*
X119664255Y-65287820D01*
X119865998Y-65468582D01*
X120091910Y-65618044D01*
X120198211Y-65667876D01*
X120337177Y-65733021D01*
X120586900Y-65808151D01*
X120596569Y-65811060D01*
X120864561Y-65850500D01*
X120864564Y-65850500D01*
X121065369Y-65850500D01*
X121067631Y-65850500D01*
X121270156Y-65835677D01*
X121534553Y-65776780D01*
X121787558Y-65680014D01*
X122023777Y-65547441D01*
X122238177Y-65381888D01*
X122426186Y-65186881D01*
X122583799Y-64966579D01*
X122707656Y-64725675D01*
X122795118Y-64469305D01*
X122844319Y-64202933D01*
X122854212Y-63932235D01*
X122824586Y-63662982D01*
X122756072Y-63400912D01*
X122650130Y-63151610D01*
X122559603Y-63003277D01*
X122509017Y-62920388D01*
X122335746Y-62712181D01*
X122230759Y-62618112D01*
X122134002Y-62531418D01*
X121908090Y-62381956D01*
X121871248Y-62364685D01*
X121662822Y-62266978D01*
X121403437Y-62188941D01*
X121403431Y-62188940D01*
X121135439Y-62149500D01*
X120932369Y-62149500D01*
X120930120Y-62149664D01*
X120930109Y-62149665D01*
X120729843Y-62164322D01*
X120465449Y-62223219D01*
X120212441Y-62319986D01*
X119976223Y-62452559D01*
X119761825Y-62618109D01*
X119573813Y-62813120D01*
X119416201Y-63033420D01*
X119292342Y-63274329D01*
X119204881Y-63530695D01*
X119155680Y-63797066D01*
X119145787Y-64067764D01*
X117000500Y-64067764D01*
X117000500Y-63050339D01*
X117002353Y-63044026D01*
X117000638Y-63003277D01*
X117000536Y-62996709D01*
X117001913Y-62873379D01*
X117004810Y-62681668D01*
X117005710Y-62668536D01*
X117023879Y-62520070D01*
X117046127Y-62354559D01*
X117048345Y-62342580D01*
X117084035Y-62191762D01*
X117124581Y-62034370D01*
X117127866Y-62023659D01*
X117180294Y-61876838D01*
X117181401Y-61873870D01*
X117239132Y-61725303D01*
X117243234Y-61715918D01*
X117311991Y-61574873D01*
X117313903Y-61571123D01*
X117388295Y-61431361D01*
X117392952Y-61423352D01*
X117477127Y-61290331D01*
X117480025Y-61285965D01*
X117570132Y-61156390D01*
X117575043Y-61149811D01*
X117673580Y-61026653D01*
X117677605Y-61021879D01*
X117782238Y-60904049D01*
X117787213Y-60898771D01*
X117898771Y-60787213D01*
X117904049Y-60782238D01*
X118021879Y-60677605D01*
X118026653Y-60673580D01*
X118149811Y-60575043D01*
X118156390Y-60570132D01*
X118285965Y-60480025D01*
X118290331Y-60477127D01*
X118423352Y-60392952D01*
X118431361Y-60388295D01*
X118571123Y-60313903D01*
X118574873Y-60311991D01*
X118715918Y-60243234D01*
X118725303Y-60239132D01*
X118873870Y-60181401D01*
X118876838Y-60180294D01*
X119023655Y-60127868D01*
X119034385Y-60124577D01*
X119191762Y-60084035D01*
X119342600Y-60048340D01*
X119354554Y-60046128D01*
X119520013Y-60023886D01*
X119668531Y-60005711D01*
X119681682Y-60004810D01*
X119873367Y-60001913D01*
X119996708Y-60000536D01*
X120003278Y-60000638D01*
X120032504Y-60001868D01*
X120048637Y-60000500D01*
X142486649Y-60000500D01*
X142553688Y-60020185D01*
G37*
%TD.AperFunction*%
%TD*%
M02*
