M48
; DRILL file {KiCad 7.0.2} date Mon May 15 17:20:55 2023
; FORMAT={-:-/ absolute / metric / decimal}
; #@! TF.CreationDate,2023-05-15T17:20:55+02:00
; #@! TF.GenerationSoftware,Kicad,Pcbnew,7.0.2
; #@! TF.FileFunction,Plated,1,2,PTH
FMAT,2
METRIC
; #@! TA.AperFunction,Plated,PTH,ViaDrill
T1C0.400
; #@! TA.AperFunction,Plated,PTH,ComponentDrill
T2C0.800
; #@! TA.AperFunction,Plated,PTH,ComponentDrill
T3C1.000
; #@! TA.AperFunction,Plated,PTH,ComponentDrill
T4C1.200
%
G90
G05
T1
X124.46Y-91.44
X124.46Y-111.506
X141.122Y-98.196
X144.013Y-118.364
X146.812Y-76.2
X156.972Y-71.12
X159.004Y-111.252
X159.512Y-65.024
X160.02Y-117.856
X161.036Y-62.992
X162.56Y-67.056
X162.56Y-68.072
X163.576Y-67.056
X163.576Y-68.072
X164.592Y-67.056
X164.592Y-68.072
X169.672Y-100.076
X172.72Y-116.84
X174.752Y-119.38
X176.784Y-66.548
X176.788Y-83.82
X177.8Y-98.552
X178.308Y-114.3
X184.404Y-100.584
X184.404Y-109.22
X184.404Y-110.744
X185.896Y-120.904
X185.896Y-121.92
X187.42Y-122.428
X189.484Y-110.744
X190.618Y-120.396
X192.532Y-116.332
X193.04Y-65.024
X193.04Y-70.104
X193.294Y-90.424
X193.294Y-95.504
X195.363Y-120.4
X197.104Y-117.348
X203.708Y-115.824
T2
X121.158Y-70.231
X121.158Y-72.771
X121.158Y-75.311
X121.158Y-77.851
X121.158Y-80.391
X121.158Y-82.931
X121.158Y-85.471
X121.158Y-88.011
X121.158Y-90.551
X121.158Y-93.091
X121.158Y-95.631
X121.158Y-98.171
X121.158Y-100.711
X121.158Y-103.251
X121.158Y-105.791
X121.158Y-108.331
X121.158Y-110.871
X121.158Y-113.411
X144.018Y-70.231
X144.018Y-72.771
X144.018Y-75.311
X144.018Y-77.851
X144.018Y-80.391
X144.018Y-82.931
X144.018Y-85.471
X144.018Y-88.011
X144.018Y-90.551
X144.018Y-93.091
X144.018Y-95.631
X144.018Y-98.171
X144.018Y-100.711
X144.018Y-103.251
X144.018Y-105.791
X144.018Y-108.331
X144.018Y-110.871
X144.018Y-113.411
X155.712Y-97.249
X155.712Y-99.789
X155.712Y-102.329
X155.712Y-104.869
X163.332Y-97.249
X163.332Y-99.789
X163.332Y-102.329
X163.332Y-104.869
T3
X148.752Y-111.76
X153.752Y-111.76
X170.688Y-104.312
X170.688Y-109.312
X178.816Y-74.584
X178.816Y-79.584
T4
X198.12Y-65.024
X198.12Y-70.104
X198.12Y-75.184
X198.12Y-80.264
X198.12Y-85.344
X198.12Y-90.424
X198.12Y-95.504
X198.12Y-100.584
T0
M30
