%TF.GenerationSoftware,KiCad,Pcbnew,7.0.2*%
%TF.CreationDate,2023-05-15T17:20:20+02:00*%
%TF.ProjectId,projektkicad,70726f6a-656b-4746-9b69-6361642e6b69,rev?*%
%TF.SameCoordinates,Original*%
%TF.FileFunction,Soldermask,Top*%
%TF.FilePolarity,Negative*%
%FSLAX46Y46*%
G04 Gerber Fmt 4.6, Leading zero omitted, Abs format (unit mm)*
G04 Created by KiCad (PCBNEW 7.0.2) date 2023-05-15 17:20:20*
%MOMM*%
%LPD*%
G01*
G04 APERTURE LIST*
G04 Aperture macros list*
%AMRoundRect*
0 Rectangle with rounded corners*
0 $1 Rounding radius*
0 $2 $3 $4 $5 $6 $7 $8 $9 X,Y pos of 4 corners*
0 Add a 4 corners polygon primitive as box body*
4,1,4,$2,$3,$4,$5,$6,$7,$8,$9,$2,$3,0*
0 Add four circle primitives for the rounded corners*
1,1,$1+$1,$2,$3*
1,1,$1+$1,$4,$5*
1,1,$1+$1,$6,$7*
1,1,$1+$1,$8,$9*
0 Add four rect primitives between the rounded corners*
20,1,$1+$1,$2,$3,$4,$5,0*
20,1,$1+$1,$4,$5,$6,$7,0*
20,1,$1+$1,$6,$7,$8,$9,0*
20,1,$1+$1,$8,$9,$2,$3,0*%
G04 Aperture macros list end*
%ADD10RoundRect,0.250000X-1.550000X0.650000X-1.550000X-0.650000X1.550000X-0.650000X1.550000X0.650000X0*%
%ADD11O,3.600000X1.800000*%
%ADD12RoundRect,0.250000X0.350000X0.450000X-0.350000X0.450000X-0.350000X-0.450000X0.350000X-0.450000X0*%
%ADD13RoundRect,0.250000X1.100000X-0.412500X1.100000X0.412500X-1.100000X0.412500X-1.100000X-0.412500X0*%
%ADD14RoundRect,0.250000X0.337500X0.475000X-0.337500X0.475000X-0.337500X-0.475000X0.337500X-0.475000X0*%
%ADD15RoundRect,0.250000X0.475000X-0.337500X0.475000X0.337500X-0.475000X0.337500X-0.475000X-0.337500X0*%
%ADD16RoundRect,0.250000X-0.350000X-0.450000X0.350000X-0.450000X0.350000X0.450000X-0.350000X0.450000X0*%
%ADD17R,1.600000X5.700000*%
%ADD18RoundRect,0.250000X-0.450000X0.350000X-0.450000X-0.350000X0.450000X-0.350000X0.450000X0.350000X0*%
%ADD19R,2.000000X2.000000*%
%ADD20C,2.000000*%
%ADD21RoundRect,0.250000X-0.650000X1.500000X-0.650000X-1.500000X0.650000X-1.500000X0.650000X1.500000X0*%
%ADD22RoundRect,0.250000X0.450000X-0.350000X0.450000X0.350000X-0.450000X0.350000X-0.450000X-0.350000X0*%
%ADD23RoundRect,0.250000X1.500000X0.650000X-1.500000X0.650000X-1.500000X-0.650000X1.500000X-0.650000X0*%
%ADD24RoundRect,0.250000X-1.100000X0.412500X-1.100000X-0.412500X1.100000X-0.412500X1.100000X0.412500X0*%
%ADD25RoundRect,0.250000X0.650000X-1.500000X0.650000X1.500000X-0.650000X1.500000X-0.650000X-1.500000X0*%
%ADD26RoundRect,0.250000X-0.337500X-0.475000X0.337500X-0.475000X0.337500X0.475000X-0.337500X0.475000X0*%
%ADD27C,3.200000*%
%ADD28R,1.100000X0.250000*%
%ADD29RoundRect,0.250000X-0.475000X0.337500X-0.475000X-0.337500X0.475000X-0.337500X0.475000X0.337500X0*%
%ADD30RoundRect,0.150000X0.825000X0.150000X-0.825000X0.150000X-0.825000X-0.150000X0.825000X-0.150000X0*%
%ADD31R,1.600000X1.600000*%
%ADD32O,1.600000X1.600000*%
%ADD33RoundRect,0.150000X-0.825000X-0.150000X0.825000X-0.150000X0.825000X0.150000X-0.825000X0.150000X0*%
%ADD34RoundRect,0.150000X-0.150000X0.825000X-0.150000X-0.825000X0.150000X-0.825000X0.150000X0.825000X0*%
%ADD35RoundRect,0.250000X-1.500000X-0.650000X1.500000X-0.650000X1.500000X0.650000X-1.500000X0.650000X0*%
G04 APERTURE END LIST*
D10*
%TO.C,J1*%
X198120000Y-65024000D03*
D11*
X198120000Y-70104000D03*
X198120000Y-75184000D03*
X198120000Y-80264000D03*
X198120000Y-85344000D03*
X198120000Y-90424000D03*
X198120000Y-95504000D03*
X198120000Y-100584000D03*
%TD*%
D12*
%TO.C,R21*%
X173720000Y-62484000D03*
X171720000Y-62484000D03*
%TD*%
D13*
%TO.C,C12*%
X151892000Y-68149000D03*
X151892000Y-65024000D03*
%TD*%
D14*
%TO.C,C2*%
X182356000Y-119380000D03*
X180281000Y-119380000D03*
%TD*%
D15*
%TO.C,C13*%
X156972000Y-74697500D03*
X156972000Y-72622500D03*
%TD*%
D16*
%TO.C,R15*%
X200125000Y-105664000D03*
X202125000Y-105664000D03*
%TD*%
D17*
%TO.C,L1*%
X155638000Y-90932000D03*
X160338000Y-90932000D03*
%TD*%
D16*
%TO.C,R13*%
X200168000Y-113284000D03*
X202168000Y-113284000D03*
%TD*%
D14*
%TO.C,C14*%
X173757500Y-65024000D03*
X171682500Y-65024000D03*
%TD*%
D16*
%TO.C,R2*%
X180350500Y-111252000D03*
X182350500Y-111252000D03*
%TD*%
D12*
%TO.C,R3*%
X182318500Y-100584000D03*
X180318500Y-100584000D03*
%TD*%
D18*
%TO.C,R17*%
X167132000Y-99054500D03*
X167132000Y-101054500D03*
%TD*%
D19*
%TO.C,C6*%
X170688000Y-104312323D03*
D20*
X170688000Y-109312323D03*
%TD*%
D21*
%TO.C,D5*%
X151892000Y-72176000D03*
X151892000Y-77176000D03*
%TD*%
D16*
%TO.C,R20*%
X162576000Y-109220000D03*
X164576000Y-109220000D03*
%TD*%
D22*
%TO.C,R4*%
X177800000Y-105648000D03*
X177800000Y-103648000D03*
%TD*%
D23*
%TO.C,D4*%
X152828000Y-119888000D03*
X147828000Y-119888000D03*
%TD*%
D24*
%TO.C,C11*%
X155956000Y-65024000D03*
X155956000Y-68149000D03*
%TD*%
D16*
%TO.C,R12*%
X195088000Y-115824000D03*
X197088000Y-115824000D03*
%TD*%
D15*
%TO.C,C7*%
X151384000Y-104648000D03*
X151384000Y-102573000D03*
%TD*%
D22*
%TO.C,R6*%
X176276000Y-114268000D03*
X176276000Y-112268000D03*
%TD*%
D25*
%TO.C,D3*%
X188468000Y-79716000D03*
X188468000Y-74716000D03*
%TD*%
D22*
%TO.C,R5*%
X177800000Y-110220000D03*
X177800000Y-108220000D03*
%TD*%
D26*
%TO.C,C5*%
X200130500Y-110744000D03*
X202205500Y-110744000D03*
%TD*%
D18*
%TO.C,R10*%
X176784000Y-119396000D03*
X176784000Y-121396000D03*
%TD*%
D15*
%TO.C,C9*%
X166116000Y-120396000D03*
X166116000Y-118321000D03*
%TD*%
D27*
%TO.C,REF\u002A\u002A*%
X201000000Y-121000000D03*
%TD*%
D25*
%TO.C,D1*%
X150876000Y-98490500D03*
X150876000Y-93490500D03*
%TD*%
D28*
%TO.C,U8*%
X193634000Y-122428000D03*
X193634000Y-121928000D03*
X193634000Y-121428000D03*
X193634000Y-120928000D03*
X193634000Y-120428000D03*
X189334000Y-120428000D03*
X189334000Y-120928000D03*
X189334000Y-121428000D03*
X189334000Y-121928000D03*
X189334000Y-122428000D03*
%TD*%
D27*
%TO.C,REF\u002A\u002A*%
X121000000Y-64000000D03*
%TD*%
D19*
%TO.C,C8*%
X153751677Y-111760000D03*
D20*
X148751677Y-111760000D03*
%TD*%
D29*
%TO.C,C15*%
X170180000Y-76178500D03*
X170180000Y-78253500D03*
%TD*%
D16*
%TO.C,R11*%
X174714500Y-116840000D03*
X176714500Y-116840000D03*
%TD*%
D30*
%TO.C,U7*%
X162495000Y-121793000D03*
X162495000Y-120523000D03*
X162495000Y-119253000D03*
X162495000Y-117983000D03*
X157545000Y-117983000D03*
X157545000Y-119253000D03*
X157545000Y-120523000D03*
X157545000Y-121793000D03*
%TD*%
D14*
%TO.C,C4*%
X197104000Y-113284000D03*
X195029000Y-113284000D03*
%TD*%
D12*
%TO.C,R7*%
X177746500Y-100584000D03*
X175746500Y-100584000D03*
%TD*%
D31*
%TO.C,U9*%
X121158000Y-70231000D03*
D32*
X121158000Y-72771000D03*
X121158000Y-75311000D03*
X121158000Y-77851000D03*
X121158000Y-80391000D03*
X121158000Y-82931000D03*
X121158000Y-85471000D03*
X121158000Y-88011000D03*
X121158000Y-90551000D03*
X121158000Y-93091000D03*
X121158000Y-95631000D03*
X121158000Y-98171000D03*
X121158000Y-100711000D03*
X121158000Y-103251000D03*
X121158000Y-105791000D03*
X121158000Y-108331000D03*
X121158000Y-110871000D03*
X121158000Y-113411000D03*
X144018000Y-113411000D03*
X144018000Y-110871000D03*
X144018000Y-108331000D03*
X144018000Y-105791000D03*
X144018000Y-103251000D03*
X144018000Y-100711000D03*
X144018000Y-98171000D03*
X144018000Y-95631000D03*
X144018000Y-93091000D03*
X144018000Y-90551000D03*
X144018000Y-88011000D03*
X144018000Y-85471000D03*
X144018000Y-82931000D03*
X144018000Y-80391000D03*
X144018000Y-77851000D03*
X144018000Y-75311000D03*
X144018000Y-72771000D03*
X144018000Y-70231000D03*
%TD*%
D16*
%TO.C,R9*%
X180318500Y-114300000D03*
X182318500Y-114300000D03*
%TD*%
D12*
%TO.C,R1*%
X182334500Y-108204000D03*
X180334500Y-108204000D03*
%TD*%
%TO.C,R14*%
X202168000Y-108204000D03*
X200168000Y-108204000D03*
%TD*%
D16*
%TO.C,R8*%
X180318500Y-116840000D03*
X182318500Y-116840000D03*
%TD*%
D18*
%TO.C,R18*%
X167132000Y-93974500D03*
X167132000Y-95974500D03*
%TD*%
D33*
%TO.C,U10*%
X186987500Y-106934000D03*
X186987500Y-108204000D03*
X186987500Y-109474000D03*
X186987500Y-110744000D03*
X186987500Y-112014000D03*
X186987500Y-113284000D03*
X186987500Y-114554000D03*
X191937500Y-114554000D03*
X191937500Y-113284000D03*
X191937500Y-112014000D03*
X191937500Y-110744000D03*
X191937500Y-109474000D03*
X191937500Y-108204000D03*
X191937500Y-106934000D03*
%TD*%
D26*
%TO.C,C10*%
X159490500Y-114808000D03*
X161565500Y-114808000D03*
%TD*%
D14*
%TO.C,C3*%
X202184000Y-115824000D03*
X200109000Y-115824000D03*
%TD*%
D19*
%TO.C,C16*%
X178816000Y-79583677D03*
D20*
X178816000Y-74583677D03*
%TD*%
D31*
%TO.C,U6*%
X155712000Y-97249000D03*
D32*
X155712000Y-99789000D03*
X155712000Y-102329000D03*
X155712000Y-104869000D03*
X163332000Y-104869000D03*
X163332000Y-102329000D03*
X163332000Y-99789000D03*
X163332000Y-97249000D03*
%TD*%
D34*
%TO.C,U1*%
X165013000Y-65089000D03*
X163743000Y-65089000D03*
X162473000Y-65089000D03*
X161203000Y-65089000D03*
X161203000Y-70039000D03*
X162473000Y-70039000D03*
X163743000Y-70039000D03*
X165013000Y-70039000D03*
%TD*%
D12*
%TO.C,R19*%
X160036000Y-109198500D03*
X158036000Y-109198500D03*
%TD*%
D27*
%TO.C,REF\u002A\u002A*%
X121000000Y-121000000D03*
%TD*%
D14*
%TO.C,C1*%
X182350500Y-105664000D03*
X180275500Y-105664000D03*
%TD*%
D17*
%TO.C,L2*%
X161266000Y-81788000D03*
X165966000Y-81788000D03*
%TD*%
D18*
%TO.C,R22*%
X168656000Y-65040000D03*
X168656000Y-67040000D03*
%TD*%
D35*
%TO.C,D2*%
X161076000Y-74676000D03*
X166076000Y-74676000D03*
%TD*%
M02*
