%TF.GenerationSoftware,KiCad,Pcbnew,7.0.2*%
%TF.CreationDate,2023-05-15T17:20:20+02:00*%
%TF.ProjectId,projektkicad,70726f6a-656b-4746-9b69-6361642e6b69,rev?*%
%TF.SameCoordinates,Original*%
%TF.FileFunction,Legend,Bot*%
%TF.FilePolarity,Positive*%
%FSLAX46Y46*%
G04 Gerber Fmt 4.6, Leading zero omitted, Abs format (unit mm)*
G04 Created by KiCad (PCBNEW 7.0.2) date 2023-05-15 17:20:20*
%MOMM*%
%LPD*%
G01*
G04 APERTURE LIST*
%ADD10C,0.150000*%
G04 APERTURE END LIST*
D10*
X123241619Y-66690857D02*
X124241619Y-66928952D01*
X124241619Y-66928952D02*
X123527333Y-67119428D01*
X123527333Y-67119428D02*
X124241619Y-67309904D01*
X124241619Y-67309904D02*
X123241619Y-67548000D01*
X124194000Y-68309904D02*
X124241619Y-68214666D01*
X124241619Y-68214666D02*
X124241619Y-68024190D01*
X124241619Y-68024190D02*
X124194000Y-67928952D01*
X124194000Y-67928952D02*
X124098761Y-67881333D01*
X124098761Y-67881333D02*
X123717809Y-67881333D01*
X123717809Y-67881333D02*
X123622571Y-67928952D01*
X123622571Y-67928952D02*
X123574952Y-68024190D01*
X123574952Y-68024190D02*
X123574952Y-68214666D01*
X123574952Y-68214666D02*
X123622571Y-68309904D01*
X123622571Y-68309904D02*
X123717809Y-68357523D01*
X123717809Y-68357523D02*
X123813047Y-68357523D01*
X123813047Y-68357523D02*
X123908285Y-67881333D01*
X124194000Y-68738476D02*
X124241619Y-68833714D01*
X124241619Y-68833714D02*
X124241619Y-69024190D01*
X124241619Y-69024190D02*
X124194000Y-69119428D01*
X124194000Y-69119428D02*
X124098761Y-69167047D01*
X124098761Y-69167047D02*
X124051142Y-69167047D01*
X124051142Y-69167047D02*
X123955904Y-69119428D01*
X123955904Y-69119428D02*
X123908285Y-69024190D01*
X123908285Y-69024190D02*
X123908285Y-68881333D01*
X123908285Y-68881333D02*
X123860666Y-68786095D01*
X123860666Y-68786095D02*
X123765428Y-68738476D01*
X123765428Y-68738476D02*
X123717809Y-68738476D01*
X123717809Y-68738476D02*
X123622571Y-68786095D01*
X123622571Y-68786095D02*
X123574952Y-68881333D01*
X123574952Y-68881333D02*
X123574952Y-69024190D01*
X123574952Y-69024190D02*
X123622571Y-69119428D01*
X123574952Y-69452762D02*
X123574952Y-69833714D01*
X123241619Y-69595619D02*
X124098761Y-69595619D01*
X124098761Y-69595619D02*
X124194000Y-69643238D01*
X124194000Y-69643238D02*
X124241619Y-69738476D01*
X124241619Y-69738476D02*
X124241619Y-69833714D01*
X124241619Y-70167048D02*
X123241619Y-70167048D01*
X123622571Y-70167048D02*
X123574952Y-70262286D01*
X123574952Y-70262286D02*
X123574952Y-70452762D01*
X123574952Y-70452762D02*
X123622571Y-70548000D01*
X123622571Y-70548000D02*
X123670190Y-70595619D01*
X123670190Y-70595619D02*
X123765428Y-70643238D01*
X123765428Y-70643238D02*
X124051142Y-70643238D01*
X124051142Y-70643238D02*
X124146380Y-70595619D01*
X124146380Y-70595619D02*
X124194000Y-70548000D01*
X124194000Y-70548000D02*
X124241619Y-70452762D01*
X124241619Y-70452762D02*
X124241619Y-70262286D01*
X124241619Y-70262286D02*
X124194000Y-70167048D01*
X124194000Y-71452762D02*
X124241619Y-71357524D01*
X124241619Y-71357524D02*
X124241619Y-71167048D01*
X124241619Y-71167048D02*
X124194000Y-71071810D01*
X124194000Y-71071810D02*
X124098761Y-71024191D01*
X124098761Y-71024191D02*
X123717809Y-71024191D01*
X123717809Y-71024191D02*
X123622571Y-71071810D01*
X123622571Y-71071810D02*
X123574952Y-71167048D01*
X123574952Y-71167048D02*
X123574952Y-71357524D01*
X123574952Y-71357524D02*
X123622571Y-71452762D01*
X123622571Y-71452762D02*
X123717809Y-71500381D01*
X123717809Y-71500381D02*
X123813047Y-71500381D01*
X123813047Y-71500381D02*
X123908285Y-71024191D01*
X124241619Y-71928953D02*
X123574952Y-71928953D01*
X123765428Y-71928953D02*
X123670190Y-71976572D01*
X123670190Y-71976572D02*
X123622571Y-72024191D01*
X123622571Y-72024191D02*
X123574952Y-72119429D01*
X123574952Y-72119429D02*
X123574952Y-72214667D01*
X123574952Y-72976572D02*
X124384476Y-72976572D01*
X124384476Y-72976572D02*
X124479714Y-72928953D01*
X124479714Y-72928953D02*
X124527333Y-72881334D01*
X124527333Y-72881334D02*
X124574952Y-72786096D01*
X124574952Y-72786096D02*
X124574952Y-72643239D01*
X124574952Y-72643239D02*
X124527333Y-72548001D01*
X124194000Y-72976572D02*
X124241619Y-72881334D01*
X124241619Y-72881334D02*
X124241619Y-72690858D01*
X124241619Y-72690858D02*
X124194000Y-72595620D01*
X124194000Y-72595620D02*
X124146380Y-72548001D01*
X124146380Y-72548001D02*
X124051142Y-72500382D01*
X124051142Y-72500382D02*
X123765428Y-72500382D01*
X123765428Y-72500382D02*
X123670190Y-72548001D01*
X123670190Y-72548001D02*
X123622571Y-72595620D01*
X123622571Y-72595620D02*
X123574952Y-72690858D01*
X123574952Y-72690858D02*
X123574952Y-72881334D01*
X123574952Y-72881334D02*
X123622571Y-72976572D01*
X124194000Y-73500382D02*
X124241619Y-73500382D01*
X124241619Y-73500382D02*
X124336857Y-73452763D01*
X124336857Y-73452763D02*
X124384476Y-73405144D01*
X123717809Y-74690858D02*
X123717809Y-75024191D01*
X124241619Y-75167048D02*
X124241619Y-74690858D01*
X124241619Y-74690858D02*
X123241619Y-74690858D01*
X123241619Y-74690858D02*
X123241619Y-75167048D01*
X124241619Y-75595620D02*
X123241619Y-75595620D01*
X123860666Y-75690858D02*
X124241619Y-75976572D01*
X123574952Y-75976572D02*
X123955904Y-75595620D01*
X124241619Y-76548001D02*
X124194000Y-76452763D01*
X124194000Y-76452763D02*
X124098761Y-76405144D01*
X124098761Y-76405144D02*
X123241619Y-76405144D01*
X123574952Y-77357525D02*
X124241619Y-77357525D01*
X123574952Y-76928954D02*
X124098761Y-76928954D01*
X124098761Y-76928954D02*
X124194000Y-76976573D01*
X124194000Y-76976573D02*
X124241619Y-77071811D01*
X124241619Y-77071811D02*
X124241619Y-77214668D01*
X124241619Y-77214668D02*
X124194000Y-77309906D01*
X124194000Y-77309906D02*
X124146380Y-77357525D01*
X123574952Y-77833716D02*
X124241619Y-77833716D01*
X123670190Y-77833716D02*
X123622571Y-77881335D01*
X123622571Y-77881335D02*
X123574952Y-77976573D01*
X123574952Y-77976573D02*
X123574952Y-78119430D01*
X123574952Y-78119430D02*
X123622571Y-78214668D01*
X123622571Y-78214668D02*
X123717809Y-78262287D01*
X123717809Y-78262287D02*
X124241619Y-78262287D01*
X124241619Y-79167049D02*
X123241619Y-79167049D01*
X124194000Y-79167049D02*
X124241619Y-79071811D01*
X124241619Y-79071811D02*
X124241619Y-78881335D01*
X124241619Y-78881335D02*
X124194000Y-78786097D01*
X124194000Y-78786097D02*
X124146380Y-78738478D01*
X124146380Y-78738478D02*
X124051142Y-78690859D01*
X124051142Y-78690859D02*
X123765428Y-78690859D01*
X123765428Y-78690859D02*
X123670190Y-78738478D01*
X123670190Y-78738478D02*
X123622571Y-78786097D01*
X123622571Y-78786097D02*
X123574952Y-78881335D01*
X123574952Y-78881335D02*
X123574952Y-79071811D01*
X123574952Y-79071811D02*
X123622571Y-79167049D01*
X123860666Y-80405145D02*
X123860666Y-81167050D01*
X124241619Y-82405145D02*
X123241619Y-82405145D01*
X123241619Y-82405145D02*
X123955904Y-82738478D01*
X123955904Y-82738478D02*
X123241619Y-83071811D01*
X123241619Y-83071811D02*
X124241619Y-83071811D01*
X124241619Y-83976573D02*
X123717809Y-83976573D01*
X123717809Y-83976573D02*
X123622571Y-83928954D01*
X123622571Y-83928954D02*
X123574952Y-83833716D01*
X123574952Y-83833716D02*
X123574952Y-83643240D01*
X123574952Y-83643240D02*
X123622571Y-83548002D01*
X124194000Y-83976573D02*
X124241619Y-83881335D01*
X124241619Y-83881335D02*
X124241619Y-83643240D01*
X124241619Y-83643240D02*
X124194000Y-83548002D01*
X124194000Y-83548002D02*
X124098761Y-83500383D01*
X124098761Y-83500383D02*
X124003523Y-83500383D01*
X124003523Y-83500383D02*
X123908285Y-83548002D01*
X123908285Y-83548002D02*
X123860666Y-83643240D01*
X123860666Y-83643240D02*
X123860666Y-83881335D01*
X123860666Y-83881335D02*
X123813047Y-83976573D01*
X123574952Y-84357526D02*
X124241619Y-84595621D01*
X123574952Y-84833716D02*
X124241619Y-84595621D01*
X124241619Y-84595621D02*
X124479714Y-84500383D01*
X124479714Y-84500383D02*
X124527333Y-84452764D01*
X124527333Y-84452764D02*
X124574952Y-84357526D01*
X123336857Y-85928955D02*
X123289238Y-85976574D01*
X123289238Y-85976574D02*
X123241619Y-86071812D01*
X123241619Y-86071812D02*
X123241619Y-86309907D01*
X123241619Y-86309907D02*
X123289238Y-86405145D01*
X123289238Y-86405145D02*
X123336857Y-86452764D01*
X123336857Y-86452764D02*
X123432095Y-86500383D01*
X123432095Y-86500383D02*
X123527333Y-86500383D01*
X123527333Y-86500383D02*
X123670190Y-86452764D01*
X123670190Y-86452764D02*
X124241619Y-85881336D01*
X124241619Y-85881336D02*
X124241619Y-86500383D01*
X123241619Y-87119431D02*
X123241619Y-87214669D01*
X123241619Y-87214669D02*
X123289238Y-87309907D01*
X123289238Y-87309907D02*
X123336857Y-87357526D01*
X123336857Y-87357526D02*
X123432095Y-87405145D01*
X123432095Y-87405145D02*
X123622571Y-87452764D01*
X123622571Y-87452764D02*
X123860666Y-87452764D01*
X123860666Y-87452764D02*
X124051142Y-87405145D01*
X124051142Y-87405145D02*
X124146380Y-87357526D01*
X124146380Y-87357526D02*
X124194000Y-87309907D01*
X124194000Y-87309907D02*
X124241619Y-87214669D01*
X124241619Y-87214669D02*
X124241619Y-87119431D01*
X124241619Y-87119431D02*
X124194000Y-87024193D01*
X124194000Y-87024193D02*
X124146380Y-86976574D01*
X124146380Y-86976574D02*
X124051142Y-86928955D01*
X124051142Y-86928955D02*
X123860666Y-86881336D01*
X123860666Y-86881336D02*
X123622571Y-86881336D01*
X123622571Y-86881336D02*
X123432095Y-86928955D01*
X123432095Y-86928955D02*
X123336857Y-86976574D01*
X123336857Y-86976574D02*
X123289238Y-87024193D01*
X123289238Y-87024193D02*
X123241619Y-87119431D01*
X123336857Y-87833717D02*
X123289238Y-87881336D01*
X123289238Y-87881336D02*
X123241619Y-87976574D01*
X123241619Y-87976574D02*
X123241619Y-88214669D01*
X123241619Y-88214669D02*
X123289238Y-88309907D01*
X123289238Y-88309907D02*
X123336857Y-88357526D01*
X123336857Y-88357526D02*
X123432095Y-88405145D01*
X123432095Y-88405145D02*
X123527333Y-88405145D01*
X123527333Y-88405145D02*
X123670190Y-88357526D01*
X123670190Y-88357526D02*
X124241619Y-87786098D01*
X124241619Y-87786098D02*
X124241619Y-88405145D01*
X123241619Y-88738479D02*
X123241619Y-89357526D01*
X123241619Y-89357526D02*
X123622571Y-89024193D01*
X123622571Y-89024193D02*
X123622571Y-89167050D01*
X123622571Y-89167050D02*
X123670190Y-89262288D01*
X123670190Y-89262288D02*
X123717809Y-89309907D01*
X123717809Y-89309907D02*
X123813047Y-89357526D01*
X123813047Y-89357526D02*
X124051142Y-89357526D01*
X124051142Y-89357526D02*
X124146380Y-89309907D01*
X124146380Y-89309907D02*
X124194000Y-89262288D01*
X124194000Y-89262288D02*
X124241619Y-89167050D01*
X124241619Y-89167050D02*
X124241619Y-88881336D01*
X124241619Y-88881336D02*
X124194000Y-88786098D01*
X124194000Y-88786098D02*
X124146380Y-88738479D01*
X125814000Y-66738476D02*
X125861619Y-66881333D01*
X125861619Y-66881333D02*
X125861619Y-67119428D01*
X125861619Y-67119428D02*
X125814000Y-67214666D01*
X125814000Y-67214666D02*
X125766380Y-67262285D01*
X125766380Y-67262285D02*
X125671142Y-67309904D01*
X125671142Y-67309904D02*
X125575904Y-67309904D01*
X125575904Y-67309904D02*
X125480666Y-67262285D01*
X125480666Y-67262285D02*
X125433047Y-67214666D01*
X125433047Y-67214666D02*
X125385428Y-67119428D01*
X125385428Y-67119428D02*
X125337809Y-66928952D01*
X125337809Y-66928952D02*
X125290190Y-66833714D01*
X125290190Y-66833714D02*
X125242571Y-66786095D01*
X125242571Y-66786095D02*
X125147333Y-66738476D01*
X125147333Y-66738476D02*
X125052095Y-66738476D01*
X125052095Y-66738476D02*
X124956857Y-66786095D01*
X124956857Y-66786095D02*
X124909238Y-66833714D01*
X124909238Y-66833714D02*
X124861619Y-66928952D01*
X124861619Y-66928952D02*
X124861619Y-67167047D01*
X124861619Y-67167047D02*
X124909238Y-67309904D01*
X125861619Y-67881333D02*
X125814000Y-67786095D01*
X125814000Y-67786095D02*
X125766380Y-67738476D01*
X125766380Y-67738476D02*
X125671142Y-67690857D01*
X125671142Y-67690857D02*
X125385428Y-67690857D01*
X125385428Y-67690857D02*
X125290190Y-67738476D01*
X125290190Y-67738476D02*
X125242571Y-67786095D01*
X125242571Y-67786095D02*
X125194952Y-67881333D01*
X125194952Y-67881333D02*
X125194952Y-68024190D01*
X125194952Y-68024190D02*
X125242571Y-68119428D01*
X125242571Y-68119428D02*
X125290190Y-68167047D01*
X125290190Y-68167047D02*
X125385428Y-68214666D01*
X125385428Y-68214666D02*
X125671142Y-68214666D01*
X125671142Y-68214666D02*
X125766380Y-68167047D01*
X125766380Y-68167047D02*
X125814000Y-68119428D01*
X125814000Y-68119428D02*
X125861619Y-68024190D01*
X125861619Y-68024190D02*
X125861619Y-67881333D01*
X125861619Y-68786095D02*
X125814000Y-68690857D01*
X125814000Y-68690857D02*
X125718761Y-68643238D01*
X125718761Y-68643238D02*
X124861619Y-68643238D01*
X125861619Y-69595619D02*
X125337809Y-69595619D01*
X125337809Y-69595619D02*
X125242571Y-69548000D01*
X125242571Y-69548000D02*
X125194952Y-69452762D01*
X125194952Y-69452762D02*
X125194952Y-69262286D01*
X125194952Y-69262286D02*
X125242571Y-69167048D01*
X125814000Y-69595619D02*
X125861619Y-69500381D01*
X125861619Y-69500381D02*
X125861619Y-69262286D01*
X125861619Y-69262286D02*
X125814000Y-69167048D01*
X125814000Y-69167048D02*
X125718761Y-69119429D01*
X125718761Y-69119429D02*
X125623523Y-69119429D01*
X125623523Y-69119429D02*
X125528285Y-69167048D01*
X125528285Y-69167048D02*
X125480666Y-69262286D01*
X125480666Y-69262286D02*
X125480666Y-69500381D01*
X125480666Y-69500381D02*
X125433047Y-69595619D01*
X125861619Y-70071810D02*
X125194952Y-70071810D01*
X125385428Y-70071810D02*
X125290190Y-70119429D01*
X125290190Y-70119429D02*
X125242571Y-70167048D01*
X125242571Y-70167048D02*
X125194952Y-70262286D01*
X125194952Y-70262286D02*
X125194952Y-70357524D01*
X125861619Y-71452763D02*
X125194952Y-71452763D01*
X125290190Y-71452763D02*
X125242571Y-71500382D01*
X125242571Y-71500382D02*
X125194952Y-71595620D01*
X125194952Y-71595620D02*
X125194952Y-71738477D01*
X125194952Y-71738477D02*
X125242571Y-71833715D01*
X125242571Y-71833715D02*
X125337809Y-71881334D01*
X125337809Y-71881334D02*
X125861619Y-71881334D01*
X125337809Y-71881334D02*
X125242571Y-71928953D01*
X125242571Y-71928953D02*
X125194952Y-72024191D01*
X125194952Y-72024191D02*
X125194952Y-72167048D01*
X125194952Y-72167048D02*
X125242571Y-72262287D01*
X125242571Y-72262287D02*
X125337809Y-72309906D01*
X125337809Y-72309906D02*
X125861619Y-72309906D01*
X125814000Y-73167048D02*
X125861619Y-73071810D01*
X125861619Y-73071810D02*
X125861619Y-72881334D01*
X125861619Y-72881334D02*
X125814000Y-72786096D01*
X125814000Y-72786096D02*
X125718761Y-72738477D01*
X125718761Y-72738477D02*
X125337809Y-72738477D01*
X125337809Y-72738477D02*
X125242571Y-72786096D01*
X125242571Y-72786096D02*
X125194952Y-72881334D01*
X125194952Y-72881334D02*
X125194952Y-73071810D01*
X125194952Y-73071810D02*
X125242571Y-73167048D01*
X125242571Y-73167048D02*
X125337809Y-73214667D01*
X125337809Y-73214667D02*
X125433047Y-73214667D01*
X125433047Y-73214667D02*
X125528285Y-72738477D01*
X125861619Y-74071810D02*
X125337809Y-74071810D01*
X125337809Y-74071810D02*
X125242571Y-74024191D01*
X125242571Y-74024191D02*
X125194952Y-73928953D01*
X125194952Y-73928953D02*
X125194952Y-73738477D01*
X125194952Y-73738477D02*
X125242571Y-73643239D01*
X125814000Y-74071810D02*
X125861619Y-73976572D01*
X125861619Y-73976572D02*
X125861619Y-73738477D01*
X125861619Y-73738477D02*
X125814000Y-73643239D01*
X125814000Y-73643239D02*
X125718761Y-73595620D01*
X125718761Y-73595620D02*
X125623523Y-73595620D01*
X125623523Y-73595620D02*
X125528285Y-73643239D01*
X125528285Y-73643239D02*
X125480666Y-73738477D01*
X125480666Y-73738477D02*
X125480666Y-73976572D01*
X125480666Y-73976572D02*
X125433047Y-74071810D01*
X125814000Y-74500382D02*
X125861619Y-74595620D01*
X125861619Y-74595620D02*
X125861619Y-74786096D01*
X125861619Y-74786096D02*
X125814000Y-74881334D01*
X125814000Y-74881334D02*
X125718761Y-74928953D01*
X125718761Y-74928953D02*
X125671142Y-74928953D01*
X125671142Y-74928953D02*
X125575904Y-74881334D01*
X125575904Y-74881334D02*
X125528285Y-74786096D01*
X125528285Y-74786096D02*
X125528285Y-74643239D01*
X125528285Y-74643239D02*
X125480666Y-74548001D01*
X125480666Y-74548001D02*
X125385428Y-74500382D01*
X125385428Y-74500382D02*
X125337809Y-74500382D01*
X125337809Y-74500382D02*
X125242571Y-74548001D01*
X125242571Y-74548001D02*
X125194952Y-74643239D01*
X125194952Y-74643239D02*
X125194952Y-74786096D01*
X125194952Y-74786096D02*
X125242571Y-74881334D01*
X125194952Y-75786096D02*
X125861619Y-75786096D01*
X125194952Y-75357525D02*
X125718761Y-75357525D01*
X125718761Y-75357525D02*
X125814000Y-75405144D01*
X125814000Y-75405144D02*
X125861619Y-75500382D01*
X125861619Y-75500382D02*
X125861619Y-75643239D01*
X125861619Y-75643239D02*
X125814000Y-75738477D01*
X125814000Y-75738477D02*
X125766380Y-75786096D01*
X125861619Y-76262287D02*
X125194952Y-76262287D01*
X125385428Y-76262287D02*
X125290190Y-76309906D01*
X125290190Y-76309906D02*
X125242571Y-76357525D01*
X125242571Y-76357525D02*
X125194952Y-76452763D01*
X125194952Y-76452763D02*
X125194952Y-76548001D01*
X125814000Y-77262287D02*
X125861619Y-77167049D01*
X125861619Y-77167049D02*
X125861619Y-76976573D01*
X125861619Y-76976573D02*
X125814000Y-76881335D01*
X125814000Y-76881335D02*
X125718761Y-76833716D01*
X125718761Y-76833716D02*
X125337809Y-76833716D01*
X125337809Y-76833716D02*
X125242571Y-76881335D01*
X125242571Y-76881335D02*
X125194952Y-76976573D01*
X125194952Y-76976573D02*
X125194952Y-77167049D01*
X125194952Y-77167049D02*
X125242571Y-77262287D01*
X125242571Y-77262287D02*
X125337809Y-77309906D01*
X125337809Y-77309906D02*
X125433047Y-77309906D01*
X125433047Y-77309906D02*
X125528285Y-76833716D01*
X125861619Y-77738478D02*
X125194952Y-77738478D01*
X125290190Y-77738478D02*
X125242571Y-77786097D01*
X125242571Y-77786097D02*
X125194952Y-77881335D01*
X125194952Y-77881335D02*
X125194952Y-78024192D01*
X125194952Y-78024192D02*
X125242571Y-78119430D01*
X125242571Y-78119430D02*
X125337809Y-78167049D01*
X125337809Y-78167049D02*
X125861619Y-78167049D01*
X125337809Y-78167049D02*
X125242571Y-78214668D01*
X125242571Y-78214668D02*
X125194952Y-78309906D01*
X125194952Y-78309906D02*
X125194952Y-78452763D01*
X125194952Y-78452763D02*
X125242571Y-78548002D01*
X125242571Y-78548002D02*
X125337809Y-78595621D01*
X125337809Y-78595621D02*
X125861619Y-78595621D01*
X125814000Y-79452763D02*
X125861619Y-79357525D01*
X125861619Y-79357525D02*
X125861619Y-79167049D01*
X125861619Y-79167049D02*
X125814000Y-79071811D01*
X125814000Y-79071811D02*
X125718761Y-79024192D01*
X125718761Y-79024192D02*
X125337809Y-79024192D01*
X125337809Y-79024192D02*
X125242571Y-79071811D01*
X125242571Y-79071811D02*
X125194952Y-79167049D01*
X125194952Y-79167049D02*
X125194952Y-79357525D01*
X125194952Y-79357525D02*
X125242571Y-79452763D01*
X125242571Y-79452763D02*
X125337809Y-79500382D01*
X125337809Y-79500382D02*
X125433047Y-79500382D01*
X125433047Y-79500382D02*
X125528285Y-79024192D01*
X125194952Y-79928954D02*
X125861619Y-79928954D01*
X125290190Y-79928954D02*
X125242571Y-79976573D01*
X125242571Y-79976573D02*
X125194952Y-80071811D01*
X125194952Y-80071811D02*
X125194952Y-80214668D01*
X125194952Y-80214668D02*
X125242571Y-80309906D01*
X125242571Y-80309906D02*
X125337809Y-80357525D01*
X125337809Y-80357525D02*
X125861619Y-80357525D01*
X125194952Y-80690859D02*
X125194952Y-81071811D01*
X124861619Y-80833716D02*
X125718761Y-80833716D01*
X125718761Y-80833716D02*
X125814000Y-80881335D01*
X125814000Y-80881335D02*
X125861619Y-80976573D01*
X125861619Y-80976573D02*
X125861619Y-81071811D01*
X125861619Y-82595621D02*
X124861619Y-82595621D01*
X125814000Y-82595621D02*
X125861619Y-82500383D01*
X125861619Y-82500383D02*
X125861619Y-82309907D01*
X125861619Y-82309907D02*
X125814000Y-82214669D01*
X125814000Y-82214669D02*
X125766380Y-82167050D01*
X125766380Y-82167050D02*
X125671142Y-82119431D01*
X125671142Y-82119431D02*
X125385428Y-82119431D01*
X125385428Y-82119431D02*
X125290190Y-82167050D01*
X125290190Y-82167050D02*
X125242571Y-82214669D01*
X125242571Y-82214669D02*
X125194952Y-82309907D01*
X125194952Y-82309907D02*
X125194952Y-82500383D01*
X125194952Y-82500383D02*
X125242571Y-82595621D01*
X125814000Y-83452764D02*
X125861619Y-83357526D01*
X125861619Y-83357526D02*
X125861619Y-83167050D01*
X125861619Y-83167050D02*
X125814000Y-83071812D01*
X125814000Y-83071812D02*
X125718761Y-83024193D01*
X125718761Y-83024193D02*
X125337809Y-83024193D01*
X125337809Y-83024193D02*
X125242571Y-83071812D01*
X125242571Y-83071812D02*
X125194952Y-83167050D01*
X125194952Y-83167050D02*
X125194952Y-83357526D01*
X125194952Y-83357526D02*
X125242571Y-83452764D01*
X125242571Y-83452764D02*
X125337809Y-83500383D01*
X125337809Y-83500383D02*
X125433047Y-83500383D01*
X125433047Y-83500383D02*
X125528285Y-83024193D01*
X125194952Y-83833717D02*
X125861619Y-84071812D01*
X125861619Y-84071812D02*
X125194952Y-84309907D01*
X125861619Y-84690860D02*
X125194952Y-84690860D01*
X124861619Y-84690860D02*
X124909238Y-84643241D01*
X124909238Y-84643241D02*
X124956857Y-84690860D01*
X124956857Y-84690860D02*
X124909238Y-84738479D01*
X124909238Y-84738479D02*
X124861619Y-84690860D01*
X124861619Y-84690860D02*
X124956857Y-84690860D01*
X125814000Y-85595621D02*
X125861619Y-85500383D01*
X125861619Y-85500383D02*
X125861619Y-85309907D01*
X125861619Y-85309907D02*
X125814000Y-85214669D01*
X125814000Y-85214669D02*
X125766380Y-85167050D01*
X125766380Y-85167050D02*
X125671142Y-85119431D01*
X125671142Y-85119431D02*
X125385428Y-85119431D01*
X125385428Y-85119431D02*
X125290190Y-85167050D01*
X125290190Y-85167050D02*
X125242571Y-85214669D01*
X125242571Y-85214669D02*
X125194952Y-85309907D01*
X125194952Y-85309907D02*
X125194952Y-85500383D01*
X125194952Y-85500383D02*
X125242571Y-85595621D01*
X125814000Y-86405145D02*
X125861619Y-86309907D01*
X125861619Y-86309907D02*
X125861619Y-86119431D01*
X125861619Y-86119431D02*
X125814000Y-86024193D01*
X125814000Y-86024193D02*
X125718761Y-85976574D01*
X125718761Y-85976574D02*
X125337809Y-85976574D01*
X125337809Y-85976574D02*
X125242571Y-86024193D01*
X125242571Y-86024193D02*
X125194952Y-86119431D01*
X125194952Y-86119431D02*
X125194952Y-86309907D01*
X125194952Y-86309907D02*
X125242571Y-86405145D01*
X125242571Y-86405145D02*
X125337809Y-86452764D01*
X125337809Y-86452764D02*
X125433047Y-86452764D01*
X125433047Y-86452764D02*
X125528285Y-85976574D01*
M02*
